<svg width="44" height="50" fill="none" xmlns="http://www.w3.org/2000/svg"><path fill-rule="evenodd" clip-rule="evenodd" d="M27.574 26.133l9.122 2.94a.804.804 0 01.457.374h.001l3.541 6.306-1.41.79-3.387-6.03-10.645-3.431.304-.949h-3.33v-1.62H38.11c.242 0 .46.107.608.276l3.504 3.433-1.132 1.151-3.307-3.24h-10.21zM14.848 15.357l-7.972-2.95a.805.805 0 01-.427-.363L2.908 5.737l1.41-.79 3.396 6.047 9.257 3.424-.345.94h4.75v1.619H5.493a.808.808 0 01-.608-.276L1.38 13.268l1.133-1.15 3.307 3.24h9.028zM1.946 21.555a.81.81 0 010-1.62h18.62a.81.81 0 010 1.62H1.946zm19.43 4.578h-3.33l.305.949-10.646 3.43-3.386 6.032-1.41-.79 3.54-6.308.001.001a.804.804 0 01.458-.374l9.122-2.94H5.82l-3.307 3.24-1.133-1.15 3.504-3.434a.808.808 0 01.608-.275h15.885v1.62zm5.256-11.715l9.257-3.424 3.395-6.047 1.411.79-3.541 6.307a.805.805 0 01-.427.364l-7.972 2.95h9.028l3.307-3.24 1.133 1.15-3.504 3.433a.808.808 0 01-.608.276H22.226v-1.62h4.75l-.343-.939zm15.025 5.518a.81.81 0 010 1.62h-18.62a.81.81 0 010-1.62h18.62z" fill="#9BA7AF"/><path fill-rule="evenodd" clip-rule="evenodd" d="M3.895 28.798a1.948 1.948 0 10-3.895 0 1.948 1.948 0 003.895 0zm0-8.053a1.948 1.948 0 11-3.895 0 1.948 1.948 0 013.895 0zm1.667 15.403a1.948 1.948 0 10-3.895 0 1.948 1.948 0 003.895 0zm0-30.806a1.947 1.947 0 11-3.895 0 1.947 1.947 0 013.895 0zm-1.667 7.35a1.948 1.948 0 11-3.895 0 1.948 1.948 0 013.895 0zM39.71 28.798a1.948 1.948 0 113.895 0 1.948 1.948 0 01-3.895 0zm0-8.053a1.948 1.948 0 103.895 0 1.948 1.948 0 00-3.895 0zm-1.667 15.403a1.947 1.947 0 113.895 0 1.947 1.947 0 01-3.895 0zm0-30.806a1.947 1.947 0 103.895 0 1.947 1.947 0 00-3.895 0zm1.667 7.35a1.947 1.947 0 103.895.001 1.947 1.947 0 00-3.895 0z" fill="#4294FF"/><path fill-rule="evenodd" clip-rule="evenodd" d="M14.258 14.958h3.552V7.473a3.937 3.937 0 013.921-3.921 3.937 3.937 0 013.921 3.921v7.485h3.553V7.473C29.205 3.36 25.845 0 21.73 0c-4.114 0-7.473 3.36-7.473 7.473v7.485z" fill="#242D3C"/><path fill-rule="evenodd" clip-rule="evenodd" d="M13.106 11.406h17.25a2.327 2.327 0 012.32 2.32v14.038a2.327 2.327 0 01-2.32 2.32h-17.25a2.327 2.327 0 01-2.32-2.32V13.727a2.327 2.327 0 012.32-2.32z" fill="#FFE600"/><path fill-rule="evenodd" clip-rule="evenodd" d="M23.04 21.673v2.149c0 .72-.589 1.308-1.308 1.308-.72 0-1.31-.589-1.31-1.308v-2.149a2.817 2.817 0 112.618 0z" fill="#242D3C"/><path fill-rule="evenodd" clip-rule="evenodd" d="M32.417 47.719c1.821-2.596 2.096-6.852 2.096-9.006v-2.48a1.832 1.832 0 00-1.827-1.828 1.833 1.833 0 00-1.827 1.827v-1.624a1.832 1.832 0 00-1.827-1.827 1.832 1.832 0 00-1.827 1.827v-1.676a1.833 1.833 0 00-1.827-1.828 1.833 1.833 0 00-1.827 1.828v-9.695a1.832 1.832 0 00-1.827-1.827 1.832 1.832 0 00-1.827 1.827v14.085l-3.27-4.173c-1.697-2.165-4.292-.693-3.165 1.827 3.095 6.92 5.705 8.8 6.145 12.743V50h12.81v-2.281z" fill="#FFD6BD"/><path fill-rule="evenodd" clip-rule="evenodd" d="M19.605 47.719h12.811V50h-12.81v-2.281z" fill="#4294FF"/></svg>