<?xml version="1.0" encoding="UTF-8"?>
<svg version="1.1" xmlns="http://www.w3.org/2000/svg" width="1024" height="1024">
<path d="M0 0 C2.73400004 -0.002639 5.46799221 -0.00826382 8.20198786 -0.01373065 C14.12976744 -0.02399057 20.05751439 -0.02688145 25.98530197 -0.02481842 C34.80090688 -0.02175792 43.61647591 -0.03011562 52.43207382 -0.04056767 C69.09746094 -0.05987554 85.76283572 -0.06553472 102.42823271 -0.06668179 C115.30380751 -0.0676022 128.17937749 -0.07172576 141.05495071 -0.07808304 C144.76625176 -0.07987824 148.47755281 -0.08165787 152.18885386 -0.08343279 C153.11160075 -0.08387489 154.03434764 -0.08431699 154.98505655 -0.08477248 C180.92924305 -0.09707542 206.87342788 -0.10497418 232.81761742 -0.10408592 C233.79511593 -0.10405476 234.77261444 -0.10402361 235.77973412 -0.10399151 C240.73366138 -0.1038253 245.68758864 -0.10362722 250.6415159 -0.10342209 C251.6253128 -0.1033822 252.60910971 -0.10334231 253.62271865 -0.10330121 C255.61219571 -0.10322034 257.60167278 -0.10313674 259.59114985 -0.10305043 C290.52844692 -0.10182554 321.46570011 -0.11682888 352.40298462 -0.14419556 C387.19411554 -0.17495891 421.98521764 -0.19212546 456.77636302 -0.19026911 C460.49080761 -0.19011986 464.20525221 -0.19002244 467.91969681 -0.18996048 C469.29149007 -0.18992552 469.29149007 -0.18992552 470.69099632 -0.18988985 C485.3682461 -0.18982846 500.04545761 -0.20256613 514.72269603 -0.21982501 C529.49125025 -0.23683126 544.25974885 -0.23871645 559.02830748 -0.22560637 C567.78591009 -0.2182501 576.54334301 -0.2217749 585.30092741 -0.24149105 C591.16987765 -0.25357988 597.03870633 -0.25080234 602.90765122 -0.23655005 C606.23912509 -0.22886096 609.57001068 -0.22929279 612.90150099 -0.24346475 C669.92817325 -0.4697885 720.67333722 20.13722729 761.34390259 60.14242554 C767.89770842 66.73248531 773.70323772 73.74869956 779.15640259 81.26742554 C779.56809692 81.82945679 779.97979126 82.39148804 780.40396118 82.97055054 C807.28415769 120.10248139 817.48244259 161.96357011 817.42382812 207.11102295 C817.42646712 209.84502299 817.43209195 212.57901516 817.43755877 215.31301081 C817.44781869 221.24079039 817.45070957 227.16853734 817.44864655 233.09632492 C817.44558605 241.91192983 817.45394375 250.72749886 817.4643958 259.54309677 C817.48370366 276.20848389 817.48936284 292.87385867 817.49050991 309.53925566 C817.49143032 322.41483046 817.49555389 335.29040044 817.50191116 348.16597366 C817.50370636 351.87727471 817.50548599 355.58857576 817.50726092 359.29987681 C817.50770301 360.2226237 817.50814511 361.14537059 817.5086006 362.0960795 C817.52090354 388.040266 817.5288023 413.98445082 817.52791405 439.92864037 C817.52788289 440.90613888 817.52785173 441.88363739 817.52781963 442.89075707 C817.52765343 447.84468433 817.52745534 452.79861159 817.52725022 457.75253884 C817.52719038 459.22823421 817.52719038 459.22823421 817.52712934 460.73374159 C817.52704846 462.72321866 817.52696486 464.71269573 817.52687855 466.7021728 C817.52565367 497.63946987 817.54065701 528.57672306 817.56802368 559.51400757 C817.59878703 594.30513849 817.61595358 629.09624059 817.61409724 663.88738596 C817.61394799 667.60183056 817.61385057 671.31627516 817.6137886 675.03071976 C817.61375364 676.40251301 817.61375364 676.40251301 817.61371797 677.80201927 C817.61365659 692.47926905 817.62639425 707.15648055 817.64365313 721.83371898 C817.66065938 736.6022732 817.66254458 751.3707718 817.64943449 766.13933043 C817.64207823 774.89693304 817.64560302 783.65436596 817.66531917 792.41195036 C817.67740801 798.2809006 817.67463047 804.14972927 817.66037818 810.01867417 C817.65268908 813.35014804 817.65312091 816.68103362 817.66729288 820.01252393 C817.89361662 877.0391962 797.28660083 927.78436017 757.28140259 968.45492554 C750.69134282 975.00873137 743.67512857 980.81426067 736.15640259 986.26742554 C735.59437134 986.67911987 735.03234009 987.09081421 734.45327759 987.51498413 C697.32134673 1014.39518064 655.46025801 1024.59346554 610.31280518 1024.53485107 C607.57880514 1024.53749007 604.84481297 1024.5431149 602.11081731 1024.54858172 C596.18303774 1024.55884164 590.25529079 1024.56173252 584.3275032 1024.55966949 C575.51189829 1024.55660899 566.69632927 1024.5649667 557.88073135 1024.57541875 C541.21534423 1024.59472661 524.54996945 1024.60038579 507.88457246 1024.60153286 C495.00899767 1024.60245327 482.13342769 1024.60657684 469.25785446 1024.61293411 C465.54655342 1024.61472931 461.83525237 1024.61650894 458.12395132 1024.61828387 C457.20120443 1024.61872596 456.27845754 1024.61916806 455.32774862 1024.61962355 C429.38356213 1024.63192649 403.4393773 1024.63982525 377.49518776 1024.638937 C376.51768925 1024.63890584 375.54019074 1024.63887468 374.53307106 1024.63884258 C369.5791438 1024.63867637 364.62521654 1024.63847829 359.67128928 1024.63827316 C358.68749237 1024.63823327 357.70369547 1024.63819338 356.69008653 1024.63815228 C354.70060946 1024.63807141 352.71113239 1024.63798781 350.72165532 1024.6379015 C319.78435826 1024.63667662 288.84710507 1024.65167996 257.90982056 1024.67904663 C223.11868963 1024.70980998 188.32758754 1024.72697653 153.53644216 1024.72512019 C149.82199756 1024.72497094 146.10755297 1024.72487352 142.39310837 1024.72481155 C141.02131511 1024.72477659 141.02131511 1024.72477659 139.62180886 1024.72474092 C124.94455907 1024.72467954 110.26734757 1024.7374172 95.59010915 1024.75467608 C80.82155492 1024.77168233 66.05305632 1024.77356752 51.28449769 1024.76045744 C42.52689509 1024.75310117 33.76946217 1024.75662597 25.01187776 1024.77634212 C19.14292753 1024.78843096 13.27409885 1024.78565342 7.40515396 1024.77140112 C4.07368009 1024.76371203 0.7427945 1024.76414386 -2.58869581 1024.77831583 C-59.61536808 1025.00463957 -110.36053205 1004.39762378 -151.03109741 964.39242554 C-157.58490324 957.80236577 -163.39043254 950.78615152 -168.84359741 943.26742554 C-169.25529175 942.70539429 -169.66698608 942.14336304 -170.09115601 941.56430054 C-196.97135251 904.43236968 -207.16963742 862.57128096 -207.11102295 817.42382812 C-207.11366195 814.68982808 -207.11928677 811.95583592 -207.12475359 809.22184026 C-207.13501352 803.29406068 -207.1379044 797.36631374 -207.13584137 791.43852615 C-207.13278087 782.62292124 -207.14113857 773.80735222 -207.15159062 764.9917543 C-207.17089849 748.32636718 -207.17655767 731.6609924 -207.17770474 714.99559541 C-207.17862515 702.12002062 -207.18274871 689.24445064 -207.18910599 676.36887741 C-207.19090119 672.65757637 -207.19268082 668.94627532 -207.19445574 665.23497427 C-207.19489784 664.31222738 -207.19533994 663.38948049 -207.19579543 662.43877157 C-207.20809837 636.49458508 -207.21599713 610.55040025 -207.21510887 584.60621071 C-207.21507771 583.6287122 -207.21504656 582.65121369 -207.21501445 581.64409401 C-207.21484825 576.69016675 -207.21465017 571.73623949 -207.21444504 566.78231223 C-207.21440515 565.79851532 -207.21436526 564.81471841 -207.21432416 563.80110948 C-207.21424328 561.81163241 -207.21415969 559.82215534 -207.21407338 557.83267827 C-207.21284849 526.89538121 -207.22785183 495.95812802 -207.25521851 465.02084351 C-207.28598185 430.22971258 -207.3031484 395.43861049 -207.30129206 360.64746511 C-207.30114281 356.93302051 -207.30104539 353.21857592 -207.30098343 349.50413132 C-207.30096012 348.58960248 -207.30093681 347.67507364 -207.3009128 346.73283181 C-207.30085141 332.05558202 -207.31358908 317.37837052 -207.33084796 302.70113209 C-207.34785421 287.93257787 -207.3497394 273.16407927 -207.33662932 258.39552064 C-207.32927305 249.63791804 -207.33279785 240.88048512 -207.352514 232.12290071 C-207.36460283 226.25395047 -207.36182529 220.3851218 -207.347573 214.51617691 C-207.33988391 211.18470304 -207.34031574 207.85381745 -207.3544877 204.52232714 C-207.58081145 147.49565487 -186.97379565 96.7504909 -146.96859741 56.07992554 C-140.37853764 49.52611971 -133.36232339 43.72059041 -125.84359741 38.26742554 C-125.28156616 37.8557312 -124.71953491 37.44403687 -124.14047241 37.01986694 C-87.00854156 10.13967044 -45.14745284 -0.05861447 0 0 Z " fill="#0A0A0A" transform="translate(206.84359741210938,-0.267425537109375)"/>
<path d="M0 0 C58.08 0 116.16 0 176 0 C178.97 8.25 181.94 16.5 185 25 C188.32029321 33.84232655 188.32029321 33.84232655 191.6640625 42.67578125 C193.5828487 47.79738556 195.38624439 52.9547472 197.1796875 58.12109375 C201.03528063 69.20876526 205.10981002 80.21233953 209.19122314 91.21847534 C217.52665885 113.71031313 225.74228831 136.24421099 233.86117554 158.81507874 C234.62075892 160.9257154 235.38140273 163.0359671 236.14233398 165.14611816 C237.34507554 168.48211478 238.54491149 171.81914241 239.74245834 175.15700722 C240.38996543 176.96023632 241.0398018 178.7626285 241.68972778 180.56498718 C242.27957962 182.21299065 242.27957962 182.21299065 242.88134766 183.89428711 C243.38923325 185.30852211 243.38923325 185.30852211 243.90737915 186.75132751 C245.38082931 191.13231383 246.67184038 195.57280128 248 200 C168.8 200.495 168.8 200.495 88 201 C80.23421808 221.93839606 80.23421808 221.93839606 72.76513672 242.96484375 C69.68653476 251.7951024 66.44625495 260.56774603 63.22094727 269.34521484 C62.0640047 272.49590228 60.91179564 275.64829479 59.75976562 278.80078125 C55.88823735 289.36319491 51.89999079 299.8597156 47.68022156 310.28799438 C45.20684956 316.42024454 42.96385655 322.60078286 40.875 328.875 C37.08563054 340.02251782 33.07995243 351.08115682 29 362.125 C28.69720123 362.9449646 28.39440247 363.7649292 28.08242798 364.60974121 C24.08800513 375.41904322 20.04864412 386.21090956 15.98046875 396.99267578 C13.43270703 403.77273905 11.02112949 410.59317893 8.65795898 417.43945312 C6.08955322 424.84116496 3.31695932 432.16016291 0.54083252 439.48596191 C-2.16708567 446.67729621 -4.72532632 453.90893268 -7.2109375 461.1796875 C-11.3536052 473.2168892 -15.65388755 485.19122774 -20.02444458 497.14730835 C-22.20156681 503.10315448 -24.3716309 509.06157443 -26.54296875 515.01953125 C-26.99232285 516.25190018 -27.44167694 517.4842691 -27.90464783 518.75398254 C-31.04799521 527.37748554 -34.17872602 536.0054856 -37.30078125 544.63671875 C-37.74209381 545.85670563 -38.18340637 547.0766925 -38.63809204 548.33364868 C-40.33739237 553.03222287 -42.03637543 557.73091082 -43.73376465 562.43017578 C-53.08338531 588.31345295 -62.55514444 614.15092161 -72 640 C-124.8 640 -177.6 640 -232 640 C-228.62963827 628.76546091 -228.62963827 628.76546091 -226.984375 624.4765625 C-226.62408203 623.52910156 -226.26378906 622.58164062 -225.89257812 621.60546875 C-225.51552734 620.62191406 -225.13847656 619.63835938 -224.75 618.625 C-221.90040287 611.11536477 -219.11727078 603.59379332 -216.5 596 C-213.59499909 587.58229268 -210.4856772 579.25071689 -207.3359375 570.921875 C-204.66616689 563.83881011 -202.12884936 556.71997197 -199.65966797 549.56494141 C-197.42464051 543.12535631 -195.04161922 536.74838773 -192.625 530.375 C-189.59741123 522.37510319 -186.70190896 514.34447003 -183.9375 506.25 C-177.55076952 487.58042557 -170.7058555 469.07322538 -163.92950439 450.54248047 C-163.06804377 448.18612064 -162.20738886 445.8294689 -161.34716797 443.47265625 C-156.34160423 429.75936881 -151.28401657 416.06782856 -146.13110352 402.40917969 C-143.53512544 395.49982125 -141.07152244 388.55228057 -138.66308594 381.57568359 C-136.02407032 373.97222815 -133.18268743 366.44952247 -130.3359375 358.921875 C-127.9693042 352.64305196 -125.68925971 346.34271506 -123.5 340 C-120.59458074 331.58243018 -117.48568247 323.25073083 -114.3359375 314.921875 C-111.9693042 308.64305196 -109.68925971 302.34271506 -107.5 296 C-104.59458074 287.58243018 -101.48568247 279.25073083 -98.3359375 270.921875 C-95.9693042 264.64305196 -93.68925971 258.34271506 -91.5 252 C-88.63521303 243.70014989 -85.59084235 235.47620248 -82.45898438 227.2734375 C-79.80223582 220.27421124 -77.31461399 213.22290817 -74.85253906 206.15361023 C-71.14228507 195.51338193 -67.32100885 184.91335389 -63.5 174.3125 C-63.11248566 173.23671692 -62.72497131 172.16093384 -62.32571411 171.05255127 C-52.67429209 144.26427685 -42.99225921 117.4853615 -32.92749023 90.84912109 C-30.39644019 84.12668123 -28.00612876 77.36259498 -25.66210938 70.57299805 C-23.38319975 64.00672598 -20.95842733 57.5009567 -18.5 51 C-15.43409445 42.8911639 -12.45565262 34.76211314 -9.64648438 26.56054688 C-6.57933075 17.64738243 -3.26220149 8.8545469 0 0 Z " fill="#FEFEFE" transform="translate(424,192)"/>
<path d="M0 0 C43.89 0 87.78 0 133 0 C135.5607012 5.7615777 137.99897212 11.43278317 140.1796875 17.328125 C140.61380196 18.49066803 140.61380196 18.49066803 141.0566864 19.67669678 C141.67670194 21.33788877 142.29548193 22.99954237 142.91311646 24.66162109 C144.56806962 29.11501452 146.23210297 33.56501789 147.89453125 38.015625 C148.23441574 38.92638794 148.57430023 39.83715088 148.92448425 40.7755127 C152.44129038 50.19474286 155.99851133 59.59854062 159.5625 69 C161.71033645 74.66591031 163.85733151 80.33213292 166 86 C166.4532666 87.19898926 166.9065332 88.39797852 167.37353516 89.63330078 C170.5661589 98.11290046 173.7029306 106.61251561 176.828125 115.1171875 C177.26559555 116.30749573 177.7030661 117.49780396 178.15379333 118.72418213 C179.97133723 123.67052429 181.78863829 128.6169527 183.60302734 133.56445312 C189.21081141 148.8521227 194.92332475 164.09217672 200.79296875 179.28125 C207.62325806 196.95660078 214.07894004 214.77448428 220.60302734 232.56445312 C226.21105099 247.85277584 231.92384731 263.09346543 237.79370117 278.28320312 C244.70116468 296.15830748 251.22852554 314.17800955 257.8293457 332.16796875 C259.19565052 335.89127955 260.56410462 339.61379658 261.93359375 343.3359375 C262.37093842 344.52475525 262.80828308 345.713573 263.25888062 346.93841553 C266.09600064 354.62345276 269.00159814 362.27758043 272.04893494 369.88192749 C274 374.79343811 274 374.79343811 274 377 C225.82 377 177.64 377 128 377 C125.42021591 370.55053978 122.97710211 364.20224723 120.8203125 357.62109375 C120.53185455 356.75011047 120.24339661 355.8791272 119.94619751 354.98175049 C119.32711105 353.11205286 118.70929549 351.241934 118.09265137 349.37142944 C116.41050481 344.27114283 114.71686957 339.17467357 113.0234375 334.078125 C112.67921753 333.04173386 112.33499756 332.00534271 111.98034668 330.93754578 C109.20874183 322.60319377 106.38707954 314.28691934 103.53637695 305.9793396 C96.7929935 286.32622901 90.11269109 266.65151997 83.45106506 246.97056866 C81.88276997 242.33735615 80.31291474 237.70468671 78.73913574 233.07333374 C77.24123005 228.66500019 75.74771804 224.25520218 74.25748062 219.84427071 C73.69793707 218.19054907 73.13682288 216.537358 72.57409286 214.88471794 C71.79728424 212.60244656 71.02612243 210.31834305 70.25634766 208.03369141 C69.91058748 207.02426247 69.91058748 207.02426247 69.55784225 205.99444103 C68.61815474 203.18828862 68 200.98394452 68 198 C67.34 198 66.68 198 66 198 C65.83564453 198.71905518 65.67128906 199.43811035 65.50195312 200.17895508 C63.66437404 207.89965067 61.24917799 215.2489295 58.5 222.6875 C57.5959666 225.17475598 56.69403276 227.66261437 55.796875 230.15234375 C55.56550842 230.79414581 55.33414185 231.43594788 55.09576416 232.09719849 C52.52235819 239.27340718 50.13545438 246.50964045 47.75 253.75 C43.63775082 266.21650839 39.36150753 278.61858416 35 291 C30.66839535 303.30061366 26.40969307 315.61922968 22.3125 328 C18.79426576 338.62711308 15.24451242 349.242098 11.61703491 359.83251953 C11.12559034 361.26802682 10.63519907 362.70389517 10.14590454 364.14013672 C9.47265234 366.11529649 8.79554734 368.08908955 8.1171875 370.0625 C7.53880127 371.75052734 7.53880127 371.75052734 6.94873047 373.47265625 C6 376 6 376 5 377 C3.10171764 377.0965683 1.19979337 377.12187216 -0.70094299 377.12025452 C-1.9391983 377.12162918 -3.17745361 377.12300385 -4.45323181 377.12442017 C-5.83804345 377.12088056 -7.22285485 377.11724574 -8.60766602 377.11352539 C-10.05607094 377.11324352 -11.50447601 377.11340124 -12.95288086 377.1139679 C-16.89692314 377.11425589 -20.84093527 377.1083588 -24.78497052 377.10139394 C-28.90229469 377.09516078 -33.01961948 377.09455663 -37.13694763 377.09336853 C-44.93905862 377.0902551 -52.74115567 377.08204156 -60.54326051 377.07201904 C-69.42340304 377.06085826 -78.30354622 377.05534754 -87.18369401 377.05032361 C-105.45580392 377.03985896 -123.72790084 377.02225929 -142 377 C-141.06366628 374.16407416 -140.12510754 371.32891619 -139.18530273 368.49414062 C-138.79330814 367.30573578 -138.79330814 367.30573578 -138.39339447 366.09332275 C-135.86083523 358.46475867 -133.00520095 350.97836533 -130.0625 343.5 C-129.53391189 342.14657107 -129.00576019 340.79297163 -128.47802734 339.43920898 C-127.44979033 336.80343059 -126.41933884 334.16854083 -125.38623047 331.53466797 C-123.62603591 327.04645083 -121.87370556 322.55520384 -120.125 318.0625 C-119.71713257 317.01533813 -119.71713257 317.01533813 -119.30102539 315.94702148 C-115.64695384 306.54585679 -112.13227538 297.0929359 -108.65794373 287.62405396 C-104.48722265 276.26462234 -100.22159195 264.94206858 -95.9375 253.625 C-95.1889773 251.6458594 -94.44052478 249.66669226 -93.69213867 247.6875 C-91.81473659 242.72307118 -89.93640273 237.75899554 -88.05773926 232.79504395 C-86.46250479 228.57968518 -84.8679948 224.36405245 -83.2734375 220.1484375 C-79.56892562 210.35531812 -75.86258566 200.56289086 -72.15612793 190.77050781 C-70.16643176 185.51372997 -68.17687001 180.25690128 -66.1875 175 C-65.90331207 174.24904053 -65.61912415 173.49808105 -65.32632446 172.72436523 C-60.37934611 159.65141585 -55.43891708 146.57599674 -50.5 133.5 C-43.57389436 115.16283556 -36.6403611 96.82849543 -29.70166016 78.49609375 C-27.45913744 72.57112117 -25.21723848 66.6459126 -22.9753418 60.72070312 C-15.31707862 40.4803991 -7.65846458 20.24022781 0 0 Z " fill="#FEFEFE" transform="translate(558,455)"/>
</svg>
