<svg width="40" height="41" fill="none" xmlns="http://www.w3.org/2000/svg"><path d="M32.188 2.375H7.811A6.562 6.562 0 001.25 8.938v23.124a6.562 6.562 0 006.563 6.563h24.375a6.562 6.562 0 006.562-6.563V8.939a6.562 6.562 0 00-6.563-6.563z" fill="#470137"/><path d="M20.527 12.631l-4.612 7.925 4.97 8.438c.102.172.058.256-.128.256h-3.1a.385.385 0 01-.381-.205l-3.499-6.417h-.026l-3.406 6.417a.376.376 0 01-.332.205H7.032c-.17 0-.203-.084-.102-.256l4.888-8.206-4.656-8.208c-.102-.136-.067-.205.101-.205h3.107a.351.351 0 01.33.18l3.282 6.34h.025l3.264-6.34a.35.35 0 01.33-.18h2.825c.187 0 .22.086.101.256zm7.578 16.932c-1.813 0-3.208-.515-4.29-1.541-1.084-1.027-1.628-2.544-1.628-4.553 0-1.826.583-3.326 1.747-4.5a6.25 6.25 0 014.607-1.907c.383-.006.767.035 1.14.122v-5.287a.128.128 0 01.036-.11.13.13 0 01.11-.037h2.856c.08 0 .12.048.12.147v14.805c0 .625.27 1.157.313 1.614a.197.197 0 01-.122.22c-1.402.684-3.24 1.026-4.89 1.026zm1.582-2.42v-7.559c-.101-.178-.639-.334-1.189-.334a3.06 3.06 0 00-2.404 1.07A4.569 4.569 0 0025 23.352c0 1.368.469 2.306 1.08 2.957a3.11 3.11 0 002.315 1.066c.583 0 1.153-.087 1.293-.233z" fill="#FF61F6"/></svg>