<svg width="48" height="48" fill="none" xmlns="http://www.w3.org/2000/svg"><g clip-path="url(#clip0_2_3578)"><path d="M28.801 17.723v6.646h-6.646v-6.646h6.646z" fill="#7FEBA1"/><path d="M37.45 41.124c-5.688 4.165-15.21 3.589-18.38 3.256l-.552 2.87h19.567l-.21-1.087a24.26 24.26 0 01-.424-5.039z" fill="#FFFFFF"/><path d="M41.115 28.927a3.787 3.787 0 00-2.907-.368l-2.301-4.171A.75.75 0 0035.25 24h-3v-2.25h1.5a.75.75 0 100-1.5h-1.5v-1.5h2.25a.75.75 0 00.75-.75v-1.541c.124.02.25.034.375.041a3.368 3.368 0 002.151-5.966l3.48-3.479a.75.75 0 00-1.06-1.06l-3.843 3.842a3.325 3.325 0 00-.728-.087 3.375 3.375 0 00-1.875 6.18v1.32h-1.5A3 3 0 0030 14.357v-2.1l3.393-4.364a3.365 3.365 0 003.895-5.372 3.329 3.329 0 00-1.867-.975 1.082 1.082 0 00-.099-.02 3.33 3.33 0 00-.447-.026 3.37 3.37 0 00-2.652 5.456l-3.565 4.583A.75.75 0 0028.5 12v2.25h-2.25v-3.075a3.75 3.75 0 000-7.35V.75a.74.74 0 00-.75-.738.759.759 0 00-.75.76v3.053a3.75 3.75 0 000 7.35v3.075H22.5v-1.5a.75.75 0 00-.09-.356l-3.165-5.876a3.344 3.344 0 001.005-2.393A3.382 3.382 0 0017.09.757a3.357 3.357 0 00-3.39 2.267C9.127 6.128 8.865 10.95 8.683 14.491c0 1.103-.133 2.201-.393 3.273-.718 2.159-3.46 5.722-4.606 7.154A3.132 3.132 0 006.128 30H8.22c-.025 1.744.158 5.865 2.274 8.15a4.918 4.918 0 003.756 1.6 34 34 0 005.056-.563l-1.525 7.921a.75.75 0 00.737.892h19.567a.748.748 0 00.737-.892l-.21-1.087a23.324 23.324 0 01.306-10.133c.1.008.2.022.3.022a3.75 3.75 0 001.897-6.983zm-5.49-17.677c.226-.002.45.04.66.124h.004l.014.006a1.875 1.875 0 01-.678 3.62 1.875 1.875 0 010-3.75zM34.875 3c.059 0 .115 0 .17.008.03.007.06.012.09.016.41.053.789.244 1.075.542l.006.005c.343.347.535.816.534 1.304a1.875 1.875 0 01-1.875 1.875A1.883 1.883 0 0133 4.875 1.875 1.875 0 0134.875 3zM23.25 7.5a2.25 2.25 0 114.5 0 2.25 2.25 0 01-4.5 0zm7.5 9.75v7.5a1.5 1.5 0 01-1.5 1.5h-7.5a1.5 1.5 0 01-1.5-1.5v-7.5a1.5 1.5 0 011.5-1.5h7.5a1.5 1.5 0 011.5 1.5zm-13.875-15c.31 0 .613.077.884.225a1.871 1.871 0 01.115 3.233 1.8 1.8 0 01-.999.292A1.875 1.875 0 0115 4.125c.002-.152.022-.303.062-.45a1.857 1.857 0 011.813-1.425zm2.55 44.25l1.561-8.108a.75.75 0 00-.886-.877 39.99 39.99 0 01-5.85.735 3.429 3.429 0 01-2.655-1.117c-2.23-2.408-1.85-7.772-1.845-7.826A.75.75 0 009 28.5H6.128a1.63 1.63 0 01-1.275-2.644C6.339 24 8.947 20.54 9.71 18.237c.311-1.198.469-2.431.468-3.669.16-3.115.367-6.912 3.443-9.594a3.345 3.345 0 004.35 2.339L21 12.939v1.418a3 3 0 00-2.25 2.893h-3a.75.75 0 000 1.5h3v1.5h-4.5a.75.75 0 000 1.5h4.5v1.5h-3a.75.75 0 000 1.5h3a3 3 0 003 3V30a.75.75 0 101.5 0v-2.25h1.5v3.75a.75.75 0 101.5 0v-3.75h1.5V30a.75.75 0 101.5 0v-2.25a3 3 0 002.894-2.25h2.664l2.064 3.742a3.727 3.727 0 00-1.404 2.918 3.769 3.769 0 002.01 3.31 24.827 24.827 0 00-.34 10.834l.038.196h-17.75zm19.793-12.09c-.218 0-.434-.032-.641-.097a2.25 2.25 0 01-.381-4.16 2.304 2.304 0 011.022-.243 2.25 2.25 0 010 4.5z" fill="#FFFFFF"/><circle cx="39.139" cy="32.492" r="4.431" fill="#7FEBA1"/></g></svg>
