<svg xmlns="http://www.w3.org/2000/svg" viewBox="0 0 512 512" id="AiIdea">
  <path d="M336,160a8,8,0,0,0,0-16H320V128h8a8,8,0,0,0,0-16h-8a8,8,0,0,0-8-8V96a8,8,0,0,0-16,0v8H280V88a8,8,0,0,0-16,0v16H248V88a8,8,0,0,0-16,0v16H216V96a8,8,0,0,0-16,0v8a8,8,0,0,0-8,8h-7a8,8,0,0,0,0,16h7v16H176a8,8,0,0,0,0,16h16v16H176a8,8,0,0,0,0,16h16v16h-8a8,8,0,0,0,0,16h8a8,8,0,0,0,8,8v8a8,8,0,0,0,16,0v-8h16v16a8,8,0,0,0,16,0V232h16v16a8,8,0,0,0,16,0V232h16v8a8,8,0,0,0,16,0v-8a8,8,0,0,0,8-8h7a8,8,0,0,0,0-16h-7V192h16a8,8,0,0,0,0-16H320V160ZM208,216V120h96v96Z" fill="#ffffff" class="color000000 svgShape"></path>
  <path d="M288 128H224a8 8 0 00-8 8v64a8 8 0 008 8h64a8 8 0 008-8V136A8 8 0 00288 128zm-8 64H232V144h48zM54.624 160a24 24 0 100 16H120V160zM32 176a8 8 0 118-8A8.009 8.009 0 0132 176zM480 144a24.039 24.039 0 00-22.624 16H392v16h65.376A24 24 0 10480 144zm0 32a8 8 0 118-8A8.009 8.009 0 01480 176z" fill="#ffffff" class="color000000 svgShape"></path>
  <path d="M448,240a24.031,24.031,0,0,0-22.62,16H416V232a8,8,0,0,0-8-8H379.96a136.1,136.1,0,0,0-.03-112H408a8,8,0,0,0,8-8V80h9.38a24,24,0,1,0,0-16H408a8,8,0,0,0-8,8V96H371.33a135.914,135.914,0,0,0-230.66,0H112V72a8,8,0,0,0-8-8H86.62a24,24,0,1,0,0,16H96v24a8,8,0,0,0,8,8h28.07a136.1,136.1,0,0,0-.03,112H104a8,8,0,0,0-8,8v24H86.62a24,24,0,1,0,0,16H104a8,8,0,0,0,8-8V240h28.62c.22.35.43.71.65,1.05A136.39,136.39,0,0,0,192,288.03V312H176a8,8,0,0,0-8,8v32a8,8,0,0,0,8,8v56a8,8,0,0,0,8,8h8.58A56.086,56.086,0,0,0,248,472h16a56.086,56.086,0,0,0,55.42-48H328a8,8,0,0,0,8-8V360a8,8,0,0,0,8-8V320a8,8,0,0,0-8-8H320V288.03a136.39,136.39,0,0,0,50.73-46.98c.22-.34.43-.7.65-1.05H400v24a8,8,0,0,0,8,8h17.38A24,24,0,1,0,448,240Zm0-176a8,8,0,1,1-8,8A8.011,8.011,0,0,1,448,64ZM64,80a8,8,0,1,1,8-8A8.011,8.011,0,0,1,64,80Zm0,192a8,8,0,1,1,8-8A8.011,8.011,0,0,1,64,272ZM264,456H248a40.069,40.069,0,0,1-39.2-32h94.4A40.069,40.069,0,0,1,264,456Zm56-48H192V360h32v24a8,8,0,0,0,8,8h48a8,8,0,0,0,8-8V360h32Zm-80-32V360h32v16Zm88-48v16H184V328Zm29.24-95.55a120.4,120.4,0,0,1-48.75,43.49,8.01,8.01,0,0,0-4.49,7.19V312H208V283.13a8.01,8.01,0,0,0-4.49-7.19,120,120,0,1,1,153.73-43.49ZM448,272a8,8,0,1,1,8-8A8.011,8.011,0,0,1,448,272Z" fill="#ffffff" class="color000000 svgShape"></path>
</svg>
