<svg viewBox="0 0 43 73" width="42" height="57" fill="none" xmlns="http://www.w3.org/2000/svg">
<path d="M27.21 31.51H15.052a1.832 1.832 0 01-1.832-1.832v-1.377a7.911 7.911 0 0115.822 0v1.377c0 1.012-.82 1.832-1.832 1.832zm.218 13.875H14.833a1.613 1.613 0 01-1.613-1.613v-7.378c0-.89.722-1.613 1.613-1.613h12.595c.891 0 1.614.722 1.614 1.613v7.378c0 .89-.723 1.613-1.614 1.613zM17.23 52.45a1.917 1.917 0 01-1.918-1.917v-5.148h3.834v5.148a1.917 1.917 0 01-1.917 1.917zm7.802 0a1.917 1.917 0 01-1.917-1.917v-5.148h3.834v5.148a1.917 1.917 0 01-1.917 1.917zm9.439-9.9a1.917 1.917 0 01-1.916-1.917v-3.935a1.917 1.917 0 113.833 0v3.935a1.917 1.917 0 01-1.917 1.917zm-26.681 0a1.917 1.917 0 01-1.917-1.917v-3.935a1.917 1.917 0 113.833 0v3.935A1.917 1.917 0 017.79 42.55z" fill="#7FEBA1"/><path d="M15.052 32.56H27.21a2.885 2.885 0 002.882-2.882v-1.377a8.96 8.96 0 00-4.164-7.563l.553-1.027a1.05 1.05 0 10-1.848-.997l-.6 1.111a8.92 8.92 0 00-5.805 0l-.599-1.11a1.05 1.05 0 10-1.848.996l.553 1.027A8.96 8.96 0 0012.17 28.3v1.378a2.885 2.885 0 002.882 2.881zm-.782-4.26a6.869 6.869 0 016.86-6.86 6.869 6.869 0 016.862 6.86v1.378a.782.782 0 01-.782.782H15.052a.783.783 0 01-.782-.782v-1.377z" fill="#fff"/><path d="M18.097 28.39c.58 0 1.05-.47 1.05-1.05v-1.01a1.05 1.05 0 10-2.1 0v1.01c0 .58.47 1.05 1.05 1.05zm6.068 0c.58 0 1.05-.47 1.05-1.05v-1.01a1.05 1.05 0 10-2.1 0v1.01c0 .58.47 1.05 1.05 1.05zm-9.902 17.982v4.161A2.97 2.97 0 0017.23 53.5a2.97 2.97 0 002.966-2.967v-4.098h1.87v4.098a2.97 2.97 0 002.967 2.967 2.97 2.97 0 002.966-2.967v-4.16a2.667 2.667 0 002.093-2.6v-.312a1.05 1.05 0 00-2.1 0v.311c0 .31-.253.564-.564.564H14.834a.564.564 0 01-.563-.564v-7.377c0-.311.253-.564.563-.564H27.43c.31 0 .563.253.563.564v2.166a1.05 1.05 0 102.1 0v-2.166a2.666 2.666 0 00-2.663-2.664H14.833a2.666 2.666 0 00-2.663 2.664v7.377c0 1.273.898 2.338 2.093 2.6zm9.903.063H25.9v4.098a.868.868 0 01-1.734 0v-4.098zm-7.803 0h1.733v4.098a.868.868 0 01-1.733 0v-4.098zm15.142-5.802A2.97 2.97 0 0034.47 43.6a2.97 2.97 0 002.967-2.967v-3.935a2.97 2.97 0 00-2.967-2.966 2.97 2.97 0 00-2.966 2.966v3.935zm2.1-3.935a.868.868 0 011.733 0v3.935a.868.868 0 01-1.733 0v-3.935zM7.79 43.6a2.97 2.97 0 002.966-2.967v-3.935a2.97 2.97 0 00-2.966-2.966 2.97 2.97 0 00-2.967 2.966v3.935A2.97 2.97 0 007.79 43.6zm-.867-6.902a.867.867 0 011.733 0v3.935a.867.867 0 01-1.733 0v-3.935z" fill="#fff"/><path d="M37.794 0h-24.2a1.05 1.05 0 000 2.1h24.2a2.305 2.305 0 012.303 2.303V9.16H2.165V4.403A2.305 2.305 0 014.468 2.1h4.273a1.05 1.05 0 000-2.1H4.468A4.408 4.408 0 00.065 4.403V67.26a4.408 4.408 0 004.403 4.403h33.326a4.408 4.408 0 004.403-4.403V4.403A4.408 4.408 0 0037.794 0zm2.303 67.26a2.305 2.305 0 01-2.303 2.303H4.468a2.305 2.305 0 01-2.303-2.303v-4.759h37.932v4.76zm0-6.859H2.165v-49.14h37.932v49.14z" fill="#fff"/><path d="M19.439 67.082h3.385a1.05 1.05 0 100-2.1h-3.385a1.05 1.05 0 100 2.1zM16.705 7.023a1.392 1.392 0 100-2.785 1.392 1.392 0 000 2.785zM26.95 6.68a1.05 1.05 0 000-2.1h-5.82a1.05 1.05 0 000 2.1h5.818zm4.15 10.079c.58 0 1.05-.47 1.05-1.05v-.642a1.05 1.05 0 00-2.1 0v.642c0 .58.47 1.05 1.05 1.05zm3.222 0c.58 0 1.05-.47 1.05-1.05v-1.284a1.05 1.05 0 00-2.1 0v1.284c0 .58.47 1.05 1.05 1.05zm3.223 0c.58 0 1.05-.47 1.05-1.05v-1.925a1.05 1.05 0 10-2.1 0v1.925c0 .58.47 1.05 1.05 1.05z" fill="#fff"/></svg>