<svg width="48" height="48" fill="none" xmlns="http://www.w3.org/2000/svg"><path d="M25.688.375H5.438A5.062 5.062 0 00.375 5.438v37.124a5.062 5.062 0 005.063 5.063h20.25a5.062 5.062 0 005.062-5.063V5.438A5.062 5.062 0 0025.687.375zm3.375 41.344a4.223 4.223 0 01-4.22 4.218H6.282a4.224 4.224 0 01-4.218-4.218V6.28A4.224 4.224 0 016.28 2.063h18.563a4.223 4.223 0 014.218 4.218V41.72z" fill="#fff"/><path d="M25.795 23.485l-4.625-4.9a.75.75 0 10-1.09 1.03L24.219 24l-4.14 4.386a.75.75 0 001.091 1.03l4.625-4.9a.75.75 0 000-1.03zm-13.875 4.9L7.783 24l4.139-4.385a.75.75 0 00-1.091-1.03l-4.625 4.9a.75.75 0 000 1.03l4.625 4.9a.748.748 0 001.06.03.75.75 0 00.03-1.06zm5.294-12.327a.75.75 0 00-.855.629l-2.2 14.4a.75.75 0 101.483.226l2.2-14.4a.75.75 0 00-.628-.855z" fill="#fff"/><path d="M46.766 27.201l-2.378-1.341c.093-.628.139-1.25.139-1.86 0-.61-.046-1.232-.139-1.86l2.378-1.341a1.687 1.687 0 00.625-2.329l-3.454-5.845a1.688 1.688 0 00-2.282-.611l-2.42 1.365a13.898 13.898 0 00-3.343-1.899V8.813c0-.931-.755-1.687-1.688-1.687h-1.767V17.25a6.75 6.75 0 110 13.5v10.125h1.767c.933 0 1.688-.756 1.688-1.688V36.52a13.959 13.959 0 003.343-1.899l2.42 1.365a1.687 1.687 0 002.282-.611l3.454-5.845a1.689 1.689 0 00-.625-2.329z" fill="#7FEBA1"/><rect x="8" y="4" width="16" height="3" rx="1.5" fill="#fff"/></svg>