<svg width="39" height="54" fill="none" xmlns="http://www.w3.org/2000/svg"><path d="M33.875 37.328V5.625A5.625 5.625 0 0028.25 0H5.75A5.625 5.625 0 00.125 5.625v42.75A5.625 5.625 0 005.75 54c14.501 0 13.883.169 14.355-.394 1.012-1.192-.259-1.699-6.919-7.391a1.001 1.001 0 01.214-1.665c.506-.259.315-.214 5.49 1.519A1.125 1.125 0 0020.375 45V30.375a1.125 1.125 0 112.25 0V42.75a1.125 1.125 0 102.25 0v-4.5a1.125 1.125 0 112.25 0v4.5a1.125 1.125 0 102.25 0v-3.375a1.125 1.125 0 112.25 0v3.375a1.125 1.125 0 102.25 0V40.5a1.125 1.125 0 112.25 0v12.375a1.125 1.125 0 102.25 0V40.5a3.375 3.375 0 00-4.5-3.172zM16.201 51.75H5.75a3.375 3.375 0 01-3.375-3.375V47.25h8.764c.36.551.146.304 5.062 4.5zm12.645-15.3a3.375 3.375 0 00-3.971-1.373v-4.702a3.375 3.375 0 00-6.75 0H8a1.125 1.125 0 100 2.25h10.125v10.811l-3.24-1.125A3.25 3.25 0 0010.633 45H2.375V9h29.25v27.203a3.252 3.252 0 00-2.779.247z" fill="#fff"/><path d="M13.625 13.5v5.625a2.25 2.25 0 01-4.5 0V13.5a1.125 1.125 0 00-2.25 0v5.625a4.5 4.5 0 109 0V13.5a1.125 1.125 0 10-2.25 0zm11.475-.675l-2.475 3.296-2.475-3.296a1.125 1.125 0 10-1.8 1.35L21.219 18l-2.869 3.825a1.125 1.125 0 001.8 1.35l2.475-3.296 2.475 3.296a1.125 1.125 0 101.8-1.35L24.031 18l2.869-3.825a1.125 1.125 0 00-1.8-1.35z" fill="#7FEBA1"/><path d="M14.75 25.875H8a1.125 1.125 0 100 2.25h6.75a1.125 1.125 0 100-2.25zM8 37.125h4.5a1.125 1.125 0 100-2.25H8a1.125 1.125 0 100 2.25z" fill="#fff"/></svg>