<svg xmlns="http://www.w3.org/2000/svg" id="codingcourses" viewBox="0 0 64 64">
  <path d="m15.6,10.92l5.4,2.36v7.72c0,.41.25.78.63.93l10,4c.12.05.25.07.37.07s.25-.02.37-.07l10-4c.38-.15.63-.52.63-.93v-7.72l4-1.75v5.47c0,.55.45,1,1,1s1-.45,1-1v-7c0-.12-.03-.24-.07-.35-.01-.03-.03-.06-.04-.09-.04-.08-.09-.15-.14-.21-.02-.02-.04-.05-.06-.07-.08-.08-.17-.14-.28-.19h-.01s0,0,0,0l-15.99-6.99c-.26-.11-.55-.11-.8,0l-16,7c-.36.16-.6.52-.6.92s.24.76.6.92Zm25.4,9.41l-9,3.6-9-3.6v-6.17l8.6,3.76c.13.06.26.08.4.08s.27-.03.4-.08l8.6-3.76v6.17Zm-9-16.23l13.5,5.91-13.5,5.91-13.5-5.91,13.5-5.91Z" fill="#ffffff" class="color000000 svgShape"></path>
  <path d="m61,20h-15c-.55,0-1,.45-1,1s.45,1,1,1h14v6H4v-6h14c.55,0,1-.45,1-1s-.45-1-1-1H3c-.55,0-1,.45-1,1v40c0,.55.45,1,1,1h58c.55,0,1-.45,1-1V21c0-.55-.45-1-1-1Zm-1,40H4v-30h56v30Z" fill="#ffffff" class="color000000 svgShape"></path>
  <path d="M26.29 40.71c.2.2.45.29.71.29s.51-.1.71-.29c.39-.39.39-1.02 0-1.41l-2.29-2.29 2.29-2.29c.39-.39.39-1.02 0-1.41s-1.02-.39-1.41 0l-3 3c-.39.39-.39 1.02 0 1.41l3 3ZM36.29 40.71c.2.2.45.29.71.29s.51-.1.71-.29l3-3c.39-.39.39-1.02 0-1.41l-3-3c-.39-.39-1.02-.39-1.41 0s-.39 1.02 0 1.41l2.29 2.29-2.29 2.29c-.39.39-.39 1.02 0 1.41ZM29.55 41.89c.14.07.3.11.45.11.37 0 .72-.2.9-.55l4-8c.25-.49.05-1.09-.45-1.34-.49-.25-1.09-.05-1.34.45l-4 8c-.25.49-.05 1.09.45 1.34ZM12 46h6c.55 0 1-.45 1-1s-.45-1-1-1h-6c-.55 0-1 .45-1 1s.45 1 1 1ZM22 46h30c.55 0 1-.45 1-1s-.45-1-1-1h-30c-.55 0-1 .45-1 1s.45 1 1 1ZM12 50h14c.55 0 1-.45 1-1s-.45-1-1-1h-14c-.55 0-1 .45-1 1s.45 1 1 1ZM52 48h-22c-.55 0-1 .45-1 1s.45 1 1 1h22c.55 0 1-.45 1-1s-.45-1-1-1ZM52 52h-6c-.55 0-1 .45-1 1s.45 1 1 1h6c.55 0 1-.45 1-1s-.45-1-1-1ZM12 54h30c.55 0 1-.45 1-1s-.45-1-1-1H12c-.55 0-1 .45-1 1s.45 1 1 1ZM12 58h8c.55 0 1-.45 1-1s-.45-1-1-1h-8c-.55 0-1 .45-1 1s.45 1 1 1ZM32 56h-8c-.55 0-1 .45-1 1s.45 1 1 1h8c.55 0 1-.45 1-1s-.45-1-1-1ZM7 24c-.55 0-1 .45-1 1s.45 1 1 1h2c.55 0 1-.45 1-1s-.45-1-1-1h-2ZM13 24c-.55 0-1 .45-1 1s.45 1 1 1h2c.55 0 1-.45 1-1s-.45-1-1-1h-2ZM19 24c-.55 0-1 .45-1 1s.45 1 1 1h2c.55 0 1-.45 1-1s-.45-1-1-1h-2Z" fill="#ffffff" class="color000000 svgShape"></path>
</svg>
