<svg xmlns="http://www.w3.org/2000/svg" xml:space="preserve" id="Cloudyweather" x="0" y="0" enable-background="new 0 0 64 64" version="1.1" viewBox="0 0 64 64">
  <path fill="#7b7b7b" d="M38.01,27.36c0.05-0.44,0.13-0.86,0.13-1.31c0-5.94-4.82-10.76-10.76-10.76c-3.37,0-6.34,1.58-8.31,4
		c-1.29-1.22-3.03-1.99-4.95-1.99c-3.98,0-7.2,3.23-7.2,7.2c0,0.88,0.18,1.72,0.47,2.5H6.58C2.95,27,0,29.95,0,33.58
		c0,3.63,2.95,6.58,6.58,6.58h29.4c3.63,0,6.58-2.95,6.58-6.58C42.56,30.66,40.64,28.21,38.01,27.36z" class="color2b91cc svgShape"></path>
  <path fill="#ffffff" d="M58.64,33.63c0.06-0.51,0.16-1.02,0.16-1.55c0-7-5.67-12.67-12.67-12.67c-3.97,0-7.47,1.86-9.79,4.72
		c-1.52-1.44-3.56-2.34-5.83-2.34c-4.69,0-8.49,3.8-8.49,8.49c0,1.04,0.21,2.02,0.55,2.94h-0.95c-4.28,0-7.75,3.47-7.75,7.75
		c0,4.28,3.47,7.75,7.75,7.75h34.63c4.28,0,7.75-3.47,7.75-7.75C64,37.52,61.74,34.64,58.64,33.63z" class="color53b4ed svgShape"></path>
</svg>
