<svg width="48" height="48" fill="none" xmlns="http://www.w3.org/2000/svg"><g clip-path="url(#clip0_2_3543)" fill-rule="evenodd" clip-rule="evenodd"><path d="M39.241 27.694H5.971a5.973 5.973 0 01-5.967-5.967 5.973 5.973 0 016.073-5.964 6.676 6.676 0 016.53-8.021 6.65 6.65 0 014.51 1.756 10.706 10.706 0 019.568-5.862c.42 0 .844.025 1.265.075a.562.562 0 01.332.956l-.677.677 1.939 1.937c.18.181.216.46.088.681a7.58 7.58 0 00-.774 1.865.561.561 0 01-.544.418h-2.739v3.079h2.74a.56.56 0 01.543.418 7.58 7.58 0 00.774 1.864c.128.222.092.5-.088.681l-1.94 1.939 2.178 2.177 1.939-1.939a.561.561 0 01.68-.088c.584.34 1.211.599 1.865.772a.563.563 0 01.418.544v2.74h3.079v-2.739c0-.255.171-.478.418-.544a7.592 7.592 0 001.864-.773c.22-.129.5-.092.681.088l1.938 1.939 1.163-1.164a.562.562 0 01.916.18 5.93 5.93 0 01.464 2.31 5.973 5.973 0 01-5.966 5.965zM5.971 16.887a4.846 4.846 0 00-4.842 4.84A4.847 4.847 0 005.97 26.57h33.271a4.846 4.846 0 004.73-5.882l-.642.642a.934.934 0 01-.665.275.935.935 0 01-.665-.275l-1.77-1.771c-.432.222-.88.409-1.342.556v2.504a.94.94 0 01-.94.94H34.5a.94.94 0 01-.94-.94v-2.504a8.772 8.772 0 01-1.342-.556l-1.77 1.771a.934.934 0 01-.665.275.934.934 0 01-.665-.275l-2.438-2.439a.942.942 0 010-1.329l1.77-1.77a8.717 8.717 0 01-.555-1.342H25.39a.94.94 0 01-.94-.94v-3.45a.94.94 0 01.94-.94h2.504c.147-.461.333-.91.556-1.34l-1.771-1.772a.943.943 0 01-.073-1.247 9.585 9.585 0 00-8.805 5.937.56.56 0 01-.95.147 5.535 5.535 0 00-4.244-1.978 5.549 5.549 0 00-5.244 7.343.564.564 0 01-.62.738 4.962 4.962 0 00-.773-.06z" fill="#fff"/><path d="M15.883 39.48a.563.563 0 01-.563-.563V27.13a.563.563 0 011.125 0v11.786c0 .31-.252.562-.562.562zm6.723 4.808a.562.562 0 01-.562-.563V27.131a.562.562 0 111.124 0v16.594c0 .31-.251.563-.562.563zm6.722-4.808a.563.563 0 01-.562-.563V27.13a.563.563 0 011.125 0v11.786c0 .31-.253.562-.563.562z" fill="#fff"/><path d="M15.883 43.18a2.416 2.416 0 01-2.413-2.413 2.416 2.416 0 012.413-2.413 2.416 2.416 0 012.413 2.413 2.416 2.416 0 01-2.413 2.413zm6.724 4.809a2.416 2.416 0 01-2.414-2.413 2.415 2.415 0 012.413-2.413 2.415 2.415 0 012.413 2.413 2.415 2.415 0 01-2.412 2.413zm6.721-4.809a2.416 2.416 0 01-2.413-2.413 2.416 2.416 0 012.413-2.413 2.416 2.416 0 012.413 2.413 2.416 2.416 0 01-2.413 2.413zm11.105-2.425h-4.17a1.926 1.926 0 01-1.924-1.924v-11.7a.563.563 0 011.125 0v11.7a.8.8 0 00.799.8h4.17a.563.563 0 010 1.124z" fill="#fff"/><path d="M42.283 42.605a2.415 2.415 0 01-2.413-2.413 2.416 2.416 0 012.413-2.413 2.416 2.416 0 012.413 2.413 2.416 2.416 0 01-2.413 2.413zm-33.335-1.85h-4.17a.562.562 0 110-1.125h4.17a.8.8 0 00.8-.799v-11.7a.563.563 0 011.124 0v11.7a1.926 1.926 0 01-1.924 1.924z" fill="#fff"/><path d="M2.928 42.605a2.416 2.416 0 01-2.413-2.413 2.416 2.416 0 012.413-2.413 2.416 2.416 0 012.413 2.413 2.415 2.415 0 01-2.413 2.413zm35.019-19.047H34.5a.94.94 0 01-.94-.94v-2.504a8.77 8.77 0 01-1.342-.556l-1.77 1.771a.934.934 0 01-.665.275.934.934 0 01-.665-.275l-2.438-2.438a.943.943 0 010-1.33l1.77-1.77a8.719 8.719 0 01-.555-1.342H25.39a.94.94 0 01-.94-.94V10.06a.94.94 0 01.94-.94h2.504c.147-.461.333-.91.556-1.34l-1.771-1.772a.934.934 0 01-.275-.664.93.93 0 01.276-.665l2.437-2.438a.935.935 0 01.665-.275.93.93 0 01.664.275l1.771 1.77c.432-.222.88-.408 1.342-.555V.952a.94.94 0 01.94-.94h3.448a.94.94 0 01.94.94v2.504c.462.147.91.333 1.341.556L42 2.24a.934.934 0 01.665-.275c.251 0 .487.097.665.275l2.438 2.438a.941.941 0 010 1.33l-1.77 1.77c.222.432.408.88.556 1.342h2.503a.94.94 0 01.94.94v3.447a.94.94 0 01-.94.94h-2.504a8.62 8.62 0 01-.556 1.342l1.771 1.771a.941.941 0 010 1.33l-2.438 2.438a.934.934 0 01-.665.275.934.934 0 01-.665-.275l-1.77-1.77a8.67 8.67 0 01-1.342.555v2.504a.94.94 0 01-.94.94zm-3.263-1.125h3.079v-2.74c0-.256.171-.479.418-.544a7.574 7.574 0 001.864-.773c.22-.129.5-.092.681.088l1.938 1.939 2.177-2.177-1.938-1.939a.562.562 0 01-.09-.68c.341-.585.6-1.213.774-1.865a.563.563 0 01.544-.418h2.74v-3.079h-2.74a.563.563 0 01-.544-.418 7.571 7.571 0 00-.773-1.865.56.56 0 01.089-.68l1.938-1.938-2.177-2.177-1.939 1.938a.56.56 0 01-.68.089 7.58 7.58 0 00-1.864-.774.562.562 0 01-.42-.543v-2.74h-3.077v2.74a.564.564 0 01-.418.543 7.573 7.573 0 00-1.866.774.56.56 0 01-.68-.09l-1.938-1.937-2.177 2.177 1.939 1.938c.18.18.216.46.088.68a7.58 7.58 0 00-.774 1.865.56.56 0 01-.543.418h-2.74v3.079h2.74a.56.56 0 01.543.418c.174.652.433 1.28.774 1.865.128.22.092.5-.088.68l-1.94 1.939 2.178 2.177 1.939-1.939a.563.563 0 01.68-.088c.584.34 1.212.6 1.865.772a.563.563 0 01.418.544v2.741z" fill="#fff"/><path d="M36.223 18.01a6.232 6.232 0 01-6.225-6.226 6.231 6.231 0 016.225-6.224 6.23 6.23 0 016.224 6.224 6.232 6.232 0 01-6.224 6.225z" fill="#7FEBA1"/></g><defs><clipPath id="clip0_2_3543"><path fill="#fff" d="M0 0h48v48H0z"/></clipPath></defs></svg>