<?xml version="1.0" encoding="UTF-8"?>
<svg version="1.1" xmlns="http://www.w3.org/2000/svg" width="200" height="200">
<path d="M0 0 C0.9075 0.721875 1.815 1.44375 2.75 2.1875 C1.63736422 5.52540735 0.84509961 6.15937624 -1.8125 8.3125 C-11.57236538 16.69552723 -18.15527155 25.90331464 -22.25 38.1875 C-24.97641988 37.70636708 -27.41031856 37.12555874 -30 36.125 C-38.07752514 33.79494467 -44.90648635 35.23230932 -52.25 39.1875 C-58.32661011 44.20730835 -62.31633223 50.33032664 -63.25 58.1875 C-63.37233008 65.94866375 -60.89772195 72.03885769 -55.9375 77.9375 C-49.62826278 83.21965209 -43.81260555 85.47586703 -35.6328125 85.421875 C-31.84975189 85.04977068 -28.7520757 83.63663477 -25.25 82.1875 C-24.26 82.1875 -23.27 82.1875 -22.25 82.1875 C-21.8478125 83.29544922 -21.8478125 83.29544922 -21.4375 84.42578125 C-16.58986466 96.97541617 -8.5994911 108.6211726 2.75 116.1875 C1.6985036 119.31449911 0.71986543 120.20656473 -2.12109375 122.00390625 C-11.82797986 126.75634665 -21.33765628 130.50547852 -32.25 131.1875 C-33.425625 131.26677734 -33.425625 131.26677734 -34.625 131.34765625 C-54.49891285 132.02786458 -71.98250632 124.84614205 -86.87109375 111.91015625 C-98.68608882 100.81449117 -107.19065722 85.24680519 -108.42700195 68.83837891 C-109.03390133 44.82837584 -103.82111886 26.34311227 -87 8.5625 C-64.77639521 -13.02184712 -25.92847176 -18.26896314 0 0 Z " fill="#F90000" transform="translate(119.25,39.8125)"/>
<path d="M0 0 C6.06955263 4.16876746 10.27237772 8.72467138 12 16 C13.10607488 24.99607567 12.47094043 32.58177568 7 40 C1.78934381 45.86615452 -3.78575281 49.37272214 -11.59765625 50.3125 C-19.24452759 50.65666299 -25.8709385 49.1244814 -32.0390625 44.45703125 C-38.34829572 38.59078675 -41.51368038 32.11228749 -42.02734375 23.51171875 C-41.92965528 14.5383353 -38.68491505 8.87484404 -32.5546875 2.49609375 C-23.35534927 -5.92406556 -10.41855042 -6.44957883 0 0 Z " fill="#F70000" transform="translate(177,77)"/>
</svg>
