<svg width="48" height="48" fill="none" xmlns="http://www.w3.org/2000/svg"><path d="M45.938 12.188h-27c-.932 0-1.688.755-1.688 1.687v5.063h30.375v-5.063c0-.932-.756-1.688-1.688-1.688zM20.625 17.25a1.688 1.688 0 110-3.375 1.688 1.688 0 010 3.375zm5.063 0a1.688 1.688 0 110-3.375 1.688 1.688 0 010 3.375zm-8.438 3.375v13.5c0 .932.756 1.688 1.688 1.688h27c.931 0 1.687-.756 1.687-1.688v-13.5H17.25zm11.565 10.372a.843.843 0 11-1.193 1.193l-3.375-3.375a.843.843 0 010-1.193l3.375-3.375a.843.843 0 111.193 1.193l-2.778 2.779 2.778 2.778zm5.285-5.949l-1.688 6.75a.843.843 0 11-1.636-.409l1.687-6.75a.837.837 0 011.023-.613.843.843 0 01.614 1.022zm6.528 3.767l-3.375 3.375a.841.841 0 01-1.193 0 .843.843 0 010-1.193l2.778-2.778-2.778-2.779a.843.843 0 111.193-1.193l3.375 3.375c.33.33.33.864 0 1.193z" fill="#7FEBA1"/><path d="M18.938 37.5a3.375 3.375 0 01-3.375-3.375v-20.25a3.375 3.375 0 013.374-3.375h8.438V5.437c0-.932-.756-1.687-1.688-1.687h-6.75a3.375 3.375 0 01-6.75 0h-6.75c-.931 0-1.687.755-1.687 1.688v37.124c0 .933.756 1.688 1.688 1.688h20.25c.931 0 1.687-.755 1.687-1.688V37.5h-8.438z" fill="#fff"/><path d="M29.063 37.5v5.063a3.378 3.378 0 01-3.375 3.374H5.438a3.378 3.378 0 01-3.375-3.374V5.437a3.378 3.378 0 013.374-3.375h20.25a3.378 3.378 0 013.375 3.376V10.5h1.688V5.437A5.068 5.068 0 0025.687.375H5.438A5.068 5.068 0 00.375 5.438v37.124a5.068 5.068 0 005.063 5.063h20.25a5.068 5.068 0 005.062-5.063V37.5h-1.688z" fill="#fff"/></svg>