<svg xmlns="http://www.w3.org/2000/svg" viewBox="0 0 512 512" id="GlobalDataFolder">
  <path d="M433.74,138H260.709L217.048,84.205A46.1,46.1,0,0,0,181.407,67H78.26C52.9,67,32,88.109,32,113.473V398.527C32,423.891,52.9,445,78.26,445H433.74C459.1,445,480,423.891,480,398.527V183.9C480,158.536,459.1,138,433.74,138ZM48,398.527V113.473C48,96.931,61.718,83,78.26,83H181.407a30.161,30.161,0,0,1,23.244,11.32L240.06,138H129.432C104.067,138,83,158.536,83,183.9V429H78.26C61.718,429,48,415.069,48,398.527Zm416,0C464,415.069,450.282,429,433.74,429H99V183.9c0-16.542,13.89-29.9,30.432-29.9H433.74c16.542,0,30.26,13.358,30.26,29.9Z" fill="#ffffff" class="color000000 svgShape"></path>
  <path d="M282,174.741A117.259,117.259,0,1,0,399.259,292,117.392,117.392,0,0,0,282,174.741Zm81.7,177.01a115.873,115.873,0,0,0-17.717-14.212A156.162,156.162,0,0,0,352.159,300h30.784A100.666,100.666,0,0,1,363.7,351.751ZM181.057,300h30.784a156.071,156.071,0,0,0,6.212,37.646,117.031,117.031,0,0,0-17.726,14.138A100.692,100.692,0,0,1,181.057,300Zm19.27-67.784a117.1,117.1,0,0,0,17.727,14.14A156.005,156.005,0,0,0,211.842,284H181.057A100.692,100.692,0,0,1,200.327,232.216ZM274,248.971a101.033,101.033,0,0,1-36.372-9.884c7.921-18.9,20.326-34.191,36.372-44.31Zm0,16.038V284H227.853a141.225,141.225,0,0,1,4.571-29.675A116.866,116.866,0,0,0,274,265.009ZM274,300v18.993a117.023,117.023,0,0,0-41.576,10.685A141.319,141.319,0,0,1,227.852,300Zm0,35.031v54.2c-16.047-10.121-28.452-25.41-36.373-44.313A101.123,101.123,0,0,1,274,335.031ZM290,335a99.788,99.788,0,0,1,36.422,9.808C318.5,363.758,306.078,379.087,290,389.228Zm0-16.038V300h46.148a141.369,141.369,0,0,1-4.536,29.554A115.653,115.653,0,0,0,290,318.957ZM290,284V265.039a115.774,115.774,0,0,0,41.609-10.6A141.265,141.265,0,0,1,336.147,284Zm0-35V194.777c16.077,10.139,28.5,25.465,36.419,44.418A99.893,99.893,0,0,1,290,249Zm28.356-51.5a101.554,101.554,0,0,1,34.867,22.6,99.922,99.922,0,0,1-12.9,10.877A115.563,115.563,0,0,0,318.356,197.5Zm-94.634,33.385a100.949,100.949,0,0,1-12.918-10.81,101.5,101.5,0,0,1,34.84-22.575A115.534,115.534,0,0,0,223.722,230.881Zm0,122.239A115.556,115.556,0,0,0,245.639,386.5,101.513,101.513,0,0,1,210.8,363.929,100.863,100.863,0,0,1,223.721,353.12Zm116.6-.093a99.913,99.913,0,0,1,12.9,10.877,101.543,101.543,0,0,1-34.862,22.6A115.555,115.555,0,0,0,340.32,353.027ZM352.158,284a156.063,156.063,0,0,0-6.181-37.54A115.9,115.9,0,0,0,363.7,232.248,100.681,100.681,0,0,1,382.943,284Z" fill="#ffffff" class="color000000 svgShape"></path>
</svg>
