<svg width="41" height="47" fill="none" xmlns="http://www.w3.org/2000/svg"><g clip-path="url(#clip0_76_23)"><path d="M20.5 46.365a2.848 2.848 0 002.838-2.858 2.848 2.848 0 00-2.838-2.858 2.848 2.848 0 00-2.838 2.858 2.848 2.848 0 002.838 2.858z" fill="#3CC065"/><path d="M20.5 6.351a2.848 2.848 0 002.838-2.858A2.848 2.848 0 0020.5.635a2.848 2.848 0 00-2.838 2.858A2.848 2.848 0 0020.5 6.351zM3.47 16.514a2.848 2.848 0 002.838-2.858 2.848 2.848 0 00-2.839-2.859 2.848 2.848 0 00-2.838 2.858 2.848 2.848 0 002.838 2.859zm34.06 0a2.848 2.848 0 002.84-2.858 2.848 2.848 0 00-2.84-2.859 2.848 2.848 0 00-2.838 2.858 2.848 2.848 0 002.839 2.859zM3.47 36.203a2.848 2.848 0 002.838-2.858 2.848 2.848 0 00-2.839-2.858 2.848 2.848 0 00-2.838 2.858 2.848 2.848 0 002.838 2.858zm34.06 0a2.848 2.848 0 002.84-2.858 2.848 2.848 0 00-2.84-2.858 2.848 2.848 0 00-2.838 2.858 2.848 2.848 0 002.839 2.858z" fill="#7FEBA1"/><path d="M28.5 19.927a4.22 4.22 0 001.249-3c0-2.33-1.887-4.224-4.207-4.224a4.214 4.214 0 00-3.963 2.805 4.191 4.191 0 00-1.527 0 4.214 4.214 0 00-3.963-2.805c-2.32 0-4.207 1.894-4.207 4.223a4.22 4.22 0 001.25 3.001 6.062 6.062 0 00-3.04 5.239.679.679 0 101.355 0c0-1.924 1.2-3.67 2.987-4.356a4.166 4.166 0 002.42.27 4.24 4.24 0 001.003 1.581 6.016 6.016 0 00-3.038 5.24.679.679 0 101.355 0 4.655 4.655 0 012.835-4.296.678.678 0 00.128-.071 4.167 4.167 0 003.333.01 4.686 4.686 0 012.986 4.357.679.679 0 101.355 0 6.068 6.068 0 00-3.038-5.24c.443-.44.79-.98 1.004-1.582a4.165 4.165 0 002.42-.27 4.683 4.683 0 012.986 4.357.679.679 0 101.355 0 6.062 6.062 0 00-3.038-5.239zm-11.89-.266l.001.08c-.17.032-.345.049-.522.049a2.86 2.86 0 01-2.852-2.864 2.86 2.86 0 012.852-2.862c1.213 0 2.287.773 2.687 1.904a4.23 4.23 0 00-2.167 3.693zm1.355 0a2.86 2.86 0 012.85-2.863 2.86 2.86 0 012.851 2.863 2.86 2.86 0 01-2.85 2.864 2.86 2.86 0 01-2.851-2.864zm7.055.08l.002-.08a4.23 4.23 0 00-2.167-3.693 2.857 2.857 0 012.687-1.904 2.86 2.86 0 012.851 2.862 2.86 2.86 0 01-2.85 2.864c-.178 0-.353-.017-.523-.05z" fill="#fff"/><path d="M38.032 29.755V17.24C39.719 16.917 41 15.407 41 13.598c0-2.044-1.635-3.707-3.645-3.707a3.613 3.613 0 00-2.765 1.295L23.94 4.932c.132-.384.205-.796.205-1.225C24.145 1.663 22.51 0 20.5 0s-3.645 1.663-3.645 3.707c0 .43.072.841.205 1.225L6.41 11.186A3.613 3.613 0 003.645 9.89C1.635 9.89 0 11.554 0 13.598c0 1.81 1.28 3.318 2.968 3.642v12.515C1.281 30.079 0 31.588 0 33.397c0 2.044 1.635 3.708 3.645 3.708a3.613 3.613 0 002.762-1.292l10.653 6.255a3.745 3.745 0 00-.205 1.225C16.855 45.337 18.49 47 20.5 47s3.645-1.663 3.645-3.707c0-.43-.072-.841-.205-1.225l10.653-6.255a3.613 3.613 0 002.761 1.291c2.01 0 3.646-1.663 3.646-3.707 0-1.809-1.28-3.318-2.968-3.642zm-.677-18.487c1.263 0 2.291 1.045 2.291 2.33 0 1.285-1.028 2.33-2.291 2.33-1.264 0-2.292-1.045-2.292-2.33 0-1.285 1.028-2.33 2.291-2.33zM20.5 1.377c1.264 0 2.291 1.045 2.291 2.33 0 1.284-1.026 2.329-2.288 2.33h-.006c-1.262-.001-2.288-1.046-2.288-2.33 0-1.285 1.027-2.33 2.291-2.33zM1.354 13.598c0-1.285 1.028-2.33 2.291-2.33 1.264 0 2.292 1.045 2.292 2.33 0 1.285-1.028 2.33-2.292 2.33-1.263 0-2.291-1.045-2.291-2.33zm2.291 22.13c-1.263 0-2.291-1.046-2.291-2.331s1.028-2.33 2.291-2.33c1.264 0 2.292 1.045 2.292 2.33 0 1.285-1.028 2.33-2.292 2.33zM20.5 45.623c-1.264 0-2.291-1.045-2.291-2.33 0-1.285 1.027-2.331 2.291-2.331s2.291 1.045 2.291 2.33c0 1.285-1.027 2.33-2.291 2.33zm2.762-4.746a3.632 3.632 0 00-2.085-1.227v-2.652a.683.683 0 00-.677-.689.683.683 0 00-.677.689v2.652a3.633 3.633 0 00-2.085 1.227L7.085 34.622a3.745 3.745 0 000-2.45l2.26-1.328a.695.695 0 00.247-.94.671.671 0 00-.925-.252L6.406 30.98a3.632 3.632 0 00-2.084-1.225V17.24a3.632 3.632 0 002.084-1.226l2.265 1.33a.675.675 0 00.925-.252.695.695 0 00-.248-.94l-2.263-1.33a3.747 3.747 0 00.002-2.445l10.651-6.254a3.632 3.632 0 002.085 1.226v2.652c0 .38.303.689.677.689a.683.683 0 00.677-.689V7.35a3.632 3.632 0 002.084-1.226l10.652 6.254a3.745 3.745 0 00.001 2.445l-2.263 1.33a.695.695 0 00-.247.94.675.675 0 00.924.252l2.265-1.33a3.632 3.632 0 002.084 1.226v12.514a3.632 3.632 0 00-2.084 1.225l-2.261-1.328a.671.671 0 00-.925.252.695.695 0 00.248.94l2.26 1.327a3.746 3.746 0 00-.001 2.45l-10.652 6.256zm14.093-5.15c-1.264 0-2.292-1.045-2.292-2.33 0-1.285 1.028-2.33 2.291-2.33 1.264 0 2.292 1.045 2.292 2.33 0 1.285-1.028 2.33-2.291 2.33z" fill="#fff"/><path d="M26.49 30.487h-1.887c-.35 0-.634.426-.634.952s.284.953.634.953h1.886c.35 0 .634-.427.634-.953s-.284-.952-.634-.952zm-.637 3.175H15.147c-.353 0-.64.427-.64.953s.287.953.64.953h10.706c.353 0 .64-.427.64-.953s-.287-.953-.64-.953zm-11.036-1.27h.013c.519 0 .94-.427.94-.953a.946.946 0 00-.94-.952h-.013a.946.946 0 00-.94.952c0 .526.42.953.94.953z" fill="#fff"/><path d="M16.722 32.392c.519 0 .94-.427.94-.953a.946.946 0 00-.94-.952h-.013a.946.946 0 00-.94.952c0 .526.421.953.94.953h.013zm3.154 0c.519 0 .94-.427.94-.953a.946.946 0 00-.94-.952h-.013a.946.946 0 00-.94.952c0 .526.42.953.94.953h.013z" fill="#fff"/></g><defs><clipPath id="clip0_76_23"><path fill="#fff" d="M0 0h41v47H0z"/></clipPath></defs></svg>