<svg width="55" height="72" fill="none" xmlns="http://www.w3.org/2000/svg"><g clip-path="url(#clip0_532_714)"><path d="M51.05 0c.444.172.912.3 1.33.524 1.737.93 2.615 2.396 2.617 4.372.003 4.131.002 8.265.002 12.396 0 7.704.003 15.41-.002 23.113-.002 2.533-1.464 4.418-3.814 4.914-.45.096-.928.09-1.393.092-5.183.006-10.365.017-15.55-.013-.641-.004-.776.18-.75.777a44.67 44.67 0 01.002 3.431c-.019.508.15.613.625.603 1.657-.03 3.316-.015 4.973-.01 3.167.007 5.148 1.98 5.155 5.155.01 3.735.01 7.471 0 11.206-.007 3.215-1.98 5.165-5.21 5.165H15.992c-3.23 0-5.203-1.95-5.21-5.165-.008-3.735-.008-7.471 0-11.206.007-3.17 1.992-5.148 5.155-5.156 1.682-.004 3.363-.013 5.044.01.415.005.567-.081.554-.532a50.762 50.762 0 01.002-3.501c.024-.597-.11-.78-.753-.777-5.228.03-10.459.011-15.688.022-.977.002-1.9-.153-2.74-.677C.905 43.839.09 42.54.046 40.826.001 39.194.03 37.558.03 35.923.032 25.93.083 15.937 0 5.946-.022 3.053.834.932 3.98 0h47.07zM27.53 11.944c-8.125 0-16.25.005-24.375-.013-.554-.002-.747.093-.747.706.022 9.244.013 18.49.017 27.734 0 1.717.923 2.65 2.623 2.651 5.275.004 10.553-.009 15.828.017.59.004.663-.202.659-.706-.02-3.034-.01-6.069-.01-9.105 0-.957 0-.98-.96-.953-.919.024-1.716-.178-2.246-.998-.554-.854-.483-1.852.22-2.795 2.303-3.083 4.613-6.161 6.924-9.24 1.293-1.727 2.808-1.73 4.094-.018 2.213 2.947 4.409 5.907 6.644 8.837.708.928 1.198 1.859.625 3.012-.558 1.125-1.585 1.28-2.684 1.183-.545-.049-.654.152-.65.663a560.28 560.28 0 01-.002 9.385c-.006.561.101.737.706.733 5.206-.028 10.413-.015 15.619-.017 1.91 0 2.791-.874 2.791-2.766.002-9.2-.006-18.397.013-27.597.002-.57-.125-.734-.719-.732-8.123.024-16.248.019-24.37.019zm-.01 57.394c3.873 0 7.749.002 11.622 0 1.78-.002 2.705-.926 2.707-2.722.006-3.78.006-7.561 0-11.34-.004-1.753-.923-2.676-2.68-2.678-7.772-.005-15.543-.005-23.316 0-1.752.002-2.668.929-2.671 2.687-.006 3.78-.006 7.56 0 11.34.002 1.794.925 2.711 2.716 2.713 3.873.002 7.749 0 11.622 0zm0-59.787c8.146 0 16.29-.003 24.435.01.484 0 .69-.058.67-.626-.05-1.351-.006-2.707-.019-4.06-.015-1.502-1.002-2.486-2.516-2.486-15.054-.004-30.105-.004-45.159 0-1.51 0-2.491.986-2.506 2.493-.011 1.307.032 2.616-.019 3.92-.022.603.12.764.749.762 8.123-.022 16.244-.013 24.365-.013zm-7.035 20.322h1.666c1.445 0 1.77.324 1.77 1.765 0 5.927.012 11.856-.018 17.783-.003.667.197.803.816.79a129.93 129.93 0 015.602 0c.63.015.812-.142.808-.797-.028-5.974-.016-11.95-.015-17.924 0-1.248.377-1.615 1.635-1.619.575-.002 1.15 0 1.728 0-.01-.103.004-.155-.019-.183-2.23-2.962-4.465-5.92-6.69-8.885-.21-.281-.326-.223-.508.02-2.219 2.973-4.443 5.937-6.775 9.05z" fill="#333"/><path d="M6 27a1 1 0 011-1h3a1 1 0 110 2H7a1 1 0 01-1-1zm0 4a1 1 0 011-1h7a1 1 0 110 2H7a1 1 0 01-1-1zm0 4a1 1 0 011-1h10a1 1 0 110 2H7a1 1 0 01-1-1zm-.187 3.563h1.875v1.874H5.813v-1.874zm3.75 0h1.874v1.874H9.563v-1.874zm5.125-23.438c0-.518.42-.938.937-.938h33.75a.937.937 0 110 1.876h-33.75a.937.937 0 01-.938-.938zm24.375 3.75c0-.518.42-.938.937-.938h9.375a.937.937 0 110 1.875H40a.937.937 0 01-.938-.937z" fill="#333"/><path d="M27.521 71.967c-5.089 0-10.18.002-15.27 0-2.352-.003-3.565-1.208-3.57-3.565-.007-4.966-.007-9.935 0-14.901.003-2.308 1.208-3.528 3.51-3.53 10.211-.008 20.422-.008 30.636 0 2.31.002 3.517 1.212 3.522 3.517.01 4.967.008 9.936 0 14.902-.002 2.36-1.217 3.574-3.557 3.577-5.09.002-10.181 0-15.27 0zm-9.726-10.998c.923-.62 1.788-1.179 2.63-1.774.846-.595 1.04-1.461.54-2.228-.486-.748-1.426-.935-2.265-.392a168.287 168.287 0 00-4.499 3.014c-1.131.787-1.114 1.995.032 2.782a223.28 223.28 0 004.354 2.902c.93.61 1.808.497 2.35-.27.563-.797.341-1.685-.613-2.35-.8-.55-1.619-1.08-2.529-1.684zm19.448 0c-.512.342-.893.597-1.272.853-.406.273-.817.541-1.22.817-.97.664-1.218 1.527-.681 2.332.531.794 1.441.912 2.415.275 1.41-.922 2.81-1.854 4.202-2.801 1.291-.881 1.308-2.072.032-2.945a239.391 239.391 0 00-4.285-2.843c-.925-.603-1.82-.483-2.345.278-.558.806-.327 1.682.635 2.339.8.55 1.611 1.087 2.519 1.695zm-6.593-4.576c-.014-.915-.575-1.57-1.325-1.694-.783-.13-1.484.33-1.791 1.242a1586.31 1586.31 0 00-2.955 8.863c-.386 1.166-.046 2.066.859 2.359.947.305 1.715-.177 2.11-1.348.975-2.893 1.941-5.79 2.908-8.686.096-.29.157-.588.194-.736z" fill="#7FEBA1"/><path d="M17.8 60.969c.907.605 1.729 1.134 2.528 1.69.954.664 1.176 1.552.613 2.349-.542.765-1.42.88-2.35.27a257.305 257.305 0 01-4.354-2.902c-1.146-.787-1.163-1.997-.031-2.782 1.483-1.03 2.986-2.03 4.499-3.014.838-.543 1.778-.356 2.265.392.5.767.305 1.63-.541 2.228-.841.59-1.707 1.151-2.63 1.769zm19.44 0c-.908-.608-1.72-1.144-2.522-1.693-.96-.656-1.19-1.532-.635-2.339.527-.762 1.42-.88 2.345-.278 1.436.935 2.87 1.874 4.285 2.844 1.276.873 1.26 2.063-.032 2.944-1.39.947-2.792 1.882-4.202 2.802-.974.637-1.884.519-2.415-.275-.539-.805-.288-1.67.681-2.333.404-.277.814-.546 1.22-.816.384-.259.763-.514 1.274-.856zm-6.59-4.576c-.039.148-.1.446-.194.733a2115.53 2115.53 0 01-2.907 8.686c-.396 1.174-1.164 1.653-2.11 1.348-.909-.292-1.246-1.193-.86-2.359.98-2.957 1.959-5.91 2.955-8.863.307-.91 1.008-1.372 1.79-1.242.75.13 1.314.782 1.326 1.697zm15.923-49.23c-.745 0-1.492.01-2.237-.004-.78-.017-1.273-.487-1.273-1.181 0-.682.505-1.19 1.27-1.199 1.538-.018 3.077-.018 4.614 0 .767.01 1.269.51 1.27 1.197 0 .698-.486 1.168-1.267 1.185-.792.013-1.584.002-2.377.002zm-28.013 0c-1.237.001-1.83-.395-1.81-1.212.02-.792.607-1.18 1.788-1.18.21 0 .42-.01.628.007.694.06 1.198.584 1.184 1.218-.014.648-.518 1.127-1.23 1.163-.187.011-.372.002-.56.004zM6.597 7.159c-.208 0-.417.011-.625-.002-.683-.045-1.138-.5-1.157-1.142-.019-.635.421-1.155 1.082-1.224.39-.042.788-.027 1.181-.013.811.026 1.313.51 1.296 1.231-.017.695-.504 1.131-1.288 1.155-.163.006-.324 0-.487 0-.002-.001-.002-.003-.002-.005zm5.961 0c-.208 0-.418.013-.625-.002-.652-.047-1.092-.477-1.133-1.091-.043-.646.369-1.187 1.026-1.268.434-.052.88-.04 1.32-.017.745.04 1.233.558 1.207 1.247-.026.667-.5 1.103-1.24 1.135-.184.007-.37.002-.555.002v-.006z" fill="#333"/></g><defs><clipPath id="clip0_532_714"><path fill="#fff" d="M0 0h55v71.725H0z"/></clipPath></defs></svg>