<svg width="62" height="50" fill="none" xmlns="http://www.w3.org/2000/svg"><path d="M36.285 20.258v-4.599l-4.609-.75a13.228 13.228 0 00-1.741-4.203l2.732-3.785-3.254-3.254-3.796 2.722a13.148 13.148 0 00-4.192-1.731l-.75-4.62h-4.61l-.75 4.62c-1.512.333-2.92.928-4.192 1.73l-3.796-2.72L4.073 6.92l2.733 3.785a13.224 13.224 0 00-1.742 4.202l-4.609.751v4.599l4.599.75c.344 1.513.938 2.93 1.741 4.203l-2.722 3.796 3.254 3.253 3.796-2.732a13.15 13.15 0 004.192 1.731l.75 4.62h4.61l.75-4.62a13.151 13.151 0 004.193-1.73l3.795 2.731 3.254-3.253-2.722-3.796a13.467 13.467 0 001.742-4.202l4.598-.751zm-17.915 6.29c-4.737 0-8.596-3.845-8.596-8.582 0-4.752 3.859-8.597 8.596-8.597s8.596 3.845 8.596 8.597c0 4.737-3.859 8.581-8.596 8.581z" fill="#333"/><path d="M61.547 38.828V35.55l-3.285-.535a9.432 9.432 0 00-1.241-2.996l1.947-2.698-2.319-2.32-2.705 1.94a9.374 9.374 0 00-2.988-1.233l-.536-3.293h-3.285l-.535 3.293a9.372 9.372 0 00-2.988 1.234l-2.706-1.94-2.32 2.319 1.948 2.698a9.429 9.429 0 00-1.24 2.996l-3.286.535v3.278l3.278.535a9.605 9.605 0 001.241 2.995l-1.94 2.706 2.32 2.32 2.705-1.948c.907.572 1.91.996 2.988 1.234l.535 3.292h3.285l.536-3.292a9.374 9.374 0 002.988-1.234l2.705 1.947 2.32-2.319-1.94-2.706a9.602 9.602 0 001.24-2.995l3.278-.535zm-12.77 2.795a4.438 4.438 0 01-4.437-4.43 4.44 4.44 0 014.438-4.438 4.44 4.44 0 014.437 4.438 4.438 4.438 0 01-4.437 4.43z" fill="#7FEBA1"/><path d="M18.371 27.286c5.147 0 9.335-4.18 9.335-9.32 0-5.148-4.188-9.336-9.335-9.336-5.148 0-9.336 4.188-9.336 9.336 0 5.14 4.188 9.32 9.336 9.32zm0-17.178c4.332 0 7.857 3.525 7.857 7.858 0 4.324-3.525 7.842-7.857 7.842-4.333 0-7.858-3.518-7.858-7.842 0-4.333 3.525-7.858 7.858-7.858zm30.407 21.908a5.182 5.182 0 00-5.176 5.177 5.178 5.178 0 005.176 5.168 5.178 5.178 0 005.177-5.168 5.182 5.182 0 00-5.177-5.177zm0 8.867a3.698 3.698 0 01-3.698-3.69 3.703 3.703 0 013.698-3.7 3.703 3.703 0 013.699 3.7 3.698 3.698 0 01-3.7 3.69zM55.05 3.33H36.286a.74.74 0 000 1.479H54.31V18.11l-1.428-1.428a.739.739 0 10-1.045 1.045l2.69 2.69a.736.736 0 001.044 0l2.69-2.69a.739.739 0 10-1.045-1.045l-1.428 1.428V4.07a.739.739 0 00-.739-.74zm-40.802 39.1a.736.736 0 001.045 0 .739.739 0 000-1.045l-2.69-2.69a.739.739 0 00-1.045 0l-2.69 2.69a.739.739 0 101.046 1.044l1.428-1.428v6.1a.74.74 0 00.739.74h18.764a.74.74 0 000-1.479H12.82v-5.36l1.428 1.427z" fill="#333"/><path d="M16.238 20.832a.736.736 0 001.045 0l4.703-4.702a.739.739 0 10-1.045-1.045l-4.18 4.18-.958-.959a.739.739 0 10-1.046 1.046l1.481 1.48z" fill="#333"/></svg>