<svg width="57" height="24" fill="none" xmlns="http://www.w3.org/2000/svg"><path d="M56.06 13.06a1.5 1.5 0 000-2.12l-9.545-9.547a1.5 1.5 0 10-2.122 2.122L52.88 12l-8.486 8.485a1.5 1.5 0 102.122 2.122l9.546-9.546zM0 13.5h1.964v-3H0v3zm5.893 0H9.82v-3H5.893v3zm7.857 0h3.929v-3H13.75v3zm7.857 0h3.929v-3h-3.929v3zm7.857 0h3.929v-3h-3.929v3zm7.857 0h3.929v-3h-3.929v3zm7.858 0h3.928v-3H45.18v3zm7.857 0H55v-3h-1.964v3zm3.025-.44a1.5 1.5 0 000-2.12l-9.546-9.547a1.5 1.5 0 10-2.122 2.122L52.88 12l-8.486 8.485a1.5 1.5 0 102.122 2.122l9.546-9.546zM0 13.5h1.964v-3H0v3zm5.893 0H9.82v-3H5.893v3zm7.857 0h3.929v-3H13.75v3zm7.857 0h3.929v-3h-3.929v3zm7.857 0h3.929v-3h-3.929v3zm7.857 0h3.929v-3h-3.929v3zm7.858 0h3.928v-3H45.18v3zm7.857 0H55v-3h-1.964v3z" fill="#7B7979"/></svg>