<svg width="850" height="64" fill="none" xmlns="http://www.w3.org/2000/svg"><path d="M848 30v1.5h1.5V30H848zM12 30v-1.5h-1.5V30H12zm-1.06 33.06a1.5 1.5 0 002.12 0l9.547-9.545a1.5 1.5 0 10-2.122-2.122L12 59.88l-8.485-8.486a1.5 1.5 0 10-2.122 2.122l9.546 9.546zM13.5 62v-2h-3v2h3zm0-6v-4h-3v4h3zm0-8v-4h-3v4h3zm0-8v-4h-3v4h3zm0-8v-2h-3v2h3zm-1.5-.5h1.99v-3H12v3zm5.971 0h3.981v-3h-3.98v3zm7.962 0h3.981v-3h-3.98v3zm7.962 0h3.981v-3h-3.98v3zm7.962 0h3.981v-3h-3.98v3zm7.962 0H53.8v-3h-3.981v3zm7.962 0h3.98v-3h-3.98v3zm7.962 0h3.98v-3h-3.98v3zm7.962 0h3.98v-3h-3.98v3zm7.962 0h3.98v-3h-3.98v3zm7.962 0h3.98v-3h-3.98v3zm7.962 0h3.98v-3h-3.98v3zm7.961 0h3.981v-3h-3.981v3zm7.962 0h3.981v-3h-3.981v3zm7.962 0h3.981v-3h-3.981v3zm7.962 0h3.981v-3h-3.981v3zm7.962 0h3.981v-3H137.4v3zm7.962 0h3.981v-3h-3.981v3zm7.962 0h3.981v-3h-3.981v3zm7.962 0h3.981v-3h-3.981v3zm7.962 0h3.981v-3h-3.981v3zm7.962 0h3.98v-3h-3.98v3zm7.961 0h3.981v-3h-3.981v3zm7.962 0h3.981v-3h-3.981v3zm7.962 0h3.981v-3h-3.981v3zm7.962 0h3.981v-3h-3.981v3zm7.962 0H221v-3h-3.981v3zm7.962 0h3.981v-3h-3.981v3zm7.962 0h3.981v-3h-3.981v3zm7.962 0h3.981v-3h-3.981v3zm7.962 0h3.981v-3h-3.981v3zm7.962 0h3.981v-3h-3.981v3zm7.962 0h3.981v-3h-3.981v3zm7.962 0h3.98v-3h-3.98v3zm7.961 0h3.981v-3h-3.981v3zm7.962 0h3.981v-3h-3.981v3zm7.962 0h3.981v-3h-3.981v3zm7.962 0h3.981v-3H304.6v3zm7.962 0h3.981v-3h-3.981v3zm7.962 0h3.981v-3h-3.981v3zm7.962 0h3.981v-3h-3.981v3zm7.962 0h3.981v-3h-3.981v3zm7.962 0h3.981v-3h-3.981v3zm7.962 0h3.981v-3h-3.981v3zm7.962 0h3.981v-3h-3.981v3zm7.961 0h3.981v-3h-3.981v3zm7.962 0h3.981v-3h-3.981v3zm7.962 0h3.981v-3h-3.981v3zm7.962 0h3.981v-3h-3.981v3zm7.962 0h3.981v-3h-3.981v3zm7.962 0h3.981v-3h-3.981v3zm7.962 0h3.981v-3h-3.981v3zm7.962 0h3.981v-3h-3.981v3zm7.962 0h3.981v-3h-3.981v3zm7.962 0h3.981v-3h-3.981v3zm7.962 0h3.981v-3h-3.981v3zm7.962 0h3.98v-3h-3.98v3zm7.961 0h3.981v-3h-3.981v3zm7.962 0h3.981v-3H471.8v3zm7.962 0h3.981v-3h-3.981v3zm7.962 0h3.981v-3h-3.981v3zm7.962 0h3.981v-3h-3.981v3zm7.962 0h3.981v-3h-3.981v3zm7.962 0h3.981v-3h-3.981v3zm7.962 0h3.981v-3h-3.981v3zm7.962 0h3.981v-3h-3.981v3zm7.962 0h3.981v-3h-3.981v3zm7.962 0h3.981v-3h-3.981v3zm7.961 0h3.981v-3h-3.981v3zm7.962 0h3.981v-3h-3.981v3zm7.962 0h3.981v-3h-3.981v3zm7.962 0h3.981v-3h-3.981v3zm7.962 0h3.981v-3h-3.981v3zm7.962 0h3.981v-3h-3.981v3zm7.962 0h3.981v-3h-3.981v3zm7.962 0h3.981v-3h-3.981v3zm7.962 0h3.981v-3h-3.981v3zm7.962 0h3.981v-3h-3.981v3zm7.962 0h3.981v-3h-3.981v3zm7.962 0h3.981v-3h-3.981v3zm7.961 0h3.981v-3h-3.981v3zm7.962 0h3.981v-3h-3.981v3zm7.962 0h3.981v-3h-3.981v3zm7.962 0h3.981v-3h-3.981v3zm7.962 0h3.981v-3h-3.981v3zm7.962 0h3.981v-3h-3.981v3zm7.962 0h3.981v-3h-3.981v3zm7.962 0h3.981v-3h-3.981v3zm7.962 0h3.981v-3h-3.981v3zm7.962 0h3.981v-3h-3.981v3zm7.962 0h3.981v-3h-3.981v3zm7.962 0h3.98v-3h-3.98v3zm7.961 0h3.981v-3h-3.981v3zm7.962 0h3.981v-3h-3.981v3zm7.962 0h3.981v-3h-3.981v3zm7.962 0h3.981v-3h-3.981v3zm7.962 0h3.981v-3h-3.981v3zm7.962 0h3.981v-3h-3.981v3zm7.962 0h3.981v-3h-3.981v3zm7.962 0h3.981v-3h-3.981v3zm7.962 0h3.981v-3h-3.981v3zm7.962 0h3.981v-3h-3.981v3zm7.962 0h3.981v-3h-3.981v3zm7.961 0h3.981v-3h-3.981v3zm7.962 0h3.981v-3h-3.981v3zm7.962 0H848v-3h-1.99v3zm3.49-1.5v-1.875h-3V30h3zm0-5.625v-3.75h-3v3.75h3zm0-7.5v-3.75h-3v3.75h3zm0-7.5v-3.75h-3v3.75h3zm0-7.5V0h-3v1.875h3zM848 30v1.5h1.5V30H848zM12 30v-1.5h-1.5V30H12zm-1.06 33.06a1.5 1.5 0 002.12 0l9.547-9.545a1.5 1.5 0 10-2.122-2.122L12 59.88l-8.485-8.486a1.5 1.5 0 10-2.122 2.122l9.546 9.546zM13.5 62v-2h-3v2h3zm0-6v-4h-3v4h3zm0-8v-4h-3v4h3zm0-8v-4h-3v4h3zm0-8v-2h-3v2h3zm-1.5-.5h1.99v-3H12v3zm5.971 0h3.981v-3h-3.98v3zm7.962 0h3.981v-3h-3.98v3zm7.962 0h3.981v-3h-3.98v3zm7.962 0h3.981v-3h-3.98v3zm7.962 0H53.8v-3h-3.981v3zm7.962 0h3.98v-3h-3.98v3zm7.962 0h3.98v-3h-3.98v3zm7.962 0h3.98v-3h-3.98v3zm7.962 0h3.98v-3h-3.98v3zm7.962 0h3.98v-3h-3.98v3zm7.962 0h3.98v-3h-3.98v3zm7.961 0h3.981v-3h-3.981v3zm7.962 0h3.981v-3h-3.981v3zm7.962 0h3.981v-3h-3.981v3zm7.962 0h3.981v-3h-3.981v3zm7.962 0h3.981v-3H137.4v3zm7.962 0h3.981v-3h-3.981v3zm7.962 0h3.981v-3h-3.981v3zm7.962 0h3.981v-3h-3.981v3zm7.962 0h3.981v-3h-3.981v3zm7.962 0h3.98v-3h-3.98v3zm7.961 0h3.981v-3h-3.981v3zm7.962 0h3.981v-3h-3.981v3zm7.962 0h3.981v-3h-3.981v3zm7.962 0h3.981v-3h-3.981v3zm7.962 0H221v-3h-3.981v3zm7.962 0h3.981v-3h-3.981v3zm7.962 0h3.981v-3h-3.981v3zm7.962 0h3.981v-3h-3.981v3zm7.962 0h3.981v-3h-3.981v3zm7.962 0h3.981v-3h-3.981v3zm7.962 0h3.981v-3h-3.981v3zm7.962 0h3.98v-3h-3.98v3zm7.961 0h3.981v-3h-3.981v3zm7.962 0h3.981v-3h-3.981v3zm7.962 0h3.981v-3h-3.981v3zm7.962 0h3.981v-3H304.6v3zm7.962 0h3.981v-3h-3.981v3zm7.962 0h3.981v-3h-3.981v3zm7.962 0h3.981v-3h-3.981v3zm7.962 0h3.981v-3h-3.981v3zm7.962 0h3.981v-3h-3.981v3zm7.962 0h3.981v-3h-3.981v3zm7.962 0h3.981v-3h-3.981v3zm7.961 0h3.981v-3h-3.981v3zm7.962 0h3.981v-3h-3.981v3zm7.962 0h3.981v-3h-3.981v3zm7.962 0h3.981v-3h-3.981v3zm7.962 0h3.981v-3h-3.981v3zm7.962 0h3.981v-3h-3.981v3zm7.962 0h3.981v-3h-3.981v3zm7.962 0h3.981v-3h-3.981v3zm7.962 0h3.981v-3h-3.981v3zm7.962 0h3.981v-3h-3.981v3zm7.962 0h3.981v-3h-3.981v3zm7.962 0h3.98v-3h-3.98v3zm7.961 0h3.981v-3h-3.981v3zm7.962 0h3.981v-3H471.8v3zm7.962 0h3.981v-3h-3.981v3zm7.962 0h3.981v-3h-3.981v3zm7.962 0h3.981v-3h-3.981v3zm7.962 0h3.981v-3h-3.981v3zm7.962 0h3.981v-3h-3.981v3zm7.962 0h3.981v-3h-3.981v3zm7.962 0h3.981v-3h-3.981v3zm7.962 0h3.981v-3h-3.981v3zm7.962 0h3.981v-3h-3.981v3zm7.961 0h3.981v-3h-3.981v3zm7.962 0h3.981v-3h-3.981v3zm7.962 0h3.981v-3h-3.981v3zm7.962 0h3.981v-3h-3.981v3zm7.962 0h3.981v-3h-3.981v3zm7.962 0h3.981v-3h-3.981v3zm7.962 0h3.981v-3h-3.981v3zm7.962 0h3.981v-3h-3.981v3zm7.962 0h3.981v-3h-3.981v3zm7.962 0h3.981v-3h-3.981v3zm7.962 0h3.981v-3h-3.981v3zm7.962 0h3.981v-3h-3.981v3zm7.961 0h3.981v-3h-3.981v3zm7.962 0h3.981v-3h-3.981v3zm7.962 0h3.981v-3h-3.981v3zm7.962 0h3.981v-3h-3.981v3zm7.962 0h3.981v-3h-3.981v3zm7.962 0h3.981v-3h-3.981v3zm7.962 0h3.981v-3h-3.981v3zm7.962 0h3.981v-3h-3.981v3zm7.962 0h3.981v-3h-3.981v3zm7.962 0h3.981v-3h-3.981v3zm7.962 0h3.981v-3h-3.981v3zm7.962 0h3.98v-3h-3.98v3zm7.961 0h3.981v-3h-3.981v3zm7.962 0h3.981v-3h-3.981v3zm7.962 0h3.981v-3h-3.981v3zm7.962 0h3.981v-3h-3.981v3zm7.962 0h3.981v-3h-3.981v3zm7.962 0h3.981v-3h-3.981v3zm7.962 0h3.981v-3h-3.981v3zm7.962 0h3.981v-3h-3.981v3zm7.962 0h3.981v-3h-3.981v3zm7.962 0h3.981v-3h-3.981v3zm7.962 0h3.981v-3h-3.981v3zm7.961 0h3.981v-3h-3.981v3zm7.962 0h3.981v-3h-3.981v3zm7.962 0H848v-3h-1.99v3zm3.49-1.5v-1.875h-3V30h3zm0-5.625v-3.75h-3v3.75h3zm0-7.5v-3.75h-3v3.75h3zm0-7.5v-3.75h-3v3.75h3zm0-7.5V0h-3v1.875h3z" fill="#7B7979"/></svg>