<svg viewBox="0 0 86 87" width="48" height="48" fill="none" xmlns="http://www.w3.org/2000/svg"><path d="M80.108 34.892H59.461c-1.436 0-2.6-1.087-2.6-2.428V20.522c0-1.342 1.164-2.43 2.6-2.43h20.647c1.436 0 2.6 1.088 2.6 2.43v11.941c0 1.342-1.164 2.43-2.6 2.43z" fill="#7FEBA1"/><path d="M49.769 84H10.782c-.599 0-1.178-.25-1.59-.685a2.196 2.196 0 01-.595-1.625l1.38-23.78a5.716 5.716 0 014.33-5.247l6.753-1.7c2.634-.662 4.363-1.463 6.194-2.366a3.467 3.467 0 001.945-3.128v-2.03a.82.82 0 011.201-.727 11.455 11.455 0 005.366 1.322c1.642 0 3.236-.342 4.736-1.017a.82.82 0 011.152.84 3.186 3.186 0 00-.022.359v23.977a3.18 3.18 0 003.176 3.176h12.321a.82.82 0 01.82.82v6.661a.82.82 0 01-.82.82h-7.36c-.585 0-1.06.476-1.06 1.06v.568c0 .585.475 1.061 1.06 1.061a.82.82 0 110 1.641zm-18.93-39.28v.749a5.096 5.096 0 01-2.86 4.6c-1.916.945-3.729 1.784-6.519 2.486l-6.752 1.7a4.084 4.084 0 00-3.094 3.749l-1.38 23.779a.54.54 0 00.15.405c.104.11.246.171.398.171h36.502a2.69 2.69 0 01-.217-1.06v-.568a2.704 2.704 0 012.702-2.701h6.54v-5.02H44.807a4.822 4.822 0 01-4.816-4.817V44.98c-1.36.461-2.776.694-4.225.694-1.683 0-3.363-.327-4.926-.955z" fill="#fff"/><path d="M18.782 83.695a.82.82 0 01-.82-.82V62.156a.82.82 0 111.64 0v20.719a.82.82 0 01-.82.82zm17.165-45.75c-1.595 0-3.094-.65-4.007-1.741a.82.82 0 011.257-1.054c.606.723 1.634 1.154 2.75 1.154s2.145-.431 2.75-1.154a.82.82 0 111.258 1.053c-.914 1.091-2.412 1.742-4.008 1.742z" fill="#fff"/><path d="M41.573 30.336a1.676 1.676 0 100-3.351 1.676 1.676 0 000 3.351zm-11.253 0a1.676 1.676 0 100-3.351 1.676 1.676 0 000 3.351z" fill="#000"/><path d="M65.819 31.084c-.21 0-.42-.08-.58-.24l-3.78-3.78a.82.82 0 010-1.16l3.78-3.78a.82.82 0 111.16 1.16l-3.2 3.2 3.2 3.2a.82.82 0 01-.58 1.4zm8.144 0a.82.82 0 01-.58-1.4l3.2-3.2-3.2-3.201a.82.82 0 111.16-1.16l3.78 3.78c.32.32.32.84 0 1.16l-3.78 3.78c-.16.16-.37.24-.58.24zm-5.384.486a.82.82 0 01-.784-1.062l2.624-8.532a.82.82 0 111.568.483l-2.625 8.531a.821.821 0 01-.783.58zM16.41 9.581c-1.017-.197-1.837-.984-2.034-2.001 0-.033-.098-.033-.098 0-.197 1.017-1.018 1.804-2.035 2.001-.033 0-.033.066 0 .099 1.018.197 1.838.984 2.035 2.001 0 .033.098.033.098 0 .197-1.017 1.017-1.804 2.034-2.001.033-.033.033-.099 0-.099zM3.02 28.383h.755v.755c0 .59.46 1.05 1.05 1.05.558 0 1.05-.46 1.05-1.018v-.787h.755c.59 0 1.05-.46 1.05-1.05 0-.558-.46-1.05-1.017-1.05h-.788v-.755c0-.59-.46-1.05-1.05-1.05-.558 0-1.05.46-1.05 1.017v.788H3.02c-.59 0-1.05.46-1.05 1.05-.032.558.427 1.05 1.05 1.05-.032 0-.032 0 0 0zM7.678 47.02a1.116 1.116 0 100-2.231 1.116 1.116 0 000 2.231zM54.932 2.231a1.116 1.116 0 100-2.231 1.116 1.116 0 000 2.231zM35.766 45.675c-7.33 0-13.292-5.963-13.292-13.292V21.916c0-1.877.713-3.658 2.008-5.016a3.098 3.098 0 014.17-.293c1.407 1.101 3.785 2.414 7.127 2.414 3.335 0 5.702-1.308 7.1-2.405a3.098 3.098 0 014.17.283 7.238 7.238 0 012.009 5.017v10.467c0 3.025-1.057 5.991-2.974 8.354a.82.82 0 01-.637.303h-.64a3.174 3.174 0 00-3.153 2.818.82.82 0 01-.479.655 13.111 13.111 0 01-5.41 1.162zM26.72 17.579c-.384 0-.764.152-1.047.448a5.608 5.608 0 00-1.56 3.889v10.467c0 6.424 5.227 11.651 11.652 11.651a11.47 11.47 0 004.338-.846 4.813 4.813 0 014.704-3.788h.24a11.648 11.648 0 002.369-7.017V21.916a5.605 5.605 0 00-1.555-3.884 1.463 1.463 0 00-1.971-.125c-1.6 1.256-4.308 2.755-8.112 2.755-3.81 0-6.528-1.502-8.139-2.763a1.488 1.488 0 00-.919-.32z" fill="#fff"/><path d="M49.038 34.112c-.301 0-.616-.027-.963-.083a.82.82 0 01-.687-.865c.02-.3.03-.549.03-.781V22.94a.82.82 0 01.694-.81c.312-.049.624-.073.926-.073a6.034 6.034 0 016.027 6.027 6.034 6.034 0 01-6.027 6.027zm.02-10.414v8.773a4.392 4.392 0 004.367-4.386 4.391 4.391 0 00-4.367-4.387zM22.493 34.112a6.034 6.034 0 01-6.027-6.028 6.034 6.034 0 016.027-6.027c.302 0 .614.025.926.073a.82.82 0 01.695.81v9.443c0 .232.01.48.03.78a.82.82 0 01-.688.865c-.346.057-.66.084-.963.084zm-.02-10.414a4.392 4.392 0 00-4.367 4.387 4.392 4.392 0 004.367 4.386v-8.773z" fill="#fff"/><path d="M51.687 24.428a.82.82 0 01-.419-.115 4.378 4.378 0 00-2.23-.615c-.218 0-.444.018-.674.054a.82.82 0 01-.947-.81v-1.026a5.604 5.604 0 00-1.555-3.884 1.463 1.463 0 00-1.97-.125c-1.601 1.256-4.308 2.755-8.112 2.755-3.81 0-6.529-1.502-8.139-2.763a1.462 1.462 0 00-1.967.128 5.609 5.609 0 00-1.559 3.89v1.024a.819.819 0 01-.946.811 4.433 4.433 0 00-.675-.054 4.38 4.38 0 00-2.207.601.82.82 0 01-1.234-.708v-5.214A14.763 14.763 0 0131.33 3.8c6.266-1.082 11.482-.355 14.31 1.993 1.666 1.384 2.535 3.276 2.584 5.625 1.615.014 4.282 1.075 4.282 7.907v4.281a.82.82 0 01-.82.82zm-2.629-2.37a5.98 5.98 0 011.808.287v-3.018c0-3.983-.975-6.267-2.675-6.267-.873 0-1.594-.695-1.606-1.55-.026-1.878-.696-3.377-1.992-4.453-2.459-2.042-7.19-2.64-12.982-1.64a13.126 13.126 0 00-10.918 12.96v3.959a5.984 5.984 0 011.781-.278v-.142c0-1.876.713-3.658 2.009-5.016a3.098 3.098 0 014.169-.293c1.407 1.101 3.786 2.414 7.128 2.414 3.335 0 5.701-1.308 7.099-2.405a3.098 3.098 0 014.17.283 7.238 7.238 0 012.01 5.017v.142zM18.782 84h-8c-.599 0-1.178-.25-1.59-.685a2.196 2.196 0 01-.595-1.625l.735-12.667a.82.82 0 01.819-.773h8.63a.82.82 0 01.82.82v14.11a.82.82 0 01-.82.82zm-7.857-14.11l-.69 11.893a.54.54 0 00.15.405.54.54 0 00.397.171h7.18V69.89h-7.037zm24.84-13.505c-.299 0-.62-.012-.98-.037a.82.82 0 01-.764-.808.284.284 0 00-.083-.201l-6.013-6.013a.82.82 0 01.048-1.205A3.483 3.483 0 0029.2 45.47v-2.03a.82.82 0 011.2-.727 11.454 11.454 0 005.366 1.322c1.642 0 3.236-.342 4.736-1.017a.82.82 0 011.152.841 3.208 3.208 0 00-.022.358v7.073a.82.82 0 01-.24.58l-3.47 3.47a.287.287 0 00-.082.195.82.82 0 01-.74.786c-.452.043-.9.065-1.335.065zm-.277-1.645c.31.009.59.004.89-.012.093-.203.222-.389.383-.55l3.23-3.23V44.98a13.11 13.11 0 01-4.226.694c-1.682 0-3.362-.328-4.925-.955v.75a5.115 5.115 0 01-1.181 3.27l5.438 5.44c.165.164.297.355.391.561zM70.817 84H49.769a2.704 2.704 0 01-2.702-2.701v-.568a2.704 2.704 0 012.702-2.7h21.048a2.704 2.704 0 012.701 2.7v.568A2.704 2.704 0 0170.817 84zm-21.048-4.33c-.585 0-1.061.477-1.061 1.061v.568c0 .585.476 1.06 1.06 1.06h21.049a1.06 1.06 0 001.06-1.06v-.568c0-.584-.475-1.06-1.06-1.06H49.769z" fill="#fff"/><path d="M75.779 73.01H63.457a.82.82 0 01-.82-.82v-9.398a.773.773 0 00-.772-.772h-3.143a.773.773 0 00-.772.772v9.398a.82.82 0 01-.82.82H44.808a4.822 4.822 0 01-4.817-4.817V44.216a4.822 4.822 0 014.817-4.816h30.97a4.822 4.822 0 014.817 4.816v23.977a4.822 4.822 0 01-4.816 4.817zm-11.502-1.64H75.78a3.18 3.18 0 003.176-3.177V44.216a3.18 3.18 0 00-3.176-3.176H44.808a3.18 3.18 0 00-3.176 3.176v23.977a3.18 3.18 0 003.176 3.177h11.501v-8.578a2.415 2.415 0 012.413-2.412h3.143a2.415 2.415 0 012.412 2.412v8.578z" fill="#fff"/><path d="M63.457 79.67H57.13a.82.82 0 01-.82-.82V62.792a2.415 2.415 0 012.412-2.412h3.143a2.415 2.415 0 012.413 2.412V78.85a.82.82 0 01-.82.82zm-5.507-1.64h4.686V62.792a.773.773 0 00-.771-.772h-3.143a.773.773 0 00-.773.772V78.03z" fill="#fff"/></svg>