<svg width="60" height="57" fill="none" xmlns="http://www.w3.org/2000/svg"><g clip-path="url(#clip0_532_693)"><path d="M60 53.096c-.192.096-.15.306-.201.458-.555 1.65-1.988 2.835-3.66 2.928-1.853.101-3.281-.663-4.116-2.328-1.283-2.559-2.497-5.151-3.741-7.73-.304-.63-.61-1.26-.913-1.892-.232-.482-.148-.905.236-1.275.52-.503 1.025-1.02 1.559-1.507.233-.213.304-.382.145-.688a61.787 61.787 0 01-1.25-2.574c-.123-.268-.24-.33-.53-.22a11.977 11.977 0 01-3.585.784c-.309.017-.462.086-.384.451.094.438.13.889.174 1.335.07.711-.24 1.136-.932 1.233-3.38.476-6.763.942-10.145 1.41-4.386.608-8.774 1.212-13.16 1.819L7.206 47c-.309.043-.618.098-.93.121-.714.054-1.123-.25-1.223-.955-.332-2.337-.644-4.678-.966-7.015l-1.69-12.233-1.711-12.35c-.217-1.547-.423-3.095-.65-4.64-.145-.974.134-1.37 1.118-1.508 1.642-.23 3.284-.47 4.928-.678.356-.046.45-.138.387-.508a50.74 50.74 0 01-.388-2.841c-.094-.853.236-1.232 1.065-1.346C12.402 2.322 17.657 1.588 22.915.86c2.029-.282 4.057-.569 6.087-.841.754-.102 1.175.22 1.297 1.002.15.964.278 1.932.394 2.9.034.288.092.398.429.348 1.949-.29 3.905-.536 5.854-.824 1.274-.188 1.609.039 1.786 1.33.29 2.107.586 4.212.852 6.322.063.498.177.63.736.536 7.46-1.244 14.256 3.323 15.962 10.687 1.283 5.54-1.184 11.473-6.097 14.599-.443.282-.498.496-.255.938.41.75.777 1.527 1.121 2.31.144.326.318.427.663.37.673-.11 1.355-.174 2.03-.275.556-.085.954.108 1.197.612a4523.71 4523.71 0 014.659 9.684c.155.323.25.674.374 1.01C60 52.08 60 52.589 60 53.097zM30.037 19.748c-3.114.315-6.124.615-9.13.924-3.98.409-7.961.829-11.942 1.235-.835.084-.846.067-.897-.771-.022-.368-.265-.81-.054-1.08.217-.272.7-.128 1.064-.166 4.039-.424 8.077-.838 12.116-1.253 3.185-.326 6.37-.652 9.556-.968.336-.033.554-.17.755-.451 1.496-2.098 3.429-3.669 5.804-4.672.387-.162.465-.357.409-.739a537.14 537.14 0 01-.824-5.914c-.038-.275-.098-.413-.433-.363-1.68.249-3.36.48-5.044.702-.343.045-.374.167-.318.495.17.996.305 2 .403 3.007.065.693-.253 1.066-.93 1.17-1.52.231-3.04.452-4.563.663-2.1.293-4.203.569-6.303.859-2.12.291-4.238.592-6.357.883-1.639.224-3.278.458-4.92.65-.704.084-1.082-.275-1.182-.979-.14-.982-.298-1.961-.42-2.946-.04-.312-.155-.362-.445-.32-1.294.19-2.59.356-3.886.53-.256.034-.392.081-.34.434.53 3.668 1.03 7.342 1.536 11.014.563 4.078 1.12 8.157 1.684 12.234.492 3.557.998 7.111 1.48 10.669.048.361.14.429.5.376 2.084-.314 4.172-.599 6.259-.885 4.388-.604 8.777-1.199 13.165-1.805 4.697-.649 9.392-1.31 14.088-1.958.811-.113.804-.104.65-.93-.047-.255-.124-.356-.395-.375a7.694 7.694 0 01-1.096-.177c-3.51-.738-6.33-2.56-8.46-5.44-.184-.25-.349-.352-.669-.306-.714.102-1.436.152-2.154.227-5.921.62-11.843 1.242-17.764 1.858-.493.051-1.144.355-1.441.02-.274-.31-.137-.97-.216-1.47-.05-.311.047-.403.352-.433 3.069-.307 6.136-.625 9.203-.945 3.765-.391 7.53-.788 11.333-1.187-1.662-3.763-1.73-7.534-.174-11.417zm24.579 5.519c0-6.537-5.295-11.85-11.828-11.865-6.521-.016-11.855 5.3-11.868 11.822-.012 6.561 5.313 11.906 11.856 11.9 6.523-.005 11.838-5.33 11.84-11.857zM29.322 8.717c-.29-2.119-.58-4.144-.83-6.173-.049-.387-.16-.409-.508-.359-3.824.54-7.65 1.055-11.475 1.584-2.647.367-5.292.749-7.937 1.115-.262.037-.42.065-.369.406.317 2.079.62 4.16.908 6.243.036.258.081.309.347.26.708-.127 1.424-.207 2.137-.306 2.1-.293 4.198-.587 6.3-.878 2.119-.295 4.238-.585 6.358-.88 1.56-.215 3.119-.44 4.679-.654.274-.038.517-.075.39-.357zm28.677 43.55a1.64 1.64 0 00-.161-.795c-1.418-2.964-2.848-5.922-4.268-8.886-.087-.183-.175-.255-.394-.24-1.27.077-2.476.286-3.26 1.45a.61.61 0 01-.17.16c-.294.192-.242.405-.104.686.662 1.342 1.3 2.697 1.948 4.046.733 1.524 1.456 3.055 2.21 4.568.483.97 1.506 1.429 2.492 1.18 1.023-.26 1.715-1.14 1.707-2.168z" fill="#fff"/><circle cx="42.5" cy="25.5" r="8.5" fill="#7FEBA0"/><path d="M44.014 24l-2.03 3.516m-2.226 0L38 25.758 39.758 24m6.484 3.516L48 25.758 46.242 24" stroke="#fff" stroke-width="1.5" stroke-miterlimit="22.926" stroke-linecap="round" stroke-linejoin="round"/><path d="M29.322 8.718c.128.282-.116.32-.39.359-1.56.214-3.12.437-4.68.654-2.12.295-4.239.585-6.358.88-2.1.29-4.2.585-6.3.878-.712.099-1.428.179-2.136.305-.266.049-.313-.003-.348-.26a453.03 453.03 0 00-.907-6.242c-.052-.343.107-.37.368-.406 2.648-.367 5.292-.749 7.938-1.115 3.825-.53 7.652-1.044 11.475-1.584.348-.049.459-.028.507.359.251 2.027.54 4.052.83 6.172z" fill="#7FEBA1"/><path d="M57.999 52.268c.008 1.029-.685 1.908-1.708 2.166-.985.25-2.006-.21-2.49-1.18-.755-1.513-1.478-3.043-2.21-4.567-.65-1.35-1.287-2.704-1.95-4.047-.137-.28-.189-.493.105-.686a.61.61 0 00.17-.16c.785-1.165 1.99-1.372 3.26-1.45.219-.015.307.06.394.24 1.421 2.963 2.85 5.922 4.268 8.886.116.245.175.519.161.798z" fill="#FCFCFC"/><path d="M19.851 27.073c-1.067.055-1.067.055-1.118-.891-.058-1.05-.057-1.026 1.004-1.108 2.666-.205 5.332-.42 7.995-.667.528-.049.83 0 .746.615-.01.076.006.155.013.234.092 1.12.092 1.12-1.01 1.21-2.586.206-5.175.413-7.63.607zm-10.318.838c-.468.165-.564-.127-.56-.603.004-.425-.247-.937-.034-1.255.23-.34.792-.142 1.205-.188 1.083-.119 2.171-.191 3.257-.296.276-.027.398.05.396.335-.001.253.02.506.041.759.07.892.072.897-.838.972-1.125.094-2.25.18-3.467.276z" fill="#fff"/></g><defs><clipPath id="clip0_532_693"><path fill="#fff" d="M0 0h60v56.489H0z"/></clipPath></defs></svg>