<svg width="35" height="43" fill="none" xmlns="http://www.w3.org/2000/svg"><path d="M15.263 0h7.085v32.206c-3.629.68-6.3.949-9.19.949C4.503 33.145 0 29.312 0 21.948c0-7.095 4.778-11.7 12.182-11.7 1.149 0 2.024.09 3.081.359V0zm.249 16.41c-.83-.268-1.514-.358-2.39-.358-3.582 0-5.652 2.168-5.652 5.967 0 3.7 1.978 5.742 5.607 5.742.784 0 1.423-.044 2.435-.178V16.41z" fill="#2BA977"/><path d="M33.934 11.113v16.125c0 5.553-.42 8.224-1.65 10.526-1.15 2.214-2.663 3.61-5.79 5.151l-6.575-3.072c3.128-1.442 4.641-2.716 5.608-4.66 1.012-1.988 1.33-4.29 1.33-10.346V11.113h7.077zM26.144 0h7.085v7.14h-7.085V0z" fill="#2BA977"/></svg>