<svg width="44" height="50" xmlns="http://www.w3.org/2000/svg"><g fill="none"><path d="M32.931 9.36c-2.557-1.588-4.977-2.218-7.397-3.805-1.499-1.012-3.575-3.42-5.322-5.487-.343 3.325-1.347 4.666-2.516 5.624-2.461 1.93-4.015 2.504-6.146 3.653C9.762 10.262.041 16.036.041 28.447c0 12.41 10.492 21.55 22.138 21.55S43.93 41.582 43.93 28.83c0-12.753-9.446-18.513-11-19.47z" fill="#00598E"/><path d="M28.999 39.229c.77 0 1.595.055 2.172.438.578.383.922 1.245 1.114 1.737.193.493 0 .767-.385.958-.344.192-.385.096-.729-.533-.343-.63-.632-1.245-2.323-1.245-1.692 0-2.228.574-3.053 1.245-.825.67-1.114.916-1.403.533-.288-.383-.192-.766.344-1.245.537-.479 1.403-1.245 2.228-1.587.838-.342 1.265-.301 2.035-.301zm-8.016 5.487c.962.766 2.42 1.395 5.513 1.395 3.094 0 5.267-.862 6.243-1.587.44-.342.632-.055.674.15.055.192.15.48-.193.822-.248.246-2.461 1.778-5.074 2.025-2.612.246-6.146.383-8.264-1.546-.343-.342-.247-.821 0-1.013.248-.192.44-.342.73-.342.274 0 .22 0 .37.096z" fill="#FFF"/><path d="M9.13 41.062c3.671-.054 4.345-.67 7.59-2.12 17.504-7.8 20.735-14.915 21.367-16.557.633-1.642 1.554-4.283.578-7.21-.193-.562-.316-1.027-.426-1.383-2.324-2.586-4.634-3.995-5.335-4.433-2.517-1.587-4.978-2.217-7.398-3.804-1.498-.958-3.575-3.42-5.321-5.487-.344 3.325-1.306 4.721-2.516 5.624-2.462 1.93-4.015 2.504-6.146 3.653-1.788.958-11.51 6.691-11.51 19.102 0 3.968 1.073 7.594 2.902 10.7l.481-.014c1.045.917 2.64 1.97 5.734 1.93z" fill="#0073BA"/><path d="M32.917 9.36c-2.516-1.588-4.977-2.218-7.397-3.805-1.499-.958-3.575-3.42-5.321-5.487-.344 3.325-1.307 4.721-2.517 5.624-2.46 1.93-4.014 2.504-6.146 3.653C9.75 10.303.028 16.036.028 28.447a20.95 20.95 0 002.9 10.7c3.92 6.622 11.303 10.85 19.237 10.85 11.646 0 21.752-8.415 21.752-21.167 0-7.006-2.86-11.904-5.692-15.051a22.967 22.967 0 00-5.308-4.42zm5.886 5.623c3.176 3.954 4.785 8.606 4.785 13.847 0 3.037-.578 5.91-1.733 8.538a19.537 19.537 0 01-4.661 6.554c-3.96 3.68-9.295 5.706-15.002 5.706-2.818 0-5.596-.534-8.236-1.601A22.065 22.065 0 017 43.594C2.75 39.626.412 34.234.412 28.447c0-5.159 1.678-9.729 4.992-13.615 2.53-2.955 5.266-4.597 6.325-5.172.509-.274.99-.52 1.457-.766 1.458-.739 2.833-1.45 4.73-2.928 1.004-.766 2.09-1.97 2.544-5.05 1.595 1.889 3.451 4.01 4.867 4.927 1.252.82 2.544 1.409 3.795 1.956 1.183.534 2.393 1.081 3.603 1.834l.041.027c3.534 2.217 5.418 4.557 6.037 5.323z" fill="#004975"/><path d="M20.446 1.026c.674 1.97.578 2.983.578 3.42 0 .439-.248 1.588-1.018 2.163-.343.246-.44.438-.44.479 0 .191.44.342.44.766 0 .534-.247 1.587-2.805 4.132-2.557 2.545-6.242 4.817-9.088 6.212-2.847 1.396-4.208 1.3-4.593.63-.385-.67.151-2.162 1.939-4.133 1.787-1.97 7.439-4.816 7.439-4.816l7.053-4.912.385-1.875" fill="#93C5E4"/><path d="M20.446.985c-.44 3.175-1.402 4.132-2.709 5.145-2.172 1.642-4.303 2.64-4.784 2.887-1.252.63-5.803 3.133-8.168 6.732-.729 1.108 0 1.546.151 1.642.152.096 1.788.287 5.322-1.834 3.533-2.12 5.073-3.366 7.053-5.432 1.059-1.108 1.21-1.737 1.21-2.025 0-.342-.247-.479-.632-.574-.193-.055-.248-.15 0-.288.247-.15 1.251-.63 1.498-.82.248-.192 1.403-.959 1.444-2.217.055-1.245-.041-2.108-.385-3.216zM9.57 35.959c.055-3.75 3.575-7.266 8.03-7.307 5.651-.055 9.57 5.583 12.43 5.528 2.42-.055 7.054-4.762 9.336-4.762 2.42 0 3.094 2.504 3.094 3.996 0 1.491-.481 4.187-1.65 5.87-1.169 1.683-1.884 2.312-3.245 2.216-1.746-.15-5.225-5.528-7.439-5.623-2.805-.096-8.896 5.815-13.681 5.815-2.901 0-3.768-.438-4.744-1.054-1.457-1.026-2.186-2.558-2.131-4.68z" fill="#FFF"/></g></svg>