<svg xmlns="http://www.w3.org/2000/svg" viewBox="0 0 512 512" id="DigitalProducts">
  <path d="M488,440h-8V218a18.021,18.021,0,0,0-18-18h-6v16h6a2,2,0,0,1,2,2V440H336a7.994,7.994,0,0,0-3.578.845L318.111,448H193.889l-14.311-7.155A7.994,7.994,0,0,0,176,440H48V218a2,2,0,0,1,2-2h6V200H50a18.021,18.021,0,0,0-18,18V440H24a8,8,0,0,0-8,8v20a28.032,28.032,0,0,0,28,28H416V480H44a12.013,12.013,0,0,1-12-12V456H174.111l14.311,7.155A7.994,7.994,0,0,0,192,464H320a7.994,7.994,0,0,0,3.578-.845L337.889,456H480v12a12.013,12.013,0,0,1-12,12H432v16h36a28.032,28.032,0,0,0,28-28V448A8,8,0,0,0,488,440Z" fill="#ffffff" class="color000000 svgShape"></path>
  <path d="M74.793,174.074l56,48a8,8,0,0,0,10.864-.417L144,219.314V368a8,8,0,0,0,4.751,7.311l72,32A8.011,8.011,0,0,0,224,408h64a8.011,8.011,0,0,0,3.249-.689l72-32A8,8,0,0,0,368,368V219.314l2.343,2.343a8,8,0,0,0,10.864.417l56-48a8,8,0,0,0,1.543-10.369l-56-88a8,8,0,0,0-3.6-3.058L334,53.3a8,8,0,0,0-.34-10.952l-24-24A8.029,8.029,0,0,0,304,16H208a8.02,8.02,0,0,0-5.657,2.342l-24,24A8,8,0,0,0,178,53.3L132.849,72.647a8,8,0,0,0-3.6,3.058l-20.363,32,13.5,8.59L141.423,86.38l50.04-21.446,43.33,37.14a8,8,0,0,0,10.864-.417L256,91.313l10.343,10.344a8,8,0,0,0,10.864.417l43.33-37.14,50.04,21.446,50.949,80.061L376.418,205.1l-2.065-2.065L350.86,163.884l-13.72,8.232,15.25,25.416A7.972,7.972,0,0,0,352,200V362.8L286.3,392H264V344H248v48H225.7L160,362.8V200a8,8,0,0,0-.39-2.468l15.25-25.416-13.72-8.232-23.493,39.155-2.065,2.065L90.474,166.441l21.73-34.146-13.5-8.59-25.455,40A8,8,0,0,0,74.793,174.074ZM239.582,85.1,195.766,47.548l11.782-11.782L245.1,79.582ZM256,67.707,225.394,32h61.212Zm16.418,17.4L266.9,79.582l37.556-43.816,11.782,11.782Z" fill="#ffffff" class="color000000 svgShape"></path>
  <rect width="16" height="16" x="248" y="112" fill="#ffffff" class="color000000 svgShape"></rect>
  <rect width="16" height="16" x="248" y="160" fill="#ffffff" class="color000000 svgShape"></rect>
  <rect width="16" height="16" x="248" y="208" fill="#ffffff" class="color000000 svgShape"></rect>
  <rect width="16" height="16" x="248" y="256" fill="#ffffff" class="color000000 svgShape"></rect>
  <rect width="16" height="16" x="248" y="304" fill="#ffffff" class="color000000 svgShape"></rect>
  <rect width="32" height="16" x="288" y="160" fill="#ffffff" class="color000000 svgShape"></rect>
  <path d="M405.657 341.657l32-32a8 8 0 0 0 0-11.314l-32-32-11.314 11.314L420.686 304l-26.343 26.343zM106.343 266.343l-32 32a8 8 0 0 0 0 11.314l32 32 11.314-11.314L91.314 304l26.343-26.343z" fill="#ffffff" class="color000000 svgShape"></path>
</svg>
