<svg width="46" height="46" fill="none" xmlns="http://www.w3.org/2000/svg">
  <g clip-path="url(#clip0_2_3493)">
    <path d="M43.53 5.846H31.407l-.038.002a12.402 12.402 0 00-1.43-1.156.674.674 0 00-.767 1.108 11.02 11.02 0 014.753 9.06c0 6.07-4.938 11.009-11.008 11.009-6.07 0-11.009-4.939-11.009-11.009s4.94-11.008 11.01-11.008c1.205 0 2.389.193 3.52.574a.673.673 0 10.43-1.277 12.338 12.338 0 00-3.95-.645c-6.814 0-12.356 5.543-12.356 12.356s5.542 12.356 12.356 12.356c6.813 0 12.356-5.543 12.356-12.356 0-2.816-.962-5.509-2.668-7.666H43.53c.62 0 1.123.504 1.123 1.123v21.208h-5.33a.674.674 0 100 1.348h5.33v3.538c0 .62-.503 1.124-1.123 1.124H2.471c-.62 0-1.123-.504-1.123-1.123v-3.54h34.581a.674.674 0 100-1.347H1.348V8.317c0-.62.503-1.123 1.123-1.123h8.035a.674.674 0 100-1.348H2.471A2.474 2.474 0 000 8.317v26.094a2.474 2.474 0 002.47 2.471h14.77v5.266h-2.034a.674.674 0 100 1.348H30.63a.674.674 0 100-1.348h-2.034v-5.266H43.53a2.473 2.473 0 002.47-2.47V8.316a2.473 2.473 0 00-2.47-2.47zM27.246 42.148h-8.659v-5.266h8.659v5.266z" fill="#fff"/>
    <path d="M0 9.07h46v-.183a5 5 0 00-5-5H5a5 5 0 00-5 5v.183zm4.389 15.646h3.985a.674.674 0 100-1.348H4.39a.674.674 0 100 1.348zm0 3.039h7.436a.674.674 0 100-1.347H4.39a.674.674 0 100 1.347zM39.974 9.736a.674.674 0 00-.674.674v1.687h-1.687a.674.674 0 100 1.347H39.3v1.687a.674.674 0 101.347 0v-1.687h1.687a.674.674 0 100-1.347h-1.687V10.41a.674.674 0 00-.673-.674z" fill="#fff"/>
    <circle cx="22.677" cy="14.901" r="12.958" fill="#7FEBA1"/>
    <path d="M18.117 8.83a1.615 1.615 0 00-1.586-1.315h-.72a.674.674 0 100 1.348h.72c.128 0 .238.09.262.217l1.994 10.562c.06.318.338.549.662.549h.455a1.258 1.258 0 101.873 0h2.772a1.258 1.258 0 101.873 0h.606a.674.674 0 100-1.348h-7.02l-.275-1.456h7.53c.324 0 .602-.23.662-.548l1.196-6.31.002-.012a.809.809 0 00-.798-.946H18.257l-.14-.741zm1.005 5.323h1.839l.138 1.886h-1.62l-.357-1.886zm4.812 0l-.138 1.886H22.45l-.138-1.886h1.622zm-1.72-1.348l-.139-1.887h2.095l-.138 1.887h-1.819zm2.934 3.234l.137-1.886h1.778l-.358 1.886h-1.557zm2.17-3.234h-1.934l.138-1.887h2.154l-.358 1.887zm-6.594-1.887l.138 1.887h-1.994l-.356-1.887h2.212z" fill="#333"/>
  </g>
  <defs>
    <clipPath id="clip0_2_3493">
      <path fill="#fff" d="M0 0h46v46H0z"/>
    </clipPath>
  </defs>
</svg>