<svg width="59" height="56" fill="none" xmlns="http://www.w3.org/2000/svg"><path fill-rule="evenodd" clip-rule="evenodd" d="M15.477 49.64l.464 1.114a2.5 2.5 0 01.004 1.965l-.002.003a2.504 2.504 0 01-1.387 1.388l-.002.001-4.082 1.692a2.57 2.57 0 01-3.353-1.382c-2.303-5.534-4.61-11.067-6.912-16.6a2.461 2.461 0 01-.005-1.965c.27-.654.738-1.12 1.387-1.391l4.086-1.696a2.573 2.573 0 013.353 1.382l.41.984a504.09 504.09 0 006.096-2.922c2.68-1.311 4.792-2.187 7.252-1.854 1.61.217 3.382.953 5.565 2.483l7.558 2.025a4.434 4.434 0 012.833 2.339l10.64-3.121c4.473-1.313 6.95-.38 8.038 1.09.716.969.9 2.223.632 3.463-.38 1.756-1.675 3.46-3.442 4.143l-15.938 6.141c-2.657 1.023-6.206 2.463-9.057 1.635l-8.491-2.464h-.001a4.012 4.012 0 00-2.986.254l-2.66 1.293zm-1.06 1.745l-6.91-16.598a.92.92 0 00-1.2-.495l-4.085 1.695a.89.89 0 00-.496.499.87.87 0 00.001.697l.002.003c2.303 5.533 4.609 11.067 6.912 16.601a.917.917 0 001.198.494l4.08-1.692h.002a.908.908 0 00.5-.5.904.904 0 00-.004-.704zm.425-3.27l2.573-1.25c1.35-.658 2.73-.775 4.168-.355l8.491 2.463c1.21.352 2.566.184 3.9-.158 1.452-.372 2.88-.96 4.105-1.431l15.937-6.142c1.254-.483 2.155-1.707 2.424-2.953.165-.76.094-1.539-.346-2.133-.373-.505-1.003-.856-1.91-.995-1.08-.166-2.507-.032-4.338.506l-10.662 3.128c.041.494 0 1.003-.136 1.507-.631 2.358-3.079 3.772-5.435 3.137l-10.233-2.74a.825.825 0 01.427-1.593l10.233 2.74h.001c1.48.4 3.018-.49 3.415-1.97a2.799 2.799 0 00-1.974-3.416l-7.7-2.063a.822.822 0 01-.264-.124c-1.956-1.388-3.52-2.087-4.952-2.28-2.148-.29-3.968.557-6.307 1.7a509.651 509.651 0 01-6.187 2.966l4.77 11.457z" fill="#fff"/><path d="M7.168 33.063l-5.256 2.39c-3.154 1.433 5.256 15.768 5.734 17.202.382 1.147 1.752 2.39 2.39 2.867l5.734-3.345-8.602-19.114zM38.336 12.69a1.5 1.5 0 00-1.497-1.497h-2.122a1.498 1.498 0 000 2.994h2.122c.825 0 1.497-.671 1.497-1.497zm-1.497.514h-2.122a.514.514 0 010-1.027h2.122a.514.514 0 010 1.027zm3.311-.022h4.656a.492.492 0 100-.984H40.15a.492.492 0 000 .984zm-4.656 2.086h-1.23c-.654 0-1.185.531-1.185 1.184v1.231c0 .653.531 1.185 1.184 1.185h1.231c.653 0 1.185-.532 1.185-1.185v-1.23c0-.654-.532-1.185-1.185-1.185zm.2 2.415a.2.2 0 01-.2.2h-1.23a.2.2 0 01-.201-.2v-1.23a.2.2 0 01.2-.201h1.231c.11 0 .2.09.2.2v1.231zm4.181-2.415h-1.23c-.654 0-1.185.531-1.185 1.184v1.231c0 .653.531 1.185 1.184 1.185h1.231c.653 0 1.184-.532 1.184-1.185v-1.23c0-.654-.53-1.185-1.184-1.185zm.2 2.415a.2.2 0 01-.2.2h-1.23a.2.2 0 01-.201-.2v-1.23a.2.2 0 01.2-.201h1.231c.11 0 .2.09.2.2v1.231zm4.177-2.415h-1.23c-.654 0-1.185.531-1.185 1.184v1.231c0 .653.531 1.185 1.184 1.185h1.231c.653 0 1.184-.532 1.184-1.185v-1.23c0-.654-.53-1.185-1.184-1.185zm.2 2.415a.2.2 0 01-.2.2h-1.23a.2.2 0 01-.201-.2v-1.23a.2.2 0 01.2-.201h1.231c.11 0 .2.09.2.2v1.231zm-8.958 1.911h-1.23c-.654 0-1.185.532-1.185 1.185v1.23c0 .653.531 1.185 1.184 1.185h1.231c.653 0 1.185-.532 1.185-1.185v-1.23c0-.654-.532-1.185-1.185-1.185zm.2 2.415a.2.2 0 01-.2.201h-1.23a.2.2 0 01-.201-.2v-1.231a.2.2 0 01.2-.201h1.231c.11 0 .2.09.2.2v1.231zm4.181-2.415h-1.23c-.654 0-1.185.532-1.185 1.185v1.23c0 .653.531 1.185 1.184 1.185h1.231c.653 0 1.184-.532 1.184-1.185v-1.23c0-.654-.53-1.185-1.184-1.185zm.2 2.415a.2.2 0 01-.2.201h-1.23a.2.2 0 01-.201-.2v-1.231a.2.2 0 01.2-.201h1.231c.11 0 .2.09.2.2v1.231zm4.177-2.415h-1.23c-.654 0-1.185.532-1.185 1.185v1.23c0 .653.531 1.185 1.184 1.185h1.231c.653 0 1.184-.532 1.184-1.185v-1.23c0-.654-.53-1.185-1.184-1.185zm.2 2.415a.2.2 0 01-.2.201h-1.23a.2.2 0 01-.201-.2v-1.231a.2.2 0 01.2-.201h1.231c.11 0 .2.09.2.2v1.231z" fill="#fff"/><path fill-rule="evenodd" clip-rule="evenodd" d="M22.383 17.601a1.487 1.487 0 110-1.622h7.005v-1.73H25.42a.811.811 0 01-.812-.812v-3.78a1.488 1.488 0 111.623-.058v3.027h3.157V9.443a1.97 1.97 0 011.97-1.97h4.298V2.725a1.487 1.487 0 111.623.02v4.728h2.854V2.785a1.488 1.488 0 111.623-.108v4.796h4.297a1.97 1.97 0 011.97 1.97v3.183h3.158V9.582a1.486 1.486 0 01.88-2.687 1.489 1.489 0 01.742 2.777v3.765a.811.811 0 01-.81.812h-3.97v1.73h6.743a1.487 1.487 0 110 1.622h-6.742v1.73h3.968c.448 0 .811.364.811.812v3.864a1.488 1.488 0 11-1.622.09v-3.143h-3.157v3.184a1.97 1.97 0 01-1.97 1.97h-4.298v4.77a1.486 1.486 0 01-.86 2.702 1.489 1.489 0 01-.763-2.765v-4.707H37.28v4.707a1.488 1.488 0 11-1.623.064v-4.771h-4.298a1.97 1.97 0 01-1.97-1.97v-3.184h-3.157v3.126a1.487 1.487 0 01-.856 2.705 1.488 1.488 0 01-.767-2.763v-3.879c0-.448.364-.811.812-.811h3.968v-1.73h-7.005zm8.628-8.158v14.695a.348.348 0 00.347.347h14.695a.347.347 0 00.348-.347V9.443a.348.348 0 00-.348-.348H31.358a.347.347 0 00-.347.348z" fill="#7FEBA1"/></svg>