<svg width="40" height="41" fill="none" xmlns="http://www.w3.org/2000/svg"><g clip-path="url(#clip0_449_620)"><path d="M20.047 20.5a6.667 6.667 0 1113.333 0 6.667 6.667 0 01-13.333 0z" fill="#00BCFF"/><path d="M6.713 33.833a6.667 6.667 0 016.667-6.666l3.552-1.876 3.114 1.876v6.666a6.667 6.667 0 01-13.333 0z" fill="#00CF7F"/><path d="M20.046.5l-3.628 6.302 3.628 7.031h6.573a6.667 6.667 0 100-13.333h-6.573z" fill="#FF7361"/><path d="M6.62 7.167a6.667 6.667 0 006.666 6.666l3.536 1.366 3.224-1.366V.5h-6.76a6.667 6.667 0 00-6.667 6.667z" fill="#FF4D12"/><path d="M6.713 20.5a6.667 6.667 0 006.667 6.667h6.666V13.833H13.38A6.667 6.667 0 006.713 20.5z" fill="#B659FF"/></g><defs><clipPath id="clip0_449_620"><path fill="#fff" transform="translate(0 .5)" d="M0 0h40v40H0z"/></clipPath></defs></svg>