<svg width="44" height="40" fill="none" xmlns="http://www.w3.org/2000/svg"><path d="M13.15 34.95c-1.678-1.32-3.466-2.582-4.687-4.361-2.571-3.14-4.551-6.772-5.904-10.592-.818-2.483-1.1-5.146-2.153-7.535-1.103-1.732.19-3.63 2.09-4.18.845-.162 2.332-.962.536-.39-1.609 1.18-1.764-1.073-.114-1.216 1.127-.151 1.54-1.072 1.155-1.9-1.21-.79 2.931-1.654.847-2.833C2.75-.394 7.956-.845 6.672 1.814 6.365 3.857 10.31 1.437 9.393 3.8c.93 1.134 3.484.258 3.42 1.85 1.355.093 1.82 1.232 3.093 1.32 1.32.594 3.709 1.063 4.157 2.55-1.306 1.035-4.335-2.138-4.482.729.395 4.234.294 8.596 1.842 12.629.733 2.44 2.51 4.363 4.111 6.264 1.536 1.862 3.616 3.174 5.734 4.277 1.859.877 3.864 1.457 5.89 1.823.82-.628 2.272-2.965 3.552-1.98.062 1.108-2.544 2.315-.124 2.193 1.423-.429 2.41 1.1 3.58-.28 1.079 1.278 4.482-.816 3.716 1.795-1.038.67-2.552.266-3.591 1.187-1.715-.857-3.08.766-4.978.56-2.108.379-4.251.53-6.388.533-3.506-.275-7.085-.393-10.42-1.614-1.88-.546-3.712-1.616-5.362-2.687l.005.001zm2.96 1.283c1.834.792 3.63 1.628 5.637 1.881 3.19.443 6.483 1.128 9.684.504-1.45-.655-2.947.254-4.39-.468-1.733.371-3.575-.096-5.363-.326-2-.89-4.16-1.504-6.033-2.662-2.342-.855 1.21 1.097 1.842 1.255 1.463.831-1.608-.412-2.043-.77-1.227-.687-1.382-.544-.121.154l.77.432h.017zm-3.493-2.466c1.778.66-.008-1.252-.82-1.142-.361-.625-1.38-1.021-.66-1.357-1.293.448-1.354-1.705-1.96-1.397-1.367-.432-.532-1.96-2.159-2.901-.148-.99-1.617-1.847-2.084-3.339-.207-.764-1.66-2.956-.768-.915.76 1.966 2.096 3.647 3.21 5.328.863 1.6 1.883 3.272 3.456 4.272.531.509 1.042 1.288 1.79 1.448l-.005.002zm-5.12-5.624c.324.58.061-.268 0 0zm7.25 6.411c.393-.176-.567-.222 0 0zm.962.352c-.1-.485-.44.273 0 0zm1.21.504c.575-.548-.887-.344 0 0zm2.071 1.155c.35-.516-1.118-.193 0 0zm-3.974-2.771c.894-.577-1.155-.008 0 0zm.908.454c-.028-.305-.323.137 0 0zm4.528 2.827c.728.459 4.251 1.006 2.046.188-.372.077-4.09-1.053-2.046-.188zm-7.189-5.6c-.069-.305-1.13-.338 0 0zm2.108 1.23c.55-.385-1.138-.296 0 0zm1.788 1.1c.788-.297-1.276-.298 0 0zm-4.756-3.266c.852.655 3.445.083 1.306-.39-.972-.518-3.163-.873-1.67.312l.362.078h.002zm5.94 3.626c.357-.605-1.494-.346 0 0zm-1.806-1.434c2.09.591-1.756-1.32-.515-.22l.275.124.24.093v.003zm3.62 2.09c1.98.02-1.788-.275 0 0zm-8.516-5.427c-.077-.368-.488.03 0 0zm11.862 7.304c.052-.666-.646.495 0 0zm-8.484-5.239c-.12-.35-.619-.014 0 0zm-3.19-2.296c1.136-.069-1.554-.5 0 0zm-3.777-2.44c-.142-.544-1.235-.978 0 0zm9.916 6.294c-.096.051-.206-.238 0 0zm6.172 3.788c-.02-.363-.336.138 0 0zm-6.717-4.352c.11-.467-.97-.141 0 0zm-4.598-2.915c.845-.089-1.355-.57 0 0zm7.777 4.833c1.317-.522-1.283-.254 0 0zm-4.046-2.745c1.517.195-1.805-1.032-.334-.11l.334.11zm5.273 3.242c1.417-.846.95 1.984 2.404.24 1.434-1.049-1.238 1.294.528.186 1.279-.855 3.167.406 4.359.816.858-.042 1.691.742 2.571.265 1.691-.457-3.311-.677-2-1.485-1.547.45-2.691-.536-3.455-1.53-1.738-.4-3.745-1.289-4.613-2.826-.353-.578.509.082-.305-.862-1.045-.931-1.568-1.989-2.271-3.122-.84-.446-.94-1.765-1.024-.044.007-1.086-1.013-1.819-1.264-1.515-.005-1.045 1.093-.522.324-1.295-.165-1.086-.71-2.214-.872-3.44-.254-.591-.035-1.857-.866-.519-.303 1.413-.1-1.735.371-.698.619-1.059-.223-.935-.255-.788.402-.894.255-2.162-.106-1.678.214-.948.34-3.485-.32-3.036.398-.99.758-4.533-.98-3.183-.704.01-1.922.256-2.498.542 1.805.996-.182.36-.919.2-.096.922-.825.523-1.732.533 1.455.179-.708 1.485-1.54.979-1.084.517.935 1.81.02 2.21.113.6-1.66-.218-1.52 1.174-1.05-.443-.145 1.65.382.942 1.788.484 1.258 1.586 1.303 2.636-.291.61-1.438-1.436-.255-1.341-.935-1.517-1.032-.55-1.808.157-.18.05 1.98 1.004.624 1.471 1.192.184 1.226 1.228 1.468 1.887.715.746.568-.825 1.426.072-.543-.797-2.873-2.25-.997-1.787-.01-.803-.34-1.452.237-1.437.57-1.031-.597 2.544.687 1.232.355-.155.444-1.031 1.082.082.927.914.336 1.574-.973.738.234.794 1.75 1.078 1.464 2.32.303 1.092.725.69 1.094.626.274 1.062.453.28.467-.224 1.323.283 1.012 1.066 1.427 1.611.912.413-1.306-2.788.261-.962 1.646 1.485.62 2.108-.859 1.87.935-.076 1.238 1.265 2.406 1.217 1.067.509 1.788 2.457-.05 1.644-.636-.574-2.895-1.284-1.05-.192 1.703.79 3.056 1.26 4.697 2.25 1.175.826 1.682 1.8 2.127 1.99-.987.472-2.975-.376-1.512-.636-.921-.168-1.958-.633-1.075.514.75.627 2.658.561 3 .633-.289.638-.788.687.011.738-.891.476.286.55.369.82l.01.005zm-1.823-5.148c-.543-.568-.683-1.63-.096-.705.302.12.962 1.736.096.705zm5.94 3.755c.338-.022.01.257 0 0zm-6.792-5.163c.195.66-.022-.858 0 0zm-.591-.794c.859.372-.684-1.32 0 0zm-7.153-4.95c.401-.107.198.685 0 0zm5.692 3.086c.275.776.248-.925 0 0zm-4.022-2.797c.592.479-.283-.508 0 0zm3.452 1.106c-.647-1.448.459-.79.144.236l-.144-.236zm-5.951-3.969c-.275-.475-.766-1.87-.612-2.296.137.693 1.474 2.984.654.963-.904-1.705 1.082.552 1.287.979.097.422-.558-.116-.115.877-.809-1.13-.477.624-1.213-.509l-.001-.014zm-1.839-1.267c.421.756.076-1.106 0 0zm.828.286c.668 1.162.395-.834 0 0zM7.562 17.5c-.684-.68-1.18-1.306.034-.422.467.018-1.039-1.426.112-.46 1.21.22.597 1.985-.144.88l-.002.002zm1.045-.027c.4-.395.212.387 0 0zm.644.206c.732.474-.605-1.13 0 0zm-1.279-1.221c-1.99-1.774 2.503.925.325.33l-.325-.33zm5.704 3.314c-.862-.516-.23-3.636.064-1.503.84-.271-.046 1.103.578 1.089-.096.866-.378 1.18-.642.414zm2.109 1.247c.179.643.082-.94 0 0zm-.366-.363c.096-.402.008.473 0 0zm-7.043-4.781c-1.278-1.764 3.717 1.785.82.447-.303-.08-.667-.107-.82-.447zm4.064 2.153c.27.248-.121-1.485 0 0zm3.084 1.98c.238-.845.018.56 0 0zm-6.95-4.807c.76-.162 3.162 1.334.955.426-.244-.269-.765-.147-.956-.426zm6.525 3.253c.082-1.519.454-.907.003.22l-.003-.22zm-5.96-3.78c.31-.454-.823-2.054.162-.574.412.338 1.233.566.522.71 1.12.99-.275.268-.683-.138l-.002.001zm5.637 3.308c.213-1.733.188 1.013 0 0zm-6.284-4.906c.236-.102.124.316 0 0zm1.471.875c.699.886.378-.794 0 0zm4.149 2.308c.078.444-.003-.303 0 0zm-.241-.531c.55.752-.575-1.42 0 0zm-.353-.932c.33.737-.097-.587 0 0zm.574-.935c-.396-.696.5-3.067.6-1.595-.417 1.146-.12 1.787.169.247.536-1.21-.114 2.389-.769 1.348zm.592-3.529c.171-.211.038.255 0 0zm-.989 19.458c.03.13-.234-.206 0 0zm2.035 1.029c1.132.291 1.128-.177.103-.317-.55-.511-2.285-1.054-.731-.063.101.275.426.256.628.38zm-4.015-2.668c.623.468 2.347 1.317.888.179.492-.572-.942-.877-.467-1.26-1.21-.742-.956-.687-.107-.65-1.455-.65.21-.601.132-.935-.561-.11-2.786-.99-1.477.071-1.331-.678-.316.253-.72.156-1.374-.372 1.21 1.037-.215.687.78.619 2.1 1.586.33.655-.234.335 1.268.845 1.65 1.1l-.014-.003zm2.127 1.224c2.585.833-1.269-1.018 0 0zm10.89 6.597c.033-.514-.353.44 0 0zm1.12.472c.596-.578.024.92.99-.142.009-.76-.028-1.21-1.109-.286-.298.165-.43.866.12.426l-.002.002zM8.081 25.28c-.183-.72-1.284-.718 0 0zm1.196.784c-.444-.736-1.584-.667 0 0zm6.801 4.101c.664.592 3.05.434.806.073-.33-.49-2.108-.371-.806-.073zm9.348 5.775c1.021-.858-.99.383 0 0zm2.125 1.46c.007-.274-.44.12 0 0zm.004-.384c1.132-1.197-1.096.068 0 0zM5.143 22.819c-.963-1.375-.6-1.994-1.53-3.117-.175-.86-1.595-2.81-.734-.743.79 1.21 1.023 3.08 2.264 3.864v-.004zm22.055 13.813c2.083-1.345-.853-.586 0 0zm1.589.623c1.045-.894-.66-.187 0 0zM7.727 23.76c.299-.444-.77-.058 0 0zm20.729 13.07c1.009-.65-.234-.55-.183.06l.183-.06zm-13.698-8.635c-.034-.44-.534.037 0 0zm.846.487c-.27-.545-.413.085 0 0zm14.471 8.587c1.293-.935-.783-.18-.27.178l.27-.178zm-.495-.24c1.055-.882-1.113.39 0 0zm2.53 1.685c.707-.473-.859-.151 0 0zM8.378 23.438c.949.211 3.788 2.334 2.113.147-.858-.255-.343-2.352-1.22-1.98.588.981.482 1.4-.75.78-1.55-.756-.87.375-.568.688-.413.096.546.358.426.366l-.001-.002zm-4.318-3.41c.17-.702-1.563-3.864-.818-1.584.268.477.24 1.381.818 1.584zm7.929 4.888c-.024-.058-.49-.409 0 0zm1.201.28c0-.742-1.328-.302 0 0zm10.419 6.567c-.2-.509-.784-.01 0 0zm.5.366c-.074-.285-.275.055 0 0zm4.13 2.601c.398-.292-.496-.038 0 0zM6.214 20.58c1.136-.44-1.217-.313 0 0zm16.474 10.38c-.014-.736-.725.183 0 0zM5.765 19.532c.73-.247-.673-.162 0 0zm2.118 1.026c-.014-.242-.224.092 0 0zm25.833 15.84c.938-.19 3.078.477 3.424-.247-1.141-.028-3.942-.805-4.074.184l.247.041.403.025v-.003zm-25.16-15.67c.017-.745-.58-.027 0 0zm-5.568-3.863c-.253-1.419-.963-.214 0 0zm1.327.334c.016-.456-1.216-.41 0 0zm.759.371c-.17.224-.22-.178 0 0zm4.775 3.063c.226-.207-.532-.152 0 0zm-5.28-3.905c-.13-1.073-1.54-.161 0 0zM1.847 14.96c-.039-.495-.266.187 0 0zm.405-.306c-.066-.587-.348.075 0 0zM4.49 15.99c.946-.371-1.722-.77-.192-.069l.192.07zm29.945 18.503c.605-.555-.77-.171 0 0zm3.616 1.875c.244-.715-.611.096 0 0zM4.716 14.823c.1-.694-.75.138 0 0zm-3.184-2.131c-.168-.983-.143-2.702 1.49-2.122-2.182.435 1.513 2.714 1.045.913.919.046 1.796-.543 1.313.348 1.811-.197 3.063-1.767 4.811-1.545 1.375-.182 2.85-.317 4.318-.867 1.206-.086 2.365-1.384 1.705-2.154-1.644-.138-3.366.066-5.184.429-2.014.418-3.843 1.214-5.875 1.553-1.98.267.399.733-.17.84-1.03.357 1.234.599-.133.978-.844-.16-1.723-.45-1.36-1.34-1.898.247-3.566 1.034-2.066 2.964l.11.002h-.004zm4.576-2.317c.444-1.639 2.383 1.348.729.22-.197-.149-.523-.268-.73-.22zm.086-.795c.643-.477.341.268 0 0zm.816.014c.059-.754 1.867.413.298.27l-.298-.27zm1.114-.448c.408-.477.118.422 0 0zm.285-.193c.68-.815 3.84-.522 1.513-.08-.619-.467-1.096.275-1.513.08zm4.125-.636c2.052.79-.101-2.228 0 0zm1.172-.007c.426-1.122 1.664-.451.2-.226.031.12-.045.58-.2.226zm-9.45 5.95c1.278-.784-1.358-.68 0 0zm.946.274c.448-.477-.963-.192 0 0zm-2.786-2c.729-.564-.866-.213 0 0zm37.771 23.63c.02-.653-.558.292 0 0zm-3.836-2.62c.11-.75-.495.064 0 0zm4.895 2.873c1.021.005 3.096-.316.873-.316-.35.055-2.035.041-.873.316zM6.036 14.05c.828-.055 1.293-.911-.16-.863-2.256-.234 1.988.773-.276.484-.305.202.432.434.45.378l-.014.001zm.729.369c-.087-.53-.256.282 0 0zm.866-2.305c.358-.445-.495-.12 0 0zm-2.75-4.598c1.477-.502 3.495-1.065 4.194.248-.71-.853-.286-1.694.385-.446.949 1.263 1.422-.574.806-.998.701.872 1.498 1.284.47.055 1.12-1.347-2.241.176-3.006.161-.367.165-3.795.874-2.846.98h-.003zm.866-1.657c.842-.635 2.913.379 1.585-.632-.131-.114-2.909.766-1.585.632zm3.07.127c.984.025-.427-1.324.748-.712-.193-.63-1.367-.747-1.942-1-.325.575.66 1.719 1.192 1.712h.002zM6.287 3.2c.34-.462-.599.234 0 0zm1.248.3c1.588-.21-.404-.683-.32-.017l.32.017zM5.192 1.671c-1.118-1.46 2.104.245.967-1.283-.957-.76-1.874.858-.967 1.283zM19.539 9.4c.513-.908-2.118-1.224-.344-.322.162.055.127.385.344.322z" fill="#000"/></svg>