<svg xmlns="http://www.w3.org/2000/svg" enable-background="new 0 0 70 70" viewBox="0 0 70 70" id="coding">
  <path d="M66.94,39.62h-2.17V6.1c0-2.12-1.72-3.85-3.84-3.85H9.07c-2.12,0-3.84,1.73-3.84,3.85v33.52H3.06
		c-0.42,0-0.75,0.34-0.75,0.75v4.55c0,2.48,2.01,4.49,4.49,4.49h17.37v2.15c0,1.18-0.96,2.14-2.14,2.14h-4.67
		c-2.01,0-3.65,1.64-3.65,3.65S15.35,61,17.36,61h15.16c0.4,4.03,3.78,6.75,7.45,6.75h5.26c4.14,0,7.5-3.37,7.5-7.5
		c0-4.14-3.36-7.51-7.5-7.51h-5.26c-3.89,0-7.09,2.97-7.46,6.76H17.36c-1.18,0-2.15-0.97-2.15-2.15s0.97-2.15,2.15-2.15h4.67
		c2.01,0,3.64-1.63,3.64-3.64v-2.15H63.2c2.48,0,4.49-2.01,4.49-4.49v-4.55C67.69,39.96,67.36,39.62,66.94,39.62z M38.69,54.38
		c0.42-0.09,0.85-0.14,1.28-0.14h5.26c3.31,0,6,2.7,6,6.01s-2.69,6-6,6h-5.26c-0.44,0-0.87-0.05-1.29-0.14
		c1.92-1.54,2.86-3.64,2.86-5.86C41.54,57.91,40.47,55.79,38.69,54.38z M36.2,59.5h1.61c0.41,0,0.75,0.33,0.75,0.75
		c0,0.41-0.34,0.75-0.75,0.75H36.2c-0.41,0-0.75-0.34-0.75-0.75C35.45,59.83,35.79,59.5,36.2,59.5z M63.27,39.62H40.43v2.86
		c0,0.29-0.23,0.53-0.53,0.53h-9.8c-0.29,0-0.53-0.24-0.53-0.53v-2.86H6.73V6.1c0-1.29,1.05-2.35,2.34-2.35h51.86
		c1.29,0,2.34,1.06,2.34,2.35V39.62z" fill="#ffffff" class="color000000 svgShape"></path>
  <path d="M57.7 7.61H43.39c-1.02 0-1.86.83-1.86 1.86v10.45c0 1.03.84 1.86 1.86 1.86H57.7c1.03 0 1.86-.83 1.86-1.86V9.47C59.56 8.44 58.73 7.61 57.7 7.61zM47.5 13.96c.29.29.29.76 0 1.06-.29.29-.77.29-1.06 0l-1.56-1.55c-.14-.15-.22-.34-.22-.54 0-.19.08-.39.22-.53l1.56-1.55c.29-.29.77-.29 1.06 0 .29.29.29.77 0 1.06l-1.02 1.02L47.5 13.96zM52.27 10.94c.24-.34.71-.41 1.05-.17.33.24.41.71.17 1.05l-4.79 6.63c-.24.34-.71.42-1.04.17-.34-.24-.42-.71-.17-1.05L52.27 10.94zM56.21 16.84l-1.56 1.56c-.29.29-.76.29-1.06 0-.29-.3-.29-.77 0-1.07l1.03-1.02-1.03-1.02c-.29-.3-.29-.77 0-1.06.3-.3.77-.3 1.06 0l1.56 1.55c.14.14.22.33.22.53S56.35 16.7 56.21 16.84zM11.131 10.237h2.84c.414 0 .75-.336.75-.75s-.336-.75-.75-.75h-2.84c-.414 0-.75.336-.75.75S10.717 10.237 11.131 10.237zM11.131 15.118h2.84c.414 0 .75-.336.75-.75s-.336-.75-.75-.75h-2.84c-.414 0-.75.336-.75.75S10.717 15.118 11.131 15.118zM18.354 10.237h11.4c.414 0 .75-.336.75-.75s-.336-.75-.75-.75h-11.4c-.414 0-.75.336-.75.75S17.94 10.237 18.354 10.237zM33.27 10.237h3.517c.414 0 .75-.336.75-.75s-.336-.75-.75-.75H33.27c-.414 0-.75.336-.75.75S32.856 10.237 33.27 10.237zM18.354 15.118h2.549c.414 0 .75-.336.75-.75s-.336-.75-.75-.75h-2.549c-.414 0-.75.336-.75.75S17.94 15.118 18.354 15.118zM37.537 14.368c0-.414-.336-.75-.75-.75H24.328c-.414 0-.75.336-.75.75s.336.75.75.75h12.459C37.201 15.118 37.537 14.782 37.537 14.368zM15.391 19.249h-2.84c-.414 0-.75.336-.75.75s.336.75.75.75h2.84c.414 0 .75-.336.75-.75S15.805 19.249 15.391 19.249zM15.391 24.13h-2.84c-.414 0-.75.336-.75.75s.336.75.75.75h2.84c.414 0 .75-.336.75-.75S15.805 24.13 15.391 24.13zM30.306 19.999c0-.414-.336-.75-.75-.75h-9.782c-.414 0-.75.336-.75.75s.336.75.75.75h9.782C29.97 20.749 30.306 20.414 30.306 19.999zM38.207 19.249h-3.924c-.414 0-.75.336-.75.75s.336.75.75.75h3.924c.414 0 .75-.336.75-.75S38.621 19.249 38.207 19.249zM19.774 24.13c-.414 0-.75.336-.75.75s.336.75.75.75h2.875c.414 0 .75-.336.75-.75s-.336-.75-.75-.75H19.774zM38.207 24.13H26.688c-.414 0-.75.336-.75.75s.336.75.75.75h11.519c.414 0 .75-.336.75-.75S38.621 24.13 38.207 24.13zM13.643 29.32h-2.84c-.414 0-.75.336-.75.75s.336.75.75.75h2.84c.414 0 .75-.336.75-.75S14.057 29.32 13.643 29.32zM13.643 34.201h-2.84c-.414 0-.75.336-.75.75s.336.75.75.75h2.84c.414 0 .75-.336.75-.75S14.057 34.201 13.643 34.201zM18.026 30.82h1.748c.414 0 .75-.336.75-.75s-.336-.75-.75-.75h-1.748c-.414 0-.75.336-.75.75S17.612 30.82 18.026 30.82zM36.458 29.32H24.506c-.414 0-.75.336-.75.75s.336.75.75.75h11.952c.414 0 .75-.336.75-.75S36.873 29.32 36.458 29.32zM36.458 34.201H18.026c-.414 0-.75.336-.75.75s.336.75.75.75h18.433c.414 0 .75-.336.75-.75S36.873 34.201 36.458 34.201zM52.165 29.32h-8.92c-.414 0-.75.336-.75.75s.336.75.75.75h8.92c.414 0 .75-.336.75-.75S52.579 29.32 52.165 29.32zM47.965 34.201h-4.721c-.414 0-.75.336-.75.75s.336.75.75.75h4.721c.414 0 .75-.336.75-.75S48.379 34.201 47.965 34.201z" fill="#ffffff" class="color000000 svgShape"></path>
</svg>
