<svg width="46" height="46" fill="none" xmlns="http://www.w3.org/2000/svg">
  <!-- Background Circle -->
  <circle cx="23" cy="23" r="18" fill="#7FEBA1"/>
  
  <!-- Frontend (Browser Window) - Top Half -->
  <path d="M13 10C13 9.44772 13.4477 9 14 9H32C32.5523 9 33 9.44772 33 10V20C33 20.5523 32.5523 21 32 21H14C13.4477 21 13 20.5523 13 20V10Z" stroke="#333" stroke-width="1.5" fill="white"/>
  
  <!-- Browser Controls -->
  <circle cx="16" cy="12" r="1" fill="#333"/>
  <circle cx="19" cy="12" r="1" fill="#333"/>
  <circle cx="22" cy="12" r="1" fill="#333"/>
  
  <!-- Code Brackets -->
  <path d="M17 15L15 17L17 19" stroke="#333" stroke-width="1.5" stroke-linecap="round" stroke-linejoin="round"/>
  <path d="M29 15L31 17L29 19" stroke="#333" stroke-width="1.5" stroke-linecap="round" stroke-linejoin="round"/>
  
  <!-- Connecting Line -->
  <path d="M23 21V25" stroke="#333" stroke-width="1.5" stroke-linecap="round" stroke-dasharray="2 2"/>
  
  <!-- Backend (Server Stack) - Bottom Half -->
  <path d="M13 25C13 24.4477 13.4477 24 14 24H32C32.5523 24 33 24.4477 33 25V34C33 34.5523 32.5523 35 32 35H14C13.4477 35 13 34.5523 13 34V25Z" stroke="#333" stroke-width="1.5" fill="white"/>
  
  <!-- Server Divisions -->
  <path d="M13 28H33" stroke="#333" stroke-width="1.5" stroke-linecap="round"/>
  <path d="M13 31H33" stroke="#333" stroke-width="1.5" stroke-linecap="round"/>
  
  <!-- Server Status Lights -->
  <circle cx="16" cy="26.5" r="1" fill="#333"/>
  <circle cx="16" cy="29.5" r="1" fill="#333"/>
  <circle cx="16" cy="32.5" r="1" fill="#333"/>
  
  <!-- Data Flow Lines -->
  <path d="M20 26.5H30" stroke="#333" stroke-width="1.5" stroke-linecap="round"/>
  <path d="M20 29.5H30" stroke="#333" stroke-width="1.5" stroke-linecap="round"/>
  <path d="M20 32.5H30" stroke="#333" stroke-width="1.5" stroke-linecap="round"/>
</svg>