<svg width="39" height="39" fill="none" xmlns="http://www.w3.org/2000/svg"><path d="M17.012.107c-.43.187-.451.294-.451 2.667v2.137l-1.527 1.527-1.52 1.52h-2.316c-2.509 0-2.624.014-2.796.394-.064.136-.086.96-.086 2.94v2.752l.172.2.173.201 2.451.022c2.165.014 2.474.007 2.631-.093.352-.237.38-.43.38-2.775V9.427l1.635-1.634 1.627-1.628h2.423c1.527 0 2.474-.028 2.567-.071.33-.18.351-.337.351-2.99 0-2.746-.007-2.767-.43-2.975-.222-.115-.509-.13-2.652-.13-1.886.008-2.452.03-2.631.108zm8.107 8.094l-.244.244v2.732c0 2.917.014 3.046.351 3.233.094.043 1.033.071 2.545.071h2.41l.229-.207.236-.208.022-2.718c.014-2.473.007-2.73-.108-2.96-.215-.423-.25-.43-2.839-.43h-2.358l-.244.243zM.208 16.84L0 17.048v2.416c0 2.717.007 2.767.487 2.903.18.057 1.097.072 2.753.057l2.495-.021.194-.2.2-.194.022-2.402c.022-2.617 0-2.76-.387-2.903-.1-.044-1.29-.072-2.76-.072H.416l-.208.208zm16.732-.136c-.35.143-.38.337-.38 2.53v2.03l-1.626 1.627-1.628 1.627h-2.165c-1.197 0-2.251.029-2.344.065a1.13 1.13 0 00-.33.23c-.15.157-.15.221-.15 2.83v2.66l.186.194.193.187h2.466c1.635 0 2.517-.03 2.617-.08.309-.164.344-.43.344-2.666v-2.1l1.685-1.693 1.685-1.699 2.409-.021 2.409-.022.207-.236.208-.23v-2.373c0-2.516-.021-2.681-.351-2.86-.172-.093-5.205-.093-5.434 0zm16.08.107l-.187.172v4.488l-1.52 1.52-1.527 1.52-2.244.021-2.251.022-.208.237-.208.229v5.248l.208.208.208.208h2.452c1.613 0 2.495-.03 2.595-.08.308-.164.344-.43.344-2.695v-2.143l1.663-1.664 1.656-1.663h2.015c2.222 0 2.287-.014 2.495-.43.114-.222.129-.502.129-2.48 0-1.406-.029-2.309-.08-2.452-.15-.445-.164-.445-2.881-.445h-2.466l-.194.18zM16.928 33.293c-.351.194-.358.273-.366 2.79 0 2.566.015 2.659.41 2.838.114.05 1.031.079 2.68.079 2.746 0 2.832-.014 2.997-.416.057-.143.079-.882.065-2.617-.022-2.401-.022-2.416-.187-2.573l-.165-.165-2.63-.014c-2.094-.015-2.668 0-2.804.078z" fill="#15C16B"/></svg>