<svg width="584" height="569" xmlns="http://www.w3.org/2000/svg" xmlns:xlink="http://www.w3.org/1999/xlink"><defs><linearGradient x1="83.673%" y1="13.451%" x2="22.078%" y2="82.653%" id="a"><stop stop-color="#88DEB1" offset="0%"/><stop stop-color="#239659" offset="15.722%"/><stop stop-color="#2374D4" stop-opacity=".62" offset="46.191%"/><stop stop-color="#0657B5" stop-opacity="0" offset="100%"/></linearGradient><linearGradient x1="83.673%" y1="13.451%" x2="32.329%" y2="71.83%" id="b"><stop stop-color="#88DEB1" offset="0%"/><stop stop-color="#239659" offset="15.722%"/><stop stop-color="#2374D4" stop-opacity=".62" offset="35.578%"/><stop stop-color="#0657B5" stop-opacity="0" offset="100%"/></linearGradient><linearGradient x1="87.241%" y1="17.324%" x2="2.386%" y2="77.593%" id="d"><stop stop-color="#083A80" offset="0%"/><stop stop-color="#042347" stop-opacity="0" offset="100%"/></linearGradient><linearGradient x1="50%" y1="0%" x2="50%" y2="100%" id="g"><stop stop-color="#89DFB2" offset="0%"/><stop stop-color="#1A488A" offset="77.223%"/><stop stop-color="#1C6B96" offset="100%"/></linearGradient><linearGradient x1="48.758%" y1="16.025%" x2="51.267%" y2="104.541%" id="h"><stop stop-color="#182C7E" offset="0%"/><stop stop-color="#1A0048" offset="100%"/></linearGradient><linearGradient x1="49.999%" y1="0%" x2="49.999%" y2="100%" id="i"><stop stop-color="#89DFB2" offset="0%"/><stop stop-color="#1A488A" offset="77.223%"/><stop stop-color="#1C6B96" offset="100%"/></linearGradient><linearGradient x1="70.357%" y1="51.534%" x2="101.446%" y2="54.262%" id="j"><stop stop-color="#FFB8AB" offset="0%"/><stop stop-color="#F99D8A" offset="100%"/></linearGradient><linearGradient x1="50%" y1="0%" x2="50%" y2="100%" id="k"><stop stop-color="#89DFB2" offset="0%"/><stop stop-color="#1A488A" offset="77.223%"/><stop stop-color="#0F5982" offset="100%"/></linearGradient><linearGradient x1="58.886%" y1="-64.905%" x2="48.553%" y2="81.529%" id="l"><stop stop-color="#FFB8AB" offset="0%"/><stop stop-color="#F99D8A" offset="100%"/></linearGradient><linearGradient x1="49.951%" y1="22.168%" x2="49.951%" y2="136.765%" id="m"><stop stop-color="#FFB8AB" offset="0%"/><stop stop-color="#F99D8A" offset="100%"/></linearGradient><linearGradient x1="44.351%" y1="-3.294%" x2="56.726%" y2="108.04%" id="n"><stop stop-color="#6DB0FF" offset="0%"/><stop stop-color="#4B56BB" offset="100%"/></linearGradient><linearGradient x1="-.18%" y1="50.325%" x2="99.655%" y2="50.325%" id="o"><stop stop-color="#B5D9F8" offset="0%"/><stop stop-color="#8EC1F8" offset="100%"/></linearGradient><linearGradient x1="53.593%" y1="3.634%" x2="45.311%" y2="95.742%" id="p"><stop stop-color="#B5D9F8" offset="0%"/><stop stop-color="#8EC1F8" offset="100%"/></linearGradient><linearGradient x1="23.983%" y1="4.823%" x2="68.277%" y2="122.288%" id="q"><stop stop-color="#6DB0FF" offset="0%"/><stop stop-color="#4B56BB" offset="100%"/></linearGradient><linearGradient x1="50%" y1="0%" x2="50%" y2="100%" id="r"><stop stop-color="#89DFB2" offset="0%"/><stop stop-color="#1A488A" offset="77.223%"/><stop stop-color="#0F5982" offset="100%"/></linearGradient><linearGradient x1="-.098%" y1="49.951%" x2="411.682%" y2="49.951%" id="s"><stop stop-color="#182C7E" offset="0%"/><stop stop-color="#1A0048" offset="100%"/></linearGradient><linearGradient x1="27.887%" y1="21.046%" x2="69.174%" y2="75.073%" id="t"><stop stop-color="#B5D9F8" offset="0%"/><stop stop-color="#8EC1F8" offset="100%"/></linearGradient><linearGradient x1="57.951%" y1="95.012%" x2="38.718%" y2="5.765%" id="u"><stop stop-color="#FFB8AB" offset="0%"/><stop stop-color="#F99D8A" offset="100%"/></linearGradient><linearGradient x1="50%" y1="0%" x2="50%" y2="100%" id="v"><stop stop-color="#89DFB2" offset="0%"/><stop stop-color="#1A488A" offset="77.223%"/><stop stop-color="#0F5982" offset="100%"/></linearGradient><linearGradient x1="49.309%" y1="9.523%" x2="56.018%" y2="134.662%" id="w"><stop stop-color="#184AA7" offset="0%"/><stop stop-color="#190E5B" offset="100%"/></linearGradient><linearGradient x1="124.428%" y1="101.258%" x2="20.424%" y2="28.075%" id="x"><stop stop-color="#FFC39A" offset="0%"/><stop stop-color="#E8A38C" offset="100%"/></linearGradient><linearGradient x1="121.493%" y1="168.015%" x2="36.794%" y2="1.472%" id="y"><stop stop-color="#435FEA" offset="0%"/><stop stop-color="#008EFF" offset="100%"/></linearGradient><linearGradient x1="83.07%" y1="-8.58%" x2="21.999%" y2="112.876%" id="z"><stop stop-color="#FFC39A" offset="0%"/><stop stop-color="#E8A38C" offset="100%"/></linearGradient><linearGradient x1="49.465%" y1=".041%" x2="53.692%" y2="63.305%" id="A"><stop stop-color="#051930" offset="1.615%"/><stop stop-color="#15304F" offset="48.178%"/><stop stop-color="#145A80" offset="100%"/></linearGradient><linearGradient x1="48.784%" y1=".041%" x2="53.251%" y2="66.899%" id="B"><stop stop-color="#051930" offset="1.615%"/><stop stop-color="#15304F" offset="48.178%"/><stop stop-color="#145A80" offset="100%"/></linearGradient><linearGradient x1="67.225%" y1="108.167%" x2="27.069%" y2="-15.281%" id="C"><stop stop-color="#435FEA" offset="0%"/><stop stop-color="#008EFF" offset="100%"/></linearGradient><linearGradient x1="49.699%" y1="-9.361%" x2="50.179%" y2="112.379%" id="D"><stop stop-color="#3945BA" offset="0%"/><stop stop-color="#0C176F" offset="100%"/></linearGradient><linearGradient x1="10.747%" y1="37.018%" x2="70.103%" y2="53.029%" id="E"><stop stop-color="#FFC39A" offset="0%"/><stop stop-color="#E8A38C" offset="100%"/></linearGradient><linearGradient x1=".016%" y1="49.999%" x2="100.033%" y2="49.999%" id="F"><stop stop-color="#FFC39A" offset="0%"/><stop stop-color="#E8A38C" offset="100%"/></linearGradient><linearGradient x1="-.638%" y1="49.947%" x2="99.311%" y2="49.947%" id="G"><stop stop-color="#3945BA" offset="0%"/><stop stop-color="#0C176F" offset="100%"/></linearGradient><linearGradient x1="20.412%" y1="45.214%" x2="81.795%" y2="58.421%" id="H"><stop stop-color="#FFC39A" offset="0%"/><stop stop-color="#E8A38C" offset="100%"/></linearGradient><linearGradient x1=".037%" y1="49.853%" x2="100.004%" y2="49.853%" id="I"><stop stop-color="#FFC39A" offset="0%"/><stop stop-color="#E8A38C" offset="100%"/></linearGradient><linearGradient x1="-23.444%" y1="-38.705%" x2="73.137%" y2="69.613%" id="J"><stop stop-color="#435FEA" offset="0%"/><stop stop-color="#008EFF" offset="100%"/></linearGradient><linearGradient x1="47.937%" y1="6.333%" x2="50.729%" y2="91.104%" id="K"><stop stop-color="#2E2A87" offset="0%"/><stop stop-color="#000E42" offset="100%"/></linearGradient><linearGradient x1="156.161%" y1="27.568%" x2="4.828%" y2="58.603%" id="L"><stop stop-color="#435FEA" offset="0%"/><stop stop-color="#008EFF" offset="100%"/></linearGradient><linearGradient x1="118.778%" y1="18.774%" x2="21.689%" y2="58.967%" id="M"><stop stop-color="#435FEA" offset="0%"/><stop stop-color="#008EFF" offset="100%"/></linearGradient><linearGradient x1="49.39%" y1="-8.936%" x2="51.378%" y2="113.49%" id="N"><stop stop-color="#3945BA" offset="0%"/><stop stop-color="#0C176F" offset="100%"/></linearGradient><linearGradient x1="0%" y1="47.516%" x2="123.498%" y2="48.28%" id="O"><stop stop-color="#7FEBA1" offset="0%"/><stop stop-color="#2E76D9" offset="100%"/></linearGradient><radialGradient cx="50%" cy="50%" fx="50%" fy="50%" r="51.02%" gradientTransform="matrix(0 .98 -1 0 1 .01)" id="c"><stop stop-color="#355BBF" offset="0%"/><stop stop-color="#0A233F" stop-opacity="0" offset="100%"/></radialGradient><circle id="e" cx="230.393" cy="230.393" r="230.393"/></defs><g transform="matrix(-1 0 0 1 582 1)" fill="none" fill-rule="evenodd"><path d="M0 285.347C0 130.386 125.621 4.765 280.582 4.765c154.962 0 280.583 125.621 280.583 280.582 0 154.962-125.621 280.583-280.583 280.583" stroke="url(#a)" stroke-width="3"/><path d="M30.591 285.347c0-138.066 111.925-249.99 249.991-249.99 138.066 0 249.991 111.924 249.991 249.99S418.648 535.338 280.582 535.338" stroke="url(#b)" stroke-width="20"/><ellipse cx="23.422" cy="23.9" rx="23.422" ry="23.9" opacity=".7" transform="translate(514.321 264.794)" fill="url(#c)" fill-opacity=".88" fill-rule="nonzero"/><circle fill="url(#d)" fill-rule="nonzero" cx="280.107" cy="285.826" r="230.393"/><g transform="translate(49.712 55.433)"><mask id="f" fill="#fff"><use xlink:href="#e"/></mask><g mask="url(#f)" fill-rule="nonzero"><path d="M207.45 550.511s-3.296 2.119-10.83 3.061c-11.772 1.412-18.835 0-18.835 0s-33.667-107.829-28.017-144.086c-3.06-6.592-7.298-17.187-12.007-30.135-4.473-12.007-9.417-25.427-14.126-38.847-11.536-32.725-21.895-63.802-21.895-63.802l76.045-26.134s16.245 113.715 20.012 151.855c3.767 36.963 9.653 148.088 9.653 148.088z" fill="url(#g)" transform="translate(-7.705 74.567)"/><path d="M137.524 379.351c-4.473-12.007-9.417-25.427-14.126-38.847l7.3-12.242 6.826 51.089z" fill="url(#h)" opacity=".4" transform="translate(-7.705 74.567)"/><path d="M143.87 279.997l-73.455-1.648s-4.003 111.831-4.709 126.899c0 0 .706 9.417-4.238 31.313C56.054 460.81 51.11 552.629 51.11 552.629s14.361 4.944 30.842 4.003c0 0 23.308-84.756 28.016-142.438 12.714-36.963 33.903-134.197 33.903-134.197z" fill="url(#i)" transform="translate(-7.705 74.567)"/><path d="M290.081 211.25c-.235.706-1.177 1.413-1.648 2.119-.47.942-.235 2.354-.942 3.296-.47.706 4.944 2.354 4.474 3.061-.707.941-7.534.941-8.712.941-4.944.707-9.18-.47-13.184-2.589-2.59-1.413-10.359-4.474-13.89-4.944-13.42-1.884-64.038-5.651-73.22-9.418-20.012-8.475-33.903-45.438-33.903-45.438l42.143-3.297s4.238 25.427 5.886 28.017c1.648 2.354 49.441 12.949 64.744 14.361 2.59.236 7.534.236 10.124-.47 2.59-.707 8.24-1.884 11.536-.707 3.296 1.177 15.54 8.005 15.774 8.947-.47 0-.47 5.886-9.182 6.121z" fill="url(#j)" transform="translate(-7.705 74.567)"/><path d="M255.48 219.255s4.002-10.359 4.944-22.131l-61.684-16.48s-6.827-40.73-20.482-62.154c-3.06-4.709-5.886-8.712-7.77-9.889-18.599-9.888-23.543 55.563-23.543 55.563s11.065 25.191 26.84 40.259c11.771 11.301 81.695 14.832 81.695 14.832z" fill="url(#k)" transform="translate(-7.705 74.567)"/><path d="M172.898 352.21s-3.296.941-83.579-.236c1.177-4.473-24.25-108.77-24.25-116.54.236-6.121-7.298-40.73-4.708-45.909 3.767-7.534 19.776-12.949 35.786-17.187 12.242-3.296 25.897-6.121 25.897-6.121l20.718 7.534s16.245 9.182 19.071 12.242c2.589 11.301 4.473 102.649 5.179 122.897.471 5.65 5.886 43.32 5.886 43.32z" fill="#FFF"/><path d="M133.502 117.077c-16.716-3.296-29.665-19.305-29.665-19.305l4.238-2.119s1.884-1.884 2.12-4.709c1.412-14.832-4.474-29.9-4.474-29.9 10.36 7.298 24.014 11.772 30.842 14.126.235 1.177.706 6.828 2.12 11.536.94 2.825 1.882 5.415 3.53 6.592.707.236 8.24 27.075-8.71 23.779z" fill="url(#l)" transform="translate(-7.705 74.567)"/><path d="M131.252 161.038c-11.772-2.59-22.602-15.304-22.602-15.304l20.483 4.003c.235 1.177.942 6.592 2.119 11.301z" fill="#E3A39A"/><path d="M148.584 81.527c-3.532.235-7.534-.236-12.478-1.648 0 0-4.709-1.884-11.066-4.709-5.415-2.59-13.184-5.886-17.892-10.83l-3.767-8.946c-3.767-13.42 1.883-29.43 5.65-34.374C121.51 4.54 154 9.249 159.414 34.44c.471 1.883.471 4.002.235 5.886-.47 2.825-.942 7.534-.706 13.184.235 8.476-4.944 27.781-10.359 28.017z" fill="url(#m)" transform="translate(-7.705 74.567)"/><path d="M136.641 108.3c-2.355-.47-3.296-.706-5.886-1.648 1.177.471 1.648 4.003-3.296 3.767-4.709-.235-5.18 8.711-13.185 11.772-.47 4.002-.471 8.946.707 14.126l-4.238-.471c-.471-2.354-1.413-7.534-3.296-10.124-.236-.47-2.355-3.531-6.592-2.589-1.648.471-3.767 2.119-3.767 6.827 0 3.767 1.412 6.828 3.06 8.947.707 5.886 2.119 11.771 2.119 13.655-1.412-.236-17.657-34.138-15.774-49.206 1.648-11.771 8.947-16.009 15.303-16.009 3.296-13.185 19.071-13.891 27.075-12.007 7.534 1.883 12.007 5.415 20.483 9.652 9.888 4.709 13.891 2.119 14.832 6.593 1.884 8.946-7.534 21.424-27.545 16.715z" fill="#000"/><path d="M135.182 126.259s-14.126 92.055-12.949 109.712c1.178 17.658 18.364 44.026 21.66 44.026 4.003 0 13.42-29.193 13.655-42.378.471-13.184-13.89-112.302-13.89-112.302l-8.476.942z" fill="url(#n)" transform="translate(-7.705 74.567)"/><path d="M110.691 90.002s12.714 13.655 28.488 18.128l-8.005 14.597s-19.305-6.356-27.075-25.191l6.592-7.534z" fill="url(#o)" transform="translate(-7.705 74.567)"/><path d="M140.825 90.944s4.238 7.534-1.648 17.422l5.886 12.242s7.063-13.89-.706-25.662c-.47-.706-.942-1.177-1.648-1.883l-1.884-2.119z" fill="url(#p)" transform="translate(-7.705 74.567)"/><path d="M138.936 108.13l-8.005 14.597 4.003 3.296s6.827 0 8.711-.941l1.177-4.709-5.886-12.243z" fill="url(#q)" transform="translate(-7.705 74.567)"/><path d="M147.661 98.006s2.825 1.413 3.296 15.068c.706 26.84-9.888 98.411-9.888 98.411s-19.306-74.632-29.9-99.353c-4.238-9.888-7.064-14.361-7.064-14.361s-21.424.235-37.198 11.536c-1.648 1.177-2.59 4.238-3.296 6.357l8.005 49.441s11.3 56.504 5.415 93.467c-1.884 11.772-12.243 46.145-12.243 46.145s18.6 6.592 29.665 7.063c37.198 1.177 44.261-10.123 47.086-16.245 1.884-4.708 3.297-15.067 3.297-15.067s4.708 11.771 7.298 15.067c10.124 13.185 36.257 9.182 36.257 9.182s-7.299-36.492-9.418-58.623c-2.118-22.131.707-89.229.707-89.229s-2.355-30.842-9.182-47.793c-4.473-4.003-16.716-10.359-22.837-11.066z" fill="url(#r)" transform="translate(-7.705 74.567)"/><path d="M8.502 182.999c-9.182 25.897 48.263 81.46 48.263 81.46s10.83-6.592 20.483-16.716l-33.431-56.269 28.016-26.368-8.005-49.441c-17.421 14.126-47.086 44.026-55.326 67.334z" fill="url(#s)" transform="translate(-7.705 74.567)"/><path d="M41.7 315.077L.735 251.745c-1.413-2.119-.706-5.18 1.413-6.592l90.641-58.388c2.12-1.412 5.18-.706 6.592 1.413l40.966 63.331c1.412 2.119.706 5.18-1.413 6.593l-90.641 58.387c-2.355 1.413-5.18.706-6.593-1.412z" fill="url(#t)" transform="translate(-7.705 74.567)"/><path d="M97.736 269.167c5.18 3.061 8.946 1.413 7.77-.706-1.178-2.119-6.593-6.828-8.477-7.769-2.118-1.177-7.298-3.061-9.652-4.003-.942-.235-2.355-.941-3.767-1.648-3.296-1.412-6.122-4.002-8.005-7.063-7.534-12.949-28.252-48.734-32.018-56.739 7.533-7.769 14.125-14.126 22.13-22.131 1.412-1.413-24.956-29.665-24.956-29.665S6.388 176.406 8.036 187.707c4.002 27.546 56.974 75.81 56.974 75.81.942 2.354 8.241 16.716 8.241 16.716s3.531 4.473 4.944 6.121c1.177 1.413 6.827 4.944 8.24 4.944.706 0 1.177-.235 1.177-.706 2.354 1.648 4.71 3.06 5.886 3.06 1.413 0 2.354-.706 1.883-2.118 1.65.941 3.061 1.883 4.003 1.883 2.354.235 3.06-2.119 0-5.18-3.06-3.06-8.005-7.533-8.005-7.533.471.47.942.706 1.177.941 1.648 1.178 7.534 4.474 9.653 4.709 2.354.471 2.12-1.413 1.177-3.531-.942-1.884-4.002-2.826-6.357-5.18-2.589-2.354-6.592-8.476-6.592-8.476s3.296-.706 7.3 0z" fill="url(#u)" transform="translate(-7.705 74.567)"/><path d="M8.502 182.999c-9.182 25.897 48.263 81.46 48.263 81.46s10.83-6.592 20.483-16.716l-33.431-56.269 32.02-26.839-9.419-54.621c-17.421 14.126-49.676 49.677-57.916 72.985z" fill="url(#v)" transform="translate(-7.705 74.567)"/><path d="M158.693 134.263s6.592 7.534 6.121 9.418c-.706 3.767-24.014 79.576-24.014 79.576s-5.415-12.949-13.656-25.662c-8.004-12.714-29.193-47.558-28.487-49.912.706-2.59 10.124-12.243 10.124-12.243s-12.478-4.237-12.243-7.769c.235-3.296 3.767-29.429 3.767-29.429 2.12-.471 3.531-.471 3.531-.471s2.826 4.473 7.063 14.361c10.595 24.956 29.901 99.353 29.901 99.353s10.36-71.807 9.888-98.411c-.236-13.42-4.709-15.303-4.709-15.303 1.177.235 3.767.471 5.415 1.413 4.002 5.885 14.362 24.956 14.126 27.31-.235 2.119-6.827 7.769-6.827 7.769z" fill="url(#w)" transform="translate(-7.705 74.567)"/><path d="M319.525 152.863s-20.483 13.185-33.667 12.478c-5.18-.235-18.835-5.415-32.96-11.536-14.363-6.121-29.43-13.184-38.377-17.422 0 0-10.594-1.177-15.538-1.177-4.709 0-11.3-2.355-14.126-3.296-2.119-4.944-4.238-9.418-6.828-13.42-.942-1.648-2.119-3.296-3.06-4.709.235-.471 1.177-.471 2.354-.235 2.825.471 9.888 2.59 9.888 2.59l3.531.471c3.532.47 6.593.47 6.593.47s-5.415-2.354-7.063-4.002c-1.648-1.648-1.648-4.002 0-3.531 1.648.47 5.415.235 10.36 2.354 4.707 2.119 4.943 4.238 7.533 6.357a67.061 67.061 0 004.708 3.531c6.592 1.413 21.896 4.944 33.667 7.063 15.068 3.061 39.082 9.888 39.082 9.888l17.187-11.301 16.716 25.427z" fill="url(#x)" transform="translate(-7.705 74.567)"/><path d="M356.72 96.123l-14.597 50.383c-2.355 1.648-4.709 3.531-7.299 5.415-5.415 3.767-10.83 7.534-14.832 10.123-3.532 2.119-5.65 3.767-5.65 3.767-13.185-12.948-22.13-32.96-22.13-32.96s23.071-17.893 38.14-26.369c14.596-8.475 26.367-10.359 26.367-10.359z" fill="url(#y)" transform="translate(-7.705 74.567)"/><path d="M335.288 139.679l-.706 12.242c-5.415 3.767-10.83 7.534-14.832 10.124l11.771-24.721 3.767 2.355z" fill="url(#z)" opacity=".5" transform="translate(-7.705 74.567)"/><path d="M371.087 250.097c-9.418-13.655-33.903-6.828-42.143-4.002-3.767 1.412-10.124 108.299-11.536 160.095 0 2.354 3.296 93.467 6.827 146.204 4.238.942 18.364 2.119 29.665 1.648 4.944-40.024 13.891-125.957 6.121-143.379 2.355-7.77 8.241-32.255 12.95-53.208a846.265 846.265 0 004.708-21.896c1.177-5.415 1.883-9.181 2.12-10.594.47-3.061.94-6.828 1.176-11.301 1.413-19.07 0-49.206-9.888-63.567z" fill="url(#A)" transform="translate(-7.705 74.567)"/><path d="M456.273 539.522c-3.253-29.43-15.452-115.476-31.718-134.432-.813-17.458 1.83-94.526 2.033-101.509.814-26.188-8.132-59.859-19.315-71.581l-49 1.247 14.03 78.065c4.88 24.193 9.962 77.816 17.688 101.76.61 1.995 34.361 110.239 43.51 135.928 0 0 7.523-1.247 14.233-3.492 7.522-2.743 8.54-5.986 8.54-5.986z" fill="url(#B)" transform="translate(-7.705 74.567)"/><path d="M340.242 104.598c2.59-3.767 12.714-7.769 20.72-9.653 6.826-1.177 16.714-2.118 28.957.942 14.126 3.767 25.427 8.947 28.723 12.949 6.121 7.298 10.36 12.007.706 75.574-2.119 13.655-1.648 45.91-1.648 53.915 0 8.004 2.825 12.007.942 14.361-4.473 5.18-41.436 8.476-56.269 8.476-12.949 0-35.079-3.532-36.257-7.534-.94-3.296 3.296-36.963 3.532-74.397.235-63.803 8.24-71.808 10.594-74.633z" fill="url(#C)" transform="translate(-7.705 74.567)"/><path d="M364.503 106.718s-16.95 100.765-17.422 112.773c-.235 12.007 12.243 34.844 13.891 34.844 4.002 0 11.065-17.658 13.42-32.961 2.354-15.303-2.355-113.95-2.355-113.95l-7.534-.706z" fill="url(#D)" transform="translate(-7.705 74.567)"/><path d="M389.91 95.888s-13.89 10.594-28.959-.942c0 0 1.883-3.532 2.12-4.238.94-1.412 2.353-4.709 3.53-8.946 0-.236.236-.707.236-.942l.706-4.238c.235-2.59.235-5.65-.235-8.946l1.412-1.178 24.014-18.834 2.826-2.119s-.707 4.473-1.884 11.301c-.706 3.767-1.413 8.24-2.119 12.949-1.177 9.417-1.648 26.133-1.648 26.133z" fill="url(#E)" transform="translate(-7.705 74.567)"/><path d="M384.756 69.989c-3.53 4.944-11.3 15.068-21.424 20.483.942-1.413 2.354-4.709 3.531-8.946-1.648.47-3.06.706-4.473.941 0-1.177.236-2.354 0-3.531l1.648-.942 3.532-1.648 19.07-9.182c0-.235-.706.942-1.884 2.825z" fill="url(#F)" opacity=".5" transform="translate(-7.705 74.567)"/><path d="M346.833 30.908s-3.296 9.652 4.237 16.009l2.59-15.538-6.827-.471z" fill="url(#G)" transform="translate(-7.705 74.567)"/><path d="M388.508 65.281c-1.177 1.648-2.59 3.296-4.003 4.944-2.354 2.59-4.944 4.709-7.769 6.828-3.767 2.589-7.063 4.002-10.124 4.708-1.648.471-3.06.707-4.473.942-6.356.471-10.123-1.883-10.123-1.883-5.886-8.947-5.65-23.308-4.474-34.138.471-4.474 1.178-8.24 1.884-11.066.471-2.354.942-4.002.942-4.002v-.236c2.59-14.126 21.424-14.596 34.373-6.592l2.12 1.413c3.53 2.59 6.591 5.886 8.474 9.888 3.061 6.592 1.178 14.126-1.883 20.718-.236.236-.236.707-.47.942-1.178 2.59-2.826 5.18-4.474 7.534z" fill="url(#H)" transform="translate(-7.705 74.567)"/><path d="M381.983 92.997c-.471-5.415-3.532-8.946-6.828-10.594-12.949-6.828-22.601 8.24-37.198 2.825-7.77-3.061-7.063 19.07 2.59 24.249 10.359 5.415 19.305 4.238 25.897 1.178-.235 2.354 0 5.179 1.177 7.063.942 1.648 4.003 3.531 5.651 4.473-.236 2.354-.471 4.709-.471 6.357l2.59 1.412c.471-.942 1.177-2.119 1.648-3.531 0 0 2.354-5.886 6.827-5.415 4.238.471.942 16.48.236 23.308 0 0 9.888-7.063 13.655-28.252 3.061-19.07-7.769-27.782-15.774-23.073z" fill="#000"/><path d="M407.098 176.642s-20.953 32.725-28.487 35.55c-15.068 5.651-57.446 5.886-72.985 5.651-2.825.706-9.182 3.767-12.713 3.767-1.413 0-3.296-.471-5.18-.942-1.883-.471-3.767-.942-4.944-1.413-2.825-.47-6.592-2.825-7.063-3.296-.47-.47-.94-1.648-.94-1.648s-1.179-.706-1.885-.941c-.706-.471-.47-1.413-.47-1.413-2.59-.706-2.59-2.119-2.12-2.825.471-.706 2.59-.942 2.59-.942s.236-.942 1.413-1.413c.941-.235 8.946-.706 8.946-.706 1.413.706 5.886 3.061 8.476 2.825 3.296-.235 4.473-1.648 3.296-2.825-.942-.942-3.296-2.119-4.003-2.354h-.235s-5.65-2.825-8.005-4.709c-2.119-1.883-1.177-3.06-.47-3.296.706-.235 7.533.942 8.946 1.413 2.825.941 13.655 6.592 13.655 6.592l59.33-16.01 11.3-21.895 31.548 10.83z" fill="url(#I)" transform="translate(-7.705 74.567)"/><path d="M403.584 190.297s-5.65.706-21.896-9.182c-5.886-3.532-12.007-9.888-12.007-9.888 5.651-11.536 9.888-20.248 24.25-49.206 6.357-12.713 20.718-12.949 20.718-12.949s11.301 4.238 11.301 27.075c.235 17.893-12.243 36.963-22.366 54.15z" fill="url(#J)" transform="translate(-7.705 74.567)"/><path d="M377.914 335.795c-1.177 5.886-3.06 13.655-4.708 21.895l-2.826-55.327 7.534 33.432z" fill="url(#K)" opacity=".5" transform="translate(-7.705 74.567)"/><path d="M390.171 90.708s-7.298 5.18-21.189 4.945l4.238 9.417s12.478-.706 18.835-8.476l-1.884-5.886z" fill="url(#L)" transform="translate(-7.705 74.567)"/><path d="M362.86 91.65s1.648 3.061 6.357 3.767l-4.944 7.77s-3.06-2.119-4.238-8.005l2.825-3.532z" fill="url(#M)" transform="translate(-7.705 74.567)"/><path fill="url(#N)" d="M368.965 95.417l-4.944 7.769.471 3.532 7.77.471.941-2.355z" transform="translate(-7.705 74.567)"/></g></g><g opacity=".5" fill="#099D85" fill-rule="nonzero"><path d="M276.017 345a.542.542 0 00-.542.541v2.491a.542.542 0 001.083 0v-2.491a.54.54 0 00-.541-.541zm-12.453 16.894a.542.542 0 100 1.085.542.542 0 000-1.085z"/><path d="M283.598 360.811a2.168 2.168 0 00-2.166-2.166h-4.042c.626-1.603.879-3.489.83-5.169a5.963 5.963 0 00-.038-.622 2.17 2.17 0 00-2.165-2.114 2.167 2.167 0 00-2.165 2.166v.541c0 3.425-4.398 5.349-7.717 6.174a1.626 1.626 0 00-1.489-.976h-5.414a.542.542 0 00-.542.542v12.995c0 .299.243.542.542.542h5.414c.661 0 1.231-.397 1.484-.965l.766.199c1.89.494 2.932.766 5.464.766h5.823a2.168 2.168 0 001.8-3.37 2.167 2.167 0 001.449-2.045 2.17 2.17 0 00-.362-1.205 2.169 2.169 0 001.079-3.248 2.167 2.167 0 001.449-2.045zm-18.41 10.288a.542.542 0 01-.542.542h-4.873v-11.913h4.873c.299 0 .542.243.542.542v10.829zm16.244-9.205h-2.707a.542.542 0 000 1.083h1.624a1.083 1.083 0 010 2.166h-2.707a.542.542 0 000 1.083h1.624a1.083 1.083 0 010 2.166h-2.707a.542.542 0 100 1.083h1.624a1.084 1.084 0 010 2.166h-5.823c-2.393 0-3.328-.244-5.191-.731-.273-.071-.572-.149-.898-.232v-9.974c3.918-.933 8.664-3.211 8.664-7.257v-.541a1.084 1.084 0 012.165-.002v.002c0 .235.294 3.123-.884 5.739h-1.823a.542.542 0 000 1.083h7.039a1.083 1.083 0 010 2.166z"/><path d="M263.564 364.06a.542.542 0 00-.542.542v4.331a.542.542 0 001.083 0v-4.331a.542.542 0 00-.541-.542zm8.121-12.237h-2.166a.542.542 0 100 1.083h2.166a.542.542 0 000-1.083zm10.83 0h-2.166a.542.542 0 100 1.083h2.166a.542.542 0 000-1.083zm-1.521-4.436a.54.54 0 00-.766 0l-1.532 1.531a.543.543 0 00.766.766l1.532-1.532a.541.541 0 000-.765zm-7.657 1.531l-1.531-1.531a.54.54 0 10-.766.765l1.531 1.532a.543.543 0 00.766-.766z"/></g><path d="M105.874 217.893a1.43 1.43 0 01-.961-.374 289.036 289.036 0 00-2.826-2.522l-.005-.004c-2.504-2.214-4.666-4.126-6.17-6.01-1.683-2.106-2.466-4.102-2.466-6.283 0-2.119.7-4.074 1.972-5.505 1.287-1.448 3.052-2.245 4.972-2.245 1.434 0 2.748.47 3.905 1.398a8.164 8.164 0 011.579 1.711 8.164 8.164 0 011.579-1.711c1.157-.928 2.471-1.398 3.905-1.398 1.92 0 3.685.797 4.972 2.245 1.272 1.431 1.972 3.386 1.972 5.505 0 2.181-.783 4.177-2.465 6.283-1.505 1.884-3.667 3.795-6.171 6.009-.855.757-1.825 1.614-2.831 2.527a1.43 1.43 0 01-.961.374zm14.49-29.685c-.259 0-.508-.1-.702-.281-.734-.683-1.442-1.325-2.066-1.892l-.003-.003c-1.83-1.66-3.41-3.094-4.509-4.507-1.23-1.579-1.802-3.077-1.802-4.712 0-1.59.512-3.056 1.441-4.129.94-1.086 2.23-1.684 3.633-1.684 1.049 0 2.009.353 2.854 1.049.427.351.813.781 1.154 1.283a6.046 6.046 0 011.154-1.283c.845-.696 1.805-1.049 2.854-1.049 1.402 0 2.693.598 3.633 1.684.929 1.073 1.441 2.539 1.441 4.129 0 1.635-.573 3.133-1.802 4.712-1.099 1.413-2.679 2.847-4.509 4.507-.625.567-1.334 1.21-2.069 1.895a1.03 1.03 0 01-.702.281z" fill="#7FEBA1" fill-rule="nonzero"/><path d="M118.496 162.472a.719.719 0 01-.481-.187c-.502-.456-.986-.884-1.413-1.262l-.002-.002c-1.252-1.107-2.333-2.063-3.085-3.004-.841-1.053-1.233-2.051-1.233-3.142 0-1.059.35-2.037.986-2.752a3.287 3.287 0 012.486-1.123c.717 0 1.374.235 1.952.699.292.235.557.521.79.856a4.11 4.11 0 01.789-.856 3.058 3.058 0 011.953-.699c.96 0 1.843.399 2.486 1.123.636.715.986 1.693.986 2.752 0 1.091-.392 2.089-1.233 3.142-.752.941-1.833 1.897-3.085 3.004-.428.378-.913.807-1.416 1.264a.716.716 0 01-.48.187zm-2.742-10.717a2.58 2.58 0 00-1.951.88c-.511.575-.793 1.371-.793 2.24 0 .917.328 1.738 1.065 2.66.712.891 1.771 1.827 2.997 2.912l.003.002c.428.379.914.808 1.42 1.267.509-.459.995-.89 1.425-1.27 1.226-1.084 2.285-2.02 2.997-2.911.736-.922 1.065-1.743 1.065-2.66 0-.869-.282-1.665-.793-2.24a2.58 2.58 0 00-1.951-.88c-.552 0-1.059.183-1.507.542-.399.32-.677.725-.84 1.008a.454.454 0 01-.395.233.454.454 0 01-.395-.233 3.633 3.633 0 00-.84-1.008 2.362 2.362 0 00-1.507-.542z" fill="#5094C0" fill-rule="nonzero"/><path d="M457.084 198.208h-2.401c-.372 0-.728-.148-.99-.411a1.396 1.396 0 01-.411-.989v-8.805a1.4 1.4 0 011.401-1.4h2.401a1.404 1.404 0 011.401 1.4v8.805a1.405 1.405 0 01-1.401 1.4zm-2.401-10.405a.2.2 0 00-.2.2v8.805c0 .053.021.103.058.141a.205.205 0 00.142.059h2.401a.2.2 0 00.2-.2v-8.805a.197.197 0 00-.059-.141.197.197 0 00-.141-.059h-2.401z" fill="#7FEBA1" fill-rule="nonzero"/><path d="M466.268 197.407h-8.382a.6.6 0 01-.6-.6v-8.804a.604.604 0 01.259-.494 8.783 8.783 0 003.47-4.847 2.267 2.267 0 014.436.888l-.482 3.853h3.875a1.392 1.392 0 011.113.55 1.403 1.403 0 01.238 1.219l-1.803 6.614a2.208 2.208 0 01-2.124 1.621zm-7.782-1.2h7.782a1.002 1.002 0 00.965-.737l1.804-6.614a.197.197 0 00-.034-.174.197.197 0 00-.159-.079h-4.555a.603.603 0 01-.573-.423.58.58 0 01-.022-.252l.566-4.527a1.077 1.077 0 00-.26-.84 1.066 1.066 0 00-1.83.429 9.998 9.998 0 01-3.684 5.322v7.895zM202.084 96.208h-2.401a1.4 1.4 0 01-1.401-1.401v-8.804a1.399 1.399 0 011.401-1.4h2.401a1.404 1.404 0 011.401 1.4v8.804a1.404 1.404 0 01-1.401 1.4zm-2.401-10.405a.203.203 0 00-.142.058.201.201 0 00-.058.142v8.804a.2.2 0 00.058.141.203.203 0 00.142.06h2.401a.199.199 0 00.141-.06.198.198 0 00.059-.141v-8.804a.198.198 0 00-.059-.142.199.199 0 00-.141-.058h-2.401z" fill="#7FEBA1" fill-rule="nonzero"/><path d="M211.268 95.407h-8.382a.599.599 0 01-.6-.6v-8.805a.597.597 0 01.259-.494 8.792 8.792 0 003.47-4.847 2.266 2.266 0 014.026-.72c.334.466.481 1.04.41 1.608l-.482 3.853h3.875a1.4 1.4 0 011.351 1.77l-1.803 6.613a2.206 2.206 0 01-2.124 1.622z" fill="#7FEBA1" fill-rule="nonzero"/><path d="M423.441 284.428c-.176 0-.349-.042-.505-.121l-2.889-1.47a.158.158 0 00-.146 0l-2.889 1.47a1.114 1.114 0 01-1.141-.08 1.048 1.048 0 01-.367-.454 1.01 1.01 0 01-.064-.572l.551-3.114a.15.15 0 00-.046-.135l-2.336-2.206a1.036 1.036 0 01-.274-1.077c.063-.186.178-.352.333-.478.155-.126.344-.207.544-.235l3.228-.454a.154.154 0 00.117-.083l1.444-2.834c.089-.175.227-.323.399-.427a1.114 1.114 0 011.145 0c.171.104.31.252.399.427l1.444 2.833a.161.161 0 00.048.056.163.163 0 00.07.027l3.23.454c.201.028.389.11.544.236.154.126.27.292.332.478.063.186.071.386.022.576-.048.19-.15.363-.295.5l-2.338 2.205a.152.152 0 00-.046.135l.551 3.114a1.016 1.016 0 01-.239.853 1.09 1.09 0 01-.827.374l.001.002zm-3.467-2.507c.176 0 .349.042.504.121l2.889 1.47a.154.154 0 00.165-.011.148.148 0 00.063-.149l-.552-3.114c-.03-.168-.017-.34.037-.501.055-.162.149-.309.274-.427l2.338-2.206a.151.151 0 00.039-.155.152.152 0 00-.048-.069.149.149 0 00-.078-.034l-3.23-.455a1.104 1.104 0 01-.482-.189 1.049 1.049 0 01-.334-.385l-1.446-2.833a.159.159 0 00-.281 0l-1.443 2.832a1.06 1.06 0 01-.335.385c-.142.1-.307.165-.481.189l-3.23.456a.149.149 0 00-.078.034.145.145 0 00-.048.069.138.138 0 00-.003.083.153.153 0 00.043.072l2.337 2.206c.125.118.219.265.274.427.054.161.067.333.037.501l-.552 3.114a.147.147 0 00.063.149.163.163 0 00.165.011l2.889-1.47c.155-.079.328-.121.504-.121z" fill="#366F94" fill-rule="nonzero"/><path d="M272.704 180.032l4.78 9.56 5.258-9.56h43.497c5.808 0 10.516-4.708 10.516-10.516S332.047 159 326.239 159h-66.441c-5.808 0-10.516 4.708-10.516 10.516s4.708 10.516 10.516 10.516h12.906z" stroke="url(#O)"/><path d="M265.373 172.384a.736.736 0 01-.324-.074l-1.858-.905a.104.104 0 00-.093 0l-1.857.905a.742.742 0 01-.734-.049.652.652 0 01-.236-.28.6.6 0 01-.041-.352l.354-1.916a.077.077 0 00-.004-.045.09.09 0 00-.026-.038l-1.501-1.358a.636.636 0 01-.19-.308.602.602 0 01.014-.354.635.635 0 01.214-.294.722.722 0 01.349-.145l2.075-.28a.095.095 0 00.076-.051l.928-1.743a.65.65 0 01.257-.263.73.73 0 01.735 0 .65.65 0 01.257.263l.928 1.743a.103.103 0 00.076.051l2.077.279c.129.018.25.068.349.145.1.078.174.18.214.295.04.114.045.237.014.354a.636.636 0 01-.19.308l-1.503 1.357a.09.09 0 00-.025.038.077.077 0 00-.004.045l.354 1.916a.609.609 0 01-.153.525.736.736 0 01-.532.23v.001zm14.338 0a.736.736 0 01-.324-.074l-1.858-.905a.105.105 0 00-.093 0l-1.857.905a.744.744 0 01-.734-.049.652.652 0 01-.236-.28.6.6 0 01-.042-.352l.355-1.916a.09.09 0 00-.03-.083l-1.501-1.358a.636.636 0 01-.19-.308.594.594 0 01.014-.354.635.635 0 01.214-.294.718.718 0 01.349-.145l2.075-.28a.115.115 0 00.045-.016.095.095 0 00.031-.035l.928-1.743a.654.654 0 01.256-.263.737.737 0 01.736 0 .65.65 0 01.257.263l.928 1.743a.112.112 0 00.031.034.108.108 0 00.045.017l2.077.279c.129.018.25.068.349.145.1.078.174.18.214.295.04.114.045.237.014.354a.636.636 0 01-.19.308l-1.503 1.357a.103.103 0 00-.026.038.086.086 0 00-.003.045l.354 1.916a.609.609 0 01-.154.525.736.736 0 01-.531.23v.001zm14.344 0a.74.74 0 01-.325-.074l-1.857-.905a.108.108 0 00-.094 0l-1.857.905a.74.74 0 01-.734-.049.658.658 0 01-.236-.28.6.6 0 01-.041-.352l.355-1.916a.09.09 0 00-.03-.083l-1.501-1.358a.645.645 0 01-.191-.308.602.602 0 01.014-.354.644.644 0 01.215-.294.714.714 0 01.349-.145l2.075-.28a.115.115 0 00.045-.016.095.095 0 00.031-.035l.927-1.743a.663.663 0 01.257-.263.737.737 0 01.736 0c.11.063.199.154.257.263l.928 1.743a.1.1 0 00.076.051l2.077.279a.742.742 0 01.349.145c.099.078.173.18.214.295.04.114.045.237.014.354a.636.636 0 01-.19.308l-1.503 1.357a.084.084 0 00-.026.038.098.098 0 00-.004.045l.355 1.916a.609.609 0 01-.154.525.736.736 0 01-.531.23v.001zm14.338 0a.74.74 0 01-.325-.074l-1.857-.905a.112.112 0 00-.047-.011.112.112 0 00-.047.011l-1.857.905a.74.74 0 01-.734-.049.658.658 0 01-.236-.28.6.6 0 01-.041-.352l.355-1.916a.09.09 0 00-.03-.083l-1.501-1.358a.63.63 0 01-.191-.308.602.602 0 01.014-.354.65.65 0 01.214-.294.722.722 0 01.35-.145l2.075-.28a.121.121 0 00.045-.016.105.105 0 00.031-.035l.927-1.743a.663.663 0 01.257-.263.737.737 0 01.736 0c.11.063.199.154.257.263l.928 1.743a.1.1 0 00.076.051l2.076.279c.129.018.25.068.35.145.099.078.173.18.214.295.04.114.045.237.014.354a.636.636 0 01-.19.308l-1.503 1.357a.084.084 0 00-.026.038.098.098 0 00-.004.045l.355 1.916a.626.626 0 01-.154.525.737.737 0 01-.532.23l.001.001z" fill="#7FEBA1" fill-rule="nonzero"/><path d="M322.731 172.949a.695.695 0 01-.325-.08l-1.857-.971a.1.1 0 00-.094 0l-1.857.971a.704.704 0 01-.734-.053.692.692 0 01-.277-.678l.355-2.058a.112.112 0 00-.004-.048.106.106 0 00-.026-.041l-1.502-1.458a.692.692 0 01.388-1.183l2.075-.299a.1.1 0 00.075-.055l.928-1.873a.699.699 0 011.25 0l.928 1.872a.1.1 0 00.076.055l2.076.3a.702.702 0 01.564.472.692.692 0 01-.176.711l-1.503 1.457a.106.106 0 00-.026.041.098.098 0 00-.004.048l.355 2.058a.687.687 0 01-.154.564.707.707 0 01-.532.247l.001.001zm-2.229-1.656a.69.69 0 01.324.08l1.857.971a.095.095 0 00.106-.008.087.087 0 00.035-.043.102.102 0 00.006-.055l-.355-2.058a.689.689 0 01.2-.613l1.503-1.458a.097.097 0 00.027-.047.093.093 0 00-.002-.055.105.105 0 00-.031-.046.104.104 0 00-.05-.023l-2.077-.3a.693.693 0 01-.524-.379l-.93-1.873a.101.101 0 00-.18 0l-.928 1.872a.695.695 0 01-.525.38l-2.076.3a.104.104 0 00-.05.023.097.097 0 00-.031.046.093.093 0 00-.002.055.097.097 0 00.027.047l1.503 1.458a.688.688 0 01.2.613l-.355 2.058a.102.102 0 00.006.055.095.095 0 00.035.044.096.096 0 00.052.018.094.094 0 00.054-.011l1.857-.972a.702.702 0 01.324-.079z" fill="#5094C0" fill-rule="nonzero"/><path d="M332.015 117.633a.477.477 0 01-.44.292l-2.386-.012-.011 2.468a.475.475 0 01-.815.333l-2.85-2.871a.473.473 0 01-.138-.333v-2.735l-.569-.571a.458.458 0 01-.056.075c-4.309 3.861-10.933 3.498-14.794-.811-3.861-4.309-3.498-10.933.811-14.794 4.31-3.861 10.933-3.498 14.794.811a10.477 10.477 0 01.803 12.967.477.477 0 01-.783-.546c3.006-4.327 1.934-10.272-2.394-13.277-4.327-3.005-10.272-1.933-13.277 2.394-3.005 4.328-1.933 10.272 2.394 13.277a9.54 9.54 0 0011.81-.732c.01-.009.024-.013.036-.021l-2.039-2.039a6.608 6.608 0 01-4.363 1.638 6.675 6.675 0 115.927-3.609.476.476 0 11-.846-.439 5.65 5.65 0 00.639-2.626 5.735 5.735 0 10-2.031 4.364l-2.035-2.035a2.858 2.858 0 111.206-2.329.478.478 0 01-.954 0 1.906 1.906 0 10-1.906 1.907 1.89 1.89 0 00.963-.27l-1.3-1.3a.476.476 0 11.674-.674l1.684 1.684 6.28 6.28h2.679a.478.478 0 01.338.143l2.848 2.873a.476.476 0 01.101.518zm-5.687-.321l1.899 1.916.008-1.595-1.907-1.907v1.586zm2.201-2.259h-1.526l1.907 1.906 1.518.008-1.899-1.914z" fill="#6D99CE" fill-rule="nonzero"/><circle stroke="#69C996" stroke-width="4" fill="#052C58" fill-rule="nonzero" cx="532.782" cy="341.5" r="46.5"/><path d="M533.147 323.591a.866.866 0 00.866-.865v-3.861a.866.866 0 00-1.731 0v3.861c0 .478.388.865.865.865zm21.16 24.142l-1.529-1.525a2.866 2.866 0 00-2.041-.842 2.88 2.88 0 00-1.388.353l-2.881-2.878.14-.14a3.003 3.003 0 00-1.506-5.056c.078-.27.119-.553.119-.842a2.97 2.97 0 00-.878-2.121 2.965 2.965 0 00-1.506-.814c.078-.27.119-.553.119-.842a2.997 2.997 0 00-2.384-2.935 3.005 3.005 0 00-.758-2.965 3.001 3.001 0 00-2.443-.857l-5.709-1.081c-.871-.165-1.958-.274-2.644.352a1.314 1.314 0 00-.131.136 3.01 3.01 0 00-3.158.694 2.976 2.976 0 00-.877 2.122c0 .289.041.572.119.842a2.965 2.965 0 00-1.504.813 2.97 2.97 0 00-.879 2.119c-.001.29.041.574.119.844a2.98 2.98 0 00-1.506.813 2.978 2.978 0 00-.878 2.122c0 .616.184 1.202.524 1.697-.43.145-.823.388-1.153.717a3.004 3.004 0 00.001 4.244l.14.139-2.882 2.877a2.892 2.892 0 00-3.274.567l-1.53 1.525a2.872 2.872 0 00-.844 2.042c0 .773.3 1.498.844 2.041l1.91 1.907a.864.864 0 101.223-1.224l-1.91-1.907a1.15 1.15 0 01-.336-.817c0-.31.12-.6.336-.816l1.53-1.526a1.158 1.158 0 011.412-.173.85.85 0 00.357.306l8.774 8.761a.861.861 0 00.417.421c.186.21.288.478.288.764 0 .31-.119.6-.336.817l-1.528 1.526c-.452.45-1.187.45-1.637.002l-1.909-1.91a.865.865 0 10-1.224 1.224l1.911 1.911c.562.56 1.3.84 2.039.84.739 0 1.479-.28 2.042-.841l1.529-1.527a2.868 2.868 0 00.844-2.042c0-.552-.153-1.078-.439-1.533l3.243-3.239.011-.01c.371-.384 1.405-.312 2.405-.243.711.05 1.503.104 2.277.015l3.551 3.547c-.23.42-.353.893-.353 1.386 0 .773.3 1.497.844 2.041l1.53 1.527a2.867 2.867 0 002.041.843c.772 0 1.497-.3 2.041-.843l9.276-9.265a2.864 2.864 0 00.844-2.041c0-.773-.3-1.498-.845-2.042zm-22.967-20.844l3.754.711-2.247 2.246c-.348-.167-.824-.479-1.347-.979-.715-.684-1.227-1.474-1.274-1.967v-.001a1.038 1.038 0 01-.004-.086c.114-.027.414-.058 1.118.076zm-4.388.706a1.276 1.276 0 011.615-.153c.281 1.177 1.285 2.244 1.737 2.676.334.32 1.409 1.281 2.493 1.545.147.21.227.461.227.725 0 .341-.131.66-.37.898-.238.239-.557.37-.899.37-.341 0-.66-.131-.9-.371l-3.903-3.897a1.256 1.256 0 01-.369-.896c0-.341.131-.66.369-.897zm-2.262 3.776c.239-.238.557-.37.898-.37.341 0 .661.132.901.371l3.143 3.137c.495.496.495 1.302.001 1.796-.239.239-.559.37-.901.37-.342 0-.662-.131-.901-.369l-2.384-2.383-.012-.011-.746-.746a1.257 1.257 0 01-.37-.899c0-.339.131-.657.371-.896zm-2.265 3.776a1.26 1.26 0 01.899-.369c.339 0 .656.129.893.363l2.392 2.391c.238.237.37.555.37.896a1.26 1.26 0 01-1.27 1.266c-.342 0-.662-.132-.9-.369l-.867-.866-.001-.001-1.516-1.515a1.258 1.258 0 01-.371-.898c0-.34.132-.659.371-.898zm-1.508 4.537c.24-.24.559-.371.901-.371.341 0 .661.131.9.37l.868.867c.239.238.37.556.37.897a1.261 1.261 0 01-1.27 1.267c-.341 0-.66-.131-.9-.371l-.109-.109-.004-.004-.005-.004-.75-.748a1.27 1.27 0 01-.001-1.794zm17.638 9.836a.865.865 0 00-1.224-.001l-.77.769c-.732.732-2.058.64-3.34.551-1.392-.097-2.832-.197-3.764.759l-3.187 3.184-7.972-7.96 2.821-2.816a2.984 2.984 0 001.567.439c.805 0 1.559-.311 2.122-.876.567-.565.88-1.318.88-2.122l-.001-.023.022.001c.804 0 1.557-.311 2.121-.874.567-.565.88-1.319.88-2.123l-.001-.022h.023a2.988 2.988 0 003-3.02 2.978 2.978 0 002.146-.876 2.976 2.976 0 00.877-2.122c0-.562-.153-1.099-.438-1.564l2.473-2.472a1.266 1.266 0 01.726-.358 1.27 1.27 0 011.075.356c.495.496.495 1.303.002 1.797l-.753.75-.007.007-.868.866a.865.865 0 101.223 1.224l.756-.755h.001l.114-.114a1.274 1.274 0 011.796.004c.239.238.37.556.37.896 0 .341-.131.659-.372.898l-.757.759v.001l-.867.863a.866.866 0 101.221 1.227l.871-.868c.238-.238.557-.37.899-.37a1.263 1.263 0 011.27 1.268c0 .34-.131.658-.371.897l-1.51 1.511a.865.865 0 101.224 1.224l.74-.741.013-.012a1.26 1.26 0 01.899-.369c.341 0 .66.131.899.37a1.271 1.271 0 010 1.794l-.752.752-.001.001h-.001l-1.194 1.193a.865.865 0 101.223 1.225l.584-.583 2.8 2.796-7.971 7.961-2.856-2.852c.199-.128.389-.279.568-.458l.77-.768a.866.866 0 00.001-1.224zm14.53 1.072l-9.277 9.264a1.147 1.147 0 01-.817.337c-.311 0-.601-.12-.818-.337l-1.53-1.527a1.144 1.144 0 01-.336-.816c0-.309.119-.599.336-.815l9.276-9.265c.217-.217.508-.336.818-.336.311 0 .601.119.819.337l1.529 1.524c.216.217.336.507.336.817 0 .31-.12.6-.336.817zm-31.428-27.731a.86.86 0 00.611.253.865.865 0 00.611-1.478l-3.153-3.147a.865.865 0 10-1.223 1.225l3.154 3.147zm22.379.253a.863.863 0 00.612-.253l3.151-3.147a.865.865 0 10-1.223-1.225l-3.151 3.148a.863.863 0 00.611 1.477z" fill="#7FEBA1" fill-rule="nonzero"/><path d="M516.632 355.229a.866.866 0 00.01 1.224l.003.002a.863.863 0 001.222-.011.867.867 0 00-1.235-1.215zm24.037-6.956a.865.865 0 10-.389-1.639l-.004.002a.864.864 0 00.393 1.637z" fill="#7FEBA1" fill-rule="nonzero"/><circle stroke="#69C996" stroke-width="2" fill="#052C58" fill-rule="nonzero" cx="371.782" cy="47.5" r="47.5"/><path d="M393.514 46.658c-.648 0-1.079.431-1.079 1.079v14.026c0 .648-.432 1.08-1.079 1.08h-38.843c-.647 0-1.079-.433-1.079-1.08V47.737c0-.648-.432-1.08-1.079-1.08s-1.079.432-1.079 1.08v14.026c0 1.834 1.403 3.237 3.237 3.237h38.843c1.834 0 3.237-1.403 3.237-3.237V47.737c0-.648-.432-1.08-1.079-1.08z" fill="#7FEBA1" fill-rule="nonzero"/><path d="M392.406 31.553h-41c-1.835 0-3.237 1.403-3.237 3.237v6.906a3.24 3.24 0 002.481 3.129l16.94 3.776v3.453c0 .647.432 1.078 1.079 1.078h6.474c.647 0 1.079-.431 1.079-1.078V48.6l16.94-3.776a3.24 3.24 0 002.481-3.13V34.79c0-1.834-1.402-3.237-3.237-3.237zm-18.342 19.422h-4.316v-4.316h4.316v4.316zm19.421-9.28c0 .54-.323.971-.863 1.08l-16.4 3.668v-.863c0-.648-.432-1.08-1.079-1.08h-6.474c-.647 0-1.079.432-1.079 1.08v.863l-16.4-3.669c-.54-.108-.863-.539-.863-1.078V34.79c0-.647.431-1.079 1.079-1.079h41c.648 0 1.079.432 1.079 1.08v6.904zM377.297 24h-10.79c-1.834 0-3.237 1.403-3.237 3.237v1.079c0 .647.432 1.079 1.079 1.079.648 0 1.079-.432 1.079-1.08v-1.078c0-.647.432-1.079 1.079-1.079h10.79c.647 0 1.079.432 1.079 1.079v1.079c0 .647.431 1.079 1.079 1.079.647 0 1.079-.432 1.079-1.08v-1.078c0-1.834-1.403-3.237-3.237-3.237z" fill="#7FEBA1" fill-rule="nonzero"/><circle stroke="#69C996" stroke-width="3" fill="#052C58" fill-rule="nonzero" cx="68.782" cy="138.5" r="39"/><path d="M74.854 129.664a1.97 1.97 0 001.967-1.967 1.969 1.969 0 00-1.967-1.967 1.969 1.969 0 00-1.967 1.967c0 .443.148.852.396 1.181l-3.232 4.516a1.96 1.96 0 00-1.951.429l-2.154-1.222a1.969 1.969 0 00-1.923-2.38 1.969 1.969 0 00-1.922 2.38l-2.154 1.222a1.96 1.96 0 00-1.339-.527 1.969 1.969 0 00-1.967 1.967 1.97 1.97 0 001.967 1.966 1.969 1.969 0 001.923-2.38l2.154-1.222a1.96 1.96 0 002.677 0l2.154 1.222a1.965 1.965 0 001.923 2.38 1.969 1.969 0 001.571-3.148l3.232-4.515c.192.063.398.098.612.098zm0-2.754a.788.788 0 11-.002 1.575.788.788 0 01.002-1.575zm-16.246 9.139a.788.788 0 010-1.573.787.787 0 010 1.573zm5.415-3.075a.788.788 0 010-1.573.788.788 0 010 1.573zm5.416 3.075a.788.788 0 010-1.573.788.788 0 010 1.573z" fill="#7FEBA1" fill-rule="nonzero"/><path d="M82.106 148.852H50.828a.49.49 0 01-.489-.489v-24.342c0-.27.22-.489.489-.489h2.781a.59.59 0 100-1.18h-2.781a1.67 1.67 0 00-1.669 1.669v24.342c0 .92.749 1.669 1.669 1.669h4.068v1.298c0 .74.602 1.342 1.342 1.342h5.906l-2.78 5.428a.59.59 0 001.05.538l3.056-5.966h6.523l3.056 5.966a.59.59 0 101.05-.538l-2.78-5.428h5.906c.74 0 1.342-.602 1.342-1.342v-1.298h3.539a.59.59 0 100-1.18zm-4.72 2.478a.162.162 0 01-.16.162H56.237a.162.162 0 01-.162-.162v-1.298h21.31v1.298zm-21.412-27.799h26.665c.27 0 .489.22.489.489v5.61a.59.59 0 101.18 0v-5.61c0-.92-.749-1.669-1.669-1.669H70.01v-1.159c0-.817-.664-1.481-1.48-1.481h-3.59c-.816 0-1.48.664-1.48 1.481v1.159h-7.487a.59.59 0 000 1.18zm8.667-2.339a.3.3 0 01.3-.301h3.589c.165 0 .3.135.3.301v1.159h-4.19v-1.159z" fill="#7FEBA1" fill-rule="nonzero"/><path d="M57.407 140.246a.59.59 0 00-.59.59v5.213c0 .326.264.59.59.59h2.394a.59.59 0 00.59-.59v-5.213a.59.59 0 00-.59-.59h-2.394zm1.804 5.213h-1.214v-4.033h1.214v4.033zm3.619-8.229a.59.59 0 00-.591.59v8.229a.59.59 0 00.59.591h2.394a.59.59 0 00.59-.591v-8.229a.59.59 0 00-.59-.59h-2.394zm1.803 8.229h-1.214v-7.048h1.214v7.048zm3.61-5.213a.59.59 0 00-.59.59v5.213c0 .326.264.59.59.59h2.394a.59.59 0 00.59-.59v-5.213a.59.59 0 00-.59-.59h-2.394zm1.804 5.213h-1.214v-4.033h1.214v4.033zm3.613-1.731a.59.59 0 00-.59.59v1.732c0 .326.263.59.59.59h2.393a.59.59 0 100-1.18h-1.804v-1.142a.59.59 0 00-.59-.59zm15.478 5.679l-3.385-5.863a7.672 7.672 0 001.815-3.276 7.661 7.661 0 00-.77-5.852c-2.126-3.683-6.852-4.949-10.535-2.823-3.682 2.126-4.948 6.852-2.822 10.535a7.66 7.66 0 004.682 3.593 7.755 7.755 0 002.009.266c.585 0 1.167-.067 1.737-.201l3.384 5.863a2.241 2.241 0 003.064.821 2.242 2.242 0 00.821-3.063zm-10.71-4.826a6.49 6.49 0 01-3.965-3.043 6.54 6.54 0 012.39-8.923 6.537 6.537 0 018.923 2.391 6.488 6.488 0 01.652 4.956 6.486 6.486 0 01-3.043 3.966 6.489 6.489 0 01-4.956.653zm9.299 6.867a1.063 1.063 0 01-1.452-.388l-3.256-5.641a7.838 7.838 0 001.84-1.064l3.257 5.641a1.066 1.066 0 01-.389 1.452z" fill="#7FEBA1" fill-rule="nonzero"/><path d="M85.465 139.934a5.584 5.584 0 00-.28-4.045.59.59 0 00-1.067.503c.47.999.549 2.132.22 3.192a4.408 4.408 0 01-2.012 2.517 4.394 4.394 0 01-3.355.442 4.395 4.395 0 01-2.685-2.061 4.426 4.426 0 011.618-6.04 4.417 4.417 0 014.882.303.59.59 0 10.712-.941 5.595 5.595 0 00-6.184-.384 5.565 5.565 0 00-2.61 3.401 5.565 5.565 0 00.56 4.251 5.569 5.569 0 003.401 2.611 5.573 5.573 0 004.25-.56 5.586 5.586 0 002.55-3.189z" fill="#7FEBA1" fill-rule="nonzero"/></g></svg>