<svg width="40" height="41" fill="none" xmlns="http://www.w3.org/2000/svg"><g clip-path="url(#clip0_449_649)"><path d="M7.083 1h25.834A7.077 7.077 0 0140 8.083v24.834A7.077 7.077 0 0132.917 40H7.083A7.077 7.077 0 010 32.917V8.083A7.077 7.077 0 017.083 1z" fill="#390000"/><path d="M19.384 24.4h-6.2l-1.267 3.917a.292.292 0 01-.316.233H8.467c-.183 0-.233-.1-.183-.3L13.65 12.8c.05-.167.1-.35.167-.55.067-.35.1-.717.1-1.083-.017-.084.05-.167.133-.184h4.317c.133 0 .2.05.217.134l6.083 17.166c.05.184 0 .267-.167.267h-3.483c-.116.017-.233-.067-.267-.183L19.384 24.4zm-5.234-3.383h4.234l-2.134-6.95-2.1 6.95zm14.151-7.184c-.55.017-1.083-.2-1.483-.583a2.165 2.165 0 01-.567-1.533c-.017-.567.2-1.1.6-1.484.4-.383.933-.583 1.483-.583.65 0 1.15.2 1.517.583.367.4.567.934.55 1.484a2.11 2.11 0 01-.583 1.533c-.384.4-.95.617-1.517.583zM26.434 28.3V15.467c0-.167.066-.234.216-.234h3.3c.15 0 .217.084.217.234V28.3c0 .183-.067.267-.217.267h-3.266c-.167 0-.25-.1-.25-.267z" fill="#FF9A00"/></g><defs><clipPath id="clip0_449_649"><path fill="#fff" transform="translate(0 .5)" d="M0 0h40v40H0z"/></clipPath></defs></svg>