<svg viewBox="0 0 43 72" width="42" height="57" fill="none" xmlns="http://www.w3.org/2000/svg"><path d="M37.794 70.613H4.468a3.353 3.353 0 01-3.353-3.353v-5.809h40.032v5.809a3.353 3.353 0 01-3.353 3.353zm0-69.563H4.468a3.353 3.353 0 00-3.353 3.353v5.808h40.032V4.403a3.353 3.353 0 00-3.353-3.353z" fill="#7FEBA1"/><path d="M37.794 0h-24.2a1.05 1.05 0 000 2.1h24.2a2.305 2.305 0 012.303 2.303V9.16H2.165V4.403A2.305 2.305 0 014.468 2.1h4.273a1.05 1.05 0 000-2.1H4.468A4.408 4.408 0 00.065 4.403V67.26a4.408 4.408 0 004.403 4.403h33.326a4.408 4.408 0 004.403-4.403V4.403A4.408 4.408 0 0037.794 0zm2.303 67.26a2.305 2.305 0 01-2.303 2.303H4.468a2.305 2.305 0 01-2.303-2.303v-4.759h37.932v4.76zm0-6.859H2.165v-49.14h37.932v49.14z" fill="#fff"/><path d="M12.357 30.143v-2.38H10v2.38h2.357zm0 13.69V31.929H10v11.904h2.357zm6.61.167c.822 0 1.53-.129 2.122-.386a3.305 3.305 0 001.413-1.125c.35-.493.606-1.07.768-1.73.163-.66.244-1.421.244-2.283V32.43c0-1.76-.356-3.106-1.067-4.036-.712-.93-1.872-1.395-3.48-1.395-.829 0-1.54.12-2.132.363a3.2 3.2 0 00-1.413 1.083 4.785 4.785 0 00-.764 1.697c-.16.651-.24 1.414-.24 2.288v6.045c0 .874.08 1.641.24 2.302.16.66.415 1.235.764 1.725.35.49.821.861 1.413 1.116.593.254 1.303.381 2.132.381zm0-1.953c-.829 0-1.403-.251-1.722-.753-.313-.502-.47-1.243-.47-2.223v-7.235c0-.967.157-1.69.47-2.167.313-.477.887-.716 1.722-.716.834 0 1.408.239 1.721.716.313.477.47 1.2.47 2.167v7.235c0 .98-.158 1.72-.475 2.223-.316.502-.888.753-1.716.753zM29.876 44c1.258 0 2.26-.344 3.006-1.032.745-.689 1.118-1.643 1.118-2.865 0-1.785-.786-3.32-2.357-4.603l-2.946-2.38c-.785-.633-1.178-1.417-1.178-2.354 0-.57.153-1.015.46-1.334.307-.32.743-.479 1.308-.479.705 0 1.24.228 1.606.684.365.455.6 1.061.704 1.818.025.21.04.369.046.474L34 31.334c-.025-.23-.046-.41-.064-.54-.185-1.209-.67-2.143-1.46-2.804-.788-.66-1.851-.99-3.19-.99-1.245 0-2.246.363-3 1.088-.756.726-1.133 1.702-1.133 2.93 0 .843.161 1.594.483 2.255a4.66 4.66 0 001.294 1.632l2.946 2.38c.276.224.494.411.653.563.16.152.338.354.534.605.197.25.342.527.438.827.095.301.142.628.142.981 0 1.19-.589 1.786-1.767 1.786-1.455 0-2.24-1.19-2.357-3.571l-2.357.595c.092 1.525.53 2.728 1.312 3.608.783.88 1.916 1.321 3.402 1.321zM19.439 67.082h3.385a1.05 1.05 0 100-2.1h-3.385a1.05 1.05 0 100 2.1zm1.953-60.059a1.392 1.392 0 100-2.785 1.392 1.392 0 000 2.785z" fill="#fff"/></svg>