<svg width="1121" height="1238" xmlns="http://www.w3.org/2000/svg"><g fill="none"><path d="M1050.363 609.295c0-63.613-51.572-115.185-115.185-115.185-4.096 0-8.13.219-12.11.64l158.207-466.618H408.946l157.989 466.21a115.396 115.396 0 00-7.003-.228c-63.613 0-115.185 51.564-115.185 115.186 0 51.419 33.7 94.954 80.209 109.766-24.563 42.549-55.475 80.875-90.57 113.988-47.723 45.018-102.339 79.157-161.409 100.19-70.33-36.13-103.54-116.479-73.575-186.928 3.385-7.958 6.84-16.021 10.142-24.05 50.95-11.89 88.921-57.566 88.921-112.142 0-63.617-51.572-115.186-115.19-115.186-63.617 0-115.185 51.569-115.185 115.186 0 39.01 19.406 73.47 49.077 94.306-28.509 64.91-70.418 132.847-83.475 211.582-15.649 94.359-.053 194.522 81.56 251.089 190.066 131.733 396.383-81.665 613.916-135.311 78.836-19.437 165.377-16.307 234.835-56.532 52.16-30.21 86.549-80.279 96.305-136.486 9.646-55.528-4.411-110.814-36.735-155.643a114.694 114.694 0 0026.79-73.834" fill="#99425B"/><path d="M1032.592 833.957c-8.471 48.802-38.611 91.425-82.686 116.957-41.089 23.796-90.325 30.9-142.458 38.415-27.926 4.025-56.804 8.195-85.015 15.149-74.592 18.393-146.843 54.282-216.708 88.987-139.828 69.453-260.582 129.427-374.443 50.511-83.406-57.803-79.556-164.754-69.84-223.36 9.007-54.3 33.355-104.307 56.896-152.666 4.01-8.218 7.99-16.453 11.935-24.703a142.296 142.296 0 0037.02 9.287c-23.967 79.095 13.724 165.096 92.828 205.733l10.83 5.565 11.462-4.082c62.539-22.275 120.166-58.01 171.279-106.237 33.038-31.17 61.447-65.656 84.795-102.505a143.818 143.818 0 0021.445 1.61c72.606 0 132.73-54.279 142.033-124.381 29.72-1.087 61.285-1.096 91.175-.009 9.296 70.111 69.427 124.394 142.033 124.394 30.36 0 58.518-9.515 81.718-25.677 16.105 32.968 22.116 70.063 15.701 107.012zM183.28 523.07c48.003 0 87.053 39.055 87.053 87.058 0 17.24-5.06 33.32-13.746 46.86-14.47 22.567-39.067 38.036-67.327 39.966-1.977.131-3.972.228-5.98.228a86.68 86.68 0 01-30.421-5.494 87.549 87.549 0 01-45.184-38.485 86.488 86.488 0 01-11.453-43.075c0-48.003 39.054-87.058 87.058-87.058zm289.603 86.23c0-43.615 32.24-79.828 74.132-86.09a86.653 86.653 0 0112.922-.964c27.908 0 52.756 13.22 68.69 33.705a87.167 87.167 0 0110.164 16.508 86.51 86.51 0 018.2 36.84c0 6.959-.843 13.725-2.39 20.214-8.485 35.516-38.77 62.666-75.882 66.402a88.078 88.078 0 01-8.782.438 86.528 86.528 0 01-47.18-13.948c-23.966-15.526-39.874-42.487-39.874-73.105zM836.22 505.777a143.471 143.471 0 00-39.423 66.283 1336.416 1336.416 0 00-98.47 0c-7.367-27.325-22.635-51.432-43.177-69.742l90.083-182.149 90.987 185.608zM448.184 56.273h593.848L901.771 469.946a142.41 142.41 0 00-17.762 5.502l-138.556-282.65-138.95 280.962a142.51 142.51 0 00-18.53-4.994L448.183 56.273zm574.043 553.03a86.885 86.885 0 01-3.7 25.112 87.4 87.4 0 01-33.557 46.236 86.554 86.554 0 01-49.797 15.706c-40.194 0-74.1-27.39-84.071-64.485a86.865 86.865 0 01-2.982-22.568c0-11.9 2.403-23.248 6.744-33.587a87.027 87.027 0 018.234-15.092c15.666-23.125 42.102-38.375 72.075-38.375 2.75 0 5.46.14 8.147.395 44.198 4.117 78.911 41.4 78.911 86.659h-.004zm56.268 0c0-69.97-50.415-128.352-116.816-140.822L1120.519 0H369.706l159.085 469.428C464.697 483.692 416.62 540.968 416.62 609.3c0 51.31 27.115 96.375 67.752 121.7-19.547 29.124-42.724 56.528-69.286 81.59-42.128 39.74-89.058 69.88-139.653 89.711-50.963-32.012-72.505-92.385-50.134-144.975l1.754-4.121 3.288-7.735c55.975-19.525 96.257-72.799 96.257-135.342 0-79.03-64.292-143.322-143.317-143.322S39.953 531.1 39.953 610.128c0 39.888 16.399 76.009 42.786 102.019a2423.548 2423.548 0 01-14.987 31.175C43.623 792.873 16.28 849.036 5.937 911.408c-20.538 123.868 12.593 222.887 93.293 278.813 48.968 33.938 98.699 47.285 148.741 47.285 94.227 0 189.55-47.342 282.781-93.653 67.143-33.345 136.574-67.83 205.155-84.747 25.519-6.292 51.775-10.08 79.573-14.088 55.129-7.953 112.13-16.175 162.624-45.416 58.53-33.902 98.594-90.772 109.924-156.016 9.725-56.014-1.978-112.116-30.522-159.699a142.45 142.45 0 0020.99-74.587v.004z" fill="#FFF"/></g></svg>