<svg xmlns="http://www.w3.org/2000/svg" xmlns:xlink="http://www.w3.org/1999/xlink" width="511.24" height="511.24"><defs><linearGradient xlink:href="#a" id="j" gradientUnits="userSpaceOnUse" gradientTransform="rotate(-65.001 -3054.253 -6609.844)" x1="-7708.797" y1="-803.36" x2="-7633.153" y2="-714.907"/><linearGradient xlink:href="#b" id="k" gradientUnits="userSpaceOnUse" gradientTransform="rotate(-65.001 -3054.253 -6609.844)" x1="-8268.639" y1="-813.123" x2="-7728.958" y2="-813.123"/><linearGradient xlink:href="#c" id="l" gradientUnits="userSpaceOnUse" gradientTransform="rotate(-65.001 -3054.253 -6609.844)" x1="-8203.492" y1="-758.994" x2="-7881.895" y2="-758.994"/><linearGradient xlink:href="#d" id="m" gradientUnits="userSpaceOnUse" gradientTransform="rotate(-65.001 -3054.253 -6609.844)" x1="-8238.328" y1="-818.152" x2="-7698.647" y2="-818.152"/><linearGradient xlink:href="#e" id="n" gradientUnits="userSpaceOnUse" gradientTransform="rotate(-65.001 -3054.253 -6609.844)" x1="-8198.968" y1="-810.851" x2="-7915.35" y2="-810.851"/><linearGradient xlink:href="#f" id="o" gradientUnits="userSpaceOnUse" gradientTransform="rotate(-65.001 -3054.253 -6609.844)" x1="-8238.328" y1="-762.297" x2="-7698.647" y2="-762.297"/><linearGradient xlink:href="#g" id="p" gradientUnits="userSpaceOnUse" gradientTransform="rotate(-65.001 -3054.253 -6609.844)" x1="-8271.806" y1="-765.071" x2="-7732.125" y2="-765.071"/><linearGradient xlink:href="#h" id="q" gradientUnits="userSpaceOnUse" gradientTransform="rotate(-65.001 -3054.253 -6609.844)" x1="-8238.328" y1="-745.685" x2="-7698.647" y2="-745.685"/><linearGradient xlink:href="#i" id="r" gradientUnits="userSpaceOnUse" gradientTransform="rotate(-65.001 -3054.253 -6609.844)" x1="-8238.328" y1="-747.586" x2="-7698.647" y2="-747.586"/></defs><path d="M1.87 352.398v2.942h-.827v-2.942H.001v-.705h2.881v.705H1.871zm4.874.643l-.98 1.992h-.491l-.981-1.992v2.299h-.797v-3.647h1.103l.95 1.992.95-1.992h1.104v3.647h-.797v-2.299z" fill="#b0afb0"/><path style="line-height:125%;-inkscape-font-specification:Droid Sans Bold" d="M35.31 495.146c-3.4 0-6.383-.183-8.946-.549-2.564-.314-4.735-.706-6.514-1.177v-20.247a92.54 92.54 0 006.121 1.098c2.093.314 4.395.471 6.906.471 2.407 0 4.63-.261 6.67-.785 2.094-.523 3.899-1.438 5.416-2.746 1.57-1.256 2.773-2.956 3.61-5.101.89-2.145 1.334-4.84 1.334-8.084v-111.36h24.328v110.576c0 6.592-.968 12.268-2.904 17.03-1.883 4.76-4.551 8.684-8.004 11.77-3.401 3.14-7.482 5.442-12.243 6.907-4.761 1.465-10.019 2.197-15.774 2.197" font-size="160.722" font-weight="700" letter-spacing="0" word-spacing="0" fill="#d22128" stroke="#d22128" stroke-width="3" stroke-linejoin="round" font-family="Droid Sans"/><path style="line-height:125%;-inkscape-font-specification:Droid Sans Bold" d="M87.272 346.678v114.72h21.75v-53.376c0-1.465-.042-3.106-.094-4.937 0-1.831-.052-3.73-.156-5.719-.053-1.988-.114-3.99-.219-6.031-.052-2.04-.145-4.033-.25-5.969-.21-4.5-.467-9.155-.781-13.969h.719l25.187 90h22.344l27.156-89.844h.625a948.301 948.301 0 01-.531 13.72 237.033 237.033 0 01-.25 5.812l-.156 5.875c-.053 1.936-.104 3.773-.157 5.5v58.937h22.688V346.678h-33.125l-26.375 87.72h-.469l-24.781-87.72H87.272zm227.781 8.313l-6.906 18.5-13.156 8.031v10.125h11.437v42.281c0 5.65.671 10.359 2.031 14.125 1.413 3.715 3.344 6.688 5.75 8.938 2.407 2.197 5.267 3.767 8.563 4.656 3.296.89 6.837 1.313 10.656 1.313 3.924 0 7.548-.372 10.844-1.157 3.348-.732 6.125-1.692 8.375-2.843v-17.813a65.403 65.403 0 01-6.5 1.969c-2.093.523-4.333.781-6.688.781-2.72 0-4.92-.815-6.593-2.437-1.675-1.622-2.5-4.13-2.5-7.532v-42.28h21.343v-17.97h-21.343v-18.687h-15.313zm-61.437 17.031c-5.965 0-11.395.97-16.313 2.906-4.866 1.936-9.057 4.816-12.562 8.688-3.454 3.82-6.158 8.62-8.094 14.375-1.936 5.755-2.906 12.465-2.906 20.156 0 7.586 1.063 14.225 3.156 19.875 2.145 5.598 5.118 10.254 8.937 13.969 3.82 3.662 8.372 6.388 13.657 8.219 5.284 1.83 11.065 2.75 17.343 2.75 3.244 0 6.217-.114 8.938-.375 2.72-.21 5.27-.57 7.625-1.094a58.522 58.522 0 006.656-1.906 52.555 52.555 0 006.375-2.813v-18.531a93.93 93.93 0 01-6.75 3.062 61.953 61.953 0 01-6.687 2.125 58.633 58.633 0 01-6.97 1.344c-2.354.262-4.862.375-7.53.375-3.192 0-6.052-.474-8.563-1.469-2.459-.994-4.596-2.418-6.375-4.25-1.727-1.883-3.068-4.175-4.062-6.843-.942-2.72-1.458-5.746-1.563-9.094h53.5v-11.625c0-6.383-.877-12.02-2.656-16.938-1.727-4.97-4.235-9.161-7.531-12.562-3.244-3.4-7.23-5.96-11.938-7.688-4.656-1.778-9.88-2.656-15.687-2.656zm144.093 0c-5.964 0-11.394.97-16.312 2.906-4.866 1.936-9.057 4.816-12.563 8.688-3.453 3.82-6.158 8.62-8.093 14.375-1.936 5.755-2.907 12.465-2.907 20.156 0 7.586 1.064 14.225 3.157 19.875 2.145 5.598 5.118 10.254 8.937 13.969 3.82 3.662 8.372 6.388 13.656 8.219 5.284 1.83 11.066 2.75 17.344 2.75 3.244 0 6.217-.114 8.938-.375 2.72-.21 5.27-.57 7.625-1.094a58.522 58.522 0 006.656-1.906 52.555 52.555 0 006.375-2.813v-18.531a93.93 93.93 0 01-6.75 3.062 61.953 61.953 0 01-6.688 2.125 58.633 58.633 0 01-6.968 1.344c-2.355.262-4.864.375-7.532.375-3.191 0-6.051-.474-8.562-1.469a18.294 18.294 0 01-6.344-4.25c-1.727-1.883-3.1-4.175-4.094-6.843-.941-2.72-1.458-5.746-1.562-9.094h53.5v-11.625c0-6.383-.878-12.02-2.656-16.938-1.727-4.97-4.236-9.161-7.532-12.562-3.244-3.4-7.229-5.96-11.937-7.688-4.657-1.778-9.88-2.656-15.688-2.656zm89.969 0c-2.93 0-5.542.362-7.844 1.094-2.25.68-4.294 1.66-6.125 2.969-1.779 1.255-3.379 2.825-4.843 4.656a44.181 44.181 0 00-4.094 6.094h-1.188l-3.531-13.157h-18.125v87.72h23.938V416.74c0-4.133.505-7.612 1.5-10.438 1.046-2.877 2.48-5.18 4.312-6.906 1.883-1.779 4.124-3.059 6.688-3.844 2.615-.784 5.444-1.187 8.53-1.187.524 0 1.185.041 1.97.094.784 0 1.558.051 2.343.156.837.052 1.643.145 2.375.25.733.105 1.3.208 1.719.312V372.71c-.314-.105-.778-.167-1.406-.22a18.32 18.32 0 00-1.969-.25 14.364 14.364 0 00-2.187-.155 28.988 28.988 0 00-2.063-.063zm-233.906 17.031c2.511 0 4.71.465 6.594 1.407 1.883.942 3.463 2.232 4.718 3.906 1.256 1.622 2.185 3.563 2.813 5.812.628 2.25.979 4.707 1.031 7.375h-30.531c.418-6.382 2.008-11.049 4.781-14.03 2.825-2.983 6.356-4.47 10.594-4.47zm144.094 0c2.51 0 4.71.465 6.593 1.407 1.884.942 3.463 2.232 4.719 3.906 1.256 1.622 2.185 3.563 2.813 5.812.627 2.25.978 4.707 1.03 7.375h-30.53c.418-6.382 2.008-11.049 4.78-14.03 2.826-2.983 6.357-4.47 10.595-4.47z" font-size="160.722" font-weight="700" letter-spacing="0" word-spacing="0" stroke="#000" stroke-width="3" stroke-linejoin="round" font-family="Droid Sans"/><g style="line-height:125%;-inkscape-font-specification:Sans Bold"><path d="M487.416 359.537H483.9v-13.704h-4.177v-2.937h11.86v2.937h-4.166v13.704m13.419 0l-3.654-13.056h-.102a110.52 110.52 0 01.182 3.768c.015.288.022.565.022.83.008.266.012.505.012.718v7.74h-3.153v-16.641h4.803l3.597 12.725h.068l3.825-12.725h4.803v16.64h-3.29v-8.547a244.199 244.199 0 00.046-1.65c.015-.29.026-.57.034-.843.03-.637.057-1.301.08-1.992h-.091l-3.938 13.033h-3.244" style="-inkscape-font-specification:Droid Sans Bold" font-size="35.265" font-weight="700" letter-spacing="0" word-spacing="0" fill="#4d4d4d" font-family="Droid Sans"/></g><path d="M49.578 329.02l17.184-41.06h3.311l17.185 41.06h-4.323l-5.333-12.826H59.13l-5.264 12.827h-4.287zm18.857-36.32L60 312.988h16.661l-8.226-20.286zm23.215 36.32v-41.06h17.01c7.04 0 12.13 6.518 12.13 12.897 0 6.692-4.741 13.001-11.782 13.001h-13.35v15.163h-4.009zm4.008-18.752h13.14c4.846 0 7.983-4.461 7.983-9.41 0-5.16-3.8-9.307-8.33-9.307H95.657v18.717zm22.9 18.752l17.184-41.06h3.312l17.184 41.06h-4.392l-5.333-12.826h-18.439l-5.263 12.827h-4.253zm18.858-36.32l-8.436 20.287h16.662l-8.226-20.286zm38.202-4.984c7.285 0 12.618 3.695 15.162 8.958l-3.241 1.952c-2.614-5.437-7.703-7.285-12.13-7.285-9.83 0-15.198 8.784-15.198 17.045 0 9.063 6.658 17.289 15.372 17.289 4.636 0 10.073-2.3 12.653-7.634l3.346 1.743c-2.649 6.135-9.934 9.55-16.243 9.55-11.258 0-19.206-10.77-19.206-21.157 0-9.864 7.111-20.46 19.485-20.46zm53.992.244v41.06h-4.043v-19.205h-24.33v19.206h-3.973v-41.06h3.973v18.264h24.33V287.96h4.043zm36.843 37.47v3.59h-27.571v-41.06h27.048v3.59h-23.075v14.814h20.112v3.416h-20.112v15.65h23.598z" fill="#d22128"/><g transform="translate(261.578 3.509) scale(.65116)"><linearGradient id="a" gradientUnits="userSpaceOnUse" x1="-7708.797" y1="-803.36" x2="-7633.153" y2="-714.907" gradientTransform="rotate(-65.001 -3054.253 -6609.844)"><stop offset="0" stop-color="#f69923"/><stop offset=".312" stop-color="#f79a23"/><stop offset=".838" stop-color="#e97826"/></linearGradient><path d="M267.1 19.6c-8.4 5-22.4 19-39 39.3l15.3 28.9c10.7-15.4 21.7-29.2 32.7-41 .8-.9 1.3-1.4 1.3-1.4-.4.5-.9.9-1.3 1.4-3.6 3.9-14.4 16.5-30.7 41.6 15.7-.8 39.8-4 59.5-7.4 5.9-32.8-5.7-47.8-5.7-47.8s-14.8-23.9-32.1-13.6z" fill="url(#j)"/><path d="M241.1 184.4c.1 0 .2 0 .3-.1l-2.2.2c-.1.1-.3.1-.4.2.8-.1 1.6-.2 2.3-.3zm-15.6 51.7c-1.2.3-2.5.5-3.8.7 1.3-.2 2.6-.4 3.8-.7zM119.3 352.2c.2-.4.3-.9.5-1.3 3.4-8.9 6.7-17.5 10-26 3.7-9.4 7.4-18.6 11-27.5 3.8-9.3 7.6-18.4 11.3-27.1 3.9-9.2 7.7-18 11.5-26.5 3.1-6.9 6.1-13.6 9.1-20.1 1-2.2 2-4.3 3-6.4 2-4.2 3.9-8.3 5.8-12.3 1.8-3.7 3.5-7.3 5.2-10.9.6-1.2 1.2-2.4 1.7-3.5l.3-.6-1.9.2-1.5-2.9c-.1.3-.3.6-.4.9-2.7 5.3-5.4 10.7-8 16.2-1.5 3.1-3 6.3-4.6 9.5-4.2 8.8-8.3 17.6-12.3 26.6-4.1 9-8.1 18.1-12 27.1-3.9 8.9-7.6 17.8-11.3 26.7-3.7 8.9-7.3 17.7-10.8 26.5-3.7 9.2-7.3 18.3-10.7 27.3-.8 2-1.6 4.1-2.3 6.1-2.8 7.3-5.5 14.4-8.1 21.5l2.4 4.7 2.1-.2c.1-.2.2-.4.2-.6 3.1-9.5 6.5-18.6 9.8-27.4zm101.4-115.3z" fill="none"/><path d="M215.6 262.2c-2 .4-4 .7-6 1 1-.1 2.1-.3 3.1-.5 1-.1 2-.3 2.9-.5z" fill="#be202e"/><path d="M215.6 262.2c-2 .4-4 .7-6 1 1-.1 2.1-.3 3.1-.5 1-.1 2-.3 2.9-.5z" opacity=".35" fill="#be202e"/><path d="M220.8 236.9c-.1 0-.1 0 0 0 .3 0 .6-.1.9-.1 1.3-.2 2.6-.4 3.8-.7-1.5.3-3.1.5-4.7.8z" fill="#be202e"/><path d="M220.8 236.9c-.1 0-.1 0 0 0 .3 0 .6-.1.9-.1 1.3-.2 2.6-.4 3.8-.7-1.5.3-3.1.5-4.7.8z" opacity=".35" fill="#be202e"/><linearGradient id="b" gradientUnits="userSpaceOnUse" x1="-8268.639" y1="-813.123" x2="-7728.958" y2="-813.123" gradientTransform="rotate(-65.001 -3054.253 -6609.844)"><stop offset=".323" stop-color="#9e2064"/><stop offset=".63" stop-color="#c92037"/><stop offset=".751" stop-color="#cd2335"/><stop offset="1" stop-color="#e97826"/></linearGradient><path d="M198.2 162.4c4.7-8.7 9.4-17.2 14.1-25.5 4.9-8.6 9.9-16.9 15-25 .3-.5.6-1 .9-1.4 5-7.9 10-15.5 15.1-22.8L228 58.9c-1.1 1.4-2.3 2.8-3.5 4.3-4.4 5.5-9 11.4-13.7 17.7-5.3 7.1-10.7 14.6-16.3 22.5-5.1 7.3-10.3 15-15.5 22.9-4.4 6.8-8.8 13.7-13.2 20.8-.2.3-.3.5-.5.8l19.9 39.3c4.4-8.3 8.7-16.6 13-24.8z" fill="url(#k)"/><linearGradient id="c" gradientUnits="userSpaceOnUse" x1="-8203.492" y1="-758.994" x2="-7881.895" y2="-758.994" gradientTransform="rotate(-65.001 -3054.253 -6609.844)"><stop offset="0" stop-color="#282662"/><stop offset=".095" stop-color="#662e8d"/><stop offset=".788" stop-color="#9f2064"/><stop offset=".949" stop-color="#cd2032"/></linearGradient><path d="M107.5 384.1c-2.6 7.2-5.3 14.6-7.9 22.2 0 .1-.1.2-.1.3-.4 1.1-.8 2.1-1.1 3.2-1.8 5.1-3.3 9.7-6.9 20.1 5.9 2.7 10.6 9.7 15 17.7-.5-8.3-3.9-16.1-10.4-22.1 28.9 1.3 53.9-6 66.7-27.2 1.1-1.9 2.2-3.9 3.2-6-5.9 7.4-13.1 10.6-26.8 9.8h-.1.1c20.1-9 30.2-17.7 39.1-32 2.1-3.4 4.2-7.1 6.3-11.2-17.6 18.1-38 23.2-59.5 19.3L109 380c-.5 1.4-1 2.7-1.5 4.1z" fill="url(#l)"/><linearGradient id="d" gradientUnits="userSpaceOnUse" x1="-8238.328" y1="-818.152" x2="-7698.647" y2="-818.152" gradientTransform="rotate(-65.001 -3054.253 -6609.844)"><stop offset=".323" stop-color="#9e2064"/><stop offset=".63" stop-color="#c92037"/><stop offset=".751" stop-color="#cd2335"/><stop offset="1" stop-color="#e97826"/></linearGradient><path d="M115 348c3.5-9 7.1-18.1 10.7-27.3 3.5-8.8 7.1-17.6 10.8-26.5 3.7-8.9 7.5-17.8 11.3-26.7 3.9-9.1 7.9-18.1 12-27.1 4-8.9 8.2-17.8 12.3-26.6 1.5-3.2 3-6.3 4.6-9.5 2.6-5.4 5.3-10.8 8-16.2.1-.3.3-.6.4-.9L165.4 148c-.3.5-.6 1.1-1 1.6-4.6 7.6-9.3 15.3-13.8 23.2-4.6 8-9.1 16.1-13.5 24.4-3.7 7-7.3 14-10.9 21.1-.7 1.4-1.4 2.9-2.1 4.3-4.3 8.9-8.3 17.6-11.8 25.9-4 9.4-7.5 18.4-10.6 26.9-2 5.6-3.9 11-5.6 16.2-1.4 4.4-2.7 8.9-4 13.3-3 10.4-5.5 20.8-7.6 31.2l20 39.5c2.6-7.1 5.4-14.2 8.1-21.5.8-2 1.6-4 2.4-6.1z" fill="url(#m)"/><linearGradient id="e" gradientUnits="userSpaceOnUse" x1="-8198.968" y1="-810.851" x2="-7915.35" y2="-810.851" gradientTransform="rotate(-65.001 -3054.253 -6609.844)"><stop offset="0" stop-color="#282662"/><stop offset=".095" stop-color="#662e8d"/><stop offset=".788" stop-color="#9f2064"/><stop offset=".949" stop-color="#cd2032"/></linearGradient><path d="M84.2 337.5c-2.5 12.6-4.3 25.2-5.2 37.8 0 .4-.1.9-.1 1.3-6.2-10-23-19.8-22.9-19.7 12 17.4 21.1 34.6 22.4 51.5-6.4 1.3-15.2-.6-25.3-4.3 10.6 9.7 18.5 12.4 21.6 13.1-9.7.6-19.8 7.3-30 15 14.9-6.1 27-8.5 35.6-6.5-13.7 38.7-27.4 81.5-41.1 126.9 4.2-1.2 6.7-4.1 8.1-7.9 2.4-8.2 18.7-62.2 44.1-133.1.7-2 1.5-4 2.2-6.1.2-.6.4-1.1.6-1.7 2.7-7.4 5.5-15 8.4-22.8.7-1.8 1.3-3.5 2-5.3v-.1l-20-39.5c-.2.5-.3.9-.4 1.4z" fill="url(#n)"/><linearGradient id="f" gradientUnits="userSpaceOnUse" x1="-8238.328" y1="-762.297" x2="-7698.647" y2="-762.297" gradientTransform="rotate(-65.001 -3054.253 -6609.844)"><stop offset=".323" stop-color="#9e2064"/><stop offset=".63" stop-color="#c92037"/><stop offset=".751" stop-color="#cd2335"/><stop offset="1" stop-color="#e97826"/></linearGradient><path d="M188.4 190.6c-.6 1.2-1.1 2.3-1.7 3.5-1.7 3.6-3.5 7.2-5.2 10.9-1.9 4-3.8 8.1-5.8 12.3-1 2.1-2 4.2-3 6.4-3 6.5-6 13.2-9.1 20.1-3.8 8.5-7.6 17.3-11.5 26.5-3.7 8.7-7.5 17.8-11.3 27.1-3.6 8.9-7.3 18-11 27.5-3.3 8.4-6.6 17.1-10 26-.2.4-.3.9-.5 1.3-3.3 8.8-6.7 17.9-10.1 27.2-.1.2-.2.4-.2.6l16.1-1.8c-.3-.1-.6-.1-1-.2 19.3-2.4 44.9-16.8 61.4-34.6 7.6-8.2 14.5-17.8 20.9-29.1 4.8-8.4 9.2-17.7 13.5-28.1 3.7-9 7.3-18.8 10.7-29.4-4.4 2.3-9.5 4-15.1 5.2l-3 .6c-1 .2-2 .3-3.1.5 18-6.9 29.3-20.2 37.5-36.6-4.7 3.2-12.4 7.4-21.6 9.5-1.2.3-2.5.5-3.8.7-.3 0-.6.1-1 .1 6.2-2.6 11.5-5.5 16.1-9 1-.7 1.9-1.5 2.8-2.3 1.4-1.2 2.7-2.5 4-3.8.8-.9 1.6-1.7 2.4-2.6 1.8-2.1 3.5-4.4 5-6.9.5-.8 1-1.5 1.4-2.3.6-1.2 1.2-2.3 1.7-3.4 2.5-5 4.5-9.5 6.1-13.5.8-2 1.5-3.8 2.1-5.5.2-.7.5-1.3.7-2 .6-1.9 1.2-3.6 1.6-5.1.6-2.2 1-4 1.2-5.3-.6.5-1.3 1-2.1 1.4-5.4 3.2-14.7 6.2-22.2 7.6l14.8-1.6-14.8 1.6c-.1 0-.2 0-.3.1-.7.1-1.5.2-2.3.4.1-.1.3-.1.4-.2l-50.6 5.5c.1.4 0 .6-.1.7z" fill="url(#o)"/><linearGradient id="g" gradientUnits="userSpaceOnUse" x1="-8271.806" y1="-765.071" x2="-7732.125" y2="-765.071" gradientTransform="rotate(-65.001 -3054.253 -6609.844)"><stop offset=".323" stop-color="#9e2064"/><stop offset=".63" stop-color="#c92037"/><stop offset=".751" stop-color="#cd2335"/><stop offset="1" stop-color="#e97826"/></linearGradient><path d="M245.4 88.4c-4.5 6.9-9.4 14.8-14.7 23.6-.3.5-.6.9-.8 1.4-4.6 7.7-9.4 16.1-14.5 25.4-4.4 8-9 16.5-13.8 25.8-4.2 8-8.4 16.5-12.9 25.5l50.6-5.5c14.7-6.8 21.3-12.9 27.7-21.8 1.7-2.4 3.4-5 5.1-7.7 5.2-8.1 10.3-17 14.8-25.9 4.4-8.6 8.3-17.1 11.2-24.7 1.9-4.9 3.4-9.4 4.5-13.4.9-3.5 1.6-6.8 2.2-10-19.6 3.3-43.7 6.5-59.4 7.3z" fill="url(#p)"/><path d="M212.7 262.8c-1 .2-2 .3-3.1.5 1-.2 2-.4 3.1-.5z" fill="#be202e"/><path d="M212.7 262.8c-1 .2-2 .3-3.1.5 1-.2 2-.4 3.1-.5z" opacity=".35" fill="#be202e"/><linearGradient id="h" gradientUnits="userSpaceOnUse" x1="-8238.328" y1="-745.685" x2="-7698.647" y2="-745.685" gradientTransform="rotate(-65.001 -3054.253 -6609.844)"><stop offset=".323" stop-color="#9e2064"/><stop offset=".63" stop-color="#c92037"/><stop offset=".751" stop-color="#cd2335"/><stop offset="1" stop-color="#e97826"/></linearGradient><path d="M212.7 262.8c-1 .2-2 .3-3.1.5 1-.2 2-.4 3.1-.5z" fill="url(#q)"/><path d="M220.7 236.9c.3 0 .6-.1 1-.1-.3 0-.6.1-1 .1z" fill="#be202e"/><path d="M220.7 236.9c.3 0 .6-.1 1-.1-.3 0-.6.1-1 .1z" opacity=".35" fill="#be202e"/><linearGradient id="i" gradientUnits="userSpaceOnUse" x1="-8238.328" y1="-747.586" x2="-7698.647" y2="-747.586" gradientTransform="rotate(-65.001 -3054.253 -6609.844)"><stop offset=".323" stop-color="#9e2064"/><stop offset=".63" stop-color="#c92037"/><stop offset=".751" stop-color="#cd2335"/><stop offset="1" stop-color="#e97826"/></linearGradient><path d="M220.7 236.9c.3 0 .6-.1 1-.1-.3 0-.6.1-1 .1z" fill="url(#r)"/></g></svg>