<svg viewBox="0 0 88 68" width="64" height="54" fill="none" xmlns="http://www.w3.org/2000/svg"><path d="M12.203 34.41c-.002 11.225 8.79 20.485 20 21.066.598.02 1.074.51 1.077 1.11v8.885a1.117 1.117 0 01-1.171 1.11 26.518 26.518 0 01-1.846-.142 1.977 1.977 0 01-1.708-1.664l-.7-4.275a26.254 26.254 0 01-9.162-3.807l-3.528 2.53a1.997 1.997 0 01-2.396-.022 34.443 34.443 0 01-2.23-2.03 29.27 29.27 0 01-2.03-2.238 1.997 1.997 0 01-.022-2.399l2.529-3.525a26.306 26.306 0 01-3.805-9.17l-4.27-.7a2.006 2.006 0 01-1.665-1.762c-.218-1.99-.218-4 0-5.99a1.98 1.98 0 011.664-1.71l4.271-.698a26.305 26.305 0 013.805-9.17l-2.53-3.528a1.997 1.997 0 01.023-2.394 25.56 25.56 0 012.03-2.234 29.285 29.285 0 012.23-2.032 1.997 1.997 0 012.396-.022l3.528 2.531a26.277 26.277 0 019.163-3.808l.699-4.273a2.002 2.002 0 011.708-1.678c.606-.06 1.223-.104 1.85-.132a1.116 1.116 0 011.167 1.11v8.888a1.115 1.115 0 01-1.078 1.109c-11.21.581-20 9.84-19.999 21.064z" fill="#7FEBA1"/><path d="M33.28 49.99a1.018 1.018 0 01-1.06 1.027c-8.764-.555-15.588-7.825-15.588-16.607 0-8.781 6.824-16.051 15.588-16.607a1.018 1.018 0 011.06 1.028V49.99z" fill="#fff"/><path d="M43.264 8.895a2.219 2.219 0 100-4.437 2.219 2.219 0 000 4.437zm0 55.467a2.219 2.219 0 100-4.438 2.219 2.219 0 000 4.438zm11.093-11.093a2.219 2.219 0 100-4.438 2.219 2.219 0 000 4.438zm8.874-16.64a2.219 2.219 0 100-4.437 2.219 2.219 0 000 4.437zm-8.874-16.64a2.219 2.219 0 100-4.438 2.219 2.219 0 000 4.438z" fill="#7FEBA1"/><path d="M2.758 28.587a3.106 3.106 0 00-2.585 2.68 28.703 28.703 0 00-.007 6.232 3.126 3.126 0 002.594 2.735l3.53.578a27.266 27.266 0 003.387 8.161l-2.078 2.902a3.113 3.113 0 00.049 3.76 29.686 29.686 0 002.107 2.317 35.882 35.882 0 002.339 2.128 3.097 3.097 0 003.718.043l2.917-2.092a27.264 27.264 0 008.154 3.388l.579 3.535a3.106 3.106 0 002.679 2.586c.632.071 1.274.121 1.921.148h.094c.578 0 1.134-.223 1.553-.621a2.2 2.2 0 00.68-1.596v-8.89a2.228 2.228 0 00-2.13-2.213c-10.619-.554-18.943-9.325-18.943-19.957 0-10.633 8.324-19.404 18.942-19.958a2.229 2.229 0 002.131-2.219V3.35a2.196 2.196 0 00-.68-1.597 2.184 2.184 0 00-1.642-.622c-.645.026-1.285.072-1.942.139a3.094 3.094 0 00-2.662 2.598L26.885 7.4a27.268 27.268 0 00-8.154 3.389L15.815 8.7a3.106 3.106 0 00-3.747.06 30.205 30.205 0 00-2.306 2.095 26.828 26.828 0 00-2.128 2.341 3.106 3.106 0 00-.053 3.732l2.091 2.92a27.248 27.248 0 00-3.382 8.16l-3.532.58zm5.539.62a25.13 25.13 0 013.645-8.785 1.11 1.11 0 00-.026-1.256l-2.53-3.534a.887.887 0 01-.017-1.05c.608-.753 1.26-1.47 1.954-2.146a28.42 28.42 0 012.119-1.934.887.887 0 011.076 0l3.527 2.531a1.11 1.11 0 001.257.024 25.085 25.085 0 018.779-3.647 1.11 1.11 0 00.87-.907l.698-4.272a.88.88 0 01.726-.754 28.073 28.073 0 011.796-.128l-.025 8.887c-11.81.603-21.075 10.358-21.068 22.184.006 11.826 9.282 21.57 21.093 22.161l-.016 8.89a24.968 24.968 0 01-1.768-.136.87.87 0 01-.737-.741l-.699-4.274a1.11 1.11 0 00-.87-.908 25.094 25.094 0 01-8.779-3.647 1.11 1.11 0 00-1.256.024l-3.531 2.534a.872.872 0 01-1.033.027 34.375 34.375 0 01-2.159-1.966 27.993 27.993 0 01-1.934-2.117.9.9 0 010-1.078l2.529-3.53a1.11 1.11 0 00.024-1.257c-1.763-2.669-3-5.65-3.645-8.783a1.11 1.11 0 00-.907-.87l-4.27-.7a.898.898 0 01-.747-.79 26.234 26.234 0 01.007-5.74.872.872 0 01.74-.739l4.27-.699a1.11 1.11 0 00.907-.875z" fill="#fff"/><path d="M63.232 31.082a3.328 3.328 0 00-3.124 2.219H34.39v-3.328h17.749a3.328 3.328 0 003.328-3.328v-5.751a3.328 3.328 0 10-2.219 0v5.75a1.11 1.11 0 01-1.11 1.11H34.39v-3.328h12.202a1.11 1.11 0 000-2.219H34.39V19.99h6.656a3.328 3.328 0 003.328-3.328V9.8a3.328 3.328 0 10-2.218 0v6.86a1.11 1.11 0 01-1.11 1.11h-6.948a2.05 2.05 0 00-1.947-1.075c-9.348.592-16.627 8.347-16.627 17.714 0 9.367 7.279 17.122 16.627 17.714h.13a2.046 2.046 0 001.817-1.074h6.948c.613 0 1.11.497 1.11 1.11v6.86a3.328 3.328 0 102.218 0v-6.86a3.328 3.328 0 00-3.328-3.329H34.39v-2.218h12.203a1.11 1.11 0 100-2.219H34.39v-3.328h17.75c.612 0 1.11.497 1.11 1.11v5.75a3.328 3.328 0 102.218 0v-5.75a3.328 3.328 0 00-3.328-3.329H34.39V35.52h25.72a3.322 3.322 0 103.123-4.437zm-8.874-14.421a1.11 1.11 0 110 2.219 1.11 1.11 0 010-2.22zM43.264 5.567a1.11 1.11 0 110 2.219 1.11 1.11 0 010-2.219zm0 57.686a1.11 1.11 0 110-2.219 1.11 1.11 0 010 2.219zm11.093-11.094a1.11 1.11 0 110-2.218 1.11 1.11 0 010 2.218zM17.75 34.41c.01-8.143 6.3-14.9 14.422-15.49V49.9c-8.122-.59-14.412-7.347-14.421-15.49zm45.483 1.11a1.11 1.11 0 110-2.22 1.11 1.11 0 010 2.22z" fill="#fff"/><path d="M54 7.625V5.364C54 2.954 56.162 1 58.83 1h23.34C84.839 1 87 2.954 87 5.364v55.272C87 63.046 84.838 65 82.17 65H58.83C56.161 65 54 63.046 54 60.636v-.308M65.45 58h9.919M69.45 6.677H71" stroke="#fff" stroke-width="2" stroke-linecap="round"/></svg>