<?xml version="1.0" encoding="UTF-8"?>
<svg version="1.1" xmlns="http://www.w3.org/2000/svg" width="128" height="128">
<path d="M0 0 C1.91470983 -0.00083002 3.82941957 -0.0032944 5.74412537 -0.00730896 C9.74264155 -0.0101565 13.74059434 0.00443321 17.73901367 0.03198242 C22.84544756 0.0660864 27.95087652 0.06002922 33.05735874 0.04131985 C37.00640636 0.03071571 40.95522301 0.03971824 44.90424919 0.05470467 C46.78636933 0.05986034 48.66851384 0.0594367 50.55063057 0.05315971 C69.46805197 0.0137376 69.46805197 0.0137376 76.30859375 4.62890625 C76.93274673 5.03632553 77.55689972 5.44374481 78.19996643 5.86351013 C83.38067291 9.73907685 86.38226475 14.48140218 88.30859375 20.62890625 C89.23358572 27.13454419 88.98905831 33.76654344 88.9375 40.3203125 C88.93833002 42.23502233 88.9407944 44.14973207 88.94480896 46.06443787 C88.9476565 50.06295405 88.93306679 54.06090684 88.90551758 58.05932617 C88.8714136 63.16576006 88.87747078 68.27118902 88.89618015 73.37767124 C88.90678429 77.32671886 88.89778176 81.27553551 88.88279533 85.22456169 C88.87763966 87.10668183 88.8780633 88.98882634 88.88434029 90.87094307 C88.9237624 109.78836447 88.9237624 109.78836447 84.30859375 116.62890625 C83.90117447 117.25305923 83.49375519 117.87721222 83.07398987 118.52027893 C79.19842315 123.70098541 74.45609782 126.70257725 68.30859375 128.62890625 C61.80295581 129.55389822 55.17095656 129.30937081 48.6171875 129.2578125 C46.70247767 129.25864252 44.78776793 129.2611069 42.87306213 129.26512146 C38.87454595 129.267969 34.87659316 129.25337929 30.87817383 129.22583008 C25.77173994 129.1917261 20.66631098 129.19778328 15.55982876 129.21649265 C11.61078114 129.22709679 7.66196449 129.21809426 3.71293831 129.20310783 C1.83081817 129.19795216 -0.05132634 129.1983758 -1.93344307 129.20465279 C-20.85086447 129.2440749 -20.85086447 129.2440749 -27.69140625 124.62890625 C-28.31555923 124.22148697 -28.93971222 123.81406769 -29.58277893 123.39430237 C-34.76348541 119.51873565 -37.76507725 114.77641032 -39.69140625 108.62890625 C-40.61639822 102.12326831 -40.37187081 95.49126906 -40.3203125 88.9375 C-40.32114252 87.02279017 -40.3236069 85.10808043 -40.32762146 83.19337463 C-40.330469 79.19485845 -40.31587929 75.19690566 -40.28833008 71.19848633 C-40.2542261 66.09205244 -40.26028328 60.98662348 -40.27899265 55.88014126 C-40.28959679 51.93109364 -40.28059426 47.98227699 -40.26560783 44.03325081 C-40.26045216 42.15113067 -40.2608758 40.26898616 -40.26715279 38.38686943 C-40.3065749 19.46944803 -40.3065749 19.46944803 -35.69140625 12.62890625 C-35.28398697 12.00475327 -34.87656769 11.38060028 -34.45680237 10.73753357 C-25.767625 -0.87781994 -13.12512549 -0.10325499 0 0 Z " fill="#EDA4AD" transform="translate(39.69140625,-0.62890625)"/>
<path d="M0 0 C4.41205208 3.00019542 7.54296957 6.18422037 10 11 C9.73131472 15.74994368 8.62236255 17.98841696 5.2109375 21.2421875 C4.43363281 21.99886719 3.65632813 22.75554688 2.85546875 23.53515625 C2.03691406 24.30730469 1.21835938 25.07945313 0.375 25.875 C-1.2237558 27.41156757 -2.82013812 28.95060874 -4.4140625 30.4921875 C-5.1251416 31.16620605 -5.8362207 31.84022461 -6.56884766 32.53466797 C-8.5341353 34.52758569 -10.36138555 36.54420317 -12.18725586 38.66088867 C-19.09052634 46.61978214 -26.62517076 54.00744998 -34.03295898 61.49291992 C-35.97705241 63.45942034 -37.91087495 65.43525713 -39.83666992 67.41967773 C-42.63052588 70.29833056 -45.45255999 73.14777943 -48.27734375 75.99609375 C-49.13279282 76.88453476 -49.98824188 77.77297577 -50.86961365 78.68833923 C-57.62501346 85.42144084 -57.62501346 85.42144084 -62.45385742 86.14355469 C-66.39188054 85.98413592 -67.61570608 85.54363786 -70.375 82.8125 C-71.02210937 82.20019531 -71.66921875 81.58789062 -72.3359375 80.95703125 C-75.06967484 77.74200212 -76.02298484 76.11500623 -75.9339447 71.79562378 C-74.70494632 66.80087893 -72.39073622 64.57679812 -68.76782227 61.07080078 C-68.1173996 60.41789566 -67.46697693 59.76499054 -66.79684448 59.09230042 C-64.65076595 56.94530614 -62.48413328 54.82042882 -60.31640625 52.6953125 C-58.81923476 51.2067978 -57.32331533 49.71702279 -55.82859802 48.2260437 C-51.89544226 44.31010189 -47.94416594 40.41293635 -43.98925781 36.51898193 C-40.75710001 33.33047777 -37.5380437 30.12892603 -34.31959629 26.92659187 C-30.48946095 23.11603251 -26.65385729 19.31100313 -22.81640625 15.5078125 C-22.08136934 14.77920139 -21.34633244 14.05059029 -20.58902168 13.29990005 C-18.51611173 11.24790646 -16.43957781 9.1996638 -14.36157227 7.15283203 C-13.74383438 6.54092514 -13.1260965 5.92901825 -12.48963928 5.29856873 C-8.18974577 1.07511964 -6.1502317 -0.70964212 0 0 Z " fill="#FCF6F7" transform="translate(97,21)"/>
<path d="M0 0 C1.91470983 -0.00083002 3.82941957 -0.0032944 5.74412537 -0.00730896 C9.74264155 -0.0101565 13.74059434 0.00443321 17.73901367 0.03198242 C22.84544756 0.0660864 27.95087652 0.06002922 33.05735874 0.04131985 C37.00640636 0.03071571 40.95522301 0.03971824 44.90424919 0.05470467 C46.78636933 0.05986034 48.66851384 0.0594367 50.55063057 0.05315971 C68.93333058 0.01485191 68.93333058 0.01485191 76.30859375 4.62890625 C76.80359375 5.61890625 76.80359375 5.61890625 77.30859375 6.62890625 C76.60734375 6.29890625 75.90609375 5.96890625 75.18359375 5.62890625 C72.01753247 4.52766754 69.63794671 4.40694939 66.30859375 4.62890625 C65.64859375 4.95890625 64.98859375 5.28890625 64.30859375 5.62890625 C62.40926003 5.53955975 60.51278336 5.38366078 58.62109375 5.19140625 C50.37092277 4.25775825 50.37092277 4.25775825 42.30859375 5.62890625 C39.27339936 5.65878861 36.25245642 5.56273099 33.21875 5.46875 C30.34666684 5.43315581 30.34666684 5.43315581 28.1796875 6.6953125 C25.7324218 7.91639079 24.91695794 7.325559 22.30859375 6.62890625 C13.92606932 5.58961115 5.55548041 5.44092578 -2.87890625 5.62890625 C-3.98943359 5.62246094 -5.09996094 5.61601563 -6.24414062 5.609375 C-14.47624528 5.81383886 -18.82869005 7.91835692 -24.69140625 13.62890625 C-25.95791016 14.76392578 -25.95791016 14.76392578 -27.25 15.921875 C-27.87003906 16.54707031 -28.49007813 17.17226563 -29.12890625 17.81640625 C-29.76699219 18.44933594 -30.40507812 19.08226563 -31.0625 19.734375 C-32.70193751 21.64115484 -33.8008295 23.27836762 -34.69140625 25.62890625 C-34.36140625 26.28890625 -34.03140625 26.94890625 -33.69140625 27.62890625 C-33.94013141 29.24419035 -34.26350689 30.84845608 -34.62890625 32.44140625 C-35.5669924 36.54786285 -36.35097659 40.39651432 -35.1328125 44.51953125 C-34.48516584 47.61447989 -35.10176645 50.27808391 -35.62890625 53.37890625 C-35.82355469 54.549375 -36.01820312 55.71984375 -36.21875 56.92578125 C-36.37472656 57.8178125 -36.53070313 58.70984375 -36.69140625 59.62890625 C-36.03140625 59.62890625 -35.37140625 59.62890625 -34.69140625 59.62890625 C-34.77895176 61.37981644 -34.88713998 63.12970176 -35.00390625 64.87890625 C-35.06191406 65.8534375 -35.11992188 66.82796875 -35.1796875 67.83203125 C-35.73777149 70.88232236 -36.65510401 72.33601901 -38.69140625 74.62890625 C-39.55356286 71.63227771 -39.83167072 68.93365964 -39.8684082 65.81958008 C-39.88124344 64.86791458 -39.89407867 63.91624908 -39.90730286 62.93574524 C-39.91838326 61.40134041 -39.91838326 61.40134041 -39.9296875 59.8359375 C-39.93775925 58.77533615 -39.94583099 57.7147348 -39.95414734 56.62199402 C-39.96797165 54.37683743 -39.97870119 52.13165996 -39.98657227 49.88647461 C-39.99808353 47.59865124 -40.01852162 45.31085454 -40.0480957 43.02319336 C-40.09091769 39.71058977 -40.106963 36.39878407 -40.1171875 33.0859375 C-40.13469559 32.0731221 -40.15220367 31.0603067 -40.17024231 30.01679993 C-40.14337026 21.13075509 -37.65071876 13.72088749 -31.46360779 7.1860199 C-22.20972489 -0.94474122 -11.59493585 -0.09121703 0 0 Z " fill="#CAB7F5" transform="translate(39.69140625,-0.62890625)"/>
<path d="M0 0 C3.32759923 1.55194754 5.48580485 3.30621949 8 6 C6.51657 9.44677 4.56949812 11.67343301 1.91748047 14.30957031 C1.07675995 15.15013977 0.23603943 15.99070923 -0.63015747 16.85675049 C-1.53853363 17.75480408 -2.44690979 18.65285767 -3.3828125 19.578125 C-4.31221649 20.5046991 -5.24162048 21.43127319 -6.19918823 22.38592529 C-8.6640385 24.84315789 -11.13483666 27.29432361 -13.60693359 29.7442627 C-16.13090765 32.24773809 -18.64919388 34.75692063 -21.16796875 37.265625 C-26.10643597 42.18267525 -31.051212 47.09333788 -36 52 C-39.32759923 50.44805246 -41.48580485 48.69378051 -44 46 C-42.51657 42.55323 -40.56949812 40.32656699 -37.91748047 37.69042969 C-36.65639969 36.4295755 -36.65639969 36.4295755 -35.36984253 35.14324951 C-34.46146637 34.24519592 -33.55309021 33.34714233 -32.6171875 32.421875 C-31.68778351 31.4953009 -30.75837952 30.56872681 -29.80081177 29.61407471 C-27.3359615 27.15684211 -24.86516334 24.70567639 -22.39306641 22.2557373 C-19.86909235 19.75226191 -17.35080612 17.24307937 -14.83203125 14.734375 C-9.89356403 9.81732475 -4.948788 4.90666212 0 0 Z " fill="#E59090" transform="translate(71,49)"/>
<path d="M0 0 C0.33 0 0.66 0 1 0 C1.43891923 2.91910424 1.59046365 5.10082375 -0.07494354 7.63695717 C-1.7106539 9.47131721 -3.41733039 11.1932564 -5.17871094 12.9074707 C-6.16393738 13.9012397 -6.16393738 13.9012397 -7.16906738 14.91508484 C-9.34311854 17.10024651 -11.53801313 19.26306368 -13.734375 21.42578125 C-15.25046236 22.93829215 -16.76544228 24.45191387 -18.27935791 25.96659851 C-21.45472522 29.13727352 -24.63991809 32.2976147 -27.83300781 35.45043945 C-31.92860213 39.4950424 -36.0041471 43.55913649 -40.07317734 47.63044453 C-43.20009046 50.75654246 -46.3347571 53.8747645 -49.47211456 56.99037743 C-50.97782153 58.48652897 -52.48171059 59.9845123 -53.98375702 61.48433876 C-56.08297767 63.57706485 -58.19177347 65.65962034 -60.30371094 67.73950195 C-61.23591461 68.67374496 -61.23591461 68.67374496 -62.18695068 69.62686157 C-62.76461182 70.19172775 -63.34227295 70.75659393 -63.93743896 71.33857727 C-64.43520718 71.83131795 -64.93297539 72.32405863 -65.44582748 72.83173084 C-67.27965114 74.21021334 -68.76130812 74.57172837 -71 75 C-71.845625 75.226875 -72.69125 75.45375 -73.5625 75.6875 C-76 76 -76 76 -79 74 C-79 73.34 -79 72.68 -79 72 C-77.73937744 71.71801758 -76.47875488 71.43603516 -75.17993164 71.14550781 C-68.35218715 68.84836632 -64.00992664 63.73736692 -59.12109375 58.671875 C-58.10077692 57.63779073 -57.07902536 56.60512036 -56.05592346 55.5737915 C-53.37752637 52.86697854 -50.71720242 50.14310143 -48.06091309 47.41461182 C-44.84627126 44.11838929 -41.61268454 40.84077554 -38.37973881 37.56251907 C-35.86085515 35.00822562 -33.34549716 32.45083255 -30.84141541 29.88201904 C-26.27490675 25.21809079 -21.68316957 20.68951029 -16.69798279 16.47257996 C-13.27630553 13.50512152 -10.18625802 10.1876805 -7.05078125 6.92382812 C-5.7360282 5.58019807 -4.37183112 4.28530024 -3 3 C-2.34 3 -1.68 3 -1 3 C-0.67 2.01 -0.34 1.02 0 0 Z " fill="#D79278" transform="translate(110,35)"/>
<path d="M0 0 C0.95181152 0.00789551 1.90362305 0.01579102 2.88427734 0.02392578 C10.36239195 0.11027253 17.83846847 0.30422429 25.3125 0.5625 C26.33706299 0.5931958 27.36162598 0.6238916 28.41723633 0.65551758 C29.37525146 0.69443115 30.3332666 0.73334473 31.3203125 0.7734375 C32.16480957 0.8048584 33.00930664 0.8362793 33.87939453 0.86865234 C36.34767426 1.20962689 38.03873825 1.95318393 40.1875 3.1875 C33.64538409 6.33274803 33.64538409 6.33274803 29.1875 5.1875 C20.80497557 4.1482049 12.43438666 3.99951953 4 4.1875 C2.88947266 4.18105469 1.77894531 4.17460938 0.63476562 4.16796875 C-7.59733903 4.37243261 -11.9497838 6.47695067 -17.8125 12.1875 C-19.07900391 13.32251953 -19.07900391 13.32251953 -20.37109375 14.48046875 C-20.99113281 15.10566406 -21.61117188 15.73085938 -22.25 16.375 C-22.88808594 17.00792969 -23.52617187 17.64085938 -24.18359375 18.29296875 C-25.82303126 20.19974859 -26.92192325 21.83696137 -27.8125 24.1875 C-27.4825 24.8475 -27.1525 25.5075 -26.8125 26.1875 C-27.15234375 28.5703125 -27.15234375 28.5703125 -27.75 31.3125 C-27.94464844 32.22257812 -28.13929687 33.13265625 -28.33984375 34.0703125 C-28.49582031 34.76898438 -28.65179688 35.46765625 -28.8125 36.1875 C-29.1425 36.1875 -29.4725 36.1875 -29.8125 36.1875 C-30.94112175 30.82654667 -30.90938221 25.63443314 -30.8125 20.1875 C-30.1525 20.1875 -29.4925 20.1875 -28.8125 20.1875 C-28.709375 19.630625 -28.60625 19.07375 -28.5 18.5 C-26.79323404 12.75905997 -23.40936786 9.84623156 -18.8125 6.1875 C-18.131875 5.465625 -17.45125 4.74375 -16.75 4 C-11.86870799 -0.56636994 -6.29287829 -0.08994585 0 0 Z " fill="#BBA2F7" transform="translate(32.8125,0.8125)"/>
<path d="M0 0 C3.32759923 1.55194754 5.48580485 3.30621949 8 6 C6.6415798 9.04332765 5.11536976 11.12309151 2.7421875 13.453125 C1.80439453 14.38125 1.80439453 14.38125 0.84765625 15.328125 C0.19667969 15.96234375 -0.45429687 16.5965625 -1.125 17.25 C-1.78371094 17.8996875 -2.44242188 18.549375 -3.12109375 19.21875 C-4.74296643 20.81711727 -6.3693281 22.41061897 -8 24 C-11.32759923 22.44805246 -13.48580485 20.69378051 -16 18 C-14.6415798 14.95667235 -13.11536976 12.87690849 -10.7421875 10.546875 C-10.11699219 9.928125 -9.49179688 9.309375 -8.84765625 8.671875 C-8.19667969 8.03765625 -7.54570313 7.4034375 -6.875 6.75 C-6.21628906 6.1003125 -5.55757812 5.450625 -4.87890625 4.78125 C-3.25703357 3.18288273 -1.6306719 1.58938103 0 0 Z " fill="#E2849B" transform="translate(93,27)"/>
<path d="M0 0 C0.33 0 0.66 0 1 0 C1.44581559 3.89014815 1.3471777 5.52832551 -1.01208496 8.73361206 C-1.94773738 9.68656966 -2.90011891 10.62328012 -3.86523438 11.54638672 C-4.38217361 12.06420212 -4.89911285 12.58201752 -5.43171692 13.11552429 C-7.13855596 14.81819365 -8.86563127 16.49864287 -10.59375 18.1796875 C-11.78332705 19.3580703 -12.97158349 20.53778764 -14.15856934 21.71878052 C-17.28224038 24.8195718 -20.42350863 27.90192229 -23.56878662 30.98077393 C-26.77673527 34.12728277 -29.96770988 37.2909023 -33.16015625 40.453125 C-39.4236182 46.65228923 -45.70577397 52.83207472 -52 59 C-52 54.78773475 -49.62438852 53.02396665 -46.875 50.125 C-46.1634375 49.34962891 -46.1634375 49.34962891 -45.4375 48.55859375 C-43.02406831 45.96904678 -40.56126099 43.5742017 -37.8203125 41.33203125 C-35.57510542 39.47553731 -33.81946245 37.80064557 -32 35.5625 C-28.41102975 31.35781476 -24.57687597 27.42441984 -20.6875 23.5 C-20.06423828 22.86392822 -19.44097656 22.22785645 -18.79882812 21.57250977 C-18.20908203 20.98139404 -17.61933594 20.39027832 -17.01171875 19.78125 C-16.48022217 19.24564453 -15.94872559 18.71003906 -15.40112305 18.15820312 C-14 17 -14 17 -12 17 C-11.74089844 16.39800781 -11.48179688 15.79601562 -11.21484375 15.17578125 C-9.9020328 12.82454105 -8.70206271 11.78411991 -6.5625 10.1875 C-2.85740512 7.16939147 -1.52623244 4.48891893 0 0 Z M-55 59 C-54.34 59.33 -53.68 59.66 -53 60 C-57.62 64.62 -62.24 69.24 -67 74 C-67.66 73.67 -68.32 73.34 -69 73 C-67.23304141 71.03804598 -65.46168211 69.08040373 -63.6875 67.125 C-63.18798828 66.56941406 -62.68847656 66.01382813 -62.17382812 65.44140625 C-59.8912844 62.93211977 -57.83639832 60.89093222 -55 59 Z " fill="#E49A81" transform="translate(110,35)"/>
<path d="M0 0 C5.95901714 -0.0994253 11.91754355 -0.17173064 17.87719727 -0.21972656 C19.90137146 -0.2397503 21.92548847 -0.26697767 23.94946289 -0.30175781 C26.87140065 -0.35068462 29.7925688 -0.3730615 32.71484375 -0.390625 C33.60896469 -0.41127014 34.50308563 -0.43191528 35.42430115 -0.45318604 C41.61342948 -0.45535978 46.68465975 0.70576119 52 4 C52.495 4.99 52.495 4.99 53 6 C52.29875 5.67 51.5975 5.34 50.875 5 C47.70893872 3.89876129 45.32935296 3.77804314 42 4 C41.34 4.33 40.68 4.66 40 5 C38.10066628 4.9106535 36.20418961 4.75475453 34.3125 4.5625 C26.06232902 3.628852 26.06232902 3.628852 18 5 C15.76213183 4.75754106 13.53224066 4.43611971 11.3125 4.0625 C10.13300781 3.86785156 8.95351562 3.67320313 7.73828125 3.47265625 C6.38283203 3.23869141 6.38283203 3.23869141 5 3 C5 2.67 5 2.34 5 2 C3.35 1.67 1.7 1.34 0 1 C0 0.67 0 0.34 0 0 Z " fill="#D9B1E4" transform="translate(64,0)"/>
<path d="M0 0 C0.33 0 0.66 0 1 0 C1.71648868 9.02008067 2.09018338 17.90663476 1.9375 26.953125 C1.85019074 30.04508085 1.85019074 30.04508085 3 33 C2.71395102 34.67542976 2.38218767 36.34385343 2 38 C2 38.66 2 39.32 2 40 C0.515 40.495 0.515 40.495 -1 41 C-3.0700132 38.9299868 -2.16409695 34.51234075 -2.16796875 31.66015625 C-2.17129715 30.82286484 -2.17462555 29.98557343 -2.17805481 29.12290955 C-2.18312756 27.34830272 -2.18546303 25.57368633 -2.18530273 23.79907227 C-2.18748797 21.07747744 -2.20563633 18.35628857 -2.22460938 15.63476562 C-2.22754342 13.91406389 -2.22952814 12.19336023 -2.23046875 10.47265625 C-2.23765427 9.65491226 -2.24483978 8.83716827 -2.25224304 7.99464417 C-2.22882204 2.22882204 -2.22882204 2.22882204 0 0 Z M0 18 C1 20 1 20 1 20 Z " fill="#F6B9C2" transform="translate(2,68)"/>
<path d="M0 0 C0.84518188 -0.00315216 1.69036377 -0.00630432 2.56115723 -0.009552 C3.92983948 -0.00651566 3.92983948 -0.00651566 5.32617188 -0.00341797 C6.2724646 -0.00437469 7.21875732 -0.00533142 8.19372559 -0.00631714 C10.20109117 -0.00699818 12.20845895 -0.0051492 14.21582031 -0.00097656 C17.2552603 0.00432535 20.29454928 -0.0008994 23.33398438 -0.00732422 C25.28971386 -0.0066625 27.24544326 -0.0053794 29.20117188 -0.00341797 C30.09743286 -0.0054422 30.99369385 -0.00746643 31.91711426 -0.009552 C38.25482096 0.01340008 44.49302861 0.46605228 50.79492188 1.12939453 C50.79492188 1.45939453 50.79492188 1.78939453 50.79492188 2.12939453 C50.15678558 2.1227327 49.51864929 2.11607086 48.86117554 2.10920715 C42.2100733 2.04275604 35.55906563 1.99755319 28.90771484 1.96459961 C26.42655608 1.94952791 23.94542388 1.92906707 21.46435547 1.90307617 C17.89478998 1.86662286 14.32557726 1.84965161 10.75585938 1.83642578 C9.64939056 1.82094193 8.54292175 1.80545807 7.40292358 1.789505 C1.70139063 1.78826351 -2.22923711 2.02830816 -7.20507812 5.12939453 C-7.86507813 5.12939453 -8.52507813 5.12939453 -9.20507812 5.12939453 C-9.53507813 6.11939453 -9.86507813 7.10939453 -10.20507812 8.12939453 C-11.83398438 9.51611328 -11.83398438 9.51611328 -13.76757812 10.81689453 C-14.72857422 11.47238281 -14.72857422 11.47238281 -15.70898438 12.14111328 C-16.20269531 12.46724609 -16.69640625 12.79337891 -17.20507812 13.12939453 C-15.64381481 9.29720276 -13.17640887 6.95578231 -10.20507812 4.12939453 C-9.66882813 3.55189453 -9.13257813 2.97439453 -8.58007812 2.37939453 C-6.00883852 0.04190398 -3.29621525 0.00353518 0 0 Z " fill="#C8B1F2" transform="translate(24.205078125,-0.12939453125)"/>
<path d="M0 0 C-1.68416016 -0.01353516 -1.68416016 -0.01353516 -3.40234375 -0.02734375 C-14.70713974 0.08274463 -14.70713974 0.08274463 -24.07421875 5.95703125 C-24.70972656 6.63121094 -25.34523438 7.30539062 -26 8 C-26.72832031 8.70511719 -27.45664062 9.41023437 -28.20703125 10.13671875 C-30.17725295 12.05724117 -32.09387371 14.01624866 -34 16 C-34.99774012 17.00225478 -35.99692783 18.00308164 -37 19 C-34.57462253 10.51117886 -30.27811459 5.68191339 -23 1 C-16.42538006 -2.28730997 -6.35372127 -4.23581418 0 0 Z " fill="#AE91FC" transform="translate(41,5)"/>
<path d="M0 0 C0.33 0 0.66 0 1 0 C3.29612756 13.6332574 3.29612756 13.6332574 3 20 C3.66 20 4.32 20 5 20 C4.91245449 21.75091019 4.80426627 23.50079551 4.6875 25.25 C4.62949219 26.22453125 4.57148437 27.1990625 4.51171875 28.203125 C3.95363476 31.25341611 3.03630224 32.70711276 1 35 C-0.18817968 31.26689567 -0.11362739 27.72508355 -0.09765625 23.828125 C-0.0962413 23.1457074 -0.09482635 22.46328979 -0.09336853 21.76019287 C-0.08779084 19.59008316 -0.07524254 17.4200783 -0.0625 15.25 C-0.05748211 13.77474108 -0.05291971 12.29948053 -0.04882812 10.82421875 C-0.03782875 7.21611202 -0.02057953 3.60806625 0 0 Z " fill="#DCB2E2" transform="translate(0,39)"/>
<path d="M0 0 C0.33 0 0.66 0 1 0 C1.39881403 3.77119919 1.38281745 5.47619393 -0.89257812 8.58959961 C-1.76333984 9.43530518 -2.63410156 10.28101074 -3.53125 11.15234375 C-4.0005896 11.61556534 -4.4699292 12.07878693 -4.95349121 12.55604553 C-6.45546374 14.03117494 -7.9771651 15.48395071 -9.5 16.9375 C-10.49350802 17.90945933 -11.48570949 18.88275607 -12.4765625 19.85742188 C-17.82397738 25.09004966 -23.29581848 30.15786187 -29 35 C-29 32 -29 32 -27.65478516 30.2824707 C-27.03909668 29.66976318 -26.4234082 29.05705566 -25.7890625 28.42578125 C-25.12132813 27.75869141 -24.45359375 27.09160156 -23.765625 26.40429688 C-23.05921875 25.71400391 -22.3528125 25.02371094 -21.625 24.3125 C-20.92632812 23.61060547 -20.22765625 22.90871094 -19.5078125 22.18554688 C-14.26683218 17 -14.26683218 17 -12 17 C-11.74089844 16.39800781 -11.48179688 15.79601562 -11.21484375 15.17578125 C-9.9020328 12.82454105 -8.70206271 11.78411991 -6.5625 10.1875 C-2.85740512 7.16939147 -1.52623244 4.48891893 0 0 Z " fill="#E4938A" transform="translate(110,35)"/>
<path d="M0 0 C0.66 0.33 1.32 0.66 2 1 C-0.08919846 5.17839691 -2.71474594 7.63374927 -6.25 10.54296875 C-8.65944292 12.54904511 -10.80955398 14.75740051 -13 17 C-14.60281008 18.60552211 -16.20708155 20.2095861 -17.8125 21.8125 C-18.60269531 22.60269531 -19.39289063 23.39289062 -20.20703125 24.20703125 C-20.79871094 24.79871094 -21.39039062 25.39039062 -22 26 C-22.33 25.34 -22.66 24.68 -23 24 C-18.09775606 18.23790034 -12.94257462 12.81608471 -7.5625 7.5 C-6.83095703 6.77296875 -6.09941406 6.0459375 -5.34570312 5.296875 C-3.56610176 3.52890501 -1.78419082 1.76333622 0 0 Z " fill="#D78985" transform="translate(107,38)"/>
<path d="M0 0 C15.91787766 -0.81514025 15.91787766 -0.81514025 23 4 C23.33 4.66 23.66 5.32 24 6 C23.29875 5.67 22.5975 5.34 21.875 5 C18.70893872 3.89876129 16.32935296 3.77804314 13 4 C12.01 4.495 12.01 4.495 11 5 C8.95501575 4.91219597 6.91255052 4.75758462 4.875 4.5625 C3.77929688 4.46066406 2.68359375 4.35882812 1.5546875 4.25390625 C0.71164063 4.17011719 -0.13140625 4.08632812 -1 4 C-0.67 2.68 -0.34 1.36 0 0 Z " fill="#E5B3D9" transform="translate(93,0)"/>
<path d="M0 0 C0.74572266 -0.01224609 1.49144531 -0.02449219 2.25976562 -0.03710938 C6.09528744 -0.04737393 9.064782 0.01949827 12.3125 2.1875 C5.71610623 5.35884316 5.71610623 5.35884316 1.3125 4.1875 C-0.05407654 3.98595811 -1.4243502 3.80831248 -2.796875 3.65234375 C-3.55097656 3.56533203 -4.30507813 3.47832031 -5.08203125 3.38867188 C-5.85933594 3.30166016 -6.63664062 3.21464844 -7.4375 3.125 C-8.23027344 3.03412109 -9.02304687 2.94324219 -9.83984375 2.84960938 C-11.78879277 2.6265369 -13.73811162 2.40669979 -15.6875 2.1875 C-15.6875 1.8575 -15.6875 1.5275 -15.6875 1.1875 C-10.42110388 0.31788373 -5.33414213 0.00468318 0 0 Z " fill="#C69AEB" transform="translate(60.6875,1.8125)"/>
<path d="M0 0 C0.33 0 0.66 0 1 0 C2.70159453 15.74487472 2.70159453 15.74487472 -1 23 C-1.33 23 -1.66 23 -2 23 C-2.05789006 19.54173658 -2.09355821 16.08359707 -2.125 12.625 C-2.14175781 11.64015625 -2.15851563 10.6553125 -2.17578125 9.640625 C-2.18222656 8.69960937 -2.18867187 7.75859375 -2.1953125 6.7890625 C-2.20578613 5.91975098 -2.21625977 5.05043945 -2.22705078 4.15478516 C-2 2 -2 2 0 0 Z " fill="#F2B2D0" transform="translate(2,68)"/>
<path d="M0 0 C0.33 0 0.66 0 1 0 C1.13277344 1.18078125 1.26554688 2.3615625 1.40234375 3.578125 C1.5805898 5.13543262 1.75898293 6.69272342 1.9375 8.25 C2.02451172 9.02730469 2.11152344 9.80460937 2.20117188 10.60546875 C2.28818359 11.35957031 2.37519531 12.11367188 2.46484375 12.890625 C2.543396 13.58188477 2.62194824 14.27314453 2.70288086 14.98535156 C2.9603461 17.01898564 2.9603461 17.01898564 3.56079102 19.02246094 C4.24547178 22.10523702 3.53231737 24.92438854 3 28 C2.34 27.67 1.68 27.34 1 27 C-0.233785 21.21905771 -0.11761102 15.45090051 -0.0625 9.5625 C-0.05798828 8.64017578 -0.05347656 7.71785156 -0.04882812 6.76757812 C-0.03713938 4.51164952 -0.02075455 2.25586033 0 0 Z " fill="#C9A9EE" transform="translate(1,25)"/>
<path d="M0 0 C0.66 0.33 1.32 0.66 2 1 C0.35 2.32 -1.3 3.64 -3 5 C-1.125 1.125 -1.125 1.125 0 0 Z M-5 5 C-4.34 5.33 -3.68 5.66 -3 6 C-7.62 10.62 -12.24 15.24 -17 20 C-17.66 19.67 -18.32 19.34 -19 19 C-17.23304141 17.03804598 -15.46168211 15.08040373 -13.6875 13.125 C-13.18798828 12.56941406 -12.68847656 12.01382813 -12.17382812 11.44140625 C-9.8912844 8.93211977 -7.83639832 6.89093222 -5 5 Z " fill="#E5A279" transform="translate(60,89)"/>
<path d="M0 0 C1.32 0 2.64 0 4 0 C3.91245449 1.75091019 3.80426627 3.50079551 3.6875 5.25 C3.62949219 6.22453125 3.57148437 7.1990625 3.51171875 8.203125 C3 11 3 11 0 15 C0 10.05 0 5.1 0 0 Z " fill="#E5A8D8" transform="translate(1,59)"/>
<path d="M0 0 C4.95 0 9.9 0 15 0 C12 3 12 3 9.08203125 3.07421875 C8.00308594 2.94660156 6.92414063 2.81898437 5.8125 2.6875 C4.72582031 2.56761719 3.63914062 2.44773437 2.51953125 2.32421875 C1.68808594 2.21722656 0.85664062 2.11023438 0 2 C0 1.34 0 0.68 0 0 Z " fill="#E3A4D8" transform="translate(92,2)"/>
<path d="M0 0 C2.29141286 -0.05384521 4.58318188 -0.09272087 6.875 -0.125 C8.78925781 -0.15980469 8.78925781 -0.15980469 10.7421875 -0.1953125 C14 0 14 0 16 2 C12.32192463 3.22602512 10.11756073 2.70295577 6.3125 2.0625 C5.13300781 1.86785156 3.95351562 1.67320312 2.73828125 1.47265625 C1.38283203 1.23869141 1.38283203 1.23869141 0 1 C0 0.67 0 0.34 0 0 Z " fill="#D3A1E3" transform="translate(69,2)"/>
<path d="M0 0 C0.99 0.33 1.98 0.66 3 1 C2.67 4.3 2.34 7.6 2 11 C1.34 10.67 0.68 10.34 0 10 C0 6.7 0 3.4 0 0 Z " fill="#D19FE5" transform="translate(2,42)"/>
<path d="M0 0 C-0.33 0.33 -0.66 0.66 -1 1 C-0.34 1.66 0.32 2.32 1 3 C-1.3125 3.625 -1.3125 3.625 -4 4 C-4.99 3.34 -5.98 2.68 -7 2 C-7 1.34 -7 0.68 -7 0 C-2.25 -1.125 -2.25 -1.125 0 0 Z " fill="#E2A27C" transform="translate(38,107)"/>
</svg>
