<svg width="48" height="48" fill="none" xmlns="http://www.w3.org/2000/svg"><path d="M26.98 3.225A2.522 2.522 0 0024.46.703H3.252A2.522 2.522 0 00.73 3.225v3.104h26.25V3.225z" fill="#FF7758"/><path d="M.73 6.329v18.759a2.522 2.522 0 002.522 2.521H24.46a2.522 2.522 0 002.522-2.521V6.328H.73z" fill="#FF9D87"/><path d="M19.783 12.328l-1.989-1.99-3.938 3.939-3.938-3.938-1.988 1.989 3.938 3.938-3.938 3.938 1.988 1.988 3.939-3.938 3.938 3.938 1.988-1.988-3.938-3.938 3.938-3.938z" fill="#fff"/><path d="M47.273 24.506a2.522 2.522 0 00-2.521-2.522H23.545a2.522 2.522 0 00-2.522 2.522v3.104h26.25v-3.104z" fill="#4FE5AE"/><path d="M21.023 27.61v17.165a2.522 2.522 0 002.522 2.522h21.207a2.522 2.522 0 002.521-2.522V27.61h-26.25z" fill="#A7EED4"/><path d="M41.53 33.081l-1.99-1.988-7.885 7.886-2.897-2.897-1.988 1.989 4.895 4.875 9.864-9.864z" fill="#fff"/><path d="M5.596.703H3.252A2.522 2.522 0 00.73 3.225v3.103h2.344V3.225A2.522 2.522 0 015.596.703zM3.074 25.088V6.328H.73v18.76a2.522 2.522 0 002.522 2.521h2.344a2.522 2.522 0 01-2.522-2.521z" fill="#FF6A47"/><path d="M25.889 21.984h-2.344a2.522 2.522 0 00-2.522 2.522v3.104h2.344v-3.104a2.522 2.522 0 012.522-2.522zm-2.522 22.791V27.61h-2.344v17.165a2.522 2.522 0 002.522 2.522h2.344a2.521 2.521 0 01-2.522-2.522z" fill="#71E4BF"/><path d="M9.074 2.813h15.244v1.406H9.074V2.812zm-5.867 0h3.525v1.406H3.207V2.812zm14.59 6.532l-3.938 3.938L9.92 9.345l-2.983 2.983 3.938 3.938-3.938 3.938 2.983 2.983 3.938-3.938 3.938 3.938 2.983-2.983-3.938-3.938 3.938-3.938-2.983-2.983zm.994 10.859l-.994.994-3.938-3.938-3.938 3.938-.995-.994 3.938-3.938-3.938-3.938.995-.995 3.938 3.938 3.938-3.938.994.995-3.938 3.938 3.938 3.938zm9.967 14.884l-2.985 2.984 5.892 5.868 10.858-10.858-2.983-2.983-7.886 7.885-2.896-2.896zm11.776-2.006l-8.871 8.871-3.899-3.883.994-.994 2.896 2.897 7.886-7.886.994.995zM29.46 24.271h15.245v1.406H29.46v-1.406zm-5.866 0h3.525v1.406h-3.525v-1.406zM11.018 35.66v-1.77l1.037 1.276 1.09-.887-2.83-3.484-2.83 3.484 1.09.887 1.037-1.276v1.77a3.52 3.52 0 003.516 3.516h3.75v-1.407h-3.75a2.112 2.112 0 01-2.11-2.109zm25.928-23.402v1.77l-1.037-1.276-1.091.887 2.83 3.484 2.831-3.484-1.091-.887-1.036 1.275v-1.77a3.52 3.52 0 00-3.516-3.515h-3.75v1.406h3.75c1.163 0 2.11.947 2.11 2.11zm1.187 29.985h1.406v1.406h-1.406v-1.406zm-2.906 0h1.406v1.406h-1.406v-1.406z" fill="#242D3C"/></svg>