<svg width="36" height="46" fill="none" xmlns="http://www.w3.org/2000/svg"><path d="M13.467 4.47h3.587a.706.706 0 000-1.412h-3.587a.706.706 0 000 1.411zm-3.201 38h6.4a.706.706 0 100-1.41h-6.4a.706.706 0 000 1.41z" fill="#fff"/><path d="M1.168 35.448c.39 0 .706-.316.706-.706V7.118h23.185v3.63a.706.706 0 001.412 0l.003-7.527A2.818 2.818 0 0023.66.411H3.271C1.796.412.462 1.627.462 3.224v31.519c0 .39.316.706.706.706zm22.49-33.624c.745 0 1.401.61 1.401 1.4v2.482H1.874V3.221c0-.77.63-1.397 1.4-1.397h20.384z" fill="#fff"/><path d="M17.823 18.198a.706.706 0 00.998-.005l2.95-2.978a.706.706 0 000-.993l-2.95-2.978a.706.706 0 00-1.003.994l2.457 2.48-2.457 2.481a.706.706 0 00.005.998zM9.11 11.24a.704.704 0 00-.998.004l-2.95 2.978a.705.705 0 000 .993l2.95 2.978a.706.706 0 101.003-.994l-2.457-2.48 2.457-2.481a.706.706 0 00-.005-.999zm5.494-1.995L10.462 19.67a.706.706 0 101.312.521l4.143-10.426a.706.706 0 10-1.312-.521z" fill="#fff"/><path d="M25.503 21.5A4.505 4.505 0 0021 26c0 2.506 2.046 4.5 4.504 4.5A4.504 4.504 0 0030 26c0-2.483-2.019-4.5-4.496-4.5z" fill="#7FEBA1"/><path d="M34.909 23.84l-1.736-.198a7.738 7.738 0 00-.509-1.2l1.017-1.44a.697.697 0 00-.07-.903l-2.027-2.019a.703.703 0 00-.939-.056l-1.362 1.094a7.442 7.442 0 00-1.207-.487l-.29-1.744a.706.706 0 00-.698-.586h-2.859a.71.71 0 00-.706.629l-.19 1.743a7.737 7.737 0 00-1.193.501l-1.448-1.023a.697.697 0 00-.903.077l-2.019 2.02a.703.703 0 00-.05.938l1.088 1.37a7.44 7.44 0 00-.487 1.206l-1.737.29a.718.718 0 00-.593.699v2.858c0 .36.276.657.629.7l1.736.197c.134.416.31.819.508 1.2l-1.016 1.433a.708.708 0 00.078.91l2.018 2.02a.703.703 0 00.94.049l1.369-1.087c.388.19.783.353 1.2.48l.289 1.743a.705.705 0 00.699.593h.62v1.56H1.169a.708.708 0 00-.706.706v4.666a2.817 2.817 0 002.81 2.81h20.385a2.818 2.818 0 002.817-2.81v-6.932h.826a.71.71 0 00.706-.628l.197-1.744a8.06 8.06 0 001.193-.5l1.44 1.023a.716.716 0 00.91-.078l2.012-2.026a.694.694 0 00.05-.931l-1.087-1.37a7.98 7.98 0 00.487-1.207l1.736-.296a.71.71 0 00.593-.692v-2.86a.698.698 0 00-.628-.698zm-.783 2.958l-1.596.268a.71.71 0 00-.572.536 6.462 6.462 0 01-.684 1.709.692.692 0 00.056.79l.981 1.243-1.143 1.157-1.327-.946a.705.705 0 00-.777-.02 5.892 5.892 0 01-1.68.705.715.715 0 00-.536.607l-.177 1.588h-1.637l-.268-1.602a.694.694 0 00-.53-.565 6.435 6.435 0 01-1.694-.691.702.702 0 00-.798.056l-1.25.988-1.15-1.15.932-1.306a.75.75 0 00.028-.79 6.132 6.132 0 01-.72-1.695.692.692 0 00-.6-.522l-1.58-.184v-1.623l1.594-.269a.71.71 0 00.572-.536c.141-.6.374-1.172.692-1.694a.714.714 0 00-.05-.805l-.995-1.25 1.15-1.15 1.32.939a.706.706 0 00.777.028 6.115 6.115 0 011.694-.713.701.701 0 00.523-.6l.176-1.588h1.638l.268 1.595c.05.283.254.509.53.572a5.95 5.95 0 011.7.692.703.703 0 00.798-.057l1.243-.995 1.15 1.158-.931 1.313a.737.737 0 00-.029.783c.325.53.565 1.101.713 1.687.07.283.31.494.607.53l1.581.176v1.63z" fill="#fff"/></svg>