<?xml version="1.0" encoding="UTF-8"?>
<svg version="1.1" xmlns="http://www.w3.org/2000/svg" width="180" height="180">
<path d="M0 0 C0.62745117 0.25700684 1.25490234 0.51401367 1.90136719 0.77880859 C10.8707903 4.58976067 18.45420496 9.90227357 26 16 C26.64324219 16.47824219 27.28648437 16.95648437 27.94921875 17.44921875 C41.80843768 28.20707401 50.28834918 45.55333873 55 62 C55.36609375 63.17304687 55.7321875 64.34609375 56.109375 65.5546875 C60.05285021 81.80658535 58.37816345 102.62039621 52 118 C51.73767578 118.63276855 51.47535156 119.26553711 51.20507812 119.91748047 C47.56931252 128.35951896 42.71431047 135.81989446 37 143 C36.47019531 143.69480469 35.94039062 144.38960937 35.39453125 145.10546875 C23.97749606 159.22876413 7.15067974 168.08666149 -10 173 C-11.17304687 173.36609375 -12.34609375 173.7321875 -13.5546875 174.109375 C-29.82069659 178.05627426 -50.60441511 176.36387895 -66 170 C-66.62745117 169.74299316 -67.25490234 169.48598633 -67.90136719 169.22119141 C-76.8707903 165.41023933 -84.45420496 160.09772643 -92 154 C-92.96486328 153.28263672 -92.96486328 153.28263672 -93.94921875 152.55078125 C-107.80843768 141.79292599 -116.28834918 124.44666127 -121 108 C-121.36609375 106.82695313 -121.7321875 105.65390625 -122.109375 104.4453125 C-126.05285021 88.19341465 -124.37816345 67.37960379 -118 52 C-117.73767578 51.36723145 -117.47535156 50.73446289 -117.20507812 50.08251953 C-113.56931252 41.64048104 -108.71431047 34.18010554 -103 27 C-102.20529297 25.95779297 -102.20529297 25.95779297 -101.39453125 24.89453125 C-89.97749606 10.77123587 -73.15067974 1.91333851 -56 -3 C-54.82695313 -3.36609375 -53.65390625 -3.7321875 -52.4453125 -4.109375 C-36.17930341 -8.05627426 -15.39558489 -6.36387895 0 0 Z " fill="#008FD2" transform="translate(123,5)"/>
<path d="M0 0 C5.47443446 3.23031887 8.22869829 7.06030151 10.375 13.00390625 C10.973125 12.15828125 11.57125 11.31265625 12.1875 10.44140625 C16.49306808 5.23005584 22.99233209 1.13146222 29.375 -0.99609375 C31.80948818 -1.14312439 34.2487477 -1.21714714 36.6875 -1.24609375 C38.63076172 -1.28476562 38.63076172 -1.28476562 40.61328125 -1.32421875 C46.1520305 -0.84108797 49.26872391 0.87248752 53.125 4.81640625 C57.52169027 11.0450508 57.69764149 16.84273946 57.7890625 24.21484375 C57.80842865 25.18298004 57.8277948 26.15111633 57.8477478 27.14859009 C57.9072833 30.22527395 57.9538247 33.30199576 58 36.37890625 C58.03820373 38.47137002 58.07725685 40.56381847 58.1171875 42.65625 C58.21296345 47.77201021 58.29709042 52.88784401 58.375 58.00390625 C59.468125 58.31328125 60.56125 58.62265625 61.6875 58.94140625 C63.92907994 59.58728522 66.1619351 60.26621795 68.375 61.00390625 C68.375 63.64390625 68.375 66.28390625 68.375 69.00390625 C55.505 69.00390625 42.635 69.00390625 29.375 69.00390625 C29.375 66.36390625 29.375 63.72390625 29.375 61.00390625 C30.509375 60.69453125 31.64375 60.38515625 32.8125 60.06640625 C36.16275099 59.37466094 36.16275099 59.37466094 37.375 58.00390625 C37.50110274 54.95986252 37.56371062 51.93979035 37.578125 48.89453125 C37.58382507 47.97557068 37.58952515 47.05661011 37.59539795 46.10980225 C37.60486535 44.15947629 37.6113888 42.20913421 37.61523438 40.25878906 C37.62491418 37.28031219 37.65591033 34.30253271 37.6875 31.32421875 C37.69403237 29.43099369 37.69928192 27.53776368 37.703125 25.64453125 C37.7216452 24.30989838 37.7216452 24.30989838 37.74053955 22.94830322 C37.72345315 18.18142778 37.58606719 14.81503095 34.375 11.00390625 C30.54996076 9.61298289 28.68364592 9.90102428 24.8125 11.19140625 C18.53523826 14.50123517 13.95804099 18.2876429 11.375 25.00390625 C10.80183176 29.88965145 10.77899051 34.68387969 10.88793945 39.59667969 C10.93783702 41.89442583 10.94945477 44.19003924 10.95507812 46.48828125 C10.96914794 47.94924166 10.9853465 49.41018348 11.00390625 50.87109375 C11.00926895 51.55750946 11.01463165 52.24392517 11.02015686 52.95114136 C11.03009452 56.92104932 11.03009452 56.92104932 13.375 60.00390625 C15.94561311 60.65158418 15.94561311 60.65158418 18.375 61.00390625 C18.375 63.64390625 18.375 66.28390625 18.375 69.00390625 C6.495 69.00390625 -5.385 69.00390625 -17.625 69.00390625 C-17.625 66.36390625 -17.625 63.72390625 -17.625 61.00390625 C-16.490625 60.69453125 -15.35625 60.38515625 -14.1875 60.06640625 C-10.83724901 59.37466094 -10.83724901 59.37466094 -9.625 58.00390625 C-9.51135013 55.03258281 -9.46080697 52.08540763 -9.45703125 49.11328125 C-9.45370285 48.21651672 -9.45037445 47.3197522 -9.44694519 46.39581299 C-9.44187048 44.49255894 -9.43953703 42.58929596 -9.43969727 40.68603516 C-9.43751965 37.78012256 -9.41939437 34.87459489 -9.40039062 31.96875 C-9.39745501 30.12109505 -9.39547134 28.27343829 -9.39453125 26.42578125 C-9.38734573 25.55789978 -9.38016022 24.69001831 -9.37275696 23.7958374 C-9.3890099 19.47856788 -9.41079544 15.84708336 -11.625 12.00390625 C-15.21376902 9.61139357 -16.38749208 9.44423539 -20.625 10.00390625 C-27.07223033 12.77068174 -30.84708839 17.25281788 -34.625 23.00390625 C-35.285 23.99390625 -35.945 24.98390625 -36.625 26.00390625 C-37.0124302 30.43128644 -36.95417156 34.86780498 -36.94067383 39.31005859 C-36.93751104 41.49627394 -36.96098905 43.68113917 -36.98632812 45.8671875 C-36.98860094 47.25650871 -36.9893047 48.64583356 -36.98828125 50.03515625 C-36.99126221 51.29908203 -36.99424316 52.56300781 -36.99731445 53.86523438 C-36.88592349 56.96077084 -36.88592349 56.96077084 -35.27026367 58.89648438 C-33.12636933 60.339533 -31.16335057 60.6608859 -28.625 61.00390625 C-28.625 63.64390625 -28.625 66.28390625 -28.625 69.00390625 C-41.165 69.00390625 -53.705 69.00390625 -66.625 69.00390625 C-66.625 66.36390625 -66.625 63.72390625 -66.625 61.00390625 C-64.60677083 60.54817708 -62.58854167 60.09244792 -60.5703125 59.63671875 C-58.41780036 59.09916197 -58.41780036 59.09916197 -56.625 57.00390625 C-56.33333918 54.94310481 -56.33333918 54.94310481 -56.39794922 52.55419922 C-56.39810028 51.63339569 -56.39825134 50.71259216 -56.39840698 49.7638855 C-56.40872955 48.76801422 -56.41905212 47.77214294 -56.4296875 46.74609375 C-56.4325174 45.72790558 -56.43534729 44.70971741 -56.43826294 43.66067505 C-56.4494823 40.39996725 -56.47459004 37.13953141 -56.5 33.87890625 C-56.51002753 31.67187896 -56.51915377 29.46484737 -56.52734375 27.2578125 C-56.54942732 21.83975053 -56.58292205 16.42184782 -56.625 11.00390625 C-59.95811475 9.22141445 -62.86980943 8.51597769 -66.625 8.00390625 C-66.625 5.36390625 -66.625 2.72390625 -66.625 0.00390625 C-57.055 0.00390625 -47.485 0.00390625 -37.625 0.00390625 C-37.295 4.29390625 -36.965 8.58390625 -36.625 13.00390625 C-35.7175 11.80765625 -34.81 10.61140625 -33.875 9.37890625 C-25.42659383 -0.11710229 -12.30099819 -4.66778949 0 0 Z " fill="#F9FCFD" transform="translate(89.625,57.99609375)"/>
</svg>
