<?xml version="1.0" encoding="UTF-8"?>
<svg version="1.1" xmlns="http://www.w3.org/2000/svg" width="592" height="644">
<path d="M0 0 C1.79244141 0.01740234 1.79244141 0.01740234 3.62109375 0.03515625 C5.41740234 0.04869141 5.41740234 0.04869141 7.25 0.0625 C8.17683594 0.07410156 9.10367187 0.08570313 10.05859375 0.09765625 C10.05859375 0.75765625 10.05859375 1.41765625 10.05859375 2.09765625 C14.67859375 2.09765625 19.29859375 2.09765625 24.05859375 2.09765625 C24.05859375 2.75765625 24.05859375 3.41765625 24.05859375 4.09765625 C27.02859375 4.09765625 29.99859375 4.09765625 33.05859375 4.09765625 C33.05859375 4.75765625 33.05859375 5.41765625 33.05859375 6.09765625 C35.03859375 6.09765625 37.01859375 6.09765625 39.05859375 6.09765625 C39.05859375 6.75765625 39.05859375 7.41765625 39.05859375 8.09765625 C39.76371094 8.04609375 40.46882813 7.99453125 41.1953125 7.94140625 C44.59876436 8.1271335 46.81030576 9.1225777 49.87109375 10.59765625 C50.84691406 11.06171875 51.82273437 11.52578125 52.828125 12.00390625 C53.56417969 12.36484375 54.30023438 12.72578125 55.05859375 13.09765625 C55.05859375 13.75765625 55.05859375 14.41765625 55.05859375 15.09765625 C56.37859375 15.09765625 57.69859375 15.09765625 59.05859375 15.09765625 C59.05859375 15.75765625 59.05859375 16.41765625 59.05859375 17.09765625 C60.37859375 17.09765625 61.69859375 17.09765625 63.05859375 17.09765625 C63.05859375 17.75765625 63.05859375 18.41765625 63.05859375 19.09765625 C63.71859375 19.09765625 64.37859375 19.09765625 65.05859375 19.09765625 C65.05859375 19.75765625 65.05859375 20.41765625 65.05859375 21.09765625 C65.71859375 21.09765625 66.37859375 21.09765625 67.05859375 21.09765625 C67.05859375 21.75765625 67.05859375 22.41765625 67.05859375 23.09765625 C68.04859375 23.09765625 69.03859375 23.09765625 70.05859375 23.09765625 C70.05859375 23.75765625 70.05859375 24.41765625 70.05859375 25.09765625 C71.37859375 25.42765625 72.69859375 25.75765625 74.05859375 26.09765625 C74.05859375 26.75765625 74.05859375 27.41765625 74.05859375 28.09765625 C74.71859375 28.09765625 75.37859375 28.09765625 76.05859375 28.09765625 C76.05859375 28.75765625 76.05859375 29.41765625 76.05859375 30.09765625 C76.71859375 30.09765625 77.37859375 30.09765625 78.05859375 30.09765625 C78.05859375 30.75765625 78.05859375 31.41765625 78.05859375 32.09765625 C78.71859375 32.09765625 79.37859375 32.09765625 80.05859375 32.09765625 C80.05859375 32.75765625 80.05859375 33.41765625 80.05859375 34.09765625 C80.71859375 34.09765625 81.37859375 34.09765625 82.05859375 34.09765625 C82.05859375 34.75765625 82.05859375 35.41765625 82.05859375 36.09765625 C82.71859375 36.09765625 83.37859375 36.09765625 84.05859375 36.09765625 C84.38859375 37.41765625 84.71859375 38.73765625 85.05859375 40.09765625 C85.71859375 40.09765625 86.37859375 40.09765625 87.05859375 40.09765625 C87.05859375 40.75765625 87.05859375 41.41765625 87.05859375 42.09765625 C87.71859375 42.09765625 88.37859375 42.09765625 89.05859375 42.09765625 C89.05859375 43.08765625 89.05859375 44.07765625 89.05859375 45.09765625 C89.71859375 45.09765625 90.37859375 45.09765625 91.05859375 45.09765625 C91.05859375 45.75765625 91.05859375 46.41765625 91.05859375 47.09765625 C91.71859375 47.09765625 92.37859375 47.09765625 93.05859375 47.09765625 C93.05859375 48.41765625 93.05859375 49.73765625 93.05859375 51.09765625 C93.71859375 51.09765625 94.37859375 51.09765625 95.05859375 51.09765625 C95.9024405 52.50808581 96.73328871 53.92629757 97.55859375 55.34765625 C98.02265625 56.1365625 98.48671875 56.92546875 98.96484375 57.73828125 C100.05859375 60.09765625 100.05859375 60.09765625 100.05859375 64.09765625 C100.71859375 64.09765625 101.37859375 64.09765625 102.05859375 64.09765625 C102.05859375 65.41765625 102.05859375 66.73765625 102.05859375 68.09765625 C102.71859375 68.09765625 103.37859375 68.09765625 104.05859375 68.09765625 C104.05859375 69.74765625 104.05859375 71.39765625 104.05859375 73.09765625 C104.71859375 73.09765625 105.37859375 73.09765625 106.05859375 73.09765625 C106.05859375 74.41765625 106.05859375 75.73765625 106.05859375 77.09765625 C106.71859375 77.09765625 107.37859375 77.09765625 108.05859375 77.09765625 C108.05859375 79.07765625 108.05859375 81.05765625 108.05859375 83.09765625 C108.71859375 83.09765625 109.37859375 83.09765625 110.05859375 83.09765625 C110.20296875 84.23203125 110.34734375 85.36640625 110.49609375 86.53515625 C110.67030853 89.90542826 110.67030853 89.90542826 112.05859375 91.09765625 C112.43986044 92.71208241 112.76266602 94.34042989 113.05859375 95.97265625 C113.22359375 96.85695313 113.38859375 97.74125 113.55859375 98.65234375 C115.04949028 108.92555263 115.29503006 119.17321226 115.30859375 129.53515625 C115.31159988 130.65360428 115.31159988 130.65360428 115.31466675 131.79464722 C115.3225137 143.73498346 114.74633638 155.41363519 112.05859375 167.09765625 C111.72859375 167.42765625 111.39859375 167.75765625 111.05859375 168.09765625 C110.69098644 170.42583589 110.35617794 172.75949475 110.05859375 175.09765625 C109.39859375 175.09765625 108.73859375 175.09765625 108.05859375 175.09765625 C108.05859375 177.07765625 108.05859375 179.05765625 108.05859375 181.09765625 C107.39859375 181.09765625 106.73859375 181.09765625 106.05859375 181.09765625 C106.05859375 182.74765625 106.05859375 184.39765625 106.05859375 186.09765625 C105.39859375 186.09765625 104.73859375 186.09765625 104.05859375 186.09765625 C104.05859375 187.41765625 104.05859375 188.73765625 104.05859375 190.09765625 C103.39859375 190.09765625 102.73859375 190.09765625 102.05859375 190.09765625 C102.05859375 191.41765625 102.05859375 192.73765625 102.05859375 194.09765625 C101.39859375 194.09765625 100.73859375 194.09765625 100.05859375 194.09765625 C99.93484375 194.84015625 99.81109375 195.58265625 99.68359375 196.34765625 C99.10372674 198.8990711 98.32150636 200.82441355 97.05859375 203.09765625 C96.39859375 203.09765625 95.73859375 203.09765625 95.05859375 203.09765625 C94.91421875 203.71640625 94.76984375 204.33515625 94.62109375 204.97265625 C94.05859375 207.09765625 94.05859375 207.09765625 93.05859375 209.09765625 C92.39859375 209.09765625 91.73859375 209.09765625 91.05859375 209.09765625 C91.05859375 209.75765625 91.05859375 210.41765625 91.05859375 211.09765625 C90.39859375 211.09765625 89.73859375 211.09765625 89.05859375 211.09765625 C89.05859375 211.75765625 89.05859375 212.41765625 89.05859375 213.09765625 C88.39859375 213.09765625 87.73859375 213.09765625 87.05859375 213.09765625 C87.05859375 213.75765625 87.05859375 214.41765625 87.05859375 215.09765625 C85.68359375 216.72265625 85.68359375 216.72265625 84.05859375 218.09765625 C83.39859375 218.09765625 82.73859375 218.09765625 82.05859375 218.09765625 C82.05859375 218.75765625 82.05859375 219.41765625 82.05859375 220.09765625 C81.39859375 220.09765625 80.73859375 220.09765625 80.05859375 220.09765625 C80.05859375 220.75765625 80.05859375 221.41765625 80.05859375 222.09765625 C77.05859375 224.09765625 77.05859375 224.09765625 74.05859375 224.09765625 C74.05859375 224.75765625 74.05859375 225.41765625 74.05859375 226.09765625 C70.20102868 228.25071582 67.5072959 229.49018879 63.05859375 229.09765625 C63.05859375 229.75765625 63.05859375 230.41765625 63.05859375 231.09765625 C61.07859375 231.09765625 59.09859375 231.09765625 57.05859375 231.09765625 C57.05859375 231.75765625 57.05859375 232.41765625 57.05859375 233.09765625 C31.64859375 233.09765625 6.23859375 233.09765625 -19.94140625 233.09765625 C-19.94140625 233.75765625 -19.94140625 234.41765625 -19.94140625 235.09765625 C-67.46140625 235.09765625 -114.98140625 235.09765625 -163.94140625 235.09765625 C-163.94140625 238.06765625 -163.94140625 241.03765625 -163.94140625 244.09765625 C-118.07140625 244.09765625 -72.20140625 244.09765625 -24.94140625 244.09765625 C-24.94140625 265.21765625 -24.94140625 286.33765625 -24.94140625 308.09765625 C-25.60140625 308.09765625 -26.26140625 308.09765625 -26.94140625 308.09765625 C-26.94140625 311.72765625 -26.94140625 315.35765625 -26.94140625 319.09765625 C-27.60140625 319.09765625 -28.26140625 319.09765625 -28.94140625 319.09765625 C-28.94140625 320.41765625 -28.94140625 321.73765625 -28.94140625 323.09765625 C-29.60140625 323.09765625 -30.26140625 323.09765625 -30.94140625 323.09765625 C-30.94140625 323.75765625 -30.94140625 324.41765625 -30.94140625 325.09765625 C-31.60140625 325.09765625 -32.26140625 325.09765625 -32.94140625 325.09765625 C-32.94140625 325.75765625 -32.94140625 326.41765625 -32.94140625 327.09765625 C-34.35183581 327.941503 -35.77004757 328.77235121 -37.19140625 329.59765625 C-37.9803125 330.06171875 -38.76921875 330.52578125 -39.58203125 331.00390625 C-41.94140625 332.09765625 -41.94140625 332.09765625 -45.94140625 332.09765625 C-45.94140625 332.75765625 -45.94140625 333.41765625 -45.94140625 334.09765625 C-47.26140625 334.09765625 -48.58140625 334.09765625 -49.94140625 334.09765625 C-49.94140625 334.75765625 -49.94140625 335.41765625 -49.94140625 336.09765625 C-51.59140625 336.09765625 -53.24140625 336.09765625 -54.94140625 336.09765625 C-54.94140625 336.75765625 -54.94140625 337.41765625 -54.94140625 338.09765625 C-56.26140625 338.09765625 -57.58140625 338.09765625 -58.94140625 338.09765625 C-58.94140625 338.75765625 -58.94140625 339.41765625 -58.94140625 340.09765625 C-60.92140625 340.09765625 -62.90140625 340.09765625 -64.94140625 340.09765625 C-64.94140625 340.75765625 -64.94140625 341.41765625 -64.94140625 342.09765625 C-67.25140625 342.09765625 -69.56140625 342.09765625 -71.94140625 342.09765625 C-71.94140625 342.75765625 -71.94140625 343.41765625 -71.94140625 344.09765625 C-79.72414513 346.1470295 -86.87630457 347.58920872 -94.94140625 347.09765625 C-94.94140625 347.75765625 -94.94140625 348.41765625 -94.94140625 349.09765625 C-98.57140625 349.09765625 -102.20140625 349.09765625 -105.94140625 349.09765625 C-105.94140625 349.75765625 -105.94140625 350.41765625 -105.94140625 351.09765625 C-111.88140625 351.09765625 -117.82140625 351.09765625 -123.94140625 351.09765625 C-123.94140625 351.75765625 -123.94140625 352.41765625 -123.94140625 353.09765625 C-138.46140625 353.09765625 -152.98140625 353.09765625 -167.94140625 353.09765625 C-167.94140625 352.43765625 -167.94140625 351.77765625 -167.94140625 351.09765625 C-172.89140625 351.09765625 -177.84140625 351.09765625 -182.94140625 351.09765625 C-182.94140625 350.43765625 -182.94140625 349.77765625 -182.94140625 349.09765625 C-186.57140625 349.09765625 -190.20140625 349.09765625 -193.94140625 349.09765625 C-193.94140625 348.43765625 -193.94140625 347.77765625 -193.94140625 347.09765625 C-195.73578125 347.12859375 -195.73578125 347.12859375 -197.56640625 347.16015625 C-201.12145494 347.16648196 -204.44696249 346.796545 -207.94140625 346.09765625 C-207.94140625 345.43765625 -207.94140625 344.77765625 -207.94140625 344.09765625 C-208.68390625 343.95328125 -209.42640625 343.80890625 -210.19140625 343.66015625 C-212.46168364 343.19578133 -214.69900104 342.67902056 -216.94140625 342.09765625 C-216.94140625 341.43765625 -216.94140625 340.77765625 -216.94140625 340.09765625 C-218.26140625 340.09765625 -219.58140625 340.09765625 -220.94140625 340.09765625 C-220.94140625 339.43765625 -220.94140625 338.77765625 -220.94140625 338.09765625 C-222.26140625 338.09765625 -223.58140625 338.09765625 -224.94140625 338.09765625 C-224.94140625 337.43765625 -224.94140625 336.77765625 -224.94140625 336.09765625 C-225.93140625 336.09765625 -226.92140625 336.09765625 -227.94140625 336.09765625 C-227.94140625 335.43765625 -227.94140625 334.77765625 -227.94140625 334.09765625 C-228.60140625 334.09765625 -229.26140625 334.09765625 -229.94140625 334.09765625 C-229.94140625 333.43765625 -229.94140625 332.77765625 -229.94140625 332.09765625 C-230.86953125 331.82953125 -231.79765625 331.56140625 -232.75390625 331.28515625 C-235.6992165 330.1878838 -237.09158502 329.56408456 -238.94140625 327.09765625 C-238.94140625 326.43765625 -238.94140625 325.77765625 -238.94140625 325.09765625 C-239.60140625 325.09765625 -240.26140625 325.09765625 -240.94140625 325.09765625 C-241.60140625 323.11765625 -242.26140625 321.13765625 -242.94140625 319.09765625 C-243.60140625 319.09765625 -244.26140625 319.09765625 -244.94140625 319.09765625 C-249.53366138 310.83569725 -249.53366138 310.83569725 -248.94140625 306.09765625 C-249.60140625 306.09765625 -250.26140625 306.09765625 -250.94140625 306.09765625 C-250.94140625 303.78765625 -250.94140625 301.47765625 -250.94140625 299.09765625 C-251.60140625 299.09765625 -252.26140625 299.09765625 -252.94140625 299.09765625 C-252.94140625 296.45765625 -252.94140625 293.81765625 -252.94140625 291.09765625 C-253.60140625 290.76765625 -254.26140625 290.43765625 -254.94140625 290.09765625 C-255.85864285 285.68039096 -256.15080495 281.15017975 -256.56640625 276.66015625 C-256.63144348 275.97216949 -256.69648071 275.28418274 -256.76348877 274.5753479 C-258.85942421 251.87155639 -258.57344957 229.29639007 -256.56640625 206.59765625 C-256.50346375 205.8845932 -256.44052124 205.17153015 -256.37567139 204.43685913 C-254.38877223 182.54502223 -254.38877223 182.54502223 -251.94140625 180.09765625 C-251.72484375 178.51984375 -251.72484375 178.51984375 -251.50390625 176.91015625 C-250.98837395 173.41599288 -250.15097644 170.40381476 -248.94140625 167.09765625 C-248.28140625 167.09765625 -247.62140625 167.09765625 -246.94140625 167.09765625 C-246.94140625 165.11765625 -246.94140625 163.13765625 -246.94140625 161.09765625 C-246.28140625 161.09765625 -245.62140625 161.09765625 -244.94140625 161.09765625 C-244.94140625 159.44765625 -244.94140625 157.79765625 -244.94140625 156.09765625 C-244.28140625 156.09765625 -243.62140625 156.09765625 -242.94140625 156.09765625 C-242.81765625 155.04578125 -242.69390625 153.99390625 -242.56640625 152.91015625 C-242.02999843 149.63806854 -241.3026059 147.09229549 -239.94140625 144.09765625 C-239.28140625 144.09765625 -238.62140625 144.09765625 -237.94140625 144.09765625 C-237.94140625 143.10765625 -237.94140625 142.11765625 -237.94140625 141.09765625 C-237.28140625 141.09765625 -236.62140625 141.09765625 -235.94140625 141.09765625 C-235.94140625 140.43765625 -235.94140625 139.77765625 -235.94140625 139.09765625 C-235.28140625 139.09765625 -234.62140625 139.09765625 -233.94140625 139.09765625 C-233.94140625 138.43765625 -233.94140625 137.77765625 -233.94140625 137.09765625 C-233.28140625 137.09765625 -232.62140625 137.09765625 -231.94140625 137.09765625 C-231.94140625 135.77765625 -231.94140625 134.45765625 -231.94140625 133.09765625 C-230.62140625 133.09765625 -229.30140625 133.09765625 -227.94140625 133.09765625 C-227.75578125 132.49953125 -227.57015625 131.90140625 -227.37890625 131.28515625 C-225.20246694 127.97318339 -222.6358274 127.32912997 -218.94140625 126.09765625 C-215.50390625 125.91015625 -215.50390625 125.91015625 -212.94140625 126.09765625 C-212.94140625 125.43765625 -212.94140625 124.77765625 -212.94140625 124.09765625 C-210.63140625 124.09765625 -208.32140625 124.09765625 -205.94140625 124.09765625 C-205.94140625 123.43765625 -205.94140625 122.77765625 -205.94140625 122.09765625 C-202.31140625 122.09765625 -198.68140625 122.09765625 -194.94140625 122.09765625 C-194.94140625 121.43765625 -194.94140625 120.77765625 -194.94140625 120.09765625 C-172.17140625 120.09765625 -149.40140625 120.09765625 -125.94140625 120.09765625 C-125.94140625 120.75765625 -125.94140625 121.41765625 -125.94140625 122.09765625 C-110.76140625 122.09765625 -95.58140625 122.09765625 -79.94140625 122.09765625 C-79.94140625 121.43765625 -79.94140625 120.77765625 -79.94140625 120.09765625 C-75.65140625 120.09765625 -71.36140625 120.09765625 -66.94140625 120.09765625 C-66.94140625 119.43765625 -66.94140625 118.77765625 -66.94140625 118.09765625 C-65.95140625 117.99453125 -64.96140625 117.89140625 -63.94140625 117.78515625 C-58.32939602 116.98182414 -53.3249401 114.72463412 -48.19140625 112.41015625 C-44.94140625 111.09765625 -44.94140625 111.09765625 -40.94140625 111.09765625 C-40.94140625 110.43765625 -40.94140625 109.77765625 -40.94140625 109.09765625 C-40.28140625 109.09765625 -39.62140625 109.09765625 -38.94140625 109.09765625 C-38.94140625 108.43765625 -38.94140625 107.77765625 -38.94140625 107.09765625 C-37.62140625 107.09765625 -36.30140625 107.09765625 -34.94140625 107.09765625 C-34.90015625 106.54078125 -34.85890625 105.98390625 -34.81640625 105.41015625 C-33.45163517 101.80326125 -31.03060449 100.36727129 -27.94140625 98.09765625 C-27.28140625 98.09765625 -26.62140625 98.09765625 -25.94140625 98.09765625 C-25.94140625 97.43765625 -25.94140625 96.77765625 -25.94140625 96.09765625 C-25.28140625 96.09765625 -24.62140625 96.09765625 -23.94140625 96.09765625 C-23.94140625 94.77765625 -23.94140625 93.45765625 -23.94140625 92.09765625 C-23.28140625 92.09765625 -22.62140625 92.09765625 -21.94140625 92.09765625 C-21.94140625 90.77765625 -21.94140625 89.45765625 -21.94140625 88.09765625 C-21.28140625 88.09765625 -20.62140625 88.09765625 -19.94140625 88.09765625 C-18.95140625 84.46765625 -17.96140625 80.83765625 -16.94140625 77.09765625 C-16.28140625 77.09765625 -15.62140625 77.09765625 -14.94140625 77.09765625 C-14.94140625 75.11765625 -14.94140625 73.13765625 -14.94140625 71.09765625 C-14.28140625 71.09765625 -13.62140625 71.09765625 -12.94140625 71.09765625 C-12.94140625 68.78765625 -12.94140625 66.47765625 -12.94140625 64.09765625 C-12.28140625 64.09765625 -11.62140625 64.09765625 -10.94140625 64.09765625 C-10.94140625 60.79765625 -10.94140625 57.49765625 -10.94140625 54.09765625 C-10.28140625 54.09765625 -9.62140625 54.09765625 -8.94140625 54.09765625 C-8.94140625 50.46765625 -8.94140625 46.83765625 -8.94140625 43.09765625 C-8.28140625 43.09765625 -7.62140625 43.09765625 -6.94140625 43.09765625 C-6.94140625 38.80765625 -6.94140625 34.51765625 -6.94140625 30.09765625 C-6.28140625 30.09765625 -5.62140625 30.09765625 -4.94140625 30.09765625 C-4.95300781 29.0096875 -4.96460938 27.92171875 -4.9765625 26.80078125 C-5.10897675 8.93911739 -5.10897675 8.93911739 -3.94140625 1.09765625 C-2.94140625 0.09765625 -2.94140625 0.09765625 0 0 Z M-84.94140625 259.09765625 C-84.94140625 259.75765625 -84.94140625 260.41765625 -84.94140625 261.09765625 C-87.58140625 261.09765625 -90.22140625 261.09765625 -92.94140625 261.09765625 C-92.94140625 261.75765625 -92.94140625 262.41765625 -92.94140625 263.09765625 C-93.93140625 263.09765625 -94.92140625 263.09765625 -95.94140625 263.09765625 C-95.94140625 263.75765625 -95.94140625 264.41765625 -95.94140625 265.09765625 C-96.60140625 265.09765625 -97.26140625 265.09765625 -97.94140625 265.09765625 C-97.94140625 265.75765625 -97.94140625 266.41765625 -97.94140625 267.09765625 C-98.60140625 267.09765625 -99.26140625 267.09765625 -99.94140625 267.09765625 C-99.94140625 267.75765625 -99.94140625 268.41765625 -99.94140625 269.09765625 C-100.60140625 269.09765625 -101.26140625 269.09765625 -101.94140625 269.09765625 C-101.94140625 269.75765625 -101.94140625 270.41765625 -101.94140625 271.09765625 C-102.60140625 271.09765625 -103.26140625 271.09765625 -103.94140625 271.09765625 C-103.94140625 271.75765625 -103.94140625 272.41765625 -103.94140625 273.09765625 C-104.60140625 273.09765625 -105.26140625 273.09765625 -105.94140625 273.09765625 C-105.94140625 274.08765625 -105.94140625 275.07765625 -105.94140625 276.09765625 C-106.60140625 276.09765625 -107.26140625 276.09765625 -107.94140625 276.09765625 C-109.4815518 283.02831123 -110.01125974 291.23099942 -107.94140625 298.09765625 C-107.28140625 298.09765625 -106.62140625 298.09765625 -105.94140625 298.09765625 C-105.94140625 299.41765625 -105.94140625 300.73765625 -105.94140625 302.09765625 C-105.28140625 302.09765625 -104.62140625 302.09765625 -103.94140625 302.09765625 C-103.94140625 303.08765625 -103.94140625 304.07765625 -103.94140625 305.09765625 C-103.28140625 305.09765625 -102.62140625 305.09765625 -101.94140625 305.09765625 C-101.94140625 305.75765625 -101.94140625 306.41765625 -101.94140625 307.09765625 C-101.28140625 307.09765625 -100.62140625 307.09765625 -99.94140625 307.09765625 C-99.94140625 307.75765625 -99.94140625 308.41765625 -99.94140625 309.09765625 C-97.29401709 310.55828475 -96.04692291 311.09765625 -92.94140625 311.09765625 C-92.94140625 311.75765625 -92.94140625 312.41765625 -92.94140625 313.09765625 C-91.62140625 313.09765625 -90.30140625 313.09765625 -88.94140625 313.09765625 C-88.94140625 313.75765625 -88.94140625 314.41765625 -88.94140625 315.09765625 C-84.32140625 315.09765625 -79.70140625 315.09765625 -74.94140625 315.09765625 C-74.94140625 314.43765625 -74.94140625 313.77765625 -74.94140625 313.09765625 C-73.62140625 313.09765625 -72.30140625 313.09765625 -70.94140625 313.09765625 C-70.94140625 312.43765625 -70.94140625 311.77765625 -70.94140625 311.09765625 C-69.62140625 311.09765625 -68.30140625 311.09765625 -66.94140625 311.09765625 C-66.94140625 310.43765625 -66.94140625 309.77765625 -66.94140625 309.09765625 C-66.28140625 309.09765625 -65.62140625 309.09765625 -64.94140625 309.09765625 C-64.94140625 308.43765625 -64.94140625 307.77765625 -64.94140625 307.09765625 C-64.28140625 307.09765625 -63.62140625 307.09765625 -62.94140625 307.09765625 C-61.27473958 305.76432292 -61.27473958 305.76432292 -59.94140625 304.09765625 C-59.94140625 303.43765625 -59.94140625 302.77765625 -59.94140625 302.09765625 C-59.28140625 302.09765625 -58.62140625 302.09765625 -57.94140625 302.09765625 C-57.94140625 300.77765625 -57.94140625 299.45765625 -57.94140625 298.09765625 C-57.28140625 298.09765625 -56.62140625 298.09765625 -55.94140625 298.09765625 C-55.94140625 296.11765625 -55.94140625 294.13765625 -55.94140625 292.09765625 C-55.28140625 292.09765625 -54.62140625 292.09765625 -53.94140625 292.09765625 C-53.92078125 290.79828125 -53.90015625 289.49890625 -53.87890625 288.16015625 C-53.86730469 287.42925781 -53.85570312 286.69835937 -53.84375 285.9453125 C-53.73579441 284.08033484 -53.73579441 284.08033484 -54.94140625 283.09765625 C-55.30901356 280.76947661 -55.64382206 278.43581775 -55.94140625 276.09765625 C-56.60140625 276.09765625 -57.26140625 276.09765625 -57.94140625 276.09765625 C-58.60140625 274.44765625 -59.26140625 272.79765625 -59.94140625 271.09765625 C-60.60140625 271.09765625 -61.26140625 271.09765625 -61.94140625 271.09765625 C-62.94140625 269.09765625 -63.94140625 267.09765625 -64.94140625 265.09765625 C-66.26140625 265.09765625 -67.58140625 265.09765625 -68.94140625 265.09765625 C-68.94140625 264.43765625 -68.94140625 263.77765625 -68.94140625 263.09765625 C-70.26140625 263.09765625 -71.58140625 263.09765625 -72.94140625 263.09765625 C-72.94140625 262.43765625 -72.94140625 261.77765625 -72.94140625 261.09765625 C-74.59140625 261.09765625 -76.24140625 261.09765625 -77.94140625 261.09765625 C-77.94140625 260.43765625 -77.94140625 259.77765625 -77.94140625 259.09765625 C-80.25140625 259.09765625 -82.56140625 259.09765625 -84.94140625 259.09765625 Z " fill="#144F5B" transform="translate(433.94140625,165.90234375)"/>
<path d="M0 0 C2.88229582 0.00538427 5.76443723 0.00000477 8.64672852 -0.00634766 C36.39170163 -0.01765016 36.39170163 -0.01765016 40.68774414 2.13037109 C43.01851757 2.43828979 45.3501631 2.63932383 47.69165039 2.84912109 C49.68774414 3.13037109 49.68774414 3.13037109 50.68774414 4.13037109 C53.01592378 4.4979784 55.34958264 4.8327869 57.68774414 5.13037109 C57.68774414 5.79037109 57.68774414 6.45037109 57.68774414 7.13037109 C59.66774414 7.13037109 61.64774414 7.13037109 63.68774414 7.13037109 C63.68774414 7.79037109 63.68774414 8.45037109 63.68774414 9.13037109 C65.33774414 9.13037109 66.98774414 9.13037109 68.68774414 9.13037109 C68.68774414 9.79037109 68.68774414 10.45037109 68.68774414 11.13037109 C70.00774414 11.13037109 71.32774414 11.13037109 72.68774414 11.13037109 C72.68774414 11.79037109 72.68774414 12.45037109 72.68774414 13.13037109 C74.00774414 13.13037109 75.32774414 13.13037109 76.68774414 13.13037109 C76.68774414 13.79037109 76.68774414 14.45037109 76.68774414 15.13037109 C77.61586914 15.25412109 78.54399414 15.37787109 79.50024414 15.50537109 C82.68774414 16.13037109 82.68774414 16.13037109 85.68774414 18.13037109 C85.68774414 18.79037109 85.68774414 19.45037109 85.68774414 20.13037109 C87.00774414 20.13037109 88.32774414 20.13037109 89.68774414 20.13037109 C89.68774414 20.79037109 89.68774414 21.45037109 89.68774414 22.13037109 C90.34774414 22.13037109 91.00774414 22.13037109 91.68774414 22.13037109 C91.68774414 22.79037109 91.68774414 23.45037109 91.68774414 24.13037109 C92.34774414 24.13037109 93.00774414 24.13037109 93.68774414 24.13037109 C93.68774414 24.79037109 93.68774414 25.45037109 93.68774414 26.13037109 C94.34774414 26.13037109 95.00774414 26.13037109 95.68774414 26.13037109 C95.68774414 26.79037109 95.68774414 27.45037109 95.68774414 28.13037109 C96.34774414 28.13037109 97.00774414 28.13037109 97.68774414 28.13037109 C100.11935019 31.49721024 100.68774414 32.86387474 100.68774414 37.13037109 C101.34774414 37.13037109 102.00774414 37.13037109 102.68774414 37.13037109 C102.68774414 38.45037109 102.68774414 39.77037109 102.68774414 41.13037109 C103.34774414 41.13037109 104.00774414 41.13037109 104.68774414 41.13037109 C104.68774414 42.45037109 104.68774414 43.77037109 104.68774414 45.13037109 C105.34774414 45.13037109 106.00774414 45.13037109 106.68774414 45.13037109 C106.68774414 47.44037109 106.68774414 49.75037109 106.68774414 52.13037109 C107.34774414 52.13037109 108.00774414 52.13037109 108.68774414 52.13037109 C108.68774414 54.77037109 108.68774414 57.41037109 108.68774414 60.13037109 C109.34774414 60.13037109 110.00774414 60.13037109 110.68774414 60.13037109 C110.68774414 63.76037109 110.68774414 67.39037109 110.68774414 71.13037109 C111.34774414 71.13037109 112.00774414 71.13037109 112.68774414 71.13037109 C113.61282496 83.61369398 113.84409323 96.04417362 113.81811523 108.55957031 C113.81275145 111.62618958 113.81809757 114.69266246 113.82446289 117.75927734 C113.82793163 129.25330476 113.53725086 140.66686806 112.68774414 152.13037109 C112.02774414 152.13037109 111.36774414 152.13037109 110.68774414 152.13037109 C110.68774414 156.42037109 110.68774414 160.71037109 110.68774414 165.13037109 C110.02774414 165.13037109 109.36774414 165.13037109 108.68774414 165.13037109 C108.68774414 168.10037109 108.68774414 171.07037109 108.68774414 174.13037109 C108.02774414 174.13037109 107.36774414 174.13037109 106.68774414 174.13037109 C106.68774414 176.77037109 106.68774414 179.41037109 106.68774414 182.13037109 C106.02774414 182.13037109 105.36774414 182.13037109 104.68774414 182.13037109 C104.68774414 184.11037109 104.68774414 186.09037109 104.68774414 188.13037109 C104.02774414 188.13037109 103.36774414 188.13037109 102.68774414 188.13037109 C102.68774414 189.78037109 102.68774414 191.43037109 102.68774414 193.13037109 C102.02774414 193.13037109 101.36774414 193.13037109 100.68774414 193.13037109 C100.74961914 193.97599609 100.81149414 194.82162109 100.87524414 195.69287109 C100.64758786 199.86656952 99.485666 202.38470056 97.68774414 206.13037109 C97.02774414 206.13037109 96.36774414 206.13037109 95.68774414 206.13037109 C95.54336914 206.74912109 95.39899414 207.36787109 95.25024414 208.00537109 C94.68774414 210.13037109 94.68774414 210.13037109 93.68774414 212.13037109 C93.02774414 212.13037109 92.36774414 212.13037109 91.68774414 212.13037109 C91.59493164 212.96568359 91.59493164 212.96568359 91.50024414 213.81787109 C90.33101986 217.14566327 88.3345161 218.86170941 85.68774414 221.13037109 C84.69774414 221.13037109 83.70774414 221.13037109 82.68774414 221.13037109 C82.68774414 221.79037109 82.68774414 222.45037109 82.68774414 223.13037109 C79.45982859 225.28231479 78.40373605 225.33123552 74.68774414 225.13037109 C74.68774414 225.79037109 74.68774414 226.45037109 74.68774414 227.13037109 C72.70774414 227.13037109 70.72774414 227.13037109 68.68774414 227.13037109 C68.68774414 227.79037109 68.68774414 228.45037109 68.68774414 229.13037109 C66.37774414 229.13037109 64.06774414 229.13037109 61.68774414 229.13037109 C61.68774414 229.79037109 61.68774414 230.45037109 61.68774414 231.13037109 C58.05774414 231.13037109 54.42774414 231.13037109 50.68774414 231.13037109 C50.68774414 231.79037109 50.68774414 232.45037109 50.68774414 233.13037109 C42.09968694 233.15349745 33.51164265 233.17128767 24.92356205 233.18218327 C20.93617214 233.18741146 16.94880347 233.19450794 12.96142578 233.20581055 C9.116493 233.21664171 5.27158069 233.22264841 1.42663383 233.22524834 C-0.04344569 233.22710217 -1.51352404 233.230722 -2.98359489 233.23610115 C-5.03580053 233.24331465 -7.08792053 233.24436191 -9.14013672 233.24389648 C-10.31039902 233.2461171 -11.48066132 233.24833771 -12.68638611 233.25062561 C-15.31225586 233.13037109 -15.31225586 233.13037109 -16.31225586 232.13037109 C-17.81542355 232.00793799 -19.32413753 231.95260824 -20.83203125 231.92504883 C-21.79295181 231.90510361 -22.75387238 231.88515839 -23.74391174 231.86460876 C-25.31108192 231.83954002 -25.31108192 231.83954002 -26.90991211 231.81396484 C-28.50590492 231.7827932 -28.50590492 231.7827932 -30.13414001 231.75099182 C-33.54761026 231.68537856 -36.96116015 231.62655687 -40.37475586 231.56787109 C-42.68270695 231.52469706 -44.99064986 231.48108315 -47.29858398 231.43701172 C-52.96972268 231.32968525 -58.64094138 231.22794117 -64.31225586 231.13037109 C-64.31225586 231.79037109 -64.31225586 232.45037109 -64.31225586 233.13037109 C-65.16948242 233.17935547 -66.02670898 233.22833984 -66.90991211 233.27880859 C-73.00069931 233.67707878 -78.53095089 234.16226728 -84.31225586 236.13037109 C-88.07496772 237.24901516 -88.07496772 237.24901516 -90.31225586 236.13037109 C-90.31225586 236.79037109 -90.31225586 237.45037109 -90.31225586 238.13037109 C-91.96225586 238.13037109 -93.61225586 238.13037109 -95.31225586 238.13037109 C-95.31225586 238.79037109 -95.31225586 239.45037109 -95.31225586 240.13037109 C-96.63225586 240.13037109 -97.95225586 240.13037109 -99.31225586 240.13037109 C-99.31225586 240.79037109 -99.31225586 241.45037109 -99.31225586 242.13037109 C-100.63225586 242.13037109 -101.95225586 242.13037109 -103.31225586 242.13037109 C-103.31225586 242.79037109 -103.31225586 243.45037109 -103.31225586 244.13037109 C-103.97225586 244.13037109 -104.63225586 244.13037109 -105.31225586 244.13037109 C-105.31225586 244.79037109 -105.31225586 245.45037109 -105.31225586 246.13037109 C-108.18997381 248.04884973 -111.19852214 249.63116597 -114.31225586 251.13037109 C-114.31225586 251.79037109 -114.31225586 252.45037109 -114.31225586 253.13037109 C-114.97225586 253.13037109 -115.63225586 253.13037109 -116.31225586 253.13037109 C-116.31225586 253.79037109 -116.31225586 254.45037109 -116.31225586 255.13037109 C-116.97225586 255.13037109 -117.63225586 255.13037109 -118.31225586 255.13037109 C-118.31225586 256.45037109 -118.31225586 257.77037109 -118.31225586 259.13037109 C-118.97225586 259.13037109 -119.63225586 259.13037109 -120.31225586 259.13037109 C-120.31225586 259.79037109 -120.31225586 260.45037109 -120.31225586 261.13037109 C-120.97225586 261.13037109 -121.63225586 261.13037109 -122.31225586 261.13037109 C-122.43600586 261.83162109 -122.55975586 262.53287109 -122.68725586 263.25537109 C-123.35063931 266.30693497 -124.28437541 269.18378047 -125.31225586 272.13037109 C-125.97225586 272.13037109 -126.63225586 272.13037109 -127.31225586 272.13037109 C-127.27100586 272.83162109 -127.22975586 273.53287109 -127.18725586 274.25537109 C-127.32893918 277.51408738 -128.17960272 280.08636579 -129.31225586 283.13037109 C-129.97225586 283.13037109 -130.63225586 283.13037109 -131.31225586 283.13037109 C-131.31225586 285.77037109 -131.31225586 288.41037109 -131.31225586 291.13037109 C-131.97225586 291.13037109 -132.63225586 291.13037109 -133.31225586 291.13037109 C-133.31225586 294.10037109 -133.31225586 297.07037109 -133.31225586 300.13037109 C-133.97225586 300.13037109 -134.63225586 300.13037109 -135.31225586 300.13037109 C-135.31225586 303.10037109 -135.31225586 306.07037109 -135.31225586 309.13037109 C-135.97225586 309.13037109 -136.63225586 309.13037109 -137.31225586 309.13037109 C-137.3006543 309.85740234 -137.28905273 310.58443359 -137.27709961 311.33349609 C-137.21170579 318.62023607 -137.31787509 325.89962696 -138.31225586 333.13037109 C-138.64225586 333.46037109 -138.97225586 333.79037109 -139.31225586 334.13037109 C-139.59953121 337.655194 -139.76131511 341.18020464 -139.93334961 344.71240234 C-140.27291252 347.7754698 -140.70920884 349.55381374 -142.31225586 352.13037109 C-150.70230301 352.26642591 -158.95605629 351.8851246 -167.31225586 351.13037109 C-167.31225586 350.47037109 -167.31225586 349.81037109 -167.31225586 349.13037109 C-168.82819336 349.22318359 -168.82819336 349.22318359 -170.37475586 349.31787109 C-174.70668137 349.11158893 -177.40686534 347.93842226 -181.31225586 346.13037109 C-184.09114199 345.43896588 -184.09114199 345.43896588 -186.31225586 345.13037109 C-186.31225586 344.47037109 -186.31225586 343.81037109 -186.31225586 343.13037109 C-187.63225586 343.13037109 -188.95225586 343.13037109 -190.31225586 343.13037109 C-190.31225586 342.47037109 -190.31225586 341.81037109 -190.31225586 341.13037109 C-191.63225586 341.13037109 -192.95225586 341.13037109 -194.31225586 341.13037109 C-194.31225586 340.47037109 -194.31225586 339.81037109 -194.31225586 339.13037109 C-195.05475586 339.00662109 -195.79725586 338.88287109 -196.56225586 338.75537109 C-199.11367071 338.17550408 -201.03901316 337.3932837 -203.31225586 336.13037109 C-203.31225586 335.47037109 -203.31225586 334.81037109 -203.31225586 334.13037109 C-204.14756836 334.03755859 -204.14756836 334.03755859 -204.99975586 333.94287109 C-208.30293628 332.78229419 -210.03120319 330.72823664 -212.31225586 328.13037109 C-212.31225586 327.47037109 -212.31225586 326.81037109 -212.31225586 326.13037109 C-212.97225586 326.13037109 -213.63225586 326.13037109 -214.31225586 326.13037109 C-214.31225586 325.47037109 -214.31225586 324.81037109 -214.31225586 324.13037109 C-215.63225586 324.13037109 -216.95225586 324.13037109 -218.31225586 324.13037109 C-218.31225586 323.14037109 -218.31225586 322.15037109 -218.31225586 321.13037109 C-218.97225586 321.13037109 -219.63225586 321.13037109 -220.31225586 321.13037109 C-220.31225586 320.47037109 -220.31225586 319.81037109 -220.31225586 319.13037109 C-220.97225586 319.13037109 -221.63225586 319.13037109 -222.31225586 319.13037109 C-222.31225586 318.47037109 -222.31225586 317.81037109 -222.31225586 317.13037109 C-222.97225586 317.13037109 -223.63225586 317.13037109 -224.31225586 317.13037109 C-227.31225586 313.66883263 -227.31225586 313.66883263 -227.31225586 311.13037109 C-227.97225586 311.13037109 -228.63225586 311.13037109 -229.31225586 311.13037109 C-229.31225586 310.14037109 -229.31225586 309.15037109 -229.31225586 308.13037109 C-229.97225586 308.13037109 -230.63225586 308.13037109 -231.31225586 308.13037109 C-231.31225586 307.47037109 -231.31225586 306.81037109 -231.31225586 306.13037109 C-231.97225586 306.13037109 -232.63225586 306.13037109 -233.31225586 306.13037109 C-233.31225586 304.81037109 -233.31225586 303.49037109 -233.31225586 302.13037109 C-233.97225586 302.13037109 -234.63225586 302.13037109 -235.31225586 302.13037109 C-237.31225586 299.13037109 -237.31225586 299.13037109 -237.31225586 296.13037109 C-237.97225586 296.13037109 -238.63225586 296.13037109 -239.31225586 296.13037109 C-242.31225586 289.63037109 -242.31225586 289.63037109 -242.31225586 285.13037109 C-242.97225586 285.13037109 -243.63225586 285.13037109 -244.31225586 285.13037109 C-244.31225586 283.15037109 -244.31225586 281.17037109 -244.31225586 279.13037109 C-244.97225586 279.13037109 -245.63225586 279.13037109 -246.31225586 279.13037109 C-246.31225586 277.48037109 -246.31225586 275.83037109 -246.31225586 274.13037109 C-246.97225586 274.13037109 -247.63225586 274.13037109 -248.31225586 274.13037109 C-248.31225586 272.15037109 -248.31225586 270.17037109 -248.31225586 268.13037109 C-248.97225586 268.13037109 -249.63225586 268.13037109 -250.31225586 268.13037109 C-250.31225586 265.82037109 -250.31225586 263.51037109 -250.31225586 261.13037109 C-250.97225586 261.13037109 -251.63225586 261.13037109 -252.31225586 261.13037109 C-252.54012044 259.07958984 -252.76798503 257.02880859 -252.99584961 254.97802734 C-253.131122 253.11896881 -253.131122 253.11896881 -254.31225586 252.13037109 C-254.52169195 250.15527236 -254.68029408 248.17465427 -254.81225586 246.19287109 C-254.98960669 242.00869694 -254.98960669 242.00869694 -256.31225586 238.13037109 C-256.56202346 233.96953663 -256.50227549 229.79783496 -256.49975586 225.63037109 C-256.49967529 224.41687988 -256.49959473 223.20338867 -256.49951172 221.953125 C-256.33103364 195.14914887 -256.33103364 195.14914887 -253.31225586 192.13037109 C-253.08032721 190.61567661 -252.90010347 189.09282548 -252.74975586 187.56787109 C-252.6659668 186.74158203 -252.58217773 185.91529297 -252.49584961 185.06396484 C-252.4049707 184.10683594 -252.4049707 184.10683594 -252.31225586 183.13037109 C-251.65225586 183.13037109 -250.99225586 183.13037109 -250.31225586 183.13037109 C-250.35350586 182.42912109 -250.39475586 181.72787109 -250.43725586 181.00537109 C-250.29557254 177.74665481 -249.44490899 175.17437639 -248.31225586 172.13037109 C-247.65225586 172.13037109 -246.99225586 172.13037109 -246.31225586 172.13037109 C-246.31225586 170.15037109 -246.31225586 168.17037109 -246.31225586 166.13037109 C-245.65225586 166.13037109 -244.99225586 166.13037109 -244.31225586 166.13037109 C-244.31225586 164.81037109 -244.31225586 163.49037109 -244.31225586 162.13037109 C-243.65225586 162.13037109 -242.99225586 162.13037109 -242.31225586 162.13037109 C-242.21041992 161.42525391 -242.10858398 160.72013672 -242.00366211 159.99365234 C-241.21310774 156.71977465 -239.90701852 154.24452642 -238.24975586 151.31787109 C-237.7019043 150.34205078 -237.15405273 149.36623047 -236.58959961 148.36083984 C-236.16807617 147.62478516 -235.74655273 146.88873047 -235.31225586 146.13037109 C-234.65225586 146.13037109 -233.99225586 146.13037109 -233.31225586 146.13037109 C-233.31225586 145.47037109 -233.31225586 144.81037109 -233.31225586 144.13037109 C-232.65225586 144.13037109 -231.99225586 144.13037109 -231.31225586 144.13037109 C-231.31225586 143.47037109 -231.31225586 142.81037109 -231.31225586 142.13037109 C-230.65225586 142.13037109 -229.99225586 142.13037109 -229.31225586 142.13037109 C-229.31225586 141.47037109 -229.31225586 140.81037109 -229.31225586 140.13037109 C-228.65225586 140.13037109 -227.99225586 140.13037109 -227.31225586 140.13037109 C-227.04413086 139.53224609 -226.77600586 138.93412109 -226.49975586 138.31787109 C-225.3130818 136.13189256 -224.21626473 134.71704516 -222.31225586 133.13037109 C-221.65225586 133.13037109 -220.99225586 133.13037109 -220.31225586 133.13037109 C-220.31225586 132.47037109 -220.31225586 131.81037109 -220.31225586 131.13037109 C-218.99225586 131.13037109 -217.67225586 131.13037109 -216.31225586 131.13037109 C-216.31225586 130.47037109 -216.31225586 129.81037109 -216.31225586 129.13037109 C-215.65225586 129.13037109 -214.99225586 129.13037109 -214.31225586 129.13037109 C-214.31225586 128.47037109 -214.31225586 127.81037109 -214.31225586 127.13037109 C-212.99225586 127.13037109 -211.67225586 127.13037109 -210.31225586 127.13037109 C-210.31225586 126.47037109 -210.31225586 125.81037109 -210.31225586 125.13037109 C-209.32225586 125.13037109 -208.33225586 125.13037109 -207.31225586 125.13037109 C-207.31225586 124.47037109 -207.31225586 123.81037109 -207.31225586 123.13037109 C-205.33225586 123.13037109 -203.35225586 123.13037109 -201.31225586 123.13037109 C-201.31225586 122.47037109 -201.31225586 121.81037109 -201.31225586 121.13037109 C-194.78395747 119.19889322 -188.77954515 118.7902434 -181.99194336 118.71630859 C-180.81238571 118.69689713 -179.63282806 118.67748566 -178.41752625 118.65748596 C-175.0591344 118.60640154 -171.70090636 118.56514963 -168.34233475 118.5292778 C-166.17722402 118.50525981 -164.01219013 118.47751414 -161.84713745 118.44876099 C-101.34477524 117.65901483 -40.81838582 118.04667425 19.68774414 118.13037109 C19.68774414 115.16037109 19.68774414 112.19037109 19.68774414 109.13037109 C-26.18225586 109.13037109 -72.05225586 109.13037109 -119.31225586 109.13037109 C-119.31225586 49.13037109 -119.31225586 49.13037109 -118.31225586 48.13037109 C-118.07743893 45.94744336 -117.89862263 43.75833935 -117.74975586 41.56787109 C-117.6659668 40.37033203 -117.58217773 39.17279297 -117.49584961 37.93896484 C-117.43526367 37.01212891 -117.37467773 36.08529297 -117.31225586 35.13037109 C-116.65225586 35.13037109 -115.99225586 35.13037109 -115.31225586 35.13037109 C-115.31225586 33.48037109 -115.31225586 31.83037109 -115.31225586 30.13037109 C-114.65225586 30.13037109 -113.99225586 30.13037109 -113.31225586 30.13037109 C-113.31225586 29.47037109 -113.31225586 28.81037109 -113.31225586 28.13037109 C-111.99225586 28.13037109 -110.67225586 28.13037109 -109.31225586 28.13037109 C-109.31225586 27.47037109 -109.31225586 26.81037109 -109.31225586 26.13037109 C-108.65225586 26.13037109 -107.99225586 26.13037109 -107.31225586 26.13037109 C-107.31225586 25.47037109 -107.31225586 24.81037109 -107.31225586 24.13037109 C-106.32225586 24.13037109 -105.33225586 24.13037109 -104.31225586 24.13037109 C-104.31225586 23.47037109 -104.31225586 22.81037109 -104.31225586 22.13037109 C-102.99225586 22.13037109 -101.67225586 22.13037109 -100.31225586 22.13037109 C-100.31225586 21.47037109 -100.31225586 20.81037109 -100.31225586 20.13037109 C-94.5335074 16.87325833 -89.93403512 15.43693495 -83.31225586 15.13037109 C-83.31225586 14.47037109 -83.31225586 13.81037109 -83.31225586 13.13037109 C-81.66225586 13.13037109 -80.01225586 13.13037109 -78.31225586 13.13037109 C-78.31225586 12.47037109 -78.31225586 11.81037109 -78.31225586 11.13037109 C-76.33225586 11.13037109 -74.35225586 11.13037109 -72.31225586 11.13037109 C-72.31225586 10.47037109 -72.31225586 9.81037109 -72.31225586 9.13037109 C-70.33225586 9.13037109 -68.35225586 9.13037109 -66.31225586 9.13037109 C-66.31225586 8.47037109 -66.31225586 7.81037109 -66.31225586 7.13037109 C-63.34225586 7.13037109 -60.37225586 7.13037109 -57.31225586 7.13037109 C-57.31225586 6.47037109 -57.31225586 5.81037109 -57.31225586 5.13037109 C-55.26147461 4.90250651 -53.21069336 4.67464193 -51.15991211 4.44677734 C-49.30085357 4.31150495 -49.30085357 4.31150495 -48.31225586 3.13037109 C-46.29261387 3.05793056 -44.27058462 3.04659921 -42.24975586 3.06787109 C-41.1450293 3.07689453 -40.04030273 3.08591797 -38.90209961 3.09521484 C-38.04745117 3.10681641 -37.19280273 3.11841797 -36.31225586 3.13037109 C-36.31225586 2.47037109 -36.31225586 1.81037109 -36.31225586 1.13037109 C-24.19967992 0.24685845 -12.14325899 -0.02694127 0 0 Z M-71.31225586 32.13037109 C-71.31225586 32.79037109 -71.31225586 33.45037109 -71.31225586 34.13037109 C-73.29225586 34.13037109 -75.27225586 34.13037109 -77.31225586 34.13037109 C-77.31225586 34.79037109 -77.31225586 35.45037109 -77.31225586 36.13037109 C-78.30225586 36.13037109 -79.29225586 36.13037109 -80.31225586 36.13037109 C-80.31225586 36.79037109 -80.31225586 37.45037109 -80.31225586 38.13037109 C-80.88975586 38.39849609 -81.46725586 38.66662109 -82.06225586 38.94287109 C-84.36775628 40.15966298 -86.33281778 41.43370989 -88.31225586 43.13037109 C-88.31225586 43.79037109 -88.31225586 44.45037109 -88.31225586 45.13037109 C-88.97225586 45.13037109 -89.63225586 45.13037109 -90.31225586 45.13037109 C-90.31225586 46.45037109 -90.31225586 47.77037109 -90.31225586 49.13037109 C-90.97225586 49.13037109 -91.63225586 49.13037109 -92.31225586 49.13037109 C-93.45364691 52.77195208 -93.44542625 56.20613862 -93.43725586 60.00537109 C-93.43983398 61.19904297 -93.44241211 62.39271484 -93.44506836 63.62255859 C-93.32158982 66.88384461 -92.92888843 69.92975444 -92.31225586 73.13037109 C-91.65225586 73.13037109 -90.99225586 73.13037109 -90.31225586 73.13037109 C-90.31225586 73.79037109 -90.31225586 74.45037109 -90.31225586 75.13037109 C-89.65225586 75.13037109 -88.99225586 75.13037109 -88.31225586 75.13037109 C-88.31225586 76.12037109 -88.31225586 77.11037109 -88.31225586 78.13037109 C-87.65225586 78.13037109 -86.99225586 78.13037109 -86.31225586 78.13037109 C-86.31225586 78.79037109 -86.31225586 79.45037109 -86.31225586 80.13037109 C-85.65225586 80.13037109 -84.99225586 80.13037109 -84.31225586 80.13037109 C-84.31225586 80.79037109 -84.31225586 81.45037109 -84.31225586 82.13037109 C-83.32225586 82.13037109 -82.33225586 82.13037109 -81.31225586 82.13037109 C-81.31225586 82.79037109 -81.31225586 83.45037109 -81.31225586 84.13037109 C-80.32225586 84.13037109 -79.33225586 84.13037109 -78.31225586 84.13037109 C-78.31225586 84.79037109 -78.31225586 85.45037109 -78.31225586 86.13037109 C-76.66225586 86.13037109 -75.01225586 86.13037109 -73.31225586 86.13037109 C-73.31225586 86.79037109 -73.31225586 87.45037109 -73.31225586 88.13037109 C-69.35225586 88.13037109 -65.39225586 88.13037109 -61.31225586 88.13037109 C-61.31225586 87.47037109 -61.31225586 86.81037109 -61.31225586 86.13037109 C-59.33225586 86.13037109 -57.35225586 86.13037109 -55.31225586 86.13037109 C-55.31225586 85.47037109 -55.31225586 84.81037109 -55.31225586 84.13037109 C-53.99225586 84.13037109 -52.67225586 84.13037109 -51.31225586 84.13037109 C-51.31225586 83.47037109 -51.31225586 82.81037109 -51.31225586 82.13037109 C-50.65225586 82.13037109 -49.99225586 82.13037109 -49.31225586 82.13037109 C-45.3786076 78.25241022 -45.3786076 78.25241022 -44.31225586 73.13037109 C-43.65225586 73.13037109 -42.99225586 73.13037109 -42.31225586 73.13037109 C-42.31225586 71.81037109 -42.31225586 70.49037109 -42.31225586 69.13037109 C-41.65225586 69.13037109 -40.99225586 69.13037109 -40.31225586 69.13037109 C-40.31225586 67.15037109 -40.31225586 65.17037109 -40.31225586 63.13037109 C-39.65225586 63.13037109 -38.99225586 63.13037109 -38.31225586 63.13037109 C-38.31225586 61.48037109 -38.31225586 59.83037109 -38.31225586 58.13037109 C-38.97225586 58.13037109 -39.63225586 58.13037109 -40.31225586 58.13037109 C-40.31225586 55.82037109 -40.31225586 53.51037109 -40.31225586 51.13037109 C-40.97225586 51.13037109 -41.63225586 51.13037109 -42.31225586 51.13037109 C-42.31225586 49.81037109 -42.31225586 48.49037109 -42.31225586 47.13037109 C-42.97225586 47.13037109 -43.63225586 47.13037109 -44.31225586 47.13037109 C-44.39475586 46.57349609 -44.47725586 46.01662109 -44.56225586 45.44287109 C-45.56861786 42.33992159 -47.04691627 40.46043467 -49.31225586 38.13037109 C-50.63225586 38.13037109 -51.95225586 38.13037109 -53.31225586 38.13037109 C-53.31225586 37.47037109 -53.31225586 36.81037109 -53.31225586 36.13037109 C-54.63225586 36.13037109 -55.95225586 36.13037109 -57.31225586 36.13037109 C-57.31225586 35.47037109 -57.31225586 34.81037109 -57.31225586 34.13037109 C-58.96225586 34.13037109 -60.61225586 34.13037109 -62.31225586 34.13037109 C-62.31225586 33.47037109 -62.31225586 32.81037109 -62.31225586 32.13037109 C-65.28225586 32.13037109 -68.25225586 32.13037109 -71.31225586 32.13037109 Z " fill="#144F5B" transform="translate(300.312255859375,42.86962890625)"/>
<path d="M0 0 C3.96 0 7.92 0 12 0 C12 0.99 12 1.98 12 3 C12.66 3 13.32 3 14 3 C14 4.32 14 5.64 14 7 C14.66 7 15.32 7 16 7 C16 7.66 16 8.32 16 9 C16.66 9 17.32 9 18 9 C18 10.32 18 11.64 18 13 C18.66 13 19.32 13 20 13 C20.83848804 14.45537568 21.67063934 15.91440373 22.5 17.375 C22.9640625 18.18710937 23.428125 18.99921875 23.90625 19.8359375 C25 22 25 22 25 24 C25.66 24 26.32 24 27 24 C27 25.32 27 26.64 27 28 C27.66 28 28.32 28 29 28 C29 28.66 29 29.32 29 30 C29.66 30 30.32 30 31 30 C31 30.99 31 31.98 31 33 C31.66 33 32.32 33 33 33 C33 34.32 33 35.64 33 37 C33.66 37 34.32 37 35 37 C35 38.32 35 39.64 35 41 C35.66 41 36.32 41 37 41 C37.33 41.66 37.66 42.32 38 43 C38.33 28.81 38.66 14.62 39 0 C41.97 0 44.94 0 48 0 C48 21.12 48 42.24 48 64 C44.7 64 41.4 64 38 64 C38 63.34 38 62.68 38 62 C37.34 62 36.68 62 36 62 C36 61.01 36 60.02 36 59 C35.34 59 34.68 59 34 59 C34 58.01 34 57.02 34 56 C33.01 55.67 32.02 55.34 31 55 C31.33 54.34 31.66 53.68 32 53 C30.515 52.505 30.515 52.505 29 52 C29.33 51.01 29.66 50.02 30 49 C29.34 49 28.68 49 28 49 C28 48.34 28 47.68 28 47 C27.34 47 26.68 47 26 47 C26 45.68 26 44.36 26 43 C25.34 43 24.68 43 24 43 C23.505 40.525 23.505 40.525 23 38 C22.34 38 21.68 38 21 38 C21 36.68 21 35.36 21 34 C20.34 34 19.68 34 19 34 C19 33.34 19 32.68 19 32 C18.01 31.67 17.02 31.34 16 31 C15.67 29.02 15.34 27.04 15 25 C14.01 24.67 13.02 24.34 12 24 C11.34 22.35 10.68 20.7 10 19 C9.67 33.85 9.34 48.7 9 64 C6.03 64 3.06 64 0 64 C0 42.88 0 21.76 0 0 Z " fill="#2F9293" transform="translate(198,556)"/>
<path d="M0 0 C3.3 0 6.6 0 10 0 C10.33 8.58 10.66 17.16 11 26 C11.66 26 12.32 26 13 26 C13 24.68 13 23.36 13 22 C13.66 22 14.32 22 15 22 C15.33 20.68 15.66 19.36 16 18 C16.66 18 17.32 18 18 18 C18 17.34 18 16.68 18 16 C18.66 16 19.32 16 20 16 C20 15.01 20 14.02 20 13 C20.66 13 21.32 13 22 13 C22 12.34 22 11.68 22 11 C22.66 11 23.32 11 24 11 C24 10.34 24 9.68 24 9 C24.66 9 25.32 9 26 9 C26 8.34 26 7.68 26 7 C26.66 7 27.32 7 28 7 C28 5.68 28 4.36 28 3 C28.66 3 29.32 3 30 3 C30.33 2.01 30.66 1.02 31 0 C35.62 0 40.24 0 45 0 C45 0.66 45 1.32 45 2 C44.34 2 43.68 2 43 2 C42.67 3.65 42.34 5.3 42 7 C40.68 7.33 39.36 7.66 38 8 C37.896875 8.639375 37.79375 9.27875 37.6875 9.9375 C37.460625 10.618125 37.23375 11.29875 37 12 C36.01 12.33 35.02 12.66 34 13 C34 13.66 34 14.32 34 15 C33.34 15 32.68 15 32 15 C32 15.66 32 16.32 32 17 C31.34 17 30.68 17 30 17 C29.67 18.32 29.34 19.64 29 21 C28.34 21 27.68 21 27 21 C25.49069817 24.3863251 25.49069817 24.3863251 25 28 C25.79451044 29.52091999 26.63419238 31.01850696 27.5 32.5 C30 36.77777778 30 36.77777778 30 39 C30.66 39 31.32 39 32 39 C32 40.32 32 41.64 32 43 C32.66 43 33.32 43 34 43 C34 43.66 34 44.32 34 45 C34.66 45 35.32 45 36 45 C36 45.99 36 46.98 36 48 C36.66 48 37.32 48 38 48 C38 48.66 38 49.32 38 50 C38.66 50 39.32 50 40 50 C40 51.32 40 52.64 40 54 C40.66 54 41.32 54 42 54 C45 58.38461538 45 58.38461538 45 61 C45.66 61 46.32 61 47 61 C46.67 62.32 46.34 63.64 46 65 C42.04 65 38.08 65 34 65 C33.67 63.35 33.34 61.7 33 60 C32.01 59.67 31.02 59.34 30 59 C28.8125 55.9375 28.8125 55.9375 28 53 C27.34 53 26.68 53 26 53 C26 51.68 26 50.36 26 49 C25.34 49 24.68 49 24 49 C24 48.34 24 47.68 24 47 C23.34 47 22.68 47 22 47 C22 46.01 22 45.02 22 44 C21.34 44 20.68 44 20 44 C20 43.34 20 42.68 20 42 C19.34 42 18.68 42 18 42 C18 40.68 18 39.36 18 38 C17.34 38 16.68 38 16 38 C16 37.34 16 36.68 16 36 C15.38125 36.66 14.7625 37.32 14.125 38 C12 40 12 40 10 40 C10 47.92 10 55.84 10 64 C6.7 64 3.4 64 0 64 C-0.85050866 60.3125102 -1.1264345 56.90499596 -1.12939453 53.12402344 C-1.13254669 51.96642517 -1.13569885 50.8088269 -1.13894653 49.6161499 C-1.1369223 48.37641418 -1.13489807 47.13667847 -1.1328125 45.859375 C-1.13376923 44.58145081 -1.13472595 43.30352661 -1.13571167 41.98687744 C-1.13639147 39.2903706 -1.13505439 36.59395475 -1.13037109 33.89746094 C-1.12465123 30.43489844 -1.12797124 26.97241308 -1.13394356 23.50985336 C-1.13841352 20.20969108 -1.13529061 16.90953828 -1.1328125 13.609375 C-1.13483673 12.36154236 -1.13686096 11.11370972 -1.13894653 9.82806396 C-1.13579437 8.68307434 -1.13264221 7.53808472 -1.12939453 6.35839844 C-1.12859894 5.3453363 -1.12780334 4.33227417 -1.12698364 3.28851318 C-1 1 -1 1 0 0 Z " fill="#2E9293" transform="translate(341,556)"/>
<path d="M0 0 C16.5 0 33 0 50 0 C50 2.64 50 5.28 50 8 C46 9 46 9 32 9 C31.67 27.15 31.34 45.3 31 64 C27.7 64 24.4 64 21 64 C20.67 45.85 20.34 27.7 20 9 C14.39 9 8.78 9 3 9 C2.01 8.67 1.02 8.34 0 8 C0 5.36 0 2.72 0 0 Z " fill="#309696" transform="translate(286,556)"/>
<path d="M0 0 C3.3 0 6.6 0 10 0 C10 18.48 10 36.96 10 56 C19.24 56 28.48 56 38 56 C38 58.64 38 61.28 38 64 C25.46 64 12.92 64 0 64 C0 42.88 0 21.76 0 0 Z " fill="#329898" transform="translate(258,556)"/>
</svg>
