<svg width="32" height="32" fill="none" xmlns="http://www.w3.org/2000/svg"><path d="M29.38 13.083a7.979 7.979 0 00-.683-6.54A8.048 8.048 0 0025 3.199a8.022 8.022 0 00-4.953-.519A7.944 7.944 0 0014.056 0a8.02 8.02 0 00-4.74 1.537A8.053 8.053 0 006.392 5.58a7.936 7.936 0 00-5.308 3.862 8.079 8.079 0 00.988 9.444 7.985 7.985 0 00.682 6.533 8.049 8.049 0 003.7 3.35 8.023 8.023 0 004.959.521 7.947 7.947 0 005.983 2.68 8.019 8.019 0 004.74-1.537 8.052 8.052 0 002.923-4.043 7.936 7.936 0 005.308-3.862 8.067 8.067 0 00-.988-9.445zM17.396 29.885a5.943 5.943 0 01-3.824-1.39c.047-.027.138-.072.191-.107l6.35-3.675a1.031 1.031 0 00.521-.905V14.83l2.683 1.553a.094.094 0 01.053.075v7.43c0 1.589-.63 3.113-1.75 4.237a5.974 5.974 0 01-4.224 1.759zM4.559 24.389a5.99 5.99 0 01-.714-4.014 6 6 0 00.189.112l6.351 3.677a1.029 1.029 0 001.043 0l7.749-4.493v3.105a.092.092 0 01-.038.084l-6.419 3.714a5.968 5.968 0 01-4.532.595 5.983 5.983 0 01-3.629-2.787v.007zm-1.663-13.9a5.955 5.955 0 013.11-2.627v7.567a1.038 1.038 0 00.52.905l7.751 4.487-2.692 1.558a.095.095 0 01-.09.008l-6.418-3.715a5.993 5.993 0 01-2.782-3.638 6.008 6.008 0 01.595-4.545h.006zm22.044 5.143l-7.75-4.487 2.68-1.554a.095.095 0 01.09-.008l6.418 3.715a5.983 5.983 0 012.309 2.417 6.004 6.004 0 01-.547 6.404 5.977 5.977 0 01-2.686 1.988V16.54a1.036 1.036 0 00-.518-.909h.004zm2.672-4.031a7.9 7.9 0 00-.189-.113l-6.351-3.676a1.03 1.03 0 00-1.043 0l-7.75 4.485V9.194a.102.102 0 01.039-.084l6.418-3.714a5.963 5.963 0 016.403.277 6.005 6.005 0 012.47 5.93l.003-.002zm-16.796 5.538l-2.684-1.553a.101.101 0 01-.051-.075v-7.43a6 6 0 01.93-3.215 5.961 5.961 0 018.867-1.391c-.046.027-.13.072-.19.107l-6.35 3.675a1.035 1.035 0 00-.522.905v8.977zm1.457-3.151l3.453-2 3.45 2v3.994l-3.452 2-3.452-2 .002-3.994z" fill="#72A99D"/></svg>