<svg width="40" height="41" fill="none" xmlns="http://www.w3.org/2000/svg"><g clip-path="url(#clip0_449_643)"><path d="M7.083 1h25.834A7.077 7.077 0 0140 8.083v24.834A7.077 7.077 0 0132.917 40H7.083A7.077 7.077 0 010 32.917V8.083A7.077 7.077 0 017.083 1z" fill="#001834"/><path d="M9 28.35V11.2c0-.117.05-.183.167-.183.283 0 .55 0 .933-.017.4-.017.817-.017 1.267-.033.45-.017.933-.017 1.45-.034.516-.016 1.016-.016 1.516-.016 1.367 0 2.5.166 3.434.516.833.284 1.6.75 2.233 1.367a5.31 5.31 0 011.217 1.9c.25.7.383 1.416.383 2.166 0 1.434-.333 2.617-1 3.55a5.71 5.71 0 01-2.683 2.034c-1.134.416-2.384.567-3.75.567-.4 0-.667 0-.834-.017-.166-.017-.4-.017-.716-.017v5.35a.209.209 0 01-.184.234H9.2c-.133 0-.2-.067-.2-.217zm3.633-14.117v5.6c.234.017.45.034.65.034h.884c1.15 0 2.48-.27 3.283-1.184.691-.785.693-2.343.133-3.2-.664-1.016-1.993-1.31-3.133-1.283-.433 0-.817 0-1.133.017a3.81 3.81 0 00-.684.016zM32 18.817a5.899 5.899 0 00-1.6-.567 8.787 8.787 0 00-1.867-.217 3.355 3.355 0 00-1 .117.856.856 0 00-.517.333.883.883 0 00-.133.45c0 .15.067.3.167.434.15.183.35.333.566.45.384.2.784.383 1.184.55.9.3 1.766.716 2.566 1.216.55.35 1 .817 1.317 1.384a3.6 3.6 0 01.383 1.716 3.878 3.878 0 01-.65 2.217 4.177 4.177 0 01-1.866 1.483c-.817.35-1.817.534-3.017.534a11.48 11.48 0 01-2.267-.217 6.724 6.724 0 01-1.7-.533c-.116-.067-.2-.184-.183-.317v-2.9c0-.05.017-.117.067-.15.05-.033.1-.017.15.017.65.383 1.333.65 2.066.816.634.167 1.3.25 1.967.25.633 0 1.083-.083 1.383-.233.267-.117.45-.4.45-.7 0-.233-.133-.45-.4-.667-.266-.216-.816-.466-1.633-.783-.85-.3-1.634-.7-2.367-1.2a4.315 4.315 0 01-1.266-1.417 3.577 3.577 0 01-.384-1.7c0-.716.2-1.4.567-2.016a4.108 4.108 0 011.75-1.534c.783-.4 1.767-.583 2.95-.583.683 0 1.383.05 2.067.15.5.067.983.2 1.433.383.066.017.133.084.166.15a.834.834 0 01.034.2v2.717a.205.205 0 01-.084.167c-.15.033-.233.033-.3 0z" fill="#00A9FF"/></g><defs><clipPath id="clip0_449_643"><path fill="#fff" transform="translate(0 .5)" d="M0 0h40v40H0z"/></clipPath></defs></svg>