<svg width="42" height="24" fill="none" xmlns="http://www.w3.org/2000/svg"><path d="M0 12c0 6.1 9.402 11.047 21 11.047S42 18.1 42 12C42 5.899 32.598.953 21 .953S0 5.899 0 12z" fill="url(#paint0_radial_2_3810)"/><path d="M21 22.227c11.145 0 20.18-4.58 20.18-10.227 0-5.648-9.035-10.227-20.18-10.227S.82 6.353.82 12c0 5.648 9.035 10.227 20.18 10.227z" fill="#777BB3"/><path d="M11.41 13.268c.916 0 1.6-.17 2.033-.502.428-.33.724-.901.879-1.698.144-.745.09-1.265-.164-1.546-.259-.286-.818-.432-1.663-.432h-1.464l-.812 4.178h1.19zm-4.79 5.146a.228.228 0 01-.224-.272l2.152-11.07a.228.228 0 01.223-.185h4.638c1.457 0 2.542.396 3.224 1.177.685.784.897 1.881.629 3.26a5.205 5.205 0 01-.558 1.55c-.261.467-.606.9-1.026 1.286a4.504 4.504 0 01-1.689 1.012c-.608.198-1.389.298-2.32.298H9.79l-.536 2.76a.228.228 0 01-.224.184H6.62z" fill="#000"/><path d="M11.219 9.318h1.277c1.019 0 1.373.224 1.493.357.2.221.238.688.11 1.35-.145.74-.412 1.265-.795 1.56-.392.302-1.03.455-1.894.455h-.914l.723-3.722zm2.19-2.658H8.77a.456.456 0 00-.447.369l-2.152 11.07a.456.456 0 00.448.543H9.03a.456.456 0 00.448-.37l.5-2.574h1.69c.956 0 1.76-.104 2.391-.31a4.728 4.728 0 001.774-1.061 5.416 5.416 0 001.07-1.342 5.43 5.43 0 00.582-1.618c.282-1.45.053-2.613-.682-3.453-.727-.832-1.87-1.254-3.395-1.254zm-3.466 6.836h1.467c.972 0 1.696-.184 2.172-.55.476-.366.797-.978.964-1.835.16-.822.087-1.403-.218-1.741-.306-.338-.916-.508-1.832-.508h-1.653l-.9 4.634zm3.466-6.38c1.395 0 2.412.366 3.052 1.098.64.732.833 1.754.577 3.066a4.955 4.955 0 01-.533 1.483c-.25.448-.577.858-.981 1.23a4.26 4.26 0 01-1.605.962c-.589.192-1.339.288-2.25.288H9.603l-.572 2.943H6.62l2.15-11.07h4.638z" fill="#fff"/><path d="M22.792 15.47a.227.227 0 01-.224-.27l.952-4.9c.09-.465.068-.8-.063-.94-.08-.087-.321-.232-1.034-.232H20.7l-1.197 6.158a.228.228 0 01-.223.184h-2.393a.228.228 0 01-.224-.27l2.152-11.071a.228.228 0 01.224-.185h2.392a.228.228 0 01.224.272l-.52 2.671h1.856c1.413 0 2.371.25 2.93.762.568.523.746 1.36.527 2.485l-1.001 5.152a.228.228 0 01-.224.184h-2.43z" fill="#000"/><path d="M21.43 3.717h-2.393a.456.456 0 00-.447.368l-2.152 11.07a.456.456 0 00.448.543h2.392a.456.456 0 00.447-.368l1.161-5.974h1.537c.71 0 .86.152.866.159.043.046.1.261.006.743l-.952 4.898a.456.456 0 00.448.542h2.43a.456.456 0 00.448-.368l1-5.152c.236-1.21.035-2.116-.596-2.696-.602-.553-1.611-.822-3.084-.822H21.41l.467-2.4a.456.456 0 00-.447-.543zm0 .455l-.572 2.944h2.131c1.341 0 2.266.234 2.775.701.51.468.662 1.226.459 2.274l-1.002 5.152h-2.43l.952-4.898c.108-.558.068-.938-.12-1.14-.188-.203-.588-.304-1.2-.304H20.51l-1.233 6.342h-2.392l2.151-11.07h2.393z" fill="#fff"/><path d="M30.233 13.268c.916 0 1.6-.17 2.033-.502.428-.33.724-.901.88-1.698.144-.745.089-1.265-.165-1.546-.258-.286-.818-.432-1.662-.432h-1.465l-.812 4.178h1.19zm-4.79 5.146a.228.228 0 01-.224-.272l2.152-11.07a.228.228 0 01.223-.185h4.638c1.457 0 2.542.396 3.224 1.177.685.784.897 1.881.629 3.26a5.21 5.21 0 01-.558 1.55c-.26.467-.606.9-1.026 1.286a4.502 4.502 0 01-1.689 1.012c-.608.198-1.388.298-2.32.298h-1.878l-.536 2.76a.228.228 0 01-.224.184h-2.411z" fill="#000"/><path d="M30.041 9.318h1.277c1.02 0 1.373.224 1.494.357.2.221.237.688.109 1.35-.145.74-.412 1.265-.795 1.56-.392.302-1.03.455-1.894.455h-.914l.723-3.722zm2.19-2.658h-4.637a.456.456 0 00-.448.369l-2.151 11.07a.456.456 0 00.447.543h2.412a.456.456 0 00.447-.37l.5-2.574h1.69c.956 0 1.76-.104 2.391-.31a4.729 4.729 0 001.774-1.062 5.415 5.415 0 001.07-1.34 5.428 5.428 0 00.582-1.619c.282-1.45.053-2.613-.681-3.453-.727-.832-1.87-1.254-3.396-1.254zm-3.466 6.836h1.467c.972 0 1.696-.184 2.172-.55.476-.366.797-.978.964-1.835.16-.822.087-1.403-.218-1.741-.305-.338-.916-.508-1.832-.508h-1.653l-.9 4.634zm3.466-6.38c1.395 0 2.413.366 3.052 1.098.64.732.833 1.754.578 3.066a4.955 4.955 0 01-.533 1.483c-.25.448-.578.858-.982 1.23a4.258 4.258 0 01-1.605.962c-.589.192-1.338.288-2.25.288h-2.065l-.572 2.943h-2.412l2.152-11.07h4.637z" fill="#fff"/><defs><radialGradient id="paint0_radial_2_3810" cx="0" cy="0" r="1" gradientUnits="userSpaceOnUse" gradientTransform="translate(12.616 4.862) scale(34.477)"><stop stop-color="#AEB2D5"/><stop offset=".3" stop-color="#AEB2D5"/><stop offset=".75" stop-color="#484C89"/><stop offset="1" stop-color="#484C89"/></radialGradient></defs></svg>