<svg width="55" height="60" fill="none" xmlns="http://www.w3.org/2000/svg"><g clip-path="url(#clip0_532_601)"><path d="M22.835 0c.456.24.954.425 1.36.733.882.666 1.2 1.63 1.21 2.762.973 0 1.92.01 2.867-.001 1.618-.02 2.806.67 3.483 2.147.159.346.384.316.652.316H41.9c1.727 0 2.486.758 2.488 2.479 0 2.348.003 4.698-.002 7.046-.001.638-.331 1.032-.846 1.048-.536.015-.895-.396-.897-1.059-.004-2.309-.001-4.62-.001-6.93 0-.835-.002-.835-.842-.836h-1.247v18.297h2.089v-1.62c0-1.436-.002-2.873 0-4.309.001-.792.29-1.195.862-1.203.576-.008.884.399.885 1.177.002 1.922-.01 3.843.014 5.765.004.257.195.506.274.767.143.47.327.937.383 1.42.039.347.07.597.46.657a.48.48 0 01.162.059c.776.437 1.456.653 2.19-.204.465-.543 1.342-.41 1.9.123.9.856 1.782 1.732 2.635 2.634.638.677.582 1.586-.151 2.275-.399.376-.55.705-.2 1.17.046.06.077.136.094.21.171.787.542 1.187 1.46 1.11.753-.062 1.354.665 1.37 1.458a82.55 82.55 0 010 3.727c-.021.914-.717 1.535-1.716 1.508-.547-.014-.892.11-.97.688a.162.162 0 01-.018.055c-.431.73-.59 1.358.226 2.026.52.425.443 1.338-.044 1.86a52.897 52.897 0 01-2.756 2.757c-.646.596-1.533.52-2.183-.176-.392-.42-.682-.407-1.228-.246-1.043.308-1.42.864-1.25 1.911.04.246-.087.659-.273.772-.41.25-.379.58-.379.945.002 1.379.007 2.756-.001 4.135-.006 1.333-.851 2.188-2.183 2.19-13.335.002-26.672.002-40.007 0-1.343 0-2.192-.844-2.194-2.178C-.001 41.021-.001 24.58.001 8.137c0-1.346.86-2.177 2.256-2.18 3.223-.006 6.445-.01 9.667.006.397.002.6-.102.786-.484.627-1.276 1.695-1.939 3.117-1.98 1.043-.027 2.087-.005 3.155-.005.001-1.283.44-2.296 1.487-2.976.333-.216.722-.348 1.085-.52.426.002.854.002 1.28.002zm17.74 52.672c-.028.086-.05.121-.051.157a176.9 176.9 0 00-.011 1.63c-.005 1.045-.261 1.307-1.313 1.307-8.21.001-16.421.001-24.633-.002a2.7 2.7 0 01-.635-.051c-.458-.11-.691-.425-.658-.895.032-.472.308-.74.778-.787.211-.022.426-.011.64-.011h24.097c-.032-.69.085-1.343-.126-1.862-.22-.538-.36-1.04-.368-1.612-.001-.15-.126-.373-.255-.434-.538-.252-1.102-.456-1.668-.683-.226.215-.439.442-.675.64-.637.535-1.473.569-2.07.006a59.658 59.658 0 01-2.714-2.72c-.535-.573-.593-1.462-.008-1.95.749-.626.638-1.194.22-1.876a.333.333 0 01-.038-.11c-.098-.571-.41-.753-1.005-.73-.943.037-1.631-.526-1.664-1.352a57.549 57.549 0 01-.001-4.015c.021-.707.638-1.37 1.318-1.307.932.087 1.33-.32 1.502-1.136a.52.52 0 01.096-.21c.336-.444.207-.76-.184-1.127-.759-.711-.83-1.577-.188-2.266a58.617 58.617 0 012.675-2.677c.607-.57 1.42-.544 2.065-.007.18.148.32.348.51.474.116.078.318.123.441.078.557-.208 1.1-.454 1.567-.652.11-.591.202-1.119.311-1.643.061-.293.221-.58.221-.87.014-5.881.011-11.763.01-17.644 0-.19-.019-.378-.03-.593h-6.687v.668c-.001 1.738-.039 1.775-1.749 1.775H17.018c-1.125 0-2.252.002-3.377 0-1.08-.003-1.306-.225-1.307-1.285V7.748h-6.72c0 1.265.006 2.485-.003 3.705-.005.598-.338.978-.833.995-.513.018-.882-.38-.907-.996-.012-.31-.003-.621-.003-.932V7.7H2.631c-.889 0-.889 0-.889.906v48.39c0 .894 0 .894.89.894h39.134c.096 0 .194-.008.29.001.422.042.603-.13.586-.566-.024-.582-.007-1.164-.007-1.746V52.67c-.721.002-1.377.002-2.06.002zm-8.213-20.266l.812.71c.467.407.487.852.218 1.405a19.5 19.5 0 00-.979 2.354c-.2.596-.543.86-1.147.847-.36-.008-.723-.002-1.086-.002v3.248h1.256c.498-.002.769.266.941.714a57.43 57.43 0 001.058 2.573c.206.466.186.86-.193 1.213-.294.276-.592.55-.834.772l2.372 2.367c.207-.225.456-.496.702-.77.392-.439.809-.483 1.35-.22.797.39 1.627.721 2.462 1.023.514.185.766.493.768 1.025v1.203h3.254c0-.415.01-.8-.004-1.182-.02-.575.26-.866.794-1.055a26.568 26.568 0 002.462-1.023c.493-.233.9-.207 1.26.189.273.297.512.622.729.888l2.415-2.426c-.249-.224-.537-.48-.82-.74-.414-.385-.439-.794-.191-1.31.384-.8.723-1.624 1.025-2.46.184-.51.47-.778 1.018-.764.4.01.801.002 1.214.002v-3.258c-.41 0-.794-.004-1.177.002-.565.01-.868-.261-1.058-.798a26.529 26.529 0 00-1.021-2.462c-.244-.518-.2-.93.221-1.304.29-.257.585-.508.817-.707l-2.398-2.43c-.202.238-.412.52-.657.765-.543.548-.792.543-1.494.21a22.21 22.21 0 00-2.306-.943c-.562-.191-.842-.502-.814-1.1.019-.378.003-.756.003-1.134h-3.257c0 .406-.01.771.003 1.136.022.597-.274.902-.828 1.097-.818.288-1.623.627-2.409.997-.508.24-.927.227-1.311-.193-.268-.294-.531-.594-.763-.854-.85.843-1.59 1.581-2.407 2.395zM30.3 8.417c0-.507.01-.95-.002-1.392-.03-1.013-.76-1.774-1.77-1.778-4.226-.012-8.452-.01-12.677-.001-.827.001-1.56.543-1.69 1.33-.1.593-.02 1.217-.02 1.841H30.3zm-9.521-4.969h2.842c.009-1.039-.576-1.707-1.446-1.696-.875.01-1.454.705-1.396 1.696z" fill="#333"/><path d="M32.362 32.406l2.403-2.392c.232.26.495.559.763.854.382.42.8.433 1.311.193.786-.369 1.59-.708 2.41-.997.552-.195.849-.5.827-1.097-.014-.364-.003-.73-.003-1.136h3.257c0 .378.014.756-.003 1.134-.028.598.252.909.814 1.1.784.268 1.556.589 2.306.943.702.333.953.34 1.494-.21.244-.247.454-.527.657-.765l2.398 2.43c-.23.2-.526.449-.817.707-.422.373-.465.786-.221 1.304a26.41 26.41 0 011.02 2.462c.19.537.496.807 1.059.798.383-.006.766-.001 1.176-.001v3.257c-.413 0-.813.008-1.213-.002-.547-.014-.833.254-1.018.764-.302.836-.641 1.66-1.026 2.46-.247.516-.224.925.192 1.31.281.26.57.516.82.74l-2.415 2.426c-.215-.264-.456-.591-.729-.888-.36-.396-.767-.422-1.26-.189-.803.38-1.625.725-2.462 1.023-.534.19-.814.48-.794 1.055.014.383.004.767.004 1.182h-3.255v-1.203c0-.532-.253-.84-.767-1.025a24.995 24.995 0 01-2.462-1.022c-.541-.265-.958-.22-1.35.219-.246.274-.495.543-.702.77-.81-.806-1.556-1.553-2.372-2.367.241-.224.54-.496.834-.772.379-.354.399-.748.193-1.213a58.748 58.748 0 01-1.058-2.573c-.173-.448-.443-.717-.941-.714-.405.002-.808 0-1.256 0v-3.248c.362 0 .725-.006 1.086.002.604.012.95-.25 1.147-.847a19.8 19.8 0 01.979-2.354c.269-.553.249-.998-.218-1.405a84.958 84.958 0 00-.808-.713zm2.08 6.96c.018 5.066 5.166 8.6 9.837 6.753.648-.255.897-.677.705-1.194-.191-.518-.638-.656-1.307-.456-.5.15-1.008.309-1.523.355-3.058.273-5.77-2.066-5.947-5.095-.183-3.188 2.175-5.78 5.352-5.879 3.068-.096 5.618 2.406 5.626 5.512.003.974-.27 1.872-.716 2.726-.206.392-.173.824.194 1.035.271.156.7.18 1.004.084.221-.07.392-.407.518-.661 1.339-2.683.869-5.875-1.18-8.116-1.983-2.17-5.16-2.924-7.889-1.87-2.835 1.096-4.686 3.79-4.675 6.807z" fill="#7FEBA0"/><path d="M30.3 8.417H14.14c0-.624-.08-1.246.02-1.84.132-.786.865-1.328 1.69-1.331 4.225-.011 8.451-.013 12.676.001 1.012.004 1.742.764 1.771 1.778.014.442.003.885.003 1.392zm-9.52-4.968c-.058-.99.522-1.687 1.395-1.697.87-.01 1.455.659 1.446 1.697h-2.842z" fill="#fff"/><path d="M5.62 54.02h3.964c.91 0 1.323.26 1.339.838.017.601-.44.908-1.354.908-1.494.001-2.988.004-4.483-.002-.931-.003-1.216-.29-1.216-1.228-.001-12.846-.001-25.694.002-38.54 0-.191.003-.392.056-.574.13-.452.457-.674.921-.621.434.048.702.314.752.756.025.23.015.465.015.697v36.911c.003.252.003.503.003.855zm7.242-18.128c-.95 0-1.901.008-2.854-.002-.933-.01-1.483-.55-1.489-1.484a444.766 444.766 0 010-5.764c.006-.9.553-1.466 1.454-1.476 1.94-.02 3.882-.02 5.823 0 .904.01 1.447.573 1.452 1.47.01 1.921.009 3.843.001 5.763-.004.947-.537 1.482-1.475 1.491-.971.01-1.94.002-2.912.002zm2.615-6.949h-5.185v5.165h5.185v-5.165zm1.775-9.621c0 .95.008 1.901-.001 2.852-.01.956-.523 1.49-1.468 1.497-1.921.012-3.843.012-5.764 0-.968-.006-1.494-.55-1.498-1.533a531.48 531.48 0 010-5.647c.004-.974.532-1.533 1.504-1.544 1.902-.022 3.805-.02 5.707-.002 1.004.01 1.514.562 1.52 1.582.005.93 0 1.862 0 2.794zm-6.956 2.577h5.167v-5.18h-5.167v5.18z" fill="#333"/><path d="M17.25 44.264c0 .95.009 1.902 0 2.852-.01.95-.522 1.482-1.48 1.49-1.921.017-3.843.017-5.763 0-.95-.008-1.48-.55-1.486-1.49a493.306 493.306 0 01-.002-5.706c.005-.95.523-1.514 1.458-1.525 1.94-.023 3.881-.023 5.823 0 .94.01 1.443.57 1.45 1.525.009.952 0 1.903 0 2.854zm-1.764-2.594H10.3v5.15h5.187v-5.15zm12.498-23.615h-7.04c-.156 0-.313.014-.465-.011-.488-.084-.77-.388-.766-.876.005-.46.285-.75.74-.842.149-.03.309-.017.463-.017H35.23c.135 0 .274-.011.406.012.485.087.772.388.76.878-.009.488-.3.783-.793.848-.152.02-.31.008-.465.008h-7.154zM26.36 20.59c1.863 0 3.726.005 5.587-.003.421-.002.768.109.957.516.27.587-.148 1.197-.87 1.227-.679.028-1.357.007-2.037.007h-8.905c-.155 0-.31.008-.465-.004-.568-.047-.948-.43-.923-.921.025-.475.394-.811.951-.816 1.435-.012 2.871-.005 4.306-.006.469-.002.934-.002 1.4 0zm-1.544 7.941c1.338 0 2.676-.005 4.013.002.675.003 1.072.342 1.061.883-.01.517-.406.858-1.036.86-2.695.006-5.39.004-8.086 0-.663-.002-1.074-.358-1.063-.892.011-.515.403-.847 1.04-.85 1.357-.008 2.714-.003 4.07-.003zm-.659 16.993c1.124 0 2.249-.004 3.372.002.674.003 1.021.29 1.038.83.018.553-.36.908-1.034.911-2.268.01-4.535.01-6.804-.001-.625-.003-1.022-.369-1.024-.88-.002-.511.395-.857 1.023-.86 1.143-.006 2.287-.002 3.43-.002zM24.046 32.8c1.066 0 2.132-.008 3.197.003.697.006 1.072.323 1.067.873-.003.546-.38.865-1.078.868-2.15.008-4.301.008-6.452 0-.674-.003-1.08-.352-1.077-.88.003-.525.406-.855 1.086-.861 1.088-.01 2.173-.003 3.257-.003zm-.921 10.188c-.795 0-1.592.006-2.387-.002-.632-.006-1.027-.342-1.035-.859-.008-.516.39-.88 1.012-.884 1.61-.007 3.221-.007 4.832 0 .617.003 1.016.372 1.003.89-.01.517-.404.847-1.04.852-.793.008-1.588.003-2.385.003z" fill="#333"/><path d="M34.441 39.367c-.01-3.018 1.84-5.71 4.677-6.805 2.73-1.054 5.907-.3 7.89 1.87 2.047 2.24 2.517 5.433 1.18 8.115-.127.253-.297.592-.519.662-.303.095-.733.071-1.004-.084-.367-.212-.4-.643-.194-1.035.448-.856.719-1.752.716-2.727-.008-3.106-2.559-5.61-5.626-5.511-3.178.1-5.537 2.69-5.352 5.879.175 3.026 2.888 5.365 5.946 5.095.515-.045 1.024-.204 1.524-.355.67-.2 1.116-.062 1.307.456.192.517-.057.938-.705 1.193-4.673 1.845-9.82-1.688-9.84-6.753z" fill="#7FEBA1"/><path d="M15.476 28.943v5.165h-5.185v-5.165h5.185zm-5.181-7.045V16.72h5.166v5.178h-5.166zm5.191 19.772v5.15h-5.187v-5.15h5.187z" fill="#333"/><path d="M43.014 38l-2.03 3.516m-2.226 0L37 39.758 38.758 38m6.484 3.516L47 39.758 45.242 38" stroke="#333" stroke-width="1.5" stroke-miterlimit="22.926" stroke-linecap="round" stroke-linejoin="round"/></g><defs><clipPath id="clip0_532_601"><path fill="#fff" d="M0 0h55v59.641H0z"/></clipPath></defs></svg>