<svg width="52" height="39" fill="none" xmlns="http://www.w3.org/2000/svg"><g clip-path="url(#clip0_395_655)"><path d="M17.14 22.026c-1.941.551-3.215 1.517-4.054 2.482.804-.703 1.88-1.348 3.332-1.76 1.485-.42 2.752-.418 3.799-.216v-.818c-.893-.082-1.917-.017-3.077.312zm-4.143-6.881l-7.209 1.9s.132.185.375.432l6.112-1.61s-.086 1.116-.838 2.114c1.423-1.076 1.56-2.836 1.56-2.836zm6.035 16.942C8.887 34.82 3.519 23.063 1.894 16.96c-.75-2.816-1.078-4.95-1.166-6.326a2.332 2.332 0 01.005-.374c-.526.031-.778.305-.726 1.096.087 1.376.415 3.509 1.165 6.327C2.797 23.784 8.165 35.54 18.31 32.809c2.208-.595 3.867-1.679 5.113-3.062-1.148 1.037-2.585 1.853-4.391 2.34zM20.938 7.95v.722h3.98c-.082-.255-.164-.485-.246-.722h-3.734z" fill="#2D4552"/><path d="M25.807 13.896c1.79.508 2.736 1.763 3.236 2.873l1.996.567s-.273-3.886-3.788-4.885c-3.288-.934-5.311 1.827-5.558 2.185.957-.682 2.354-1.24 4.114-.74zm15.884 2.891c-3.292-.938-5.315 1.829-5.557 2.181.957-.68 2.353-1.239 4.113-.737 1.786.509 2.732 1.762 3.234 2.873l1.998.57s-.276-3.888-3.788-4.887zm-1.983 10.246l-16.599-4.64s.18.91.87 2.09l13.975 3.908c1.15-.666 1.754-1.358 1.754-1.358zM28.2 37.022c-13.143-3.524-11.554-20.27-9.427-28.206.875-3.27 1.775-5.7 2.522-7.33-.445-.092-.814.143-1.179.884-.793 1.608-1.806 4.226-2.787 7.89-2.126 7.936-3.715 24.681 9.427 28.205 6.195 1.66 11.021-.863 14.618-4.824-3.414 3.093-7.774 4.827-13.174 3.38z" fill="#2D4552"/><path d="M20.938 28.163v-3.38l-9.389 2.663s.694-4.03 5.59-5.42c1.486-.42 2.753-.418 3.8-.216V7.95h4.7c-.511-1.582-1.006-2.8-1.422-3.646-.688-1.4-1.394-.472-2.995.867-1.128.942-3.978 2.952-8.267 4.108-4.288 1.156-7.756.85-9.203.599-2.05-.354-3.123-.804-3.023.756.087 1.375.415 3.509 1.166 6.326 1.624 6.102 6.992 17.86 17.138 15.127 2.65-.714 4.52-2.126 5.817-3.925h-3.912v.001zM5.788 17.044l7.21-1.9s-.21 2.775-2.914 3.487c-2.703.712-4.296-1.587-4.296-1.587z" fill="#E2574C"/><path d="M48.072 8.11c-1.874.328-6.37.738-11.927-.752C30.587 5.87 26.9 3.266 25.438 2.043 23.368.308 22.456-.897 21.56.926c-.793 1.608-1.807 4.226-2.788 7.89-2.126 7.936-3.715 24.681 9.428 28.205 13.14 3.52 20.134-11.777 22.26-19.713.982-3.663 1.412-6.438 1.53-8.226.135-2.027-1.257-1.439-3.918-.972zm-26.406 6.565s2.072-3.221 5.584-2.223c3.515.998 3.788 4.885 3.788 4.885l-9.372-2.662zm8.575 14.455c-6.179-1.81-7.132-6.737-7.132-6.737l16.599 4.64s-3.35 3.884-9.467 2.097zm5.869-10.126s2.068-3.219 5.58-2.218c3.512 1 3.789 4.886 3.789 4.886l-9.37-2.668z" fill="#2EAD33"/><path d="M17.658 25.714l-6.108 1.732s.663-3.78 5.163-5.278l-3.459-12.98-.298.09c-4.29 1.157-7.757.85-9.204.6-2.05-.354-3.123-.804-3.023.756.087 1.376.415 3.509 1.166 6.327 1.624 6.101 6.992 17.858 17.138 15.126l.298-.094-1.673-6.279zm-11.87-8.67l7.21-1.9s-.21 2.775-2.913 3.487c-2.703.712-4.297-1.587-4.297-1.587z" fill="#D65348"/><path d="M30.52 29.198l-.28-.068c-6.178-1.81-7.131-6.737-7.131-6.737l8.559 2.392 4.531-17.412-.055-.015C30.586 5.87 26.9 3.266 25.438 2.043 23.366.308 22.455-.897 21.558.926c-.791 1.608-1.805 4.226-2.786 7.89-2.126 7.936-3.715 24.681 9.428 28.205l.269.06 2.05-7.883zm-8.854-14.523s2.071-3.221 5.584-2.223c3.515.998 3.788 4.885 3.788 4.885l-9.372-2.662z" fill="#1D8D22"/><path d="M17.968 25.626l-1.638.465c.387 2.181 1.07 4.275 2.14 6.124.186-.04.371-.076.56-.128.498-.134.96-.3 1.403-.482-1.196-1.775-1.987-3.82-2.465-5.98zm-.64-15.366c-.841 3.142-1.594 7.664-1.387 12.2a9.491 9.491 0 011.198-.435l.304-.067c-.37-4.845.429-9.782 1.33-13.141.227-.85.456-1.64.684-2.378-.367.234-.763.474-1.213.72a63.94 63.94 0 00-.916 3.102z" fill="#C04B41"/></g><defs><clipPath id="clip0_395_655"><path fill="#fff" transform="translate(0 .017)" d="M0 0h52v38.965H0z"/></clipPath></defs></svg>