<svg width="514" height="248" fill="none" xmlns="http://www.w3.org/2000/svg"><ellipse opacity=".7" cx="405" cy="124.5" rx="99.5" ry="96" transform="rotate(90 405 124.5)" fill="url(#paint0_radial_589_2)" fill-opacity=".79"/><g filter="url(#filter0_d_589_2)"><path d="M483.4 100.6c0 1.866 1.276 3.467 3.017 4.138.432.167.859.344 1.279.531 1.708.76 3.746.532 5.067-.79a4.597 4.597 0 016.506 0l3.252 3.252a4.596 4.596 0 010 6.506c-1.322 1.321-1.55 3.359-.79 5.067.187.421.364.847.531 1.279.671 1.741 2.272 3.017 4.138 3.017a4.6 4.6 0 014.6 4.6v4.6a4.6 4.6 0 01-4.6 4.6c-1.866 0-3.467 1.276-4.138 3.017a28.18 28.18 0 01-.531 1.279c-.76 1.708-.532 3.746.79 5.067a4.597 4.597 0 010 6.506l-3.252 3.252a4.596 4.596 0 01-6.506 0c-1.321-1.322-3.359-1.55-5.066-.79-.421.187-.848.364-1.28.531-1.741.671-3.017 2.271-3.017 4.138a4.6 4.6 0 01-4.6 4.6h-4.6a4.6 4.6 0 01-4.6-4.6c0-1.867-1.276-3.467-3.017-4.138a27.711 27.711 0 01-1.279-.531c-1.708-.76-3.746-.532-5.067.79a4.599 4.599 0 01-6.506 0l-3.252-3.252a4.596 4.596 0 010-6.506c1.322-1.321 1.55-3.359.79-5.067a28.18 28.18 0 01-.531-1.279c-.671-1.741-2.272-3.017-4.138-3.017a4.6 4.6 0 01-4.6-4.6v-4.6a4.6 4.6 0 014.6-4.6c1.866 0 3.467-1.276 4.138-3.017.167-.432.344-.858.531-1.279.76-1.708.532-3.746-.79-5.067a4.597 4.597 0 010-6.506l3.252-3.252a4.596 4.596 0 016.506 0c1.321 1.322 3.359 1.55 5.067.79a28.18 28.18 0 011.279-.531c1.741-.671 3.017-2.272 3.017-4.138a4.6 4.6 0 014.6-4.6h4.6a4.6 4.6 0 014.6 4.6z" fill="#0A1E52"/><path d="M499.057 104.691h0a4.3 4.3 0 00-6.082 0l-.212-.212.212.212c-1.423 1.423-3.598 1.654-5.4.852-.417-.185-.839-.36-1.266-.525-1.838-.709-3.209-2.408-3.209-4.418a4.3 4.3 0 00-4.3-4.3h-4.6a4.3 4.3 0 00-4.3 4.3c0 2.01-1.371 3.709-3.209 4.418-.427.165-.849.34-1.265.525-1.803.802-3.978.571-5.402-.852l.213-.212-.213.212a4.297 4.297 0 00-6.081 0h0l-2.174 2.174-1.078 1.078h0a4.3 4.3 0 000 6.081l-.211.211.211-.211c1.423 1.424 1.654 3.599.852 5.402-.185.416-.36.838-.525 1.265-.709 1.838-2.408 3.209-4.418 3.209a4.3 4.3 0 00-4.3 4.3v4.6a4.3 4.3 0 004.3 4.3c2.01 0 3.709 1.371 4.418 3.209.165.427.34.849.525 1.265.802 1.803.571 3.978-.852 5.401l-.212-.212.212.212a4.301 4.301 0 000 6.082h0l3.252 3.252h0a4.299 4.299 0 006.081 0l.213.212-.213-.212c1.424-1.423 3.599-1.654 5.402-.852.416.185.838.36 1.265.525 1.837.709 3.209 2.408 3.209 4.418a4.3 4.3 0 004.3 4.3h4.6a4.3 4.3 0 004.3-4.3c0-2.01 1.372-3.709 3.209-4.418.427-.165.849-.34 1.266-.525 1.802-.802 3.977-.571 5.4.852l-.21.21.21-.21a4.301 4.301 0 006.082 0h0l.098-.099.099-.099.025-.024.006-.007.006-.006.007-.006.006-.006.025-.025.006-.006.006-.007.013-.012.006-.006.006-.007.007-.006.006-.006.012-.013.007-.006.006-.006.05-.05.006-.007.007-.006.012-.012.006-.007.007-.006.012-.013.007-.006.006-.006.006-.007.006-.006.013-.012.013-.013.012-.013.007-.006.006-.006.013-.013.006-.006.006-.007.051-.05.012-.013.013-.012.006-.007.007-.006.012-.013.026-.025.013-.013.012-.013.007-.006.006-.006.013-.013.006-.006.006-.007.007-.006.006-.007.051-.051.102-.102.013-.013.007-.006.006-.006.006-.007.007-.006.006-.007.007-.006.006-.006.006-.007.013-.013.026-.025.006-.007.007-.006.006-.007.007-.006.025-.026.026-.025.006-.007.007-.006.006-.007.007-.006.013-.013.006-.006.006-.007.026-.026.013-.012.006-.007.007-.006.026-.026.413-.413.013-.013.006-.007.007-.006.006-.007.007-.006.013-.013.006-.006.006-.007.007-.006.006-.007.007-.006.006-.007.007-.006.006-.007.052-.051.013-.013.006-.007.007-.006.006-.007.007-.006.006-.006.007-.007.206-.206.013-.013.006-.007.007-.006.025-.026.007-.006.006-.007.013-.013.007-.006.006-.006.006-.007.007-.006.013-.013.006-.007.007-.006.012-.013.007-.006.006-.007.026-.025.026-.026.051-.051.013-.013.006-.007.007-.006.006-.006.006-.007.013-.013.026-.025.013-.013.012-.013.013-.013.013-.012.013-.013.006-.006.006-.007.026-.025.025-.026.007-.006.006-.007.007-.006.006-.006.013-.013.006-.006.006-.007.007-.006.006-.006.013-.013.012-.013.013-.013.006-.006.007-.006.013-.013.006-.006.006-.007.007-.006.006-.006.025-.026.013-.012.012-.013.007-.006.006-.006.006-.007.007-.006.006-.006.006-.007.013-.012.025-.026.013-.012.006-.006.006-.007.013-.012.013-.013.012-.012.013-.013.025-.025.006-.006.006-.007.007-.006.006-.006.006-.006.006-.007.013-.012.025-.025.012-.013.013-.012.025-.025.012-.013.006-.006.007-.006.012-.012.006-.007.006-.006.099-.099.05-.049.012-.012.012-.013.006-.006.007-.006.012-.012h0a4.3 4.3 0 000-6.082l.212-.212-.212.212c-1.423-1.423-1.654-3.598-.852-5.401.185-.416.36-.838.525-1.265.709-1.838 2.408-3.209 4.418-3.209a4.3 4.3 0 004.3-4.3v-4.6a4.3 4.3 0 00-4.3-4.3c-2.01 0-3.709-1.371-4.418-3.209-.165-.427-.34-.849-.525-1.265-.802-1.803-.571-3.978.852-5.402l.212.213-.212-.213a4.297 4.297 0 000-6.081h0l-1.626-1.626-1.626-1.626z" stroke="#4492DC" stroke-width=".6"/></g><path d="M476.753 140.804c5.551 0 10.05-4.5 10.05-10.05 0-5.551-4.499-10.05-10.05-10.05-5.55 0-10.05 4.499-10.05 10.05 0 5.55 4.5 10.05 10.05 10.05z" stroke="#3CC065"/><path d="M472.494 131.776l2.215 2.214 6.302-6.473" stroke="#3CC065"/><g filter="url(#filter1_d_589_2)"><rect y="92" width="109.137" height="78.3" rx="6" fill="#04254A"/><rect x=".3" y="92.3" width="108.537" height="77.7" rx="5.7" stroke="#4492DC" stroke-width=".6"/></g><path stroke="#4492DC" stroke-width=".6" d="M.992 109.559h107.153m-96.01 31.634H44.07M11.742 123h34v13h-34zm.393 23.042h23.583m-23.583 4.849H40.63m-28.495 4.849h11.791m-11.791 4.849h23.092"/><circle cx="9.924" cy="101.392" r="1.984" fill="#4492DC"/><circle cx="16.869" cy="101.392" r="1.984" fill="#4492DC"/><circle cx="23.814" cy="101.392" r="1.984" fill="#4492DC"/><path d="M63.742 120.507h30.732a3.7 3.7 0 013.7 3.7v23.024a3.7 3.7 0 01-3.7 3.7H63.742a3.7 3.7 0 01-3.7-3.7v-23.024a3.7 3.7 0 013.7-3.7z" fill="#04254A" stroke="#4492DC" stroke-width=".6"/><path d="M80.847 137.478l2.276-3.511 6.692 10.323h-23.24l9.092-14.025 4.676 7.213.252.389.252-.389zm4.368-10.65c1.33 0 2.413 1.09 2.413 2.44 0 1.351-1.083 2.44-2.413 2.44-1.33 0-2.413-1.089-2.413-2.44 0-1.35 1.083-2.44 2.413-2.44z" stroke="#ADC4FF" stroke-width=".6"/><path d="M414.24 45.632l1.058-1.834-1.919-1.56a4.91 4.91 0 00.118-1.056c0-.363-.043-.714-.118-1.054l1.919-1.563-1.058-1.834-2.317.883a4.863 4.863 0 00-1.822-1.06l-.395-2.438h-2.115l-.394 2.439a4.817 4.817 0 00-1.822 1.059l-2.318-.881L402 38.564l1.919 1.563c-.076.34-.119.692-.119 1.055 0 .362.043.715.119 1.053L402 43.798l1.059 1.834 2.316-.883a4.816 4.816 0 001.822 1.059l.394 2.44h2.117l.392-2.44a4.832 4.832 0 001.823-1.058l2.317.882zm-3.601-4.45a1.99 1.99 0 11-3.98 0 1.991 1.991 0 113.98 0z" stroke="#4492DC" stroke-width=".6" stroke-linecap="round" stroke-linejoin="round"/><path d="M423.065 36.355l1.059-1.833-1.92-1.562a4.809 4.809 0 000-2.107l1.92-1.564-1.058-1.833-2.317.882a4.848 4.848 0 00-1.823-1.059l-.393-2.439h-2.117l-.393 2.44a4.843 4.843 0 00-1.823 1.059l-2.316-.882-1.059 1.834 1.92 1.561a4.767 4.767 0 00-.001 2.107l-1.92 1.564 1.06 1.833 2.316-.882a4.831 4.831 0 001.822 1.058l.395 2.44h2.117l.391-2.44a4.838 4.838 0 001.823-1.058l2.317.88zm-3.601-4.449a1.989 1.989 0 11-3.98 0 1.99 1.99 0 113.98 0z" stroke="#4492DC" stroke-width=".6" stroke-linecap="round" stroke-linejoin="round"/><path d="M426.933 48.908l1.058-1.833-1.919-1.562c.075-.34.119-.693.119-1.055 0-.361-.044-.714-.118-1.053l1.918-1.564-1.058-1.832-2.316.88a4.852 4.852 0 00-1.823-1.057l-.393-2.44h-2.118l-.392 2.44a4.844 4.844 0 00-1.824 1.058l-2.316-.881-1.058 1.832 1.92 1.563c-.076.339-.12.692-.12 1.054 0 .362.044.715.12 1.053l-1.92 1.564 1.059 1.833 2.315-.883a4.825 4.825 0 001.824 1.06l.394 2.439h2.116l.393-2.44a4.836 4.836 0 001.823-1.058l2.316.882zm-3.6-4.45a1.99 1.99 0 11-3.98.002 1.99 1.99 0 013.98-.002z" stroke="#4492DC" stroke-width=".6" stroke-linecap="round" stroke-linejoin="round"/><path d="M434.325 39.06c-.507 0-1 .055-1.479.153C431.13 35.539 427.515 33 423.32 33c-5.551 0-10.098 4.435-10.551 10.079a5.533 5.533 0 00-.983-.094c-3.196 0-5.786 2.69-5.786 6.008 0 3.317 2.59 6.007 5.786 6.007h22.539c4.238 0 7.675-3.569 7.675-7.97 0-4.402-3.437-7.97-7.675-7.97z" fill="#04254A" stroke="#4492DC" stroke-width=".6"/><path d="M302.405 219.218l-.001-2.293c.001-4.124-14.749-8.128-14.748-19.409 0-5.337-.002-5.043-.002-5.043h-41.283l-.001 5.047c.001 11.279-14.749 15.283-14.747 19.407l-.002 2.292 70.784-.001z" stroke="#1D52C7" stroke-width="2" stroke-linecap="round" stroke-linejoin="round"/><path d="M370.852 172.857l.001 13.897a5.813 5.813 0 01-5.824 5.819l-196.032.007c-3.203 0-5.825-2.6-5.824-5.822l-.001-13.897V66.865c-.002-3.2 2.619-5.82 5.82-5.822l196.034-.004a5.825 5.825 0 015.821 5.823l.005 105.995z" fill="#04254A" stroke="#1D52C7" stroke-width="2" stroke-linecap="round" stroke-linejoin="round"/><path d="M417.354 131.354a.502.502 0 000-.708l-3.182-3.182a.502.502 0 00-.708.708l2.829 2.828-2.829 2.828a.502.502 0 00.708.708l3.182-3.182zM417 130.5h-38v1h38v-1zm-268.646.854a.502.502 0 000-.708l-3.182-3.182a.502.502 0 00-.708.708l2.829 2.828-2.829 2.828a.502.502 0 00.708.708l3.182-3.182zM148 130.5h-44v1h44v-1z" fill="#3CC065"/><g opacity=".4" fill="#4492DC"><circle cx="346.984" cy="71.392" r="1.984"/><circle cx="353.93" cy="71.392" r="1.984"/><circle cx="360.875" cy="71.392" r="1.984"/></g><path d="M308 95.3h45a5.7 5.7 0 015.7 5.7v33.308a5.7 5.7 0 01-5.7 5.7h-45a5.7 5.7 0 01-5.7-5.7V101a5.7 5.7 0 015.7-5.7z" fill="#1D52C7" stroke="#4492DC" stroke-width=".6"/><path d="M346.443 116.65l-5.366-5.392a.903.903 0 00-1.23-.034.796.796 0 00-.035 1.167l4.802 4.825-4.802 4.826a.796.796 0 00.035 1.167.89.89 0 00.597.225.894.894 0 00.633-.258l5.366-5.393a.796.796 0 000-1.133zm-24.87 5.392l-4.801-4.826 4.801-4.825a.796.796 0 00-.035-1.167.904.904 0 00-1.23.034l-5.366 5.392a.796.796 0 000 1.133l5.366 5.392a.891.891 0 00.633.259.896.896 0 00.597-.225.795.795 0 00.035-1.167zm12.314-18.14c-.378-.064-.731.226-.789.647l-5.721 25.103c-.058.421.202.815.58.879a.62.62 0 00.105.009c.336 0 .631-.274.684-.655l5.721-25.103c.057-.422-.202-.815-.58-.88z" fill="#ADC4FF"/><path d="M163.17 81.94l207.68-.008" stroke="#1D52C7" stroke-width=".6" stroke-linecap="round" stroke-linejoin="round"/><path d="M216 97h13.5m-.75 6H237m4 0h18m-42.25 5h15m5.25 0h15m5.25 0h15m-55.5 5h15m3.25 0h15m3 0h13m-37.25 20H237m4 0h8.25m3.75 0h24m-60.25 5h15m3.25 0h15m3 0h7m-11 5h7m8-5h14m-61 5h29m-29-25h20m4 0h11.25m3.75 0h26m-65 5h20m3 0h7m3 0h15m3.5 0h7m-53.5 5h15m3 0h26" stroke="#1D52C7" stroke-linecap="round" stroke-linejoin="round"/><path d="M346.895 208.186c8.143-1.939 13.896-6.787 13.896-13.185v-14.446a3.144 3.144 0 01-3.144-3.144c0-.199.023-.393.058-.581-6.781-1.564-10.809-2.83-10.809-2.83s-4.028 1.266-10.809 2.83c.035.188.058.382.058.581a3.145 3.145 0 01-3.145 3.144v14.446c-.001 6.398 5.753 11.246 13.895 13.185z" fill="#04254A" stroke="#4492DC" stroke-width=".6" stroke-linecap="round" stroke-linejoin="round"/><path d="M350.496 190.436c-.764 0-1.384-.62-1.384-1.383v-2.161a1.67 1.67 0 00-1.667-1.668h-1.101a1.67 1.67 0 00-1.667 1.668v2.161a1.384 1.384 0 01-2.767 0v-2.161a4.44 4.44 0 014.434-4.435h1.101a4.44 4.44 0 014.434 4.435v2.161c0 .763-.619 1.383-1.383 1.383z" fill="#04254A" stroke="#4492DC" stroke-width=".6" stroke-linecap="round" stroke-linejoin="round"/><path d="M351.323 187.762h-8.849a2.075 2.075 0 00-2.076 2.075v7.146c0 1.146.929 2.075 2.076 2.075h8.849a2.074 2.074 0 002.075-2.075v-7.146a2.074 2.074 0 00-2.075-2.075zm-3.506 6.714l.413 2.065h-2.627l.392-2.056a1.982 1.982 0 01.903-3.75c1.099 0 1.989.89 1.989 1.988 0 .764-.436 1.421-1.07 1.753z" fill="#04254A" stroke="#4492DC" stroke-width=".6" stroke-linecap="round" stroke-linejoin="round"/><path d="M143.92 36.052a1.18 1.18 0 01-1.18 1.18h-37.56a1.18 1.18 0 01-1.18-1.18V2.18c0-.652.528-1.18 1.18-1.18h31.447l7.293 7.296v27.756z" fill="#04254A" stroke="#1D52C7" stroke-width=".666" stroke-linecap="round" stroke-linejoin="round"/><path d="M108.379 9.869h15.728m-15.728 5.504h31.161m-31.161 5.505h31.161m-31.161 5.505h31.161" stroke="#ADC4FF" stroke-width=".666" stroke-linecap="round" stroke-linejoin="round"/><path d="M136.628 1h-.003v5.706c0 .878.711 1.59 1.589 1.59h5.706L136.628 1z" fill="#04254A" stroke="#2647A3" stroke-width=".999" stroke-linecap="round" stroke-linejoin="round"/><path d="M143.92 246.052a1.18 1.18 0 01-1.18 1.18h-37.56a1.18 1.18 0 01-1.18-1.18V212.18c0-.652.528-1.18 1.18-1.18h31.447l7.293 7.296v27.756z" fill="#04254A" stroke="#1D52C7" stroke-width=".666" stroke-linecap="round" stroke-linejoin="round"/><path d="M108.379 219.869h15.728m-15.728 5.504h31.161M108 231h11m-11 5h11" stroke="#ADC4FF" stroke-width=".666" stroke-linecap="round" stroke-linejoin="round"/><path d="M139.065 236.056l-2.547-2.56a.43.43 0 00-.584-.016.378.378 0 00-.017.554l2.28 2.291-2.28 2.291a.378.378 0 00.017.554.428.428 0 00.584-.016l2.547-2.56a.376.376 0 000-.538zm-11.804 2.56l-2.28-2.291 2.28-2.291a.378.378 0 00-.017-.554.43.43 0 00-.584.016l-2.547 2.56a.376.376 0 000 .538l2.547 2.56a.426.426 0 00.584.016.378.378 0 00.017-.554zm5.849-8.612c-.179-.03-.347.107-.375.307l-2.716 11.917c-.027.2.096.387.276.418a.281.281 0 00.05.004c.159 0 .299-.13.324-.311l2.716-11.917c.028-.2-.096-.387-.275-.418z" fill="#ADC4FF"/><path d="M136.628 211h-.003v5.706c0 .878.711 1.589 1.589 1.589h5.706L136.628 211z" fill="#04254A" stroke="#2647A3" stroke-width=".999" stroke-linecap="round" stroke-linejoin="round"/><path opacity=".5" d="M227.278 39.334h121.358c.812 0 1.471.659 1.471 1.47v9.74c0 .811-.659 1.47-1.471 1.47h-163.25a1.471 1.471 0 01-1.471-1.47v-9.74c0-.811.659-1.47 1.471-1.47h.333c.722 0 1.308-.585 1.308-1.307v-1.501c0-.812.659-1.47 1.47-1.47H224.5c.811 0 1.47.658 1.47 1.47v1.5c0 .723.586 1.308 1.308 1.308z" fill="#0A1E52" stroke="#4492DC" stroke-width=".6"/><path d="M342.445 44.027h4.771m-4.771 1.755h4.771m-4.771 1.757h4.771" stroke="#2647A3" stroke-width=".5" stroke-linecap="round" stroke-linejoin="round"/><path d="M338.708 47.553a1.77 1.77 0 01-1.771 1.77H188.993a1.77 1.77 0 01-1.77-1.77v-3.541c0-.978.792-1.77 1.77-1.77h147.944a1.77 1.77 0 011.771 1.77v3.541z" fill="#1D52C7"/><path d="M192.549 47.286a.43.43 0 01-.43.43h-1.685a.43.43 0 01-.43-.43v-1.685a.43.43 0 01.43-.43h1.685a.43.43 0 01.43.43v1.685zm-2.07-2.115v-.523a.8.8 0 011.598 0v.523" stroke="#ADC4FF" stroke-width=".3" stroke-linecap="round" stroke-linejoin="round"/><path d="M191.633 46.142a.357.357 0 11-.714 0 .357.357 0 01.714 0zm-.356.922v-.565" stroke="#ADC4FF" stroke-width=".3" stroke-linecap="round" stroke-linejoin="round"/><path d="M196.482 46.737h-.199V43.79h.199v1.228a.802.802 0 01.298-.343.746.746 0 01.422-.13c.199 0 .369.075.512.224a.735.735 0 01.214.532v1.436h-.199V45.34a.65.65 0 00-.154-.437.47.47 0 00-.373-.184c-.162 0-.31.06-.442.18a.87.87 0 00-.278.456v1.382zm2.464.074a.368.368 0 01-.283-.134.463.463 0 01-.114-.318v-1.585h-.303v-.154h.303v-.601h.199v.601h.288v.154h-.288v1.585c0 .083.021.154.064.214.04.06.09.09.149.09a.3.3 0 00.154-.035v.144a.54.54 0 01-.169.04zm.938 0a.367.367 0 01-.283-.134.46.46 0 01-.115-.318v-1.585h-.303v-.154h.303v-.601h.199v.601h.288v.154h-.288v1.585c0 .083.022.154.065.214.039.06.089.09.149.09a.303.303 0 00.154-.035v.144a.54.54 0 01-.169.04zm.719.72h-.199V44.62h.199v.437a.783.783 0 01.283-.372.744.744 0 01.437-.14c.285 0 .512.103.681.309.172.208.258.483.258.824 0 .332-.082.597-.248.796a.803.803 0 01-.656.298.797.797 0 01-.447-.135.813.813 0 01-.308-.352v1.247zm.74-.904a.615.615 0 00.522-.263c.132-.179.199-.414.199-.705 0-.292-.067-.524-.199-.696a.615.615 0 00-.522-.264c-.205 0-.379.095-.522.284-.145.185-.218.41-.218.676 0 .268.073.496.218.685.143.19.317.283.522.283zm2.06.164a.852.852 0 01-.571-.198.607.607 0 01-.239-.482h.184c0 .142.061.265.184.367.123.1.27.15.442.15.199 0 .36-.045.482-.135a.439.439 0 00.179-.362c0-.113-.063-.21-.189-.289a1.196 1.196 0 00-.507-.144c-.225-.02-.404-.083-.536-.188a.48.48 0 01-.204-.393.47.47 0 01.204-.407c.136-.097.326-.145.571-.145.235 0 .423.052.562.154.142.103.213.24.213.413h-.188a.461.461 0 00-.189-.303.673.673 0 00-.398-.11.742.742 0 00-.427.11.335.335 0 00-.159.288c0 .113.065.209.194.288a1.2 1.2 0 00.507.144c.221.02.4.086.536.199a.53.53 0 01.199.422.53.53 0 01-.234.453c-.152.112-.357.169-.616.169zm1.313-.054v-.303h.309v.303h-.309zm0-1.814v-.303h.309v.303h-.309zm.946 2.052l1.51-3.02h.189l-1.51 3.02h-.189zm2.336 0l1.51-3.02h.189l-1.51 3.02h-.189zm2.788-.238l-.701-2.117h.189l.606 1.854.492-1.854h.224l.492 1.814.601-1.814h.194l-.701 2.117h-.189l-.512-1.834-.506 1.834h-.189zm2.937 0l-.7-2.117h.189l.606 1.854.492-1.854h.223l.492 1.814.601-1.814h.194l-.7 2.117h-.189l-.512-1.834-.507 1.834h-.189zm2.938 0l-.701-2.117h.189l.606 1.854.492-1.854h.224l.492 1.814.601-1.814h.194l-.701 2.117h-.189l-.512-1.834-.506 1.834h-.189zm2.485 0v-.303h.288v.303h-.288z" fill="#ADC4FF"/><path d="M307.999 176.004c0 1.102-.793 1.996-1.772 1.996h-88.455c-.978 0-1.772-.894-1.772-1.996v-20.008c0-1.102.794-1.996 1.772-1.996h88.456c.978 0 1.772.894 1.772 1.996l-.001 20.008zm-81.073-15.284h27.223m-27.223 5.232h64.898m-64.898 5.615h64.898" stroke="#2647A3" stroke-linecap="round" stroke-linejoin="round"/><g filter="url(#filter2_d_589_2)"><path d="M163 82h36v110h-31a5 5 0 01-5-5V82z" fill="#1D52C7"/></g><path d="M172 93h13.5m-.75 6H193m-20.25 5h15m-15 5h15m-3 20H193m-20.25 5h15m-15 5h15m-6-25H193m-11.25 5H193m-15 5h15m-21 26h13.5m-.75 6H193m-20.25 5h15m-15 5h15m-6 5H193" stroke="#ADC4FF" stroke-linecap="round" stroke-linejoin="round"/><path d="M424.662 70.7c-1.49 0-2.7-1.21-2.7-2.7 0-1.49 1.21-2.7 2.7-2.7 1.49 0 2.7 1.21 2.7 2.7 0 1.49-1.21 2.7-2.7 2.7z" stroke="#4492DC" stroke-width=".6"/><path d="M398 90.287h16.662c5.523 0 10-4.477 10-10V70.5M123 54.7c1.49 0 2.7-1.21 2.7-2.7 0-1.49-1.21-2.7-2.7-2.7-1.49 0-2.7 1.21-2.7 2.7 0 1.49 1.21 2.7 2.7 2.7z" stroke="#4492DC" stroke-width=".6"/><path d="M149.662 74.287H133c-5.523 0-10-4.477-10-10V54.5m0 143.087c1.49 0 2.7 1.21 2.7 2.7 0 1.49-1.21 2.7-2.7 2.7-1.49 0-2.7-1.21-2.7-2.7 0-1.49 1.21-2.7 2.7-2.7z" stroke="#4492DC" stroke-width=".6"/><path d="M149.662 178H133c-5.523 0-10 4.477-10 10v9.787M372 185h23.707c5.523 0 10-4.477 10-10v-13c0-5.523 4.477-10 10-10H418c5.523 0 10 4.477 10 10v9.5" stroke="#4492DC" stroke-width=".6"/><rect x="419" y="171" width="17.25" height="25.3" rx="8.625" stroke="#4492DC" stroke-width=".6"/><path d="M427.625 177.325v5.75" stroke="#4492DC" stroke-width=".6"/><defs><filter id="filter0_d_589_2" x="442" y="96" width="72" height="76" filterUnits="userSpaceOnUse" color-interpolation-filters="sRGB"><feFlood flood-opacity="0" result="BackgroundImageFix"/><feColorMatrix in="SourceAlpha" values="0 0 0 0 0 0 0 0 0 0 0 0 0 0 0 0 0 0 127 0" result="hardAlpha"/><feOffset dx="3" dy="7"/><feComposite in2="hardAlpha" operator="out"/><feColorMatrix values="0 0 0 0 0 0 0 0 0 0 0 0 0 0 0 0 0 0 0.25 0"/><feBlend in2="BackgroundImageFix" result="effect1_dropShadow_589_2"/><feBlend in="SourceGraphic" in2="effect1_dropShadow_589_2" result="shape"/></filter><filter id="filter1_d_589_2" x="0" y="92" width="114.137" height="83.3" filterUnits="userSpaceOnUse" color-interpolation-filters="sRGB"><feFlood flood-opacity="0" result="BackgroundImageFix"/><feColorMatrix in="SourceAlpha" values="0 0 0 0 0 0 0 0 0 0 0 0 0 0 0 0 0 0 127 0" result="hardAlpha"/><feOffset dx="5" dy="5"/><feComposite in2="hardAlpha" operator="out"/><feColorMatrix values="0 0 0 0 0 0 0 0 0 0 0 0 0 0 0 0 0 0 0.25 0"/><feBlend in2="BackgroundImageFix" result="effect1_dropShadow_589_2"/><feBlend in="SourceGraphic" in2="effect1_dropShadow_589_2" result="shape"/></filter><filter id="filter2_d_589_2" x="163" y="82" width="36" height="117" filterUnits="userSpaceOnUse" color-interpolation-filters="sRGB"><feFlood flood-opacity="0" result="BackgroundImageFix"/><feColorMatrix in="SourceAlpha" values="0 0 0 0 0 0 0 0 0 0 0 0 0 0 0 0 0 0 127 0" result="hardAlpha"/><feOffset dy="7"/><feComposite in2="hardAlpha" operator="out"/><feColorMatrix values="0 0 0 0 0 0 0 0 0 0 0 0 0 0 0 0 0 0 0.1 0"/><feBlend in2="BackgroundImageFix" result="effect1_dropShadow_589_2"/><feBlend in="SourceGraphic" in2="effect1_dropShadow_589_2" result="shape"/></filter><radialGradient id="paint0_radial_589_2" cx="0" cy="0" r="1" gradientUnits="userSpaceOnUse" gradientTransform="matrix(99.5 0 0 96 405 124.5)"><stop stop-color="#3747AC"/><stop offset="1" stop-color="#04254A" stop-opacity=".6"/></radialGradient></defs></svg>