<svg width="30" height="31" xmlns="http://www.w3.org/2000/svg"><defs><linearGradient x1="-2.191%" y1="3.841%" x2="70.893%" y2="67.953%" id="a"><stop stop-color="#5A9FD4" offset="0%"/><stop stop-color="#306998" offset="100%"/></linearGradient><linearGradient x1="64.646%" y1="71.723%" x2="38.891%" y2="34.36%" id="b"><stop stop-color="#FFD43B" offset="0%"/><stop stop-color="#FFE873" offset="100%"/></linearGradient></defs><g fill="none"><path d="M14.574 0c-1.216.006-2.378.11-3.4.29-3.01.533-3.558 1.646-3.558 3.7V6.7h7.116v.904H4.946c-2.068 0-3.879 1.243-4.445 3.608-.653 2.71-.682 4.401 0 7.231.506 2.107 1.714 3.608 3.782 3.608h2.446V18.8c0-2.349 2.032-4.42 4.445-4.42h7.107c1.978 0 3.558-1.63 3.558-3.616V3.989c0-1.928-1.627-3.377-3.558-3.699A22.196 22.196 0 0014.574 0zm-3.848 2.181c.735 0 1.335.61 1.335 1.36 0 .747-.6 1.352-1.335 1.352a1.343 1.343 0 01-1.335-1.352c0-.75.598-1.36 1.335-1.36z" fill="url(#a)" transform="translate(.506 .851)"/><path d="M22.726 7.605v3.16c0 2.449-2.077 4.51-4.445 4.51h-7.107c-1.947 0-3.558 1.667-3.558 3.616v6.776c0 1.928 1.677 3.062 3.558 3.615 2.252.663 4.412.783 7.107 0 1.791-.518 3.558-1.562 3.558-3.615v-2.712h-7.107v-.904h10.664c2.068 0 2.839-1.442 3.558-3.607.743-2.229.711-4.373 0-7.232-.511-2.058-1.487-3.607-3.558-3.607h-2.67zm-3.997 17.158c.737 0 1.335.604 1.335 1.352 0 .75-.598 1.36-1.335 1.36-.735 0-1.335-.61-1.335-1.36 0-.748.6-1.352 1.335-1.352z" fill="url(#b)" transform="translate(.506 .851)"/></g></svg>