<svg width="45" height="45" fill="none" xmlns="http://www.w3.org/2000/svg">
  <g clip-path="url(#clip0_1603_11)">
    <path d="M3.2 31.325v8.187a4.828 4.828 0 004.828 4.829h22.606a4.813 4.813 0 004.696-3.757M3.2 28.249V5.488A4.828 4.828 0 018.027.659H27c4.646 0 8.445 3.8 8.445 8.446v3.839" stroke="#fff" stroke-width="1.5" stroke-miterlimit="10" stroke-linecap="round" stroke-linejoin="round"/>
    <path d="M35.447 12.176a3.07 3.07 0 00-3.071-3.07h-2.381A2.994 2.994 0 0127 6.11V3.73A3.07 3.07 0 0023.93.66" stroke="#fff" stroke-width="1.5" stroke-miterlimit="10" stroke-linecap="round" stroke-linejoin="round"/>
    <path d="M25.677 12.944h13.146a2.978 2.978 0 012.978 2.978v6.328a2.978 2.978 0 01-2.978 2.978H12.531a2.978 2.978 0 01-2.977-2.978v-6.328a2.978 2.978 0 012.977-2.978h10.07" fill="#7FEBA1"/>
    <path d="M19.535 19.087a3.07 3.07 0 11-6.141 0 3.07 3.07 0 016.141 0zm-2.304.768l2.688 2.687" stroke="#333" stroke-width="1.5" stroke-miterlimit="10" stroke-linecap="round" stroke-linejoin="round"/>
    <path d="M38.823 28.3a2.978 2.978 0 012.978 2.978v6.328a2.978 2.978 0 01-2.978 2.978H12.532a2.978 2.978 0 01-2.978-2.978v-6.328a2.978 2.978 0 012.978-2.978h26.291z" fill="#333" stroke="#333" stroke-width="1.5" stroke-miterlimit="10" stroke-linecap="round" stroke-linejoin="round"/>
    <path d="M14.16 37.513l3.072-6.142 3.071 6.142m-.768-1.535h-4.607" stroke="#fff" stroke-width="1.5" stroke-miterlimit="10" stroke-linecap="round" stroke-linejoin="round"/>
    <path d="M23.374 21.39h13.82m-13.82-3.84h7.678" stroke="#333" stroke-width="1.5" stroke-miterlimit="10" stroke-linecap="round" stroke-linejoin="round"/>
    <path d="M23.374 35.808h13.82m-13.82-2.901h7.678" stroke="#fff" stroke-width="1.5" stroke-miterlimit="10" stroke-linecap="round" stroke-linejoin="round"/>
    <path d="M35.393 25.247V28.3" stroke="#333" stroke-width="1.5" stroke-miterlimit="10" stroke-linecap="round" stroke-linejoin="round"/>
  </g>
  <defs>
    <clipPath id="clip0_1603_11">
      <path fill="#fff" d="M0 0h45v45H0z"/>
    </clipPath>
  </defs>
</svg>