<svg xmlns="http://www.w3.org/2000/svg" enable-background="new 0 0 512 512" viewBox="0 0 512 512" id="qa">
  <g fill="#ffffff" class="color000000 svgShape">
    <g fill="#ffffff" class="color000000 svgShape">
      <path d="M182.695 253.553C187.937 245.647 191 236.176 191 226c0-27.57-22.43-50-50-50s-50 22.43-50 50 22.43 50 50 50c10.176 0 19.647-3.063 27.553-8.305l5.376 5.376c3.906 3.904 10.235 3.906 14.143 0 3.905-3.905 3.905-10.237 0-14.143L182.695 253.553zM168.068 238.926l-14.283-14.283c-3.906-3.904-10.236-3.904-14.143 0-3.905 3.905-3.905 10.237 0 14.143l14.283 14.283c-3.917 1.878-8.3 2.932-12.926 2.932-16.542 0-30-13.458-30-30s13.458-30 30-30 30 13.458 30 30C171 230.626 169.946 235.009 168.068 238.926zM411 176H231c-5.522 0-10 4.478-10 10s4.478 10 10 10h180c5.522 0 10-4.478 10-10S416.522 176 411 176zM411 216H231c-5.522 0-10 4.478-10 10s4.478 10 10 10h180c5.522 0 10-4.478 10-10S416.522 216 411 216zM231 276h100c5.522 0 10-4.478 10-10s-4.478-10-10-10H231c-5.522 0-10 4.478-10 10S225.478 276 231 276zM141.846 322.637c-1.421-3.98-5.19-6.637-9.417-6.637s-7.996 2.656-9.417 6.637l-28.571 80c-1.858 5.201.853 10.923 6.054 12.78 5.197 1.857 10.923-.852 12.78-6.054l5.793-16.221h26.722l5.793 16.221c1.86 5.21 7.59 7.91 12.78 6.054 5.201-1.857 7.912-7.579 6.054-12.78L141.846 322.637zM126.211 373.143l6.218-17.41 6.218 17.41H126.211zM411 316H231c-5.522 0-10 4.478-10 10s4.478 10 10 10h180c5.522 0 10-4.478 10-10S416.522 316 411 316zM411 356H231c-5.522 0-10 4.478-10 10s4.478 10 10 10h180c5.522 0 10-4.478 10-10S416.522 356 411 356zM331 396H231c-5.522 0-10 4.478-10 10s4.478 10 10 10h100c5.522 0 10-4.478 10-10S336.522 396 331 396z" fill="#ffffff" class="color000000 svgShape"></path>
      <path d="M471,1H41C18.944,1,1,18.944,1,41v430c0,22.056,17.944,40,40,40h430c22.056,0,40-17.944,40-40V41
			C511,18.944,493.056,1,471,1z M491,471c0,11.028-8.972,20-20,20H41c-11.028,0-20-8.972-20-20V141h20v320c0,5.522,4.478,10,10,10
			h410c5.522,0,10-4.478,10-10V141h20V471z M61,451V141h390v310H61z M491,121c-16.839,0-453.981,0-470,0V41c0-11.028,8.972-20,20-20
			h430c11.028,0,20,8.972,20,20V121z" fill="#ffffff" class="color000000 svgShape"></path>
      <path d="M81 41c-16.542 0-30 13.458-30 30s13.458 30 30 30 30-13.458 30-30S97.542 41 81 41zM81 81c-5.514 0-10-4.486-10-10s4.486-10 10-10 10 4.486 10 10S86.514 81 81 81zM161 41c-16.542 0-30 13.458-30 30s13.458 30 30 30 30-13.458 30-30S177.542 41 161 41zM161 81c-5.514 0-10-4.486-10-10s4.486-10 10-10 10 4.486 10 10S166.514 81 161 81zM241 41c-16.542 0-30 13.458-30 30s13.458 30 30 30 30-13.458 30-30S257.542 41 241 41zM241 81c-5.514 0-10-4.486-10-10s4.486-10 10-10 10 4.486 10 10S246.514 81 241 81zM431 41H321c-16.542 0-30 13.458-30 30s13.458 30 30 30h110c16.542 0 30-13.458 30-30S447.542 41 431 41zM431 81H321c-5.514 0-10-4.486-10-10s4.486-10 10-10h110c5.514 0 10 4.486 10 10S436.514 81 431 81z" fill="#ffffff" class="color000000 svgShape"></path>
    </g>
  </g>
</svg>
