<?xml version="1.0" encoding="UTF-8"?>
<svg version="1.1" xmlns="http://www.w3.org/2000/svg" width="64" height="64">
<path d="M0 0 C2.35559268 1.27025134 4.12389512 2.70011364 6.1171875 4.4765625 C8.1558134 6.12607308 9.89890926 6.86213642 12.375 7.6875 C16 9 16 9 18 12 C18.804375 12.474375 19.60875 12.94875 20.4375 13.4375 C23.16642356 15.10147778 24.32920507 16.30578367 26 19 C26.6641465 22.40375082 26.59112582 25.58583405 26 29 C23.60625391 32.35124453 22.13389222 33.67243114 18.1875 34.8125 C17.465625 34.874375 16.74375 34.93625 16 35 C15.9071875 35.928125 15.9071875 35.928125 15.8125 36.875 C15 39 15 39 12.4375 40.25 C11.633125 40.4975 10.82875 40.745 10 41 C10.66 41.66 11.32 42.32 12 43 C12 45 12 47 12 49 C12.66 49.66 13.32 50.32 14 51 C14.39460023 53.32375692 14.72230092 55.6593935 15 58 C15.20625 58.94875 15.4125 59.8975 15.625 60.875 C15.74875 61.57625 15.8725 62.2775 16 63 C15 64 15 64 12.4375 64.0625 C11.633125 64.041875 10.82875 64.02125 10 64 C9.61781233 62.34385343 9.28604898 60.67542976 9 59 C9.33 58.67 9.66 58.34 10 58 C10.04063832 56.33382885 10.042721 54.66611905 10 53 C7.17665424 52.0123202 7.17665424 52.0123202 4.9375 51.5 C3 51 3 51 1 50 C0.01 51.98 -0.98 53.96 -2 56 C-2.99 56 -3.98 56 -5 56 C-5 56.66 -5 57.32 -5 58 C-4.34 58 -3.68 58 -3 58 C-3 59.98 -3 61.96 -3 64 C-4.98 64 -6.96 64 -9 64 C-9 62.02 -9 60.04 -9 58 C-8.34 58 -7.68 58 -7 58 C-7 57.34 -7 56.68 -7 56 C-7.928125 55.9071875 -7.928125 55.9071875 -8.875 55.8125 C-11 55 -11 55 -12.25 52.4375 C-12.4975 51.633125 -12.745 50.82875 -13 50 C-13.99 50.66 -14.98 51.32 -16 52 C-17.66619446 52.0396713 -19.33391013 52.04384447 -21 52 C-22.25249952 53.03023457 -22.25249952 53.03023457 -22.125 55.25 C-22.07070036 58.01784097 -22.07070036 58.01784097 -21.4375 60.75 C-21.293125 61.4925 -21.14875 62.235 -21 63 C-22 64 -22 64 -24.5625 64.0625 C-25.366875 64.041875 -26.17125 64.02125 -27 64 C-27.38218767 62.34385343 -27.71395102 60.67542976 -28 59 C-27.505 58.505 -27.505 58.505 -27 58 C-26.855625 56.906875 -26.71125 55.81375 -26.5625 54.6875 C-26.06958073 51.45614036 -25.48609059 49.78641985 -24 47 C-23.42884647 44.60115517 -23 42.46463999 -23 40 C-24.65 39.34 -26.3 38.68 -28 38 C-28 37.01 -28 36.02 -28 35 C-28.721875 34.938125 -29.44375 34.87625 -30.1875 34.8125 C-34.13389222 33.67243114 -35.60625391 32.35124453 -38 29 C-38.86293764 24.85789933 -38.99264287 20.91103293 -37.0078125 17.08984375 C-34.7295892 14.21022611 -32.32814276 12.44219519 -29 11 C-28.566875 10.525625 -28.13375 10.05125 -27.6875 9.5625 C-26 8 -26 8 -22.625 6.5625 C-19.16186392 5.06976893 -16.83972883 3.43405328 -14 1 C-9.75999013 -1.12000493 -4.59128382 -0.62450712 0 0 Z M-12 35 C-10.47710379 39.2089003 -10.47710379 39.2089003 -7.125 40 C-3.90447151 40.3227314 -3.90447151 40.3227314 -1.625 38.125 C0.10124168 36.31345983 0.10124168 36.31345983 0 35 C-3.96 35 -7.92 35 -12 35 Z " fill="#E3E8ED" transform="translate(38,0)"/>
<path d="M0 0 C1.59134766 -0.02126953 1.59134766 -0.02126953 3.21484375 -0.04296875 C6.0625 0.1875 6.0625 0.1875 9.0625 2.1875 C9.0625 2.8475 9.0625 3.5075 9.0625 4.1875 C8.50046875 4.0328125 7.9384375 3.878125 7.359375 3.71875 C3.18965696 2.75432542 -0.70937635 2.38396519 -4.9375 3.1875 C-7.25071325 4.76826469 -9.08210158 6.5191665 -11.05078125 8.5078125 C-13.02042352 10.26132426 -14.27804502 10.84177244 -16.8125 11.4375 C-20.22472167 11.88207413 -20.22472167 11.88207413 -21.9375 15.1875 C-23.92930409 16.20372658 -25.92902635 17.20462992 -27.9375 18.1875 C-29.50685594 21.32621188 -29.28951103 23.72605822 -28.9375 27.1875 C-26.96341916 29.85612885 -25.36705555 31.81940045 -22.0536499 32.6725769 C-19.79220697 32.89564261 -17.57712265 32.95813201 -15.3046875 32.96484375 C-14.4722049 32.9847084 -13.63972229 33.00457306 -12.78201294 33.02503967 C-11.02219819 33.06214786 -9.26210079 33.0874821 -7.50195312 33.10180664 C-4.84120699 33.12475244 -2.18340402 33.18508384 0.4765625 33.25195312 C13.44099496 33.69729123 13.44099496 33.69729123 26.0625 31.1875 C28.71894615 28.45515539 28.96725118 26.85424175 29.5 23.125 C28.9545493 19.46268817 27.95078379 18.43394295 25.0625 16.1875 C24.010625 15.6615625 24.010625 15.6615625 22.9375 15.125 C21.0625 14.1875 21.0625 14.1875 19.0625 11.1875 C16.74043475 10.48258733 14.40656932 9.81537571 12.0625 9.1875 C11.4025 8.5275 10.7425 7.8675 10.0625 7.1875 C10.0625 6.1975 10.0625 5.2075 10.0625 4.1875 C10.5575 4.455625 11.0525 4.72375 11.5625 5 C14.39530551 6.34558262 17.28218078 7.32607384 20.2578125 8.30859375 C22.0625 9.1875 22.0625 9.1875 24.0625 12.1875 C24.866875 12.661875 25.67125 13.13625 26.5 13.625 C29.22892356 15.28897778 30.39170507 16.49328367 32.0625 19.1875 C32.7266465 22.59125082 32.65362582 25.77333405 32.0625 29.1875 C29.66875391 32.53874453 28.19639222 33.85993114 24.25 35 C23.528125 35.061875 22.80625 35.12375 22.0625 35.1875 C21.9696875 36.115625 21.9696875 36.115625 21.875 37.0625 C21.0625 39.1875 21.0625 39.1875 18.5 40.4375 C17.695625 40.685 16.89125 40.9325 16.0625 41.1875 C16.7225 41.8475 17.3825 42.5075 18.0625 43.1875 C18.0625 45.1875 18.0625 47.1875 18.0625 49.1875 C18.7225 49.8475 19.3825 50.5075 20.0625 51.1875 C20.45710023 53.51125692 20.78480092 55.8468935 21.0625 58.1875 C21.26875 59.13625 21.475 60.085 21.6875 61.0625 C21.81125 61.76375 21.935 62.465 22.0625 63.1875 C21.0625 64.1875 21.0625 64.1875 18.5 64.25 C17.695625 64.229375 16.89125 64.20875 16.0625 64.1875 C15.68031233 62.53135343 15.34854898 60.86292976 15.0625 59.1875 C15.3925 58.8575 15.7225 58.5275 16.0625 58.1875 C16.10313832 56.52132885 16.105221 54.85361905 16.0625 53.1875 C13.23915424 52.1998202 13.23915424 52.1998202 11 51.6875 C9.0625 51.1875 9.0625 51.1875 7.0625 50.1875 C6.0725 52.1675 5.0825 54.1475 4.0625 56.1875 C3.0725 56.1875 2.0825 56.1875 1.0625 56.1875 C1.0625 56.8475 1.0625 57.5075 1.0625 58.1875 C1.7225 58.1875 2.3825 58.1875 3.0625 58.1875 C3.0625 60.1675 3.0625 62.1475 3.0625 64.1875 C1.0825 64.1875 -0.8975 64.1875 -2.9375 64.1875 C-2.9375 62.2075 -2.9375 60.2275 -2.9375 58.1875 C-2.2775 58.1875 -1.6175 58.1875 -0.9375 58.1875 C-0.9375 57.5275 -0.9375 56.8675 -0.9375 56.1875 C-1.865625 56.0946875 -1.865625 56.0946875 -2.8125 56 C-4.9375 55.1875 -4.9375 55.1875 -6.1875 52.625 C-6.435 51.820625 -6.6825 51.01625 -6.9375 50.1875 C-7.9275 50.8475 -8.9175 51.5075 -9.9375 52.1875 C-11.60369446 52.2271713 -13.27141013 52.23134447 -14.9375 52.1875 C-16.18999952 53.21773457 -16.18999952 53.21773457 -16.0625 55.4375 C-16.00820036 58.20534097 -16.00820036 58.20534097 -15.375 60.9375 C-15.230625 61.68 -15.08625 62.4225 -14.9375 63.1875 C-15.9375 64.1875 -15.9375 64.1875 -18.5 64.25 C-19.304375 64.229375 -20.10875 64.20875 -20.9375 64.1875 C-21.31968767 62.53135343 -21.65145102 60.86292976 -21.9375 59.1875 C-21.4425 58.6925 -21.4425 58.6925 -20.9375 58.1875 C-20.793125 57.094375 -20.64875 56.00125 -20.5 54.875 C-20.00708073 51.64364036 -19.42359059 49.97391985 -17.9375 47.1875 C-17.36634647 44.78865517 -16.9375 42.65213999 -16.9375 40.1875 C-18.5875 39.5275 -20.2375 38.8675 -21.9375 38.1875 C-21.9375 37.1975 -21.9375 36.2075 -21.9375 35.1875 C-22.659375 35.125625 -23.38125 35.06375 -24.125 35 C-28.07139222 33.85993114 -29.54375391 32.53874453 -31.9375 29.1875 C-32.80043764 25.04539933 -32.93014287 21.09853293 -30.9453125 17.27734375 C-28.6670892 14.39772611 -26.26564276 12.62969519 -22.9375 11.1875 C-22.504375 10.713125 -22.07125 10.23875 -21.625 9.75 C-19.9375 8.1875 -19.9375 8.1875 -16.5625 6.75 C-13.09936392 5.25726893 -10.77722883 3.62155328 -7.9375 1.1875 C-5.2264923 -0.16800385 -3.02410831 0.01832793 0 0 Z M-5.9375 35.1875 C-4.41460379 39.3964003 -4.41460379 39.3964003 -1.0625 40.1875 C2.15802849 40.5102314 2.15802849 40.5102314 4.4375 38.3125 C6.16374168 36.50095983 6.16374168 36.50095983 6.0625 35.1875 C2.1025 35.1875 -1.8575 35.1875 -5.9375 35.1875 Z " fill="#0B0907" transform="translate(31.9375,-0.1875)"/>
<path d="M0 0 C1.15757813 -0.00257812 2.31515625 -0.00515625 3.5078125 -0.0078125 C4.72210938 -0.00007812 5.93640625 0.00765625 7.1875 0.015625 C8.40179688 0.00789062 9.61609375 0.00015625 10.8671875 -0.0078125 C12.60355469 -0.00394531 12.60355469 -0.00394531 14.375 0 C15.44105469 0.00225586 16.50710937 0.00451172 17.60546875 0.00683594 C20.1875 0.265625 20.1875 0.265625 22.1875 2.265625 C22.453125 5.453125 22.453125 5.453125 22.4375 9.265625 C22.44265625 10.52375 22.4478125 11.781875 22.453125 13.078125 C22.1875 16.265625 22.1875 16.265625 20.1875 18.265625 C17.60546875 18.52441406 17.60546875 18.52441406 14.375 18.53125 C13.21742187 18.53382812 12.05984375 18.53640625 10.8671875 18.5390625 C9.65289062 18.53132813 8.43859375 18.52359375 7.1875 18.515625 C5.97320312 18.52335937 4.75890625 18.53109375 3.5078125 18.5390625 C1.77144531 18.53519531 1.77144531 18.53519531 0 18.53125 C-1.59908203 18.52786621 -1.59908203 18.52786621 -3.23046875 18.52441406 C-5.8125 18.265625 -5.8125 18.265625 -7.8125 16.265625 C-8.078125 13.078125 -8.078125 13.078125 -8.0625 9.265625 C-8.06765625 8.0075 -8.0728125 6.749375 -8.078125 5.453125 C-7.60504614 -0.22382135 -5.0171294 0.01061666 0 0 Z " fill="#62522B" transform="translate(24.8125,11.734375)"/>
<path d="M0 0 C1.59134766 -0.02126953 1.59134766 -0.02126953 3.21484375 -0.04296875 C6.0625 0.1875 6.0625 0.1875 9.0625 2.1875 C9.0625 2.8475 9.0625 3.5075 9.0625 4.1875 C8.50046875 4.0328125 7.9384375 3.878125 7.359375 3.71875 C3.18965696 2.75432542 -0.70937635 2.38396519 -4.9375 3.1875 C-7.25071325 4.76826469 -9.08210158 6.5191665 -11.05078125 8.5078125 C-13.02042352 10.26132426 -14.27804502 10.84177244 -16.8125 11.4375 C-20.22472167 11.88207413 -20.22472167 11.88207413 -21.9375 15.1875 C-23.92930409 16.20372658 -25.92902635 17.20462992 -27.9375 18.1875 C-29.50685594 21.32621188 -29.28951103 23.72605822 -28.9375 27.1875 C-26.96446454 29.85481898 -25.37621224 31.82712779 -22.05575562 32.65884399 C-19.80969878 32.86170833 -17.6106269 32.9058503 -15.35546875 32.89453125 C-14.54128983 32.90965256 -13.7271109 32.92477386 -12.88825989 32.94035339 C-10.30022364 32.98317437 -7.71335495 32.99206247 -5.125 33 C-3.36520346 33.02314883 -1.60543459 33.04851498 0.15429688 33.07617188 C4.45713419 33.13896832 8.759245 33.17134735 13.0625 33.1875 C13.0625 33.8475 13.0625 34.5075 13.0625 35.1875 C11.4125 35.1875 9.7625 35.1875 8.0625 35.1875 C7.98 35.785625 7.8975 36.38375 7.8125 37 C6.80115789 39.94974781 5.81837853 40.73703762 3.0625 42.1875 C-1.00144684 42.69549336 -3.04362646 42.8521752 -6.375 40.375 C-7.9375 38.1875 -7.9375 38.1875 -7.9375 35.1875 C-11.5675 35.1875 -15.1975 35.1875 -18.9375 35.1875 C-18.9375 35.8475 -18.9375 36.5075 -18.9375 37.1875 C-17.2875 37.1875 -15.6375 37.1875 -13.9375 37.1875 C-13.12782562 40.10232778 -12.71904007 41.64863217 -13.875 44.5 C-14.225625 45.056875 -14.57625 45.61375 -14.9375 46.1875 C-14.2775 46.8475 -13.6175 47.5075 -12.9375 48.1875 C-10.96213255 47.83963292 -10.96213255 47.83963292 -8.9375 47.1875 C-7.9475 47.1875 -6.9575 47.1875 -5.9375 47.1875 C-7.625 49.6875 -7.625 49.6875 -9.9375 52.1875 C-12.625 52.4375 -12.625 52.4375 -14.9375 52.1875 C-16.18999952 53.21773457 -16.18999952 53.21773457 -16.0625 55.4375 C-16.00820036 58.20534097 -16.00820036 58.20534097 -15.375 60.9375 C-15.230625 61.68 -15.08625 62.4225 -14.9375 63.1875 C-15.9375 64.1875 -15.9375 64.1875 -18.5 64.25 C-19.304375 64.229375 -20.10875 64.20875 -20.9375 64.1875 C-21.31968767 62.53135343 -21.65145102 60.86292976 -21.9375 59.1875 C-21.4425 58.6925 -21.4425 58.6925 -20.9375 58.1875 C-20.793125 57.094375 -20.64875 56.00125 -20.5 54.875 C-20.00708073 51.64364036 -19.42359059 49.97391985 -17.9375 47.1875 C-17.36634647 44.78865517 -16.9375 42.65213999 -16.9375 40.1875 C-18.5875 39.5275 -20.2375 38.8675 -21.9375 38.1875 C-21.9375 37.1975 -21.9375 36.2075 -21.9375 35.1875 C-22.659375 35.125625 -23.38125 35.06375 -24.125 35 C-28.07139222 33.85993114 -29.54375391 32.53874453 -31.9375 29.1875 C-32.80043764 25.04539933 -32.93014287 21.09853293 -30.9453125 17.27734375 C-28.6670892 14.39772611 -26.26564276 12.62969519 -22.9375 11.1875 C-22.504375 10.713125 -22.07125 10.23875 -21.625 9.75 C-19.9375 8.1875 -19.9375 8.1875 -16.5625 6.75 C-13.09936392 5.25726893 -10.77722883 3.62155328 -7.9375 1.1875 C-5.2264923 -0.16800385 -3.02410831 0.01832793 0 0 Z M-5.9375 35.1875 C-4.41460379 39.3964003 -4.41460379 39.3964003 -1.0625 40.1875 C2.15802849 40.5102314 2.15802849 40.5102314 4.4375 38.3125 C6.16374168 36.50095983 6.16374168 36.50095983 6.0625 35.1875 C2.1025 35.1875 -1.8575 35.1875 -5.9375 35.1875 Z " fill="#090806" transform="translate(31.9375,-0.1875)"/>
<path d="M0 0 C0.495 0.99 0.495 0.99 1 2 C1.99 2 2.98 2 4 2 C4 2.66 4 3.32 4 4 C2.35 4.33 0.7 4.66 -1 5 C-0.7525 6.3921875 -0.7525 6.3921875 -0.5 7.8125 C0 11 0 11 0 14 C-0.66 14.66 -1.32 15.32 -2 16 C-4.45098556 15.60467975 -6.63904279 14.78698574 -9 14 C-9.99 14.495 -9.99 14.495 -11 15 C-11.65555119 17.52733235 -11.65555119 17.52733235 -12 20 C-13.98 20 -15.96 20 -18 20 C-18.33 18.35 -18.66 16.7 -19 15 C-20.89179203 14.3185177 -20.89179203 14.3185177 -23 14 C-23.66 14.66 -24.32 15.32 -25 16 C-27 15.8125 -27 15.8125 -29 15 C-29.66 14.01 -30.32 13.02 -31 12 C-30.34 11.01 -29.68 10.02 -29 9 C-29 7.68 -29 6.36 -29 5 C-30.65 4.67 -32.3 4.34 -34 4 C-34 3.34 -34 2.68 -34 2 C-30.29227108 1.71672699 -26.69718548 1.54126502 -23 2 C-20.875 4.4375 -20.875 4.4375 -20 7 C-18.84354174 8.37375369 -18.84354174 8.37375369 -15.6875 8.25 C-11.87883379 7.99178534 -10.59688249 7.69676259 -8 5 C-7.67 4.01 -7.34 3.02 -7 2 C-3.4375 0.8125 -3.4375 0.8125 0 0 Z " fill="#766975" transform="translate(47,33)"/>
<path d="M0 0 C0.53625 0.598125 1.0725 1.19625 1.625 1.8125 C3.94697914 4.15383264 3.94697914 4.15383264 7.125 5.5625 C10 7 10 7 12 10 C12.08203125 12.15625 12.08203125 12.15625 11.8125 14.5 C11.73644531 15.2734375 11.66039062 16.046875 11.58203125 16.84375 C10.86843797 19.48739761 10.13420533 20.29736688 8 22 C-2.34738516 25.13083691 -13.66468256 24.04114765 -24.3125 23.625 C-26.03577011 23.56660056 -27.75907787 23.50930147 -29.48242188 23.453125 C-33.6554897 23.31473918 -37.82776789 23.16156344 -42 23 C-42 22.67 -42 22.34 -42 22 C-40.91992676 21.98541748 -39.83985352 21.97083496 -38.72705078 21.95581055 C-34.72736162 21.89792454 -30.72824124 21.82069227 -26.72900391 21.73754883 C-24.99667579 21.70425357 -23.264238 21.67623603 -21.53173828 21.65356445 C-19.04411993 21.62010193 -16.55751096 21.56779342 -14.0703125 21.51171875 C-13.29317902 21.50532883 -12.51604553 21.4989389 -11.71536255 21.49235535 C-9.30032073 21.46033102 -9.30032073 21.46033102 -6 21 C-3.73045369 17.59568053 -3.63450051 15.83475798 -3.375 11.8125 C-3.30023438 10.72582031 -3.22546875 9.63914062 -3.1484375 8.51953125 C-3.09945312 7.68808594 -3.05046875 6.85664063 -3 6 C-2.34 6.99 -1.68 7.98 -1 9 C-0.67 6.03 -0.34 3.06 0 0 Z " fill="#D1DDE2" transform="translate(50,10)"/>
<path d="M0 0 C3.63 0 7.26 0 11 0 C11 0.33 11 0.66 11 1 C9.02 1 7.04 1 5 1 C5 4.3 5 7.6 5 11 C5.66 11 6.32 11 7 11 C7 10.01 7 9.02 7 8 C7.61875 7.71125 8.2375 7.4225 8.875 7.125 C11.13325765 6.06279958 11.13325765 6.06279958 13 4 C13 6.31 13 8.62 13 11 C13.66 11 14.32 11 15 11 C15 11.66 15 12.32 15 13 C8.73 13 2.46 13 -4 13 C-3.34 12.01 -2.68 11.02 -2 10 C-0.35 10.33 1.3 10.66 3 11 C2.505 9.9275 2.01 8.855 1.5 7.75 C0.11346089 4.74583192 0 3.54065105 0 0 Z " fill="#FBCE59" transform="translate(27,15)"/>
<path d="M0 0 C10.89 0 21.78 0 33 0 C33 0.66 33 1.32 33 2 C31.35 2 29.7 2 28 2 C27.9175 2.598125 27.835 3.19625 27.75 3.8125 C26.73865789 6.76224781 25.75587853 7.54953762 23 9 C18.97403256 9.50324593 16.90047773 9.64649683 13.5625 7.25 C12 5 12 5 12 1 C8.04 1 4.08 1 0 1 C0 0.67 0 0.34 0 0 Z M14 2 C15.52289621 6.2089003 15.52289621 6.2089003 18.875 7 C22.09552849 7.3227314 22.09552849 7.3227314 24.375 5.125 C26.10124168 3.31345983 26.10124168 3.31345983 26 2 C22.04 2 18.08 2 14 2 Z " fill="#040304" transform="translate(12,33)"/>
<path d="M0 0 C0.495 0.268125 0.99 0.53625 1.5 0.8125 C4.33280551 2.15808262 7.21968078 3.13857384 10.1953125 4.12109375 C12 5 12 5 14 8 C14.804375 8.474375 15.60875 8.94875 16.4375 9.4375 C19.13555378 11.08265475 20.46514907 12.25342465 22 15 C22.1875 17.75 22.1875 17.75 22 20 C21.34 20.33 20.68 20.66 20 21 C19.731875 20.071875 19.46375 19.14375 19.1875 18.1875 C17.7585168 14.35180826 16.59028827 12.77104886 12.9375 11 C11 10 11 10 9 7 C6.67793475 6.29508733 4.34406932 5.62787571 2 5 C1.34 4.34 0.68 3.68 0 3 C0 2.01 0 1.02 0 0 Z " fill="#0E0F0F" transform="translate(42,4)"/>
<path d="M0 0 C0 3.63 0 7.26 0 11 C-0.66 11 -1.32 11 -2 11 C-2.33 9.35 -2.66 7.7 -3 6 C-4.65 6.66 -6.3 7.32 -8 8 C-8 8.99 -8 9.98 -8 11 C-8.66 11 -9.32 11 -10 11 C-10 7.7 -10 4.4 -10 1 C-6.56484998 0.37542727 -3.50935186 0 0 0 Z " fill="#8D7432" transform="translate(42,15)"/>
<path d="M0 0 C0.99 0.66 1.98 1.32 3 2 C3 2.66 3 3.32 3 4 C2.43796875 3.8453125 1.8759375 3.690625 1.296875 3.53125 C-2.87066544 2.56732908 -6.77553972 2.1868708 -11 3 C-13.35275301 4.63102462 -15.18348857 6.35895496 -17.11328125 8.46875 C-19.52551083 10.42650154 -20.97362722 10.29169858 -24 10 C-22.72105909 6.16317727 -21.47323753 5.92957641 -18 4 C-17.154375 3.278125 -16.30875 2.55625 -15.4375 1.8125 C-10.4467738 -0.81897382 -5.54695719 -0.68836698 0 0 Z " fill="#040404" transform="translate(38,0)"/>
<path d="M0 0 C6.27 0 12.54 0 19 0 C19 4.62 19 9.24 19 14 C18.01 14 17.02 14 16 14 C16 9.71 16 5.42 16 1 C10.72 1 5.44 1 0 1 C0 0.67 0 0.34 0 0 Z " fill="#D4A53E" transform="translate(26,14)"/>
<path d="M0 0 C3.44216672 2.6598561 3.99504674 5.90288286 5 10 C4.34 10 3.68 10 3 10 C3 9.34 3 8.68 3 8 C1.02 8.66 -0.96 9.32 -3 10 C-2.49287967 6.28111761 -1.88391785 3.26545761 0 0 Z " fill="#332912" transform="translate(25,16)"/>
<path d="M0 0 C0.66 0 1.32 0 2 0 C1.45838092 3.79133356 0.00716275 5.66109564 -3 8 C-5.75 8.25 -5.75 8.25 -8 8 C-6.74157232 4.22471696 -5.37506571 3.89332955 -2 2 C-1.34 1.34 -0.68 0.68 0 0 Z " fill="#171718" transform="translate(22,2)"/>
<path d="M0 0 C1.65 0 3.3 0 5 0 C5 0.99 5 1.98 5 3 C4.01 2.67 3.02 2.34 2 2 C2 2.99 2 3.98 2 5 C2.99 5.33 3.98 5.66 5 6 C4.01 6.33 3.02 6.66 2 7 C2 7.99 2 8.98 2 10 C1.34 10 0.68 10 0 10 C0 6.7 0 3.4 0 0 Z " fill="#1E180A" transform="translate(32,16)"/>
<path d="M0 0 C0.33 0.66 0.66 1.32 1 2 C1.99 2 2.98 2 4 2 C4 2.66 4 3.32 4 4 C-0.01804691 4.84098656 -3.01803543 5.05404945 -7 4 C-7 3.34 -7 2.68 -7 2 C-4.69 1.34 -2.38 0.68 0 0 Z " fill="#665D66" transform="translate(47,33)"/>
<path d="M0 0 C3.63 0 7.26 0 11 0 C11 0.66 11 1.32 11 2 C6.98195309 2.84098656 3.98196457 3.05404945 0 2 C0 1.34 0 0.68 0 0 Z " fill="#655B65" transform="translate(13,35)"/>
<path d="M0 0 C0.66 0.33 1.32 0.66 2 1 C2.625 3.5625 2.625 3.5625 3 6 C2.34 6 1.68 6 1 6 C1 5.34 1 4.68 1 4 C-0.98 4.66 -2.96 5.32 -5 6 C-5 4.68 -5 3.36 -5 2 C-2.525 2.495 -2.525 2.495 0 3 C0 2.01 0 1.02 0 0 Z " fill="#1D180A" transform="translate(27,20)"/>
<path d="M0 0 C2.97 0.495 2.97 0.495 6 1 C6.33 1.99 6.66 2.98 7 4 C4.61435923 3.42415568 2.33317216 2.77772405 0 2 C0 1.34 0 0.68 0 0 Z " fill="#131414" transform="translate(34,0)"/>
</svg>
