<?xml version="1.0" encoding="UTF-8"?>
<svg version="1.1" xmlns="http://www.w3.org/2000/svg" width="1826" height="1908">
<path d="M0 0 C602.58 0 1205.16 0 1826 0 C1826 629.64 1826 1259.28 1826 1908 C1223.42 1908 620.84 1908 0 1908 C0 1278.36 0 648.72 0 0 Z " fill="#43B02A" transform="translate(0,0)"/>
<path d="M0 0 C602.58 0 1205.16 0 1826 0 C1826 629.64 1826 1259.28 1826 1908 C1821.71 1908 1817.42 1908 1813 1908 C1814.65 1906.68 1816.3 1905.36 1818 1904 C1822.79590956 1898.62576435 1822.56380223 1893.7492474 1822.50139666 1886.89987373 C1822.50700592 1885.77075605 1822.51261519 1884.64163836 1822.51839444 1883.47830499 C1822.53239865 1879.66558774 1822.51772462 1875.85351049 1822.50336456 1872.040802 C1822.50531074 1869.2796413 1822.51329155 1866.51850534 1822.52098203 1863.75735545 C1822.53457304 1857.72011545 1822.53321672 1851.68301973 1822.52224785 1845.64577651 C1822.50590109 1836.60781977 1822.5125686 1827.56998047 1822.52377842 1818.53202112 C1822.54220103 1803.13028171 1822.54156743 1787.72859508 1822.53065491 1772.32685089 C1822.51965964 1756.71335021 1822.51732067 1741.09988429 1822.52560425 1725.48638153 C1822.52612094 1724.50114786 1822.52663763 1723.5159142 1822.52716998 1722.50082496 C1822.529303 1718.4882899 1822.53149782 1714.47575489 1822.53377108 1710.46321991 C1822.55494307 1673.06627327 1822.55635677 1635.66934994 1822.54518127 1598.2723999 C1822.5446845 1596.60924931 1822.5446845 1596.60924931 1822.54417769 1594.91249972 C1822.54384597 1593.80196714 1822.54351426 1592.69143457 1822.54317249 1591.5472495 C1822.53308862 1557.74424506 1822.53047006 1523.94125026 1822.53526306 1490.13824463 C1822.53557298 1487.87657472 1822.5358816 1485.61490481 1822.53618894 1483.3532349 C1822.53743076 1474.26502338 1822.53870542 1465.17681186 1822.540028 1456.08860034 C1822.54369643 1430.68167644 1822.54597854 1405.27475251 1822.54717255 1379.86782837 C1822.54725442 1378.13222423 1822.54725442 1378.13222423 1822.54733795 1376.36155738 C1822.54897559 1339.48016236 1822.54446474 1302.59877068 1822.53577423 1265.71737671 C1822.53549323 1264.52077511 1822.53521224 1263.3241735 1822.53492273 1262.09131125 C1822.53034268 1242.65802481 1822.52546495 1223.22473844 1822.52056203 1203.79145208 C1822.50113598 1126.71187021 1822.50203762 1049.63231613 1822.52148438 972.55273438 C1822.52636895 953.12936404 1822.53121307 933.7059937 1822.53577423 914.28262329 C1822.53605602 913.08673251 1822.53633782 911.89084172 1822.53662815 910.65871182 C1822.54525003 873.81653131 1822.54891052 836.97435312 1822.54717255 800.13217163 C1822.54711821 798.97594678 1822.54706387 797.81972192 1822.54700789 796.62845995 C1822.54575809 771.2499877 1822.54322378 745.87151569 1822.53953053 720.49304368 C1822.53821391 711.4128496 1822.5369616 702.33265552 1822.53572769 693.25246144 C1822.53541814 690.99344742 1822.53510322 688.73443341 1822.53478291 686.4754194 C1822.53000417 652.67944229 1822.53408277 618.88347604 1822.54417769 585.08750028 C1822.54450888 583.97873322 1822.54484006 582.86996616 1822.54518127 581.7276001 C1822.545512 580.62086923 1822.54584273 579.51413836 1822.54618348 578.37387019 C1822.55720421 541.08708495 1822.55318273 503.8003277 1822.5320583 466.51354647 C1822.52984878 462.5135705 1822.52770197 458.5135945 1822.52560425 454.51361847 C1822.52508342 453.53192486 1822.52456259 452.55023124 1822.52402598 451.53878934 C1822.51612153 435.96404227 1822.52164517 420.38932988 1822.53268027 404.81458594 C1822.54323454 389.51791934 1822.53959642 374.22131152 1822.52062392 358.92465242 C1822.50991271 349.94509856 1822.51023567 340.96570546 1822.52655031 331.98615912 C1822.53628271 326.03227531 1822.53166587 320.0785174 1822.51508289 314.12464892 C1822.5060736 310.74315416 1822.50561291 307.36224537 1822.51834896 303.98072276 C1822.53104966 300.35354808 1822.51941565 296.72725891 1822.50139666 293.10012627 C1822.51095962 292.05053504 1822.52052259 291.00094381 1822.53037535 289.91954679 C1822.46965381 283.96318291 1821.95185608 280.54926756 1818 276 C1814.96879879 273.6183419 1811.74046534 273.62867834 1807.9453125 273.76171875 C1802.34599726 274.44757865 1799.37481355 278.63744916 1795.953125 282.69140625 C1793.8516186 285.17538682 1791.68455133 287.58882005 1789.5 290 C1786.81016569 292.98062721 1784.13689636 295.97245233 1781.5 299 C1778.10625985 302.89651647 1774.64569997 306.73064945 1771.18359375 310.56640625 C1769.29151315 312.67511146 1767.42094242 314.79919801 1765.5625 316.9375 C1761.91062947 321.13164365 1758.15733816 325.23094292 1754.41015625 329.33984375 C1751.83006864 332.18755795 1749.29798144 335.07244018 1746.77734375 337.97265625 C1744.70640513 340.33489173 1742.60487152 342.66795853 1740.5 345 C1737.81016569 347.98062721 1735.13689636 350.97245233 1732.5 354 C1727.62856797 359.58979989 1722.6410485 365.07534898 1717.671875 370.578125 C1713.68295423 375.00121401 1709.72432093 379.44615005 1705.8125 383.9375 C1702.96852205 387.17375077 1700.07387299 390.36408668 1697.1875 393.5625 C1695.27445851 395.69417481 1693.38112388 397.8401911 1691.5 400 C1686.62856797 405.58979989 1681.6410485 411.07534898 1676.671875 416.578125 C1672.68295423 421.00121401 1668.72432093 425.44615005 1664.8125 429.9375 C1661.96852205 433.17375077 1659.07387299 436.36408668 1656.1875 439.5625 C1654.27445851 441.69417481 1652.38112388 443.8401911 1650.5 446 C1645.62856797 451.58979989 1640.6410485 457.07534898 1635.671875 462.578125 C1631.68295423 467.00121401 1627.72432093 471.44615005 1623.8125 475.9375 C1620.96852205 479.17375077 1618.07387299 482.36408668 1615.1875 485.5625 C1613.27445851 487.69417481 1611.38112388 489.8401911 1609.5 492 C1604.62856797 497.58979989 1599.6410485 503.07534898 1594.671875 508.578125 C1590.68295423 513.00121401 1586.72432093 517.44615005 1582.8125 521.9375 C1579.96852205 525.17375077 1577.07387299 528.36408668 1574.1875 531.5625 C1572.27445851 533.69417481 1570.38112388 535.8401911 1568.5 538 C1563.62856797 543.58979989 1558.6410485 549.07534898 1553.671875 554.578125 C1549.68295423 559.00121401 1545.72432093 563.44615005 1541.8125 567.9375 C1538.96852205 571.17375077 1536.07387299 574.36408668 1533.1875 577.5625 C1531.27445851 579.69417481 1529.38112388 581.8401911 1527.5 584 C1522.62856797 589.58979989 1517.6410485 595.07534898 1512.671875 600.578125 C1508.68295423 605.00121401 1504.72432093 609.44615005 1500.8125 613.9375 C1497.9673071 617.1751333 1495.07146164 620.3668629 1492.18359375 623.56640625 C1490.29151315 625.67511146 1488.42094242 627.79919801 1486.5625 629.9375 C1482.91062947 634.13164365 1479.15733816 638.23094292 1475.41015625 642.33984375 C1472.83006864 645.18755795 1470.29798144 648.07244018 1467.77734375 650.97265625 C1465.70640513 653.33489173 1463.60487152 655.66795853 1461.5 658 C1458.81016569 660.98062721 1456.13689636 663.97245233 1453.5 667 C1448.62856797 672.58979989 1443.6410485 678.07534898 1438.671875 683.578125 C1434.68295423 688.00121401 1430.72432093 692.44615005 1426.8125 696.9375 C1423.96852205 700.17375077 1421.07387299 703.36408668 1418.1875 706.5625 C1416.27445851 708.69417481 1414.38112388 710.8401911 1412.5 713 C1407.62856797 718.58979989 1402.6410485 724.07534898 1397.671875 729.578125 C1393.68295423 734.00121401 1389.72432093 738.44615005 1385.8125 742.9375 C1382.96852205 746.17375077 1380.07387299 749.36408668 1377.1875 752.5625 C1375.27445851 754.69417481 1373.38112388 756.8401911 1371.5 759 C1366.62856797 764.58979989 1361.6410485 770.07534898 1356.671875 775.578125 C1352.68295423 780.00121401 1348.72432093 784.44615005 1344.8125 788.9375 C1341.96852205 792.17375077 1339.07387299 795.36408668 1336.1875 798.5625 C1334.27445851 800.69417481 1332.38112388 802.8401911 1330.5 805 C1325.62856797 810.58979989 1320.6410485 816.07534898 1315.671875 821.578125 C1311.68295423 826.00121401 1307.72432093 830.44615005 1303.8125 834.9375 C1300.9673071 838.1751333 1298.07146164 841.3668629 1295.18359375 844.56640625 C1293.29151315 846.67511146 1291.42094242 848.79919801 1289.5625 850.9375 C1285.91062947 855.13164365 1282.15733816 859.23094292 1278.41015625 863.33984375 C1275.83006864 866.18755795 1273.29798144 869.07244018 1270.77734375 871.97265625 C1268.70640513 874.33489173 1266.60487152 876.66795853 1264.5 879 C1261.81016569 881.98062721 1259.13689636 884.97245233 1256.5 888 C1251.62856797 893.58979989 1246.6410485 899.07534898 1241.671875 904.578125 C1237.68295423 909.00121401 1233.72432093 913.44615005 1229.8125 917.9375 C1226.97463526 921.16679436 1224.08711565 924.3509776 1221.203125 927.5390625 C1219.18626087 929.79194264 1217.21491891 932.07689919 1215.25 934.375 C1210.03938994 940.31629331 1205.55606498 943.59320848 1197.5 944.3125 C1189.76612722 943.62197564 1185.39680911 938.81741523 1180.22265625 933.55078125 C1179.49308212 932.81933395 1178.763508 932.08788666 1178.01182556 931.33427429 C1176.47286422 929.78860746 1174.93749646 928.23935532 1173.40551758 926.68676758 C1171.08072931 924.33097245 1168.74558509 921.9858719 1166.40820312 919.64257812 C1164.90823275 918.13342988 1163.40886425 916.62368314 1161.91015625 915.11328125 C1161.22139908 914.4202742 1160.53264191 913.72726715 1159.82301331 913.01325989 C1155.95180231 909.08576525 1152.26602925 905.05202208 1148.66038513 900.8802948 C1146.18031619 898.07175319 1143.54501959 895.43912861 1140.875 892.8125 C1140.32440918 892.2656958 1139.77381836 891.7188916 1139.20654297 891.15551758 C1137.47349183 889.43450493 1135.73720227 887.71682168 1134 886 C1121.21673696 873.36670821 1121.21673696 873.36670821 1115.9140625 867.13671875 C1111.18993447 861.86304929 1106.03420152 856.97514105 1101 852 C1088.21673696 839.36670821 1088.21673696 839.36670821 1082.9140625 833.13671875 C1078.18993447 827.86304929 1073.03420152 822.97514105 1068 818 C1055.21673696 805.36670821 1055.21673696 805.36670821 1049.9140625 799.13671875 C1045.18993447 793.86304929 1040.03420152 788.97514105 1035 784 C1022.21673696 771.36670821 1022.21673696 771.36670821 1016.9140625 765.13671875 C1012.18993447 759.86304929 1007.03420152 754.97514105 1002 750 C989.21673696 737.36670821 989.21673696 737.36670821 983.9140625 731.13671875 C979.18993447 725.86304929 974.03420152 720.97514105 969 716 C956.21673696 703.36670821 956.21673696 703.36670821 950.9140625 697.13671875 C946.18993447 691.86304929 941.03420152 686.97514105 936 682 C923.2163024 669.36627874 923.2163024 669.36627874 919.49609375 664.9921875 C916.47271535 661.4393224 913.22332196 658.16219462 909.91015625 654.8828125 C909.35742035 654.33558533 908.80468445 653.78835815 908.23519897 653.22454834 C905.93653265 650.95345562 903.63444217 648.68591697 901.32739258 646.42333984 C880.99836543 626.45995304 880.99836543 626.45995304 880.625 617.3125 C880.57601562 616.50425781 880.52703125 615.69601562 880.4765625 614.86328125 C881.77956978 607.73563696 887.64402547 601.65772003 892 596.0625 C893.15634573 594.56387594 894.31259295 593.06517587 895.46875 591.56640625 C896.05527344 590.80859863 896.64179687 590.05079102 897.24609375 589.27001953 C900.01153248 585.69080888 902.75509962 582.09496901 905.5 578.5 C906.58321842 577.08324546 907.66655201 575.66657898 908.75 574.25 C909.28625 573.54875 909.8225 572.8475 910.375 572.125 C925 553 939.625 533.875 954.25 514.75 C954.78665283 514.04818604 955.32330566 513.34637207 955.8762207 512.62329102 C956.95533993 511.21220999 958.03460335 509.80123922 959.11401367 508.39038086 C961.88803918 504.76416265 964.65923399 501.13583389 967.42578125 497.50390625 C970.1349822 493.94827396 972.85221212 490.39894247 975.57666016 486.85498047 C976.86231116 485.17944422 978.14058824 483.4982562 979.41796875 481.81640625 C980.10503906 480.92824219 980.79210937 480.04007812 981.5 479.125 C982.0671875 478.38507813 982.634375 477.64515625 983.21875 476.8828125 C986.22269137 473.70759377 988.76543937 472.17150967 993.12109375 471.56640625 C1003.11469516 471.55463522 1006.86083964 473.8640281 1013.9375 480.75 C1017.44933558 484.33499882 1020.82655764 487.99366307 1024.08984375 491.8046875 C1026.50833385 494.58422008 1029.0028069 497.291451 1031.5 500 C1035.10040142 503.90956041 1038.64418191 507.85867143 1042.125 511.875 C1044.54550142 514.61823494 1047.02204178 517.30881243 1049.5 520 C1053.1441694 523.95859723 1056.73913779 527.95176832 1060.265625 532.015625 C1063.79500714 536.05374691 1067.40634226 540.01914681 1071 544 C1072.50028679 545.66640851 1074.00028872 547.33307353 1075.5 549 C1076.2425 549.825 1076.985 550.65 1077.75 551.5 C1093.5 569 1093.5 569 1095.7421875 571.4921875 C1097.26708244 573.18592894 1098.79315402 574.87861169 1100.3203125 576.5703125 C1103.69912708 580.31564256 1107.06895965 584.06518207 1110.375 587.875 C1113.82851561 591.84252724 1117.3900394 595.7084764 1120.95263672 599.57763672 C1124.06585044 602.9644456 1127.11244538 606.39897544 1130.125 609.875 C1132.54550142 612.61823494 1135.02204178 615.30881243 1137.5 618 C1141.1441694 621.95859723 1144.73913779 625.95176832 1148.265625 630.015625 C1151.79500714 634.05374691 1155.40634226 638.01914681 1159 642 C1160.50028679 643.66640851 1162.00028872 645.33307353 1163.5 647 C1164.23734375 647.81855469 1164.9746875 648.63710938 1165.734375 649.48046875 C1167.28931788 651.20967247 1168.84124589 652.94159058 1170.390625 654.67578125 C1179.2411795 665.73945897 1179.2411795 665.73945897 1191.8125 670.5 C1197.1495865 670.70895608 1200.93148151 668.2069798 1205 665 C1207.14590371 662.76416437 1208.9152985 660.35035528 1210.6875 657.8125 C1211.19168457 657.11616455 1211.69586914 656.4198291 1212.21533203 655.70239258 C1213.8229585 653.47711473 1215.41119863 651.23874357 1217 649 C1218.05423193 647.53779365 1219.11021826 646.07685057 1220.16796875 644.6171875 C1222.33470751 641.62616036 1224.49546824 638.63095895 1226.65234375 635.6328125 C1231.78769549 628.50933955 1237.01517178 621.45359171 1242.23388672 614.39111328 C1245.15956103 610.43008838 1248.07950306 606.46484283 1251 602.5 C1252.1666389 600.91664621 1253.33330558 599.33331288 1254.5 597.75 C1255.0775 596.96625 1255.655 596.1825 1256.25 595.375 C1261.49999999 588.25000001 1261.49999999 588.25000001 1263.25024414 585.87475586 C1264.41620806 584.29231815 1265.58206104 582.70979869 1266.74780273 581.12719727 C1269.67431443 577.15448113 1272.60277534 573.18323006 1275.53515625 569.21484375 C1281.22964599 561.50460543 1286.89882943 553.77836411 1292.5 546 C1298.68101263 537.41640731 1304.94785667 528.89798751 1311.23388672 520.39111328 C1314.15956103 516.43008838 1317.07950306 512.46484283 1320 508.5 C1321.1666389 506.91664621 1322.33330558 505.33331288 1323.5 503.75 C1324.0775 502.96625 1324.655 502.1825 1325.25 501.375 C1330.5 494.24999999 1330.5 494.24999999 1332.25024414 491.87475586 C1333.41620806 490.29231815 1334.58206104 488.70979869 1335.74780273 487.12719727 C1338.67431443 483.15448113 1341.60277534 479.18323006 1344.53515625 475.21484375 C1350.22964599 467.50460543 1355.89882943 459.77836411 1361.5 452 C1367.68101263 443.41640731 1373.94785667 434.89798751 1380.23388672 426.39111328 C1383.15956103 422.43008838 1386.07950306 418.46484283 1389 414.5 C1390.1666389 412.91664621 1391.33330558 411.33331288 1392.5 409.75 C1393.0775 408.96625 1393.655 408.1825 1394.25 407.375 C1399.5 400.24999999 1399.5 400.24999999 1401.25024414 397.87475586 C1402.41620806 396.29231815 1403.58206104 394.70979869 1404.74780273 393.12719727 C1407.67431443 389.15448113 1410.60277534 385.18323006 1413.53515625 381.21484375 C1419.22964599 373.50460543 1424.89882943 365.77836411 1430.5 358 C1436.68101263 349.41640731 1442.94785667 340.89798751 1449.23388672 332.39111328 C1452.15956094 328.43008849 1455.07957278 324.46489406 1458 320.5 C1461.50888924 315.73618529 1465.01897803 310.97328202 1468.53515625 306.21484375 C1474.27423482 298.44400126 1479.98429619 290.65511304 1485.625 282.8125 C1490.16995877 276.49363171 1494.79681273 270.24459167 1499.48535156 264.03173828 C1503.73730414 258.38335203 1507.87814346 252.65903126 1512.00610352 246.91967773 C1517.68556315 239.03008877 1523.45674297 231.20931251 1529.23388672 223.39111328 C1532.15956094 219.43008849 1535.07957278 215.46489406 1538 211.5 C1541.50888924 206.73618529 1545.01897803 201.97328202 1548.53515625 197.21484375 C1554.27423482 189.44400126 1559.98429619 181.65511304 1565.625 173.8125 C1570.16995877 167.49363171 1574.79681273 161.24459167 1579.48535156 155.03173828 C1583.73730414 149.38335203 1587.87814346 143.65903126 1592.00610352 137.91967773 C1597.68556315 130.03008877 1603.45674297 122.20931251 1609.23388672 114.39111328 C1612.15956094 110.43008849 1615.07957278 106.46489406 1618 102.5 C1621.50888924 97.73618529 1625.01897803 92.97328202 1628.53515625 88.21484375 C1634.77253218 79.76954714 1640.96685345 71.29622886 1647.10131836 62.77587891 C1651.07540105 57.26291663 1655.09030856 51.7812348 1659.125 46.3125 C1659.70540039 45.52472168 1660.28580078 44.73694336 1660.88378906 43.92529297 C1663.6629609 40.15579653 1666.45099962 36.39349708 1669.2578125 32.64453125 C1669.76425293 31.96414795 1670.27069336 31.28376465 1670.79248047 30.58276367 C1671.73227425 29.32041756 1672.67630479 28.06120927 1673.62548828 26.8059082 C1677.41289464 21.70365351 1679.79086687 17.45874609 1679 11 C1677.27387049 7.54774097 1676.08924955 5.516368 1672.56135046 3.84393748 C1667.56241727 2.6593343 1662.76417668 2.72536846 1657.64339256 2.74700034 C1656.48649778 2.74394724 1655.32960301 2.74089415 1654.13765081 2.73774853 C1650.91544281 2.73128101 1647.693384 2.73379722 1644.47118011 2.74004027 C1640.95678185 2.74464188 1637.44240355 2.73763281 1633.92800927 2.73210663 C1627.74119062 2.72399104 1621.55440557 2.72335095 1615.36758351 2.72751851 C1606.10567336 2.73372334 1596.84379414 2.72845008 1587.58188623 2.7209211 C1571.79853337 2.70843538 1556.01519147 2.70551156 1540.23183441 2.70775604 C1524.23132729 2.71000277 1508.23082949 2.70794438 1492.23032379 2.70061111 C1490.71587684 2.69992216 1490.71587684 2.69992216 1489.170835 2.69921928 C1485.05894061 2.69733606 1480.94704623 2.69542469 1476.83515186 2.6934769 C1433.91052243 2.67317329 1390.9858982 2.6670644 1348.06126451 2.66589268 C1343.43905926 2.66576318 1338.816854 2.66562731 1334.19464874 2.66548586 C1333.04768919 2.66545185 1331.90072963 2.66541784 1330.71901372 2.6653828 C1305.31973145 2.66456642 1279.92045018 2.66018832 1254.52116844 2.65517417 C1244.0677514 2.65311751 1233.61433434 2.65113747 1223.16091728 2.64914167 C1222.00596343 2.64892049 1220.85100958 2.64869931 1219.66105712 2.64847143 C1153.46447815 2.63582086 1087.26789983 2.62757347 1021.07131958 2.62848854 C1018.5932699 2.6285201 1016.11522022 2.62855157 1013.63717054 2.62858296 C1002.44856359 2.62872973 991.25995663 2.62890607 980.07134968 2.62909073 C975.08189036 2.62917297 970.09243104 2.62925327 965.10297172 2.62933335 C962.60565608 2.62937414 960.10834045 2.62941618 957.61102481 2.62945947 C878.62153493 2.63082034 799.63206298 2.61617983 720.64257812 2.58837891 C700.73794561 2.58137716 680.83331308 2.57443838 660.92868042 2.56785011 C659.09039905 2.56724149 659.09039905 2.56724149 657.21498068 2.56662057 C619.46014394 2.55419603 581.70530867 2.54666052 543.95046997 2.54413414 C542.76560777 2.54405424 541.58074557 2.54397434 540.35997845 2.54389201 C514.35296658 2.54218569 488.3459548 2.541663 462.33894288 2.54223277 C453.03386802 2.54242574 443.72879316 2.54252983 434.42371831 2.54259023 C432.10875606 2.54260605 429.79379381 2.54262646 427.47883156 2.54265147 C390.5520702 2.5430045 353.62532416 2.53159283 316.69856719 2.51434384 C279.52065453 2.49706576 242.34276311 2.49264276 205.16484814 2.50586648 C200.0331242 2.50769121 194.90140022 2.50937773 189.76967621 2.51098251 C188.76367279 2.51130269 187.75766936 2.51162286 186.72118099 2.51195274 C170.76033355 2.51666782 154.79952272 2.50792275 138.83868217 2.49364014 C123.16305973 2.4798922 107.48749161 2.48030732 91.8118704 2.49602441 C82.60968948 2.50482165 73.40766811 2.5025626 64.20550022 2.48429084 C58.10419699 2.47325953 52.00301359 2.47657394 45.90171972 2.49185641 C42.43645285 2.50012616 38.97150137 2.50203637 35.50625303 2.48635503 C31.78940647 2.47285105 28.07341956 2.48368176 24.35660744 2.50090468 C23.28064608 2.49110544 22.20468472 2.4813062 21.09611847 2.47121002 C15.25639143 2.52807601 11.49151302 2.86452425 7 7 C4.4040823 10.64987827 3.62490866 13.12282482 3.62409583 17.5819838 C3.61287417 19.26380604 3.61287417 19.26380604 3.60142581 20.97960449 C3.6084799 22.20970298 3.61553399 23.43980147 3.62280184 24.70717567 C3.61847066 26.02251065 3.61413948 27.33784562 3.60967705 28.69303924 C3.59801964 32.36506407 3.60515348 36.03685362 3.61520281 39.70887445 C3.62285216 43.71065914 3.61310673 47.71240728 3.6055623 51.71418694 C3.59469919 58.76186069 3.59507311 65.809466 3.60263533 72.85714304 C3.61390227 83.40779484 3.60794535 93.95838847 3.59857134 104.50903961 C3.58311051 122.48780132 3.58197443 140.46653886 3.58855057 158.44530487 C3.59516988 176.67317595 3.59531393 194.90102973 3.58750343 213.12890053 C3.58701543 214.27878953 3.58652744 215.42867853 3.58602465 216.61341266 C3.58401655 221.29648025 3.58196345 225.97954783 3.57985291 230.66261538 C3.55843106 278.24535715 3.55640218 325.82808614 3.56190995 373.41083152 C3.56266563 379.98977053 3.56339325 386.56870955 3.56409192 393.14764857 C3.56423101 394.45430463 3.5643701 395.76096068 3.56451341 397.10721238 C3.56746321 426.03929984 3.56445538 454.97138576 3.56019563 483.90347295 C3.55961348 487.86082254 3.55904463 491.81817214 3.55848 495.77552173 C3.55696511 506.38326034 3.5554382 516.99099895 3.55388699 527.59873756 C3.54957903 557.25400682 3.5463315 586.90927615 3.54396725 616.56454563 C3.54391314 617.23969311 3.54385903 617.91484059 3.54380329 618.61044708 C3.54032014 662.34409113 3.54167777 706.07773362 3.54635715 749.81137753 C3.54650704 751.22234435 3.54665685 752.63331117 3.54680657 754.04427799 C3.54846319 769.62150248 3.55021484 785.19872696 3.55199958 800.77595144 C3.55208008 801.4791023 3.55216058 802.18225317 3.55224352 802.90671164 C3.55248758 805.03836261 3.55273177 807.17001358 3.55297603 809.30166455 C3.55305666 810.00538706 3.55313729 810.70910957 3.55322037 811.43415701 C3.55362805 814.98991176 3.55403715 818.54566652 3.55444872 822.10142127 C3.56262828 892.83909223 3.56449864 963.57675451 3.53400741 1089.9023003 C3.52786826 1113.28642647 3.52178592 1136.67055265 3.51603794 1160.05467892 C3.51577992 1161.10181257 3.51577992 1161.10181257 3.51551668 1162.17010045 C3.50475916 1205.87962083 3.49887106 1249.58913951 3.4984808 1293.29866123 C3.49847428 1293.97359307 3.49846777 1294.6485249 3.49846105 1295.34390921 C3.49817957 1325.64802458 3.49917056 1355.95213979 3.50135112 1386.25625507 C3.50210592 1396.85496863 3.50278412 1407.45368219 3.50343127 1418.05239576 C3.50359396 1420.68920761 3.50376162 1423.32601947 3.50393428 1425.96283133 C3.50665861 1468.02661281 3.49808784 1510.09038245 3.48408018 1552.15416138 C3.46969178 1595.6803767 3.47009795 1639.20656943 3.4874549 1682.73278397 C3.48925918 1687.40175543 3.49099936 1692.07072691 3.49268913 1696.73969841 C3.49310963 1697.88558356 3.49353013 1699.03146871 3.49396338 1700.21207766 C3.50027404 1718.39459828 3.49313747 1736.57708799 3.48047993 1754.75960426 C3.46833105 1772.61585444 3.47035214 1790.47205559 3.48770025 1808.32830202 C3.49745721 1818.81153991 3.49615799 1829.29463891 3.47887027 1839.77786786 C3.46849305 1846.72750217 3.47244732 1853.6770299 3.48838676 1860.62665352 C3.49703122 1864.57439769 3.4992975 1868.52186565 3.48400303 1872.46959587 C3.46774072 1876.70244791 3.48212155 1880.93462901 3.49975401 1885.16747516 C3.49007291 1886.39518291 3.4803918 1887.62289066 3.47041733 1888.88780167 C3.52387268 1895.06213152 3.58988535 1899.26755561 8 1904 C9.65 1905.32 11.3 1906.64 13 1908 C8.71 1908 4.42 1908 0 1908 C0 1278.36 0 648.72 0 0 Z " fill="#FEFEFE" transform="translate(0,0)"/>
<path d="M0 0 C34.16725871 -0.55938909 67.0008711 0.84993422 100.61560059 7.47344971 C104.00943454 8.12699776 107.41221753 8.69732739 110.82287598 9.25469971 C118.93046522 10.59143485 126.7016379 12.64319284 134.55944824 15.04034424 C136.46116745 15.57545142 138.36289249 16.11053811 140.26477051 16.64508057 C184.40413026 29.22545689 226.47991646 48.41754253 264.55944824 74.04034424 C265.34867676 74.566604 266.13790527 75.09286377 266.9510498 75.6350708 C276.53851436 82.03548324 285.78915565 88.54712934 294.55944824 96.04034424 C295.44245605 96.72741455 296.32546387 97.41448486 297.23522949 98.12237549 C300.7342853 101.00983162 302.1325265 103.81173439 302.98522949 108.26300049 C303.61996793 116.11633293 300.15861354 121.01140456 295.55944824 127.04034424 C294.81090576 128.02333496 294.81090576 128.02333496 294.04724121 129.02618408 C291.11511195 132.85315575 288.14861962 136.65192531 285.16491699 140.43878174 C281.94401028 144.53285147 278.79645179 148.67563324 275.68444824 152.85284424 C271.01581697 159.11267765 266.2983695 165.33355132 261.55944824 171.54034424 C256.86695765 177.68800319 252.19061233 183.84635136 247.55944824 190.04034424 C246.11189842 191.97108071 244.66368626 193.90131836 243.21520996 195.83135986 C241.9990665 197.45384085 240.78482213 199.07774575 239.57165527 200.70245361 C237.42799567 203.56982525 235.27563482 206.43049884 233.12194824 209.29034424 C232.44712402 210.19655518 231.7722998 211.10276611 231.07702637 212.03643799 C221.80530401 224.30592443 221.80530401 224.30592443 214.41101074 225.34112549 C213.67624512 225.34499268 212.94147949 225.34885986 212.18444824 225.35284424 C211.45483887 225.36960205 210.72522949 225.38635986 209.97351074 225.40362549 C203.79652762 224.47407948 199.09344723 220.32446387 194.30944824 216.60284424 C165.43575855 194.64935028 133.70608696 177.79010618 99.42077637 166.03936768 C96.64424618 165.06995116 93.89668888 164.03975403 91.14538574 163.00128174 C84.97228867 160.74939771 78.68493303 159.11250967 72.30944824 157.54034424 C70.47942261 157.08752075 70.47942261 157.08752075 68.61242676 156.62554932 C60.94454223 154.76707643 53.26767558 153.09519079 45.49694824 151.72784424 C44.66840332 151.58089111 43.8398584 151.43393799 42.98620605 151.28253174 C40.18220608 150.81827178 37.37647974 150.41824399 34.55944824 150.04034424 C33.60461548 149.9111409 33.60461548 149.9111409 32.63049316 149.77932739 C19.72514476 148.08612683 6.92437007 147.69807725 -6.0826416 147.72467041 C-9.30515324 147.72783403 -12.52674605 147.70424853 -15.74914551 147.67901611 C-49.20232934 147.57636911 -82.75717343 153.70523227 -107.44055176 178.04034424 C-119.90498242 190.72785196 -124.90976945 205.69794368 -125.06555176 223.16534424 C-124.90009977 239.13939399 -120.87918568 249.31507068 -109.63977051 260.89581299 C-82.23122068 286.54364227 -38.8966284 294.85013977 -3.74523926 303.48175049 C1.01979022 304.65236639 5.76289754 305.87565209 10.49694824 307.16534424 C18.84089777 309.42098237 27.25361518 311.37493009 35.66589355 313.35626221 C41.77077043 314.79955153 47.86936295 316.26924209 53.96789551 317.73907471 C59.30825077 319.02508766 64.65099741 320.29830441 70.00085449 321.54425049 C82.05690809 324.36591922 93.93289283 327.49103005 105.75085449 331.18414307 C108.6333836 332.06288347 111.52623413 332.9024538 114.42114258 333.73934937 C123.89035359 336.48519679 133.23879431 339.51593228 142.55944824 342.72784424 C143.31236145 342.98668396 144.06527466 343.24552368 144.84100342 343.51220703 C183.6687901 356.89500144 221.88216837 373.32921327 253.55944824 400.04034424 C254.38340088 400.73112061 254.38340088 400.73112061 255.22399902 401.43585205 C265.76564051 410.28935057 274.97245394 419.22917764 283.55944824 430.04034424 C284.36640137 431.03034424 285.17335449 432.02034424 286.00476074 433.04034424 C322.14595633 478.35845783 330.69896687 538.60428236 324.43444824 594.91534424 C319.14869099 636.1131581 303.5109955 676.48056151 277.55944824 709.04034424 C276.76409668 710.04065674 275.96874512 711.04096924 275.14929199 712.07159424 C264.035526 725.74925438 251.46840354 738.38743214 237.23913574 748.80938721 C235.56237235 750.03820131 233.90457671 751.28978932 232.24694824 752.54425049 C208.37207701 770.36511165 180.75756721 782.834995 152.55944824 792.04034424 C151.49532715 792.39080811 150.43120605 792.74127197 149.33483887 793.10235596 C131.33577815 798.95016343 113.19319722 802.91223994 94.55944824 806.04034424 C93.59780762 806.20373291 92.63616699 806.36712158 91.64538574 806.53546143 C84.97309447 807.63028798 78.28856745 808.39022389 71.55944824 809.04034424 C70.89582275 809.10608643 70.23219727 809.17182861 69.54846191 809.23956299 C44.89852387 811.66111461 20.30999758 812.31682001 -4.44055176 812.29034424 C-5.45967651 812.28984385 -5.45967651 812.28984385 -6.49938965 812.28933334 C-48.03806683 812.26202738 -48.03806683 812.26202738 -68.44055176 809.04034424 C-69.30245117 808.9075708 -70.16435059 808.77479736 -71.05236816 808.63800049 C-85.97652977 806.32266806 -100.74205862 803.51250403 -115.44055176 800.04034424 C-116.48549805 799.79445557 -117.53044434 799.54856689 -118.60705566 799.29522705 C-152.27976497 791.25413362 -184.98350475 779.16507734 -215.62756348 762.99395752 C-217.59019194 761.96163503 -219.56359126 760.95187514 -221.53820801 759.94268799 C-250.26768995 745.14585033 -277.27242428 726.55423486 -301.69055176 705.40362549 C-303.33048742 703.99430578 -304.99090475 702.60751454 -306.69055176 701.27081299 C-311.35714112 697.58615181 -313.87899673 694.04241244 -314.71789551 688.06378174 C-315.1320938 679.48159311 -310.48301769 673.32157019 -305.56555176 666.72784424 C-304.39222559 665.1289953 -303.21905281 663.53003379 -302.04602051 661.93096924 C-301.44708984 661.11950439 -300.84815918 660.30803955 -300.2310791 659.47198486 C-297.42265598 655.65798236 -294.64974924 651.81857714 -291.87805176 647.97784424 C-291.3400293 647.23365234 -290.80200684 646.48946045 -290.24768066 645.72271729 C-286.1088174 639.98992488 -282.02695496 634.21845267 -277.95983887 628.43463135 C-273.79104404 622.5148743 -269.55441139 616.64591002 -265.30480957 610.78399658 C-261.55725887 605.60725713 -257.86330047 600.39533841 -254.19055176 595.16534424 C-237.75645492 571.85023911 -237.75645492 571.85023911 -231.50305176 569.22784424 C-225.52350966 568.6842495 -220.59036074 568.70156828 -215.44055176 572.04034424 C-212.72042506 574.35666747 -210.12422052 576.77924423 -207.52258301 579.22784424 C-202.68308599 583.72445874 -197.40367928 587.68011988 -192.16955566 591.70098877 C-190.54174191 592.96195831 -188.93376653 594.24841922 -187.32727051 595.53643799 C-169.35953262 609.80560721 -149.04861488 621.06893512 -128.44836426 631.06085205 C-126.46934147 632.02629945 -124.50180462 633.01261155 -122.53430176 634.00128174 C-104.19051111 643.08105366 -84.69682345 649.44226565 -64.87902832 654.42462158 C-62.67250604 654.98177509 -60.47447369 655.56390936 -58.27648926 656.15362549 C-38.19417897 661.37704845 -16.78183201 664.12134786 3.96179199 664.27862549 C5.56302666 664.29338425 5.56302666 664.29338425 7.1966095 664.30844116 C52.20254515 664.63813702 100.77495823 661.77889759 134.93835449 628.66534424 C146.912764 616.67308911 155.99701671 602.15075896 156.69226074 584.70831299 C156.68427473 581.15054476 156.64394208 577.59713259 156.55944824 574.04034424 C156.54269043 573.23081299 156.52593262 572.42128174 156.50866699 571.58721924 C155.61005158 557.72286712 147.53131009 545.11631497 137.63366699 535.77471924 C121.81354127 522.54659151 103.4313353 514.83405396 84.1854248 507.98468018 C82.06741966 507.22301748 79.96329944 506.42280675 77.86413574 505.61065674 C66.74155592 501.34560733 55.11742713 498.71762482 43.58435059 495.80987549 C40.02303074 494.90388032 36.47883154 493.9478009 32.93444824 492.97784424 C25.42608631 490.9590055 17.86153047 489.18549528 10.29675293 487.3916626 C3.23070237 485.70728885 -3.79724431 483.91271088 -10.81555176 482.04034424 C-19.31311421 479.77966078 -27.85018004 477.79147052 -36.44055176 475.91534424 C-45.85596164 473.85890876 -55.16133233 471.64979852 -64.44055176 469.04034424 C-65.73314273 468.69258287 -67.02613107 468.346296 -68.31945801 468.00128174 C-128.71640785 451.75746467 -190.44112764 430.07629154 -236.44055176 386.04034424 C-236.99887695 385.51456787 -237.55720215 384.9887915 -238.13244629 384.44708252 C-270.23747184 354.11621132 -289.3072076 311.88973444 -293.44055176 268.04034424 C-293.52595215 267.13856445 -293.61135254 266.23678467 -293.69934082 265.30767822 C-294.48463149 256.23954129 -294.68218283 247.19826793 -294.69055176 238.10284424 C-294.69155884 237.33610382 -294.69256592 236.5693634 -294.69360352 235.77938843 C-294.68229945 222.98833739 -293.86155007 210.62536133 -291.44055176 198.04034424 C-291.30133301 197.27593018 -291.16211426 196.51151611 -291.01867676 195.72393799 C-285.56499264 166.28414316 -273.00971026 137.29130067 -255.44055176 113.04034424 C-255.02885742 112.46477783 -254.61716309 111.88921143 -254.19299316 111.29620361 C-247.92674555 102.61031583 -240.86532615 94.7397712 -233.44055176 87.04034424 C-232.90494629 86.48282471 -232.36934082 85.92530518 -231.81750488 85.35089111 C-215.00363399 67.93723885 -195.63498969 53.68919562 -174.44055176 42.04034424 C-173.57833008 41.56210205 -172.7161084 41.08385986 -171.82775879 40.59112549 C-157.78417861 32.85460194 -143.55529019 26.38708865 -128.44055176 21.04034424 C-127.46956543 20.69519775 -126.4985791 20.35005127 -125.49816895 19.9944458 C-86.55429613 6.36473021 -45.82373737 0.67328472 -4.66625977 0.07287598 C-3.11081631 0.05014106 -1.5553971 0.02571194 0 0 Z " fill="#FEFEFE" transform="translate(499.4405517578125,886.9596557617188)"/>
<path d="M0 0 C1.73011322 -0.00326294 1.73011322 -0.00326294 3.49517822 -0.0065918 C23.39104231 -0.0023447 42.87531858 1.29985652 62.5 4.625 C64.41425781 4.9492395 64.41425781 4.9492395 66.3671875 5.2800293 C77.34776526 7.21668175 87.93077147 9.83629591 98.5 13.375 C99.39090332 13.67277344 100.28180664 13.97054688 101.19970703 14.27734375 C132.99774804 25.07266389 161.32142103 40.37802514 187.5 61.375 C188.52222656 62.19097656 189.54445313 63.00695313 190.59765625 63.84765625 C203.82155557 74.61612959 216.13843045 86.82665598 226.5 100.375 C227.50014564 101.63633451 228.50154612 102.89667459 229.50390625 104.15625 C256.07963742 137.83819568 274.79776024 177.87949764 285.5 219.375 C285.82484375 220.58800781 286.1496875 221.80101562 286.484375 223.05078125 C289.62744162 235.2449117 291.31011535 247.66011016 293.02880859 260.12109375 C293.3329668 262.22151889 293.66226379 264.31852829 294.02197266 266.41015625 C295.69321683 276.19820586 296.18604096 285.97081546 296.625 295.875 C296.68554565 297.2157962 296.68554565 297.2157962 296.74731445 298.5836792 C296.98846879 304.00373166 297.20668627 309.42433559 297.40637207 314.84606934 C297.46676883 316.47741172 297.5290475 318.10868604 297.59362793 319.73986816 C297.78135475 324.49329656 297.90996546 329.24369233 298 334 C298.06405029 335.74700195 298.06405029 335.74700195 298.12939453 337.52929688 C298.18100033 343.79330221 297.65877499 347.53191526 293.18554688 352.08349609 C288.98155792 355.30468693 285.7693834 355.62614451 280.47251034 355.6311264 C279.76136518 355.63452327 279.05022001 355.63792014 278.317525 355.64141995 C275.92237522 355.65042019 273.52746715 355.64514727 271.13230896 355.64001465 C269.40270148 355.64358377 267.67309564 355.64803368 265.94349247 355.65329123 C261.18104324 355.66524248 256.41866261 355.66476956 251.65620196 355.66235614 C246.52391259 355.66193755 241.39164713 355.6730261 236.2593689 355.68281555 C227.36347269 355.69828693 218.46759237 355.70668364 209.57168388 355.71052551 C196.70634402 355.71626587 183.84104699 355.73484072 170.97572602 355.75696605 C150.09946561 355.79270386 129.22320279 355.82101028 108.34692383 355.84326172 C107.09690518 355.84459671 105.84688652 355.8459317 104.55898852 355.84730715 C94.41520458 355.85808496 84.27142028 355.86850425 74.12763596 355.8789072 C65.25932548 355.888017 56.39101518 355.89726943 47.52270508 355.90673828 C46.27390103 355.90806902 45.02509699 355.90939977 43.7384504 355.91077083 C22.94041868 355.93317534 2.14240528 355.96335803 -18.65560764 355.99913073 C-31.49396025 356.02083244 -44.33228434 356.03542655 -57.17065429 356.04096949 C-65.96134732 356.04520639 -74.75201319 356.05641685 -83.54269118 356.07319343 C-88.62044761 356.08262804 -93.69815323 356.08870168 -98.77591896 356.08613014 C-103.4186703 356.0838292 -108.06131462 356.09058003 -112.70404422 356.10470897 C-114.38902386 356.10818832 -116.07401455 356.10824197 -117.75899393 356.10463637 C-120.03891013 356.1002318 -122.3184649 356.10796114 -124.59835148 356.1188736 C-125.86786657 356.12006777 -127.13738167 356.12126195 -128.44536692 356.12249231 C-131.67383629 356.14114177 -131.67383629 356.14114177 -134.5 358.375 C-134.02936113 365.1550575 -132.94096419 371.38401142 -130.9375 377.875 C-130.67646484 378.73085693 -130.41542969 379.58671387 -130.14648438 380.46850586 C-127.31458731 389.43370447 -123.61786969 397.93358363 -119.5 406.375 C-119.00757813 407.38949219 -118.51515625 408.40398437 -118.0078125 409.44921875 C-99.97050206 444.35192398 -66.83415108 470.88674112 -29.875 483.375 C-26.43518429 484.44898973 -22.97635296 485.42696534 -19.5 486.375 C-18.74299805 486.59655762 -17.98599609 486.81811523 -17.20605469 487.04638672 C-4.24077525 490.72618003 8.87819846 490.73700287 22.25 490.75 C23.55910339 490.75312698 23.55910339 490.75312698 24.89465332 490.75631714 C36.57244276 490.75316276 47.93786288 489.99542765 59.5 488.375 C60.42361328 488.25479492 61.34722656 488.13458984 62.29882812 488.01074219 C74.29779538 486.41985667 85.90167398 483.81926708 97.5 480.375 C98.31662109 480.13297852 99.13324219 479.89095703 99.97460938 479.64160156 C124.175028 472.32497694 148.05915986 461.95810961 168.8203125 447.39453125 C169.4891748 446.92732666 170.15803711 446.46012207 170.84716797 445.97875977 C172.06241094 445.11418159 173.26382971 444.22960412 174.44580078 443.32006836 C178.39610585 440.46575729 181.5479672 439.71422511 186.2956543 439.99707031 C192.35282804 441.03555796 195.43226641 443.98087037 198.96484375 448.71875 C200.13726715 450.42739032 201.29426799 452.14669188 202.4375 453.875 C203.05375244 454.78137207 203.67000488 455.68774414 204.30493164 456.62158203 C206.05119148 459.1966417 207.77859608 461.7832833 209.5 464.375 C210.2115625 465.43460938 210.923125 466.49421875 211.65625 467.5859375 C212.87004577 469.40130748 214.07815763 471.22048772 215.28125 473.04296875 C217.66700575 476.64322898 220.10184993 480.2097148 222.53710938 483.77661133 C223.81001783 485.64263887 225.07952157 487.51099323 226.34570312 489.3815918 C229.52188272 494.06424883 232.72760019 498.71736575 236.0453949 503.30058289 C237.63832763 505.50651577 239.21143456 507.72622304 240.7829895 509.94741821 C241.90941222 511.52320711 243.06270022 513.07968213 244.21655273 514.63549805 C248.401769 520.57704967 250.33722443 524.73873414 249.90014648 532.07275391 C248.67421916 539.12613684 242.72762794 543.18533073 237.23779297 547.16210938 C211.27565596 565.28235335 182.63324626 579.34615027 153.03588867 590.40649414 C150.51126958 591.37069593 148.01951727 592.39808284 145.5234375 593.43359375 C140.30712348 595.53159843 134.99705729 597.01862544 129.5625 598.4375 C128.65048828 598.68048828 127.73847656 598.92347656 126.79882812 599.17382812 C124.95455368 599.66520019 123.10949542 600.15363962 121.26367188 600.63916016 C118.5142068 601.37121738 115.77524445 602.1360396 113.03515625 602.90234375 C98.80407694 606.78515219 84.19632173 609.35065196 69.5625 611.125 C68.14686768 611.29805664 68.14686768 611.29805664 66.70263672 611.47460938 C48.29713933 613.55219246 29.88227864 613.5335162 11.38293457 613.50195312 C9.37295019 613.49999801 7.36300935 613.50195338 5.35302734 613.50537109 C-13.44264078 613.53521642 -31.81436879 613.53704976 -50.375 610.25 C-51.61604492 610.03118164 -52.85708984 609.81236328 -54.13574219 609.58691406 C-108.30491716 599.6565873 -158.45140164 575.62995179 -199.1796875 538.4765625 C-201.19397731 536.65217206 -203.24148614 534.88406198 -205.3125 533.125 C-214.95203677 524.69528363 -223.61710324 515.45905467 -231.5 505.375 C-232.38007691 504.28399833 -233.26165767 503.1942085 -234.14453125 502.10546875 C-240.79237322 493.85741548 -246.84436343 485.33126607 -252.5 476.375 C-253.09264648 475.44324951 -253.09264648 475.44324951 -253.69726562 474.49267578 C-274.83719395 440.92309238 -288.15707077 403.39479159 -294.5 364.375 C-294.61472656 363.67294434 -294.72945312 362.97088867 -294.84765625 362.24755859 C-297.65404706 344.75646145 -297.77949534 327.24839178 -297.85009766 309.58154297 C-297.86324898 306.64599131 -297.89077169 303.71116618 -297.93212891 300.77587891 C-298.30665923 273.53621025 -295.92551105 246.72064011 -288.5 220.375 C-288.16476318 219.1382251 -288.16476318 219.1382251 -287.82275391 217.87646484 C-277.02511726 178.39426942 -257.55953696 140.95351532 -231.5 109.375 C-231.04689453 108.82183105 -230.59378906 108.26866211 -230.12695312 107.69873047 C-217.72600417 92.65529742 -204.01013896 78.23031977 -188.5 66.375 C-187.41583142 65.5039557 -186.33393768 64.63007506 -185.25390625 63.75390625 C-147.88435389 33.58500874 -103.27732851 14.27980799 -56.5 4.375 C-54.8303418 4.01486816 -54.8303418 4.01486816 -53.12695312 3.64746094 C-35.52569566 0.04891013 -17.89750796 0.0181759 0 0 Z " fill="#FEFEFE" transform="translate(1200.5,1085.625)"/>
<path d="M0 0 C1.48222046 -0.00660141 1.48222046 -0.00660141 2.99438477 -0.01333618 C19.06364043 -0.04314217 34.48755429 1.04699094 49.6875 6.6875 C50.51838135 6.98865723 51.3492627 7.28981445 52.20532227 7.60009766 C87.54231418 20.76147944 114.39656476 46.42903175 130.63183594 80.28662109 C136.62157693 93.63543914 142.84091762 111.8032566 141.625 126.5 C140.01319313 128.64197129 139.11541478 129.41560427 136.44651359 129.87489682 C135.16487496 129.8748143 135.16487496 129.8748143 133.85734463 129.87473011 C132.87028733 129.88193665 131.88323003 129.8891432 130.8662619 129.89656812 C129.77911724 129.88919383 128.69197259 129.88181955 127.57188416 129.8742218 C126.41917025 129.87819621 125.26645634 129.88217061 124.07881171 129.88626546 C120.87408504 129.89424219 117.66970497 129.88870742 114.46499813 129.87751496 C111.01098011 129.86869051 107.55699916 129.87711132 104.10298157 129.88337708 C97.33483317 129.89287711 90.56679119 129.88625491 83.79865067 129.87411413 C75.92272647 129.86051101 68.04682778 129.86213047 60.17089481 129.86424746 C46.12229014 129.86743906 32.07373613 129.85575948 18.02514648 129.83618164 C4.3815761 129.81717312 -9.2619349 129.81009482 -22.90551758 129.81567383 C-37.75086804 129.82172626 -52.59619237 129.82156467 -67.44154066 129.810188 C-69.02327216 129.80898066 -70.60500365 129.80777467 -72.18673515 129.80657005 C-73.35420422 129.80566475 -73.35420422 129.80566475 -74.54525851 129.80474115 C-80.04017048 129.80085568 -85.53507274 129.80125804 -91.02998543 129.8031559 C-97.72215188 129.80527402 -104.41426622 129.80008289 -111.10641796 129.78554235 C-114.52333437 129.77827935 -117.94017474 129.77423747 -121.35709763 129.77878571 C-125.05443979 129.78198473 -128.75154955 129.77298344 -132.4488678 129.76069641 C-133.53824318 129.76447573 -134.62761855 129.76825506 -135.7500053 129.77214891 C-136.73445486 129.76631671 -137.71890441 129.76048452 -138.73318577 129.75447559 C-139.58744917 129.75360882 -140.44171258 129.75274204 -141.32186276 129.751849 C-143.375 129.5 -143.375 129.5 -145.375 127.5 C-146.32738496 119.98600533 -144.89867341 112.786124 -142.9375 105.5625 C-142.67235596 104.5732251 -142.40721191 103.5839502 -142.1340332 102.56469727 C-136.53199863 82.66595262 -126.76686661 65.18463755 -113.375 49.5 C-112.71242188 48.70335937 -112.04984375 47.90671875 -111.3671875 47.0859375 C-95.06605788 28.13813001 -72.35682747 13.34025176 -48.41064453 6.11474609 C-47.02081223 5.69502941 -45.63641672 5.25698447 -44.25732422 4.80322266 C-29.69573833 0.15898548 -15.14185192 0.01638794 0 0 Z " fill="#43B02A" transform="translate(1208.375,1207.5)"/>
<path d="M0 0 C602.58 0 1205.16 0 1826 0 C1826 0.66 1826 1.32 1826 2 C1746.43109499 2.62268477 1666.86383696 3.10280671 1587.29225159 3.09333801 C1586.43138076 3.09324557 1585.57050994 3.09315313 1584.68355211 3.09305788 C1562.92528161 3.09048323 1541.16701899 3.07873435 1519.40875417 3.06338034 C1504.65619136 3.05298306 1489.90362939 3.04535661 1475.15106392 3.03993416 C1474.1371001 3.03956093 1473.12313628 3.0391877 1472.07844628 3.03880316 C1466.9027237 3.03691303 1461.7270011 3.03506954 1456.5512785 3.03324918 C1445.97641322 3.02951927 1435.40154806 3.02549292 1424.82668293 3.02137125 C1423.7647296 3.02095797 1422.70277627 3.02054469 1421.60864254 3.02011889 C1405.2628635 3.01370768 1388.91708536 3.00600526 1372.5713073 2.99746478 C1371.47748879 2.99689354 1370.38367027 2.99632231 1369.25670574 2.99573377 C1363.70463684 2.99282918 1358.15256795 2.98990955 1352.60049906 2.98698721 C1298.89555213 2.95875804 1245.19060549 2.94091852 1191.48565316 2.9267778 C1178.56704155 2.92337465 1165.64842998 2.91984773 1152.7298184 2.91631252 C1151.56021623 2.91599266 1150.39061406 2.9156728 1149.1855694 2.91534326 C1143.26255039 2.91372338 1137.33953138 2.91210184 1131.41651236 2.91047852 C1126.66005307 2.90917523 1121.90359377 2.907876 1117.14713448 2.9065801 C1062.64703485 2.89172372 1008.14693584 2.87510099 953.64683721 2.85693867 C949.96510307 2.85571257 946.28336892 2.85449139 942.60163477 2.8532707 C885.70754514 2.83437259 828.81345809 2.81244062 771.91937256 2.78363037 C770.68902132 2.7830079 769.45867008 2.78238544 768.19103547 2.78174411 C748.33816679 2.77169168 728.48529819 2.76149189 708.6324296 2.75125868 C651.44055946 2.72177951 594.24869156 2.69472707 537.05681515 2.68109417 C535.29472439 2.68067228 535.29472439 2.68067228 533.49703583 2.68024187 C508.8770448 2.67437854 484.25705369 2.66935808 459.63706227 2.66543205 C448.11448108 2.66359199 436.59189992 2.66156421 425.06931877 2.65942955 C423.93518047 2.6592228 422.80104216 2.65901605 421.63253603 2.65880304 C385.13126491 2.65205522 348.63001544 2.63215247 312.12875412 2.60513483 C275.47657107 2.57804648 238.82440575 2.56307098 202.17221207 2.56532283 C197.11726662 2.56562901 192.06232117 2.56579003 187.00737572 2.56586266 C186.01652157 2.56588185 185.02566742 2.56590105 184.00478738 2.56592082 C168.28700387 2.56585155 152.56926178 2.55227754 136.85149115 2.53312076 C121.41928697 2.51458448 105.98713339 2.51016225 90.55492126 2.52099691 C81.49888253 2.52692131 72.44301006 2.52176539 63.38699332 2.50055257 C57.38389033 2.48757184 51.38090449 2.48893539 45.37780245 2.50226536 C41.96878561 2.50942389 38.56009182 2.51022132 35.1511017 2.49341102 C31.49472293 2.47869707 27.83921049 2.48833196 24.18285662 2.50435668 C23.12473367 2.49420304 22.06661071 2.48404939 20.97642343 2.47358806 C15.17392128 2.52912752 11.46896151 2.90285613 7 7 C4.40338875 10.64935659 3.62490862 13.12300475 3.62409583 17.5819838 C3.61287417 19.26380604 3.61287417 19.26380604 3.60142581 20.97960449 C3.6084799 22.20970298 3.61553399 23.43980147 3.62280184 24.70717567 C3.61847066 26.02251065 3.61413948 27.33784562 3.60967705 28.69303924 C3.59801964 32.36506407 3.60515348 36.03685362 3.61520281 39.70887445 C3.62285216 43.71065914 3.61310673 47.71240728 3.6055623 51.71418694 C3.59469919 58.76186069 3.59507311 65.809466 3.60263533 72.85714304 C3.61390227 83.40779484 3.60794535 93.95838847 3.59857134 104.50903961 C3.58311051 122.48780132 3.58197443 140.46653886 3.58855057 158.44530487 C3.59516988 176.67317595 3.59531393 194.90102973 3.58750343 213.12890053 C3.58701543 214.27878953 3.58652744 215.42867853 3.58602465 216.61341266 C3.58401655 221.29648025 3.58196345 225.97954783 3.57985291 230.66261538 C3.55843106 278.24535715 3.55640218 325.82808614 3.56190995 373.41083152 C3.56266563 379.98977053 3.56339325 386.56870955 3.56409192 393.14764857 C3.56423101 394.45430463 3.5643701 395.76096068 3.56451341 397.10721238 C3.56746321 426.03929984 3.56445538 454.97138576 3.56019563 483.90347295 C3.55961348 487.86082254 3.55904463 491.81817214 3.55848 495.77552173 C3.55696511 506.38326034 3.5554382 516.99099895 3.55388699 527.59873756 C3.54957903 557.25400682 3.5463315 586.90927615 3.54396725 616.56454563 C3.54391314 617.23969311 3.54385903 617.91484059 3.54380329 618.61044708 C3.54032014 662.34409113 3.54167777 706.07773362 3.54635715 749.81137753 C3.54650704 751.22234435 3.54665685 752.63331117 3.54680657 754.04427799 C3.54846319 769.62150248 3.55021484 785.19872696 3.55199958 800.77595144 C3.55208008 801.4791023 3.55216058 802.18225317 3.55224352 802.90671164 C3.55248758 805.03836261 3.55273177 807.17001358 3.55297603 809.30166455 C3.55305666 810.00538706 3.55313729 810.70910957 3.55322037 811.43415701 C3.55362805 814.98991176 3.55403715 818.54566652 3.55444872 822.10142127 C3.56262828 892.83909223 3.56449864 963.57675451 3.53400741 1089.9023003 C3.52786826 1113.28642647 3.52178592 1136.67055265 3.51603794 1160.05467892 C3.51577992 1161.10181257 3.51577992 1161.10181257 3.51551668 1162.17010045 C3.50475916 1205.87962083 3.49887106 1249.58913951 3.4984808 1293.29866123 C3.49847428 1293.97359307 3.49846777 1294.6485249 3.49846105 1295.34390921 C3.49817957 1325.64802458 3.49917056 1355.95213979 3.50135112 1386.25625507 C3.50210592 1396.85496863 3.50278412 1407.45368219 3.50343127 1418.05239576 C3.50359396 1420.68920761 3.50376162 1423.32601947 3.50393428 1425.96283133 C3.50665861 1468.02661281 3.49808784 1510.09038245 3.48408018 1552.15416138 C3.46969178 1595.6803767 3.47009795 1639.20656943 3.4874549 1682.73278397 C3.48925918 1687.40175543 3.49099936 1692.07072691 3.49268913 1696.73969841 C3.49310963 1697.88558356 3.49353013 1699.03146871 3.49396338 1700.21207766 C3.50027404 1718.39459828 3.49313747 1736.57708799 3.48047993 1754.75960426 C3.46833105 1772.61585444 3.47035214 1790.47205559 3.48770025 1808.32830202 C3.49745721 1818.81153991 3.49615799 1829.29463891 3.47887027 1839.77786786 C3.46849305 1846.72750217 3.47244732 1853.6770299 3.48838676 1860.62665352 C3.49703122 1864.57439769 3.4992975 1868.52186565 3.48400303 1872.46959587 C3.46774072 1876.70244791 3.48212155 1880.93462901 3.49975401 1885.16747516 C3.49007291 1886.39518291 3.4803918 1887.62289066 3.47041733 1888.88780167 C3.52387268 1895.06213152 3.58988535 1899.26755561 8 1904 C9.65 1905.32 11.3 1906.64 13 1908 C8.71 1908 4.42 1908 0 1908 C0 1278.36 0 648.72 0 0 Z " fill="#FEFEFE" transform="translate(0,0)"/>
<path d="M0 0 C602.58 0 1205.16 0 1826 0 C1826 0.66 1826 1.32 1826 2 C1746.43197355 2.61375825 1666.86525928 3.09640872 1587.29466248 3.12698364 C1586.4338131 3.12732258 1585.57296372 3.12766151 1584.68602799 3.12801072 C1562.92806502 3.13633582 1541.17010473 3.13599863 1519.41214086 3.13216652 C1504.65956756 3.12957062 1489.90699616 3.12950018 1475.15442276 3.13140106 C1473.63346644 3.13159482 1473.63346644 3.13159482 1472.08178373 3.13179249 C1467.94823605 3.13232611 1463.81468836 3.13287486 1459.68114068 3.13344277 C1421.75326673 3.13864989 1383.82539422 3.13912883 1345.89752007 3.13629532 C1309.50032977 3.13357761 1273.10314017 3.13255145 1236.70594978 3.13381577 C1234.39822959 3.13389325 1232.09050939 3.1339704 1229.7827892 3.13404724 C1220.50524913 3.1343578 1211.22770907 3.13467648 1201.95016901 3.135007 C1176.04707396 3.13592259 1150.1439789 3.1364942 1124.24088383 3.13679314 C1122.47389679 3.13681361 1122.47389679 3.13681361 1120.67121305 3.13683449 C1083.31054258 3.13724188 1045.94987233 3.13612616 1008.58920193 3.13394356 C1007.38262216 3.13387331 1006.17604239 3.13380306 1004.93289959 3.13373068 C985.3504894 3.13258634 965.7680792 3.13136661 946.18566901 3.13014051 C868.1997065 3.12526287 790.21374571 3.12553213 712.2277832 3.13037109 C692.4815162 3.13159243 672.7352492 3.13280352 652.9889822 3.13394356 C651.77287372 3.13401401 650.55676524 3.13408445 649.30380498 3.13415704 C611.84390708 3.13631213 574.38400933 3.1372278 536.92411137 3.13679314 C535.74898947 3.13677955 534.57386757 3.13676597 533.36313592 3.13675197 C507.57574626 3.13643959 481.78835662 3.1358061 456.00096698 3.13488263 C446.77852294 3.13455355 437.5560789 3.13424047 428.33363486 3.13393192 C426.03992076 3.13385454 423.74620666 3.13377581 421.45249256 3.13369573 C384.95151636 3.13242482 348.4505409 3.13384818 311.9495648 3.13654587 C274.27140938 3.13930027 236.59325568 3.13829639 198.91510051 3.13301457 C194.87420809 3.13246224 190.83331567 3.13192553 186.79242325 3.13140106 C185.80078207 3.13127086 184.80914089 3.13114065 183.78744998 3.1310065 C168.07401678 3.12903266 152.36058573 3.13040881 136.64715273 3.13317007 C121.20913131 3.13581188 105.77111354 3.13489316 90.33309259 3.13015598 C81.28031787 3.12748416 72.22755311 3.12754867 63.17477886 3.13163758 C57.16619489 3.13407868 51.15761869 3.13290367 45.14903566 3.12877072 C41.74189609 3.12652848 38.33479265 3.12638705 34.92765143 3.12958724 C31.26323536 3.13278591 27.59887321 3.12983122 23.93445963 3.12534916 C22.89073068 3.12773991 21.84700174 3.13013065 20.77164465 3.13259384 C13.80481447 3.11523942 6.93349861 2.67385898 0 2 C0 1.34 0 0.68 0 0 Z " fill="#E0E0E1" transform="translate(0,0)"/>
</svg>
