<svg viewBox="0 0 76 77" width="48" height="48" fill="none" xmlns="http://www.w3.org/2000/svg"><path d="M54.765 19.07a2.906 2.906 0 00-2.067-.856c-.781 0-1.515.305-2.067.856a2.905 2.905 0 00-.857 2.067c0 .781.305 1.515.856 2.067l4.98 4.98a2.905 2.905 0 002.067.856c.781 0 1.515-.304 2.067-.856l10.64-10.64a2.903 2.903 0 00.856-2.066c0-.781-.304-1.515-.856-2.067a2.903 2.903 0 00-2.067-.857 2.9 2.9 0 00-2.067.857l-1.173 1.173a11.299 11.299 0 00-2.834-1.58v-1.33A2.926 2.926 0 0059.32 8.75H46.154V7.736A3.74 3.74 0 0042.42 4H32.197a3.74 3.74 0 00-3.735 3.736v4.22c0 1.145.93 2.076 2.075 2.076h13.542a2.078 2.078 0 002.075-2.076V10.53H59.32c.63 0 1.144.514 1.144 1.145v.819a11.3 11.3 0 00-2.24-.227c-6.23 0-11.298 5.069-11.298 11.299 0 6.23 5.069 11.299 11.299 11.299.76 0 1.509-.077 2.24-.223v39.436c0 .631-.514 1.144-1.145 1.144H10.923a1.145 1.145 0 01-1.144-1.144V11.674c0-.631.513-1.145 1.144-1.145h14.286a.89.89 0 100-1.779H10.923A2.926 2.926 0 008 11.674v62.403A2.926 2.926 0 0010.923 77H59.32a2.926 2.926 0 002.923-2.923v-39.95a11.278 11.278 0 003.84-2.444 11.239 11.239 0 003.434-7.724.89.89 0 00-1.778-.06 9.472 9.472 0 01-6.59 8.731.85.85 0 00-.148.049 9.624 9.624 0 01-2.776.406c-5.25 0-9.52-4.271-9.52-9.52 0-5.25 4.27-9.52 9.52-9.52 2.016 0 3.965.638 5.581 1.81l-6.129 6.128-2.912-2.913zm-10.39-7.114a.296.296 0 01-.296.297H30.537a.297.297 0 01-.296-.297v-4.22c0-1.08.877-1.957 1.956-1.957H42.42c1.079 0 1.957.877 1.957 1.957v4.22zm23.133 2.713c.216-.217.503-.336.809-.336a1.146 1.146 0 01.81 1.953l-10.641 10.64a1.137 1.137 0 01-.81.336c-.305 0-.592-.12-.808-.336l-4.98-4.98a1.136 1.136 0 01-.335-.809c0-.305.12-.593.336-.809a1.142 1.142 0 011.618 0l3.541 3.542a.89.89 0 001.258 0l9.202-9.201zm3.684-12.643c-1.017-.197-1.838-.984-2.035-2.001 0-.033-.098-.033-.098 0-.197 1.017-1.017 1.804-2.034 2.001-.033 0-.033.066 0 .099 1.017.196 1.837.984 2.034 2.001 0 .033.098.033.098 0 .197-1.017 1.018-1.805 2.035-2.001.033-.033.033-.099 0-.099zM1.052 17.905h.754v.754c0 .591.46 1.05 1.05 1.05.558 0 1.05-.459 1.05-1.017v-.787h.755c.59 0 1.05-.46 1.05-1.05 0-.558-.46-1.05-1.017-1.05h-.788v-.755c0-.59-.459-1.05-1.05-1.05-.557 0-1.05.46-1.05 1.017v.788h-.754c-.591 0-1.05.46-1.05 1.05-.033.558.426 1.05 1.05 1.05-.033 0-.033 0 0 0zm68.064 23.326a1.116 1.116 0 100-2.231 1.116 1.116 0 000 2.231z" fill="#fff"/><circle cx="60.5" cy="21.5" r="15.5" fill="#7FEBA1"/><path d="M52 21l5.84 6L70 16" stroke="#fff" stroke-width="2" stroke-linecap="round"/><path d="M34.22 26.326H23.38a.89.89 0 000 1.779h10.84a.89.89 0 100-1.779zM20.874 17H14.89a.89.89 0 000 1.779h5.984a.89.89 0 000-1.779zm2.507 15.231H42.22a.89.89 0 100-1.778H23.381a.89.89 0 000 1.778zm14.582 4.883H23.381a.89.89 0 000 1.779h14.582a.89.89 0 100-1.78zM23.381 43.02h25.291a.89.89 0 000-1.78h-25.29a.89.89 0 000 1.78zm.367 6.672h28.838a.89.89 0 000-1.779H23.748a.89.89 0 000 1.779zm0 4.126H48.33a.89.89 0 100-1.779H23.748a.889.889 0 000 1.779zm0 6.602h20.838a.89.89 0 000-1.78H23.748a.89.89 0 000 1.78zm0 4.125H38.33a.89.89 0 000-1.778H23.748a.889.889 0 000 1.778zM17.96 47.273a3.596 3.596 0 00-3.593 3.592 3.596 3.596 0 003.593 3.593 3.596 3.596 0 003.592-3.593 3.596 3.596 0 00-3.592-3.592zm0 5.406c-1 0-1.814-.814-1.814-1.814s.814-1.813 1.814-1.813a1.815 1.815 0 010 3.627zm-.367-27.124A3.596 3.596 0 0014 29.148a3.596 3.596 0 003.593 3.592 3.596 3.596 0 003.592-3.592 3.596 3.596 0 00-3.592-3.593zm0 5.407c-1 0-1.814-.814-1.814-1.814s.814-1.814 1.814-1.814 1.813.814 1.813 1.814-.813 1.814-1.813 1.814zm0 5.512A3.597 3.597 0 0014 40.066a3.597 3.597 0 003.593 3.593 3.597 3.597 0 003.592-3.593 3.597 3.597 0 00-3.592-3.592zm0 5.406c-1 0-1.814-.813-1.814-1.813s.814-1.814 1.814-1.814 1.813.813 1.813 1.814c0 1-.813 1.813-1.813 1.813zM17.96 58a3.596 3.596 0 00-3.593 3.593 3.596 3.596 0 003.593 3.592 3.596 3.596 0 003.592-3.592A3.596 3.596 0 0017.96 58zm0 5.406c-1 0-1.814-.813-1.814-1.813s.814-1.814 1.814-1.814 1.813.814 1.813 1.814-.813 1.813-1.813 1.813z" fill="#fff"/></svg>