<svg xmlns="http://www.w3.org/2000/svg" width="49" height="55"><g fill="none"><path d="M42.544 10.784a.536.536 0 00-.481-.445c-.192-.03-4.412-.319-4.412-.319l-3.218-3.18c-.289-.32-.932-.225-1.175-.158-.03 0-.642.19-1.64.51-.972-2.774-2.69-5.32-5.716-5.32h-.258C24.775.761 23.714.25 22.815.25c-7.047.03-10.408 8.719-11.469 13.159L6.42 14.902c-1.51.476-1.568.51-1.768 1.934L.5 48.491l31.129 5.759L48.5 50.655c0-.03-5.924-39.567-5.954-39.868l-.002-.003zM29.892 7.727c-.784.256-1.692.51-2.639.798v-.573a12.504 12.504 0 00-.642-4.218c1.577.24 2.638 1.99 3.28 3.993zM24.71 4.102c.515 1.5.768 3.08.704 4.665v.285l-5.443 1.672c1.066-3.931 3.03-5.875 4.736-6.605l.003-.017zm-2.09-1.934c.323.007.635.106.9.285-2.27 1.046-4.67 3.683-5.7 8.965l-4.305 1.304c1.215-4.009 4.048-10.564 9.102-10.564l.003.01z" fill="#95BF47"/><path d="M41.627 9.97c-.205-.03-4.707-.321-4.707-.321l-3.433-3.207a.695.695 0 00-.48-.192l-2.507 48 18-3.626-6.358-40.175a.6.6 0 00-.513-.48l-.002.002z" fill="#5E8E3E"/><path d="M26.495 19.105l-2.202 6.242a10.537 10.537 0 00-4.265-.978c-3.456 0-3.622 2.08-3.622 2.602 0 2.84 7.753 3.934 7.753 10.631 0 5.267-3.488 8.648-8.16 8.648-5.62 0-8.499-3.349-8.499-3.349l1.494-4.782s2.943 2.438 5.452 2.438a2.267 2.267 0 001.63-.6c.436-.405.679-.965.673-1.547 0-3.742-6.366-3.903-6.366-10.014 0-5.14 3.858-10.146 11.612-10.146 3.048.043 4.505.854 4.505.854l-.005.001z" fill="#FFF"/></g></svg>