<svg height="543" width="2500" xmlns="http://www.w3.org/2000/svg" viewBox="0 0 220.889 47.82">
  <g fill="none" fill-rule="evenodd">
    <path d="M76.06 14.82c-.87-.8-1.88-1.405-3.034-1.814s-2.286-.615-3.393-.615c-.924 0-1.838.117-2.743.35-.905.232-1.717.6-2.438 1.102a5.81 5.81 0 00-1.745 1.926c-.443.782-.665 1.722-.665 2.82 0 .893.143 1.652.43 2.275a4.974 4.974 0 001.135 1.591 6.14 6.14 0 001.607 1.075c.6.28 1.214.521 1.842.726.646.205 1.223.396 1.732.572.507.178.932.373 1.274.587.341.214.605.451.79.711.184.262.276.578.276.95 0 .39-.074.726-.221 1.004-.148.28-.347.503-.596.67-.25.168-.54.29-.872.363a4.652 4.652 0 01-1.025.112c-.776 0-1.556-.2-2.341-.6-.786-.4-1.418-.898-1.898-1.493l-3.102 3.182c.867.912 1.957 1.615 3.268 2.108 1.312.493 2.669.74 4.073.74.96 0 1.893-.13 2.797-.391a7.163 7.163 0 002.41-1.2 5.87 5.87 0 001.677-2.052c.415-.828.623-1.81.623-2.946 0-.986-.194-1.81-.582-2.47s-.877-1.215-1.468-1.662a7.744 7.744 0 00-1.967-1.074c-.72-.27-1.413-.517-2.078-.74a25.975 25.975 0 01-1.246-.433 5.393 5.393 0 01-.956-.46 1.855 1.855 0 01-.61-.587c-.138-.223-.207-.502-.207-.837 0-.391.087-.712.263-.963.175-.252.392-.456.651-.615.258-.158.55-.265.873-.32.323-.056.64-.084.955-.084.61 0 1.242.153 1.898.46a4.283 4.283 0 011.592 1.243zm5.76 17.84h4.765V12.893H81.82zm25.79-15.69v-4.076H91.794v4.075h5.54v15.69h4.738V16.97zm18.893 15.69v-4.077h-9.113V24.48h8.144v-3.825h-8.144v-3.741h8.615v-4.02h-13.186v19.765zm22.605-2.737l-3.297-3.127a4.794 4.794 0 01-1.69 1.452c-.702.373-1.523.559-2.465.559a5.55 5.55 0 01-2.244-.447 5.17 5.17 0 01-1.76-1.242 5.72 5.72 0 01-1.148-1.913c-.278-.744-.416-1.563-.416-2.456 0-.875.138-1.68.416-2.415a5.793 5.793 0 011.163-1.913 5.369 5.369 0 011.787-1.27 5.58 5.58 0 012.285-.46c.757 0 1.496.149 2.216.446.72.298 1.302.754 1.745 1.368l3.213-3.238c-.83-.95-1.915-1.67-3.255-2.164-1.338-.493-2.7-.74-4.086-.74-1.495 0-2.89.242-4.182.726a10 10 0 00-3.38 2.08c-.96.903-1.713 1.996-2.257 3.28-.545 1.284-.818 2.718-.818 4.3 0 1.545.268 2.959.804 4.243.535 1.284 1.274 2.387 2.216 3.308a9.842 9.842 0 003.338 2.136c1.283.502 2.682.754 4.197.754 1.662 0 3.13-.294 4.404-.88 1.274-.586 2.345-1.382 3.214-2.387zm23.408-11.515c-.536-1.275-1.28-2.36-2.23-3.253-.952-.893-2.083-1.582-3.394-2.066-1.311-.484-2.733-.726-4.266-.726s-2.95.242-4.252.726c-1.303.484-2.429 1.173-3.38 2.066-.95.893-1.695 1.978-2.23 3.253-.536 1.274-.803 2.703-.803 4.284 0 1.564.267 2.993.803 4.286a9.77 9.77 0 002.23 3.322 9.93 9.93 0 003.38 2.136c1.302.502 2.72.754 4.252.754 1.533 0 2.955-.252 4.266-.754 1.31-.503 2.442-1.214 3.394-2.136.95-.921 1.694-2.028 2.23-3.322.535-1.293.803-2.722.803-4.286 0-1.581-.268-3.01-.803-4.284zm-4.682 6.756a5.74 5.74 0 01-1.163 1.94 5.4 5.4 0 01-1.773 1.27c-.684.307-1.44.46-2.272.46-.83 0-1.588-.153-2.271-.46a5.248 5.248 0 01-1.76-1.27 5.86 5.86 0 01-1.15-1.94 7.097 7.097 0 01-.415-2.472c0-.855.134-1.656.402-2.4a5.432 5.432 0 011.15-1.912 5.488 5.488 0 011.773-1.257c.683-.307 1.44-.46 2.27-.46.832 0 1.594.153 2.287.46a5.31 5.31 0 011.772 1.257c.49.53.873 1.168 1.15 1.912s.416 1.545.416 2.4c0 .894-.139 1.717-.416 2.472zm26.732 7.495l-5.125-8.459c1.275-.39 2.272-1.042 2.992-1.954.72-.911 1.08-2.038 1.08-3.378 0-1.135-.212-2.084-.637-2.848a5.17 5.17 0 00-1.703-1.842 7.143 7.143 0 00-2.41-.991 12.86 12.86 0 00-2.757-.293h-7.479v19.765h4.626v-7.844h1.615l4.258 7.844zm-6.054-12.479c-.214.317-.487.558-.822.726s-.705.284-1.113.349a7.59 7.59 0 01-1.197.098h-2.254v-4.607h2.533c.352 0 .718.028 1.099.084.38.056.724.163 1.03.32.306.16.557.383.752.671.194.289.292.666.292 1.13 0 .503-.108.913-.32 1.23zm24.697 12.48v-4.077h-9.114V24.48h8.144v-3.825h-8.144v-3.741h8.616v-4.02h-13.186v19.765z" fill="#fff"/>
  </g>
</svg>
