<svg width="70" height="70" xmlns="http://www.w3.org/2000/svg"><g fill="none" fill-rule="evenodd"><rect stroke="#A8C7FD" x=".5" y=".5" width="69" height="69" rx="8"/><path d="M37.404 41.816a2.7 2.7 0 013.684-.988l9.176 5.3a2.696 2.696 0 01-2.695 4.668l-5.141-2.968v5.957a2.686 2.686 0 01-5.371 0v-10.36a2.695 2.695 0 01.347-1.609zm-9.195-.988a2.674 2.674 0 011.84-.312 2.686 2.686 0 012.262 2.652v10.617a2.686 2.686 0 01-5.371 0V47.79l-5.211 3.008a2.693 2.693 0 01-3.684-.988 2.691 2.691 0 01.988-3.68zM52.315 27.09a2.692 2.692 0 013.683.988 2.688 2.688 0 01-.988 3.68l-5.195 3 5.195 3a2.697 2.697 0 11-2.695 4.672l-9.176-5.301a2.69 2.69 0 01-1.348-2.36 2.699 2.699 0 011.348-2.382zm-36.676-.297c.457 0 .914.121 1.312.352l9.176 5.296a2.642 2.642 0 011.316 2.329 2.648 2.648 0 01-1.316 2.308l-9.176 5.297a2.636 2.636 0 01-3.597-.965 2.614 2.614 0 01-.262-2 2.6 2.6 0 011.226-1.597l5.29-3.055-5.29-3.051a2.636 2.636 0 01-.964-3.598 2.643 2.643 0 012.285-1.316zm19.496 2.945c.203 0 .488.117.633.262l3.636 3.64c.145.145.262.426.262.633v.926c0 .203-.117.485-.262.633l-3.636 3.637c-.145.144-.43.261-.633.261h-.926c-.203 0-.488-.117-.633-.261l-3.64-3.637a1.04 1.04 0 01-.262-.633v-.926c0-.207.117-.488.262-.632L33.576 30c.145-.145.43-.262.633-.262h.926zm-.445 3.246h-.04a.752.752 0 00-.464.196l-1.07 1.07a.752.752 0 00-.192.465v.039c0 .152.086.36.191.465l1.07 1.074a.77.77 0 00.465.191h.04a.751.751 0 00.464-.191l1.075-1.074a.752.752 0 00.191-.465v-.04a.77.77 0 00-.191-.464l-1.075-1.07a.734.734 0 00-.464-.196zM39.744 13a2.687 2.687 0 012.684 2.688v6.003l5.14-2.968a2.696 2.696 0 112.696 4.668l-9.176 5.297a2.696 2.696 0 01-4.031-2.594V15.687A2.687 2.687 0 0139.744 13zm-10.117 0a2.687 2.687 0 012.684 2.688v10.617c0 .78-.332 1.484-.868 1.976a2.696 2.696 0 01-3.234.407l-9.176-5.297a2.696 2.696 0 112.695-4.668l5.212 3.007v-6.043A2.687 2.687 0 0129.627 13z" fill="#A8C7FD" fill-rule="nonzero"/></g></svg>