<?xml version="1.0" encoding="UTF-8"?>
<svg version="1.1" xmlns="http://www.w3.org/2000/svg" width="225" height="225">
<path d="M0 0 C74.25 0 148.5 0 225 0 C225 74.25 225 148.5 225 225 C150.75 225 76.5 225 0 225 C0 150.75 0 76.5 0 0 Z " fill="#FEFEFE" transform="translate(0,0)"/>
<path d="M0 0 C0.495 0.99 0.495 0.99 1 2 C0.525625 3.216875 0.05125 4.43375 -0.4375 5.6875 C-4.23784493 16.64868005 -2.52429479 28.54089498 2 39 C12.11598269 58.28046205 29.88465513 64.48733333 48.68994141 73.18652344 C70.50569342 83.29391726 70.50569342 83.29391726 76.0625 89.1875 C78.01890579 95.05671738 78.04412863 100.87307131 75.3125 106.4375 C69.55738069 112.81479437 63.7370667 115.48421945 55.17578125 116.25390625 C40.53373421 116.54713817 25.556859 113.48447361 12 108 C9.41417872 107.41597867 9.41417872 107.41597867 7 108 C4.090356 111.55623155 3.12145774 115.60043501 2 120 C-1.60365007 118.47041493 -3.93585034 116.32874162 -6.70507812 113.58544922 C-7.63284058 112.67044647 -8.56060303 111.75544373 -9.51647949 110.81271362 C-10.52180762 109.81044395 -11.5267209 108.807758 -12.53125 107.8046875 C-13.56955656 106.77281287 -14.60801103 105.74108706 -15.64660645 104.70950317 C-17.82218157 102.5458947 -19.99359109 100.37820017 -22.16259766 98.20800781 C-24.9296814 95.44072136 -27.71023609 92.68742211 -30.49460602 89.93754387 C-32.64461401 87.80988403 -34.78535794 85.67308258 -36.9236908 83.53369522 C-37.94424249 82.51548937 -38.96800603 81.50049146 -39.99513245 80.4889183 C-52.10950187 68.54087726 -52.10950187 68.54087726 -53.5625 59.5 C-52.01579565 49.87606183 -43.64590356 43.25059967 -37.01171875 36.71875 C-35.94203555 35.65467262 -34.8730206 34.5899231 -33.80464172 33.52453613 C-31.01160545 30.74287101 -28.20967509 27.97034013 -25.40570068 25.19970703 C-22.5377539 22.36262906 -19.6784417 19.51687714 -16.81835938 16.671875 C-11.22058523 11.10612834 -5.61337124 5.55001555 0 0 Z " fill="#68B745" transform="translate(55,53)"/>
<path d="M0 0 C6.40087379 5.2840213 12.24790886 11.0841474 18.11328125 16.9453125 C19.17458586 18.00339796 20.23596307 19.06141061 21.29740906 20.11935425 C23.50871918 22.32471095 25.7179879 24.5320896 27.92602539 26.74072266 C30.75324736 29.56804679 33.58732087 32.38839535 36.42315388 35.20707893 C38.61158622 37.38439639 40.79546219 39.56623998 42.97807884 41.74938583 C44.02145255 42.79158146 45.06644367 43.8321605 46.11309242 44.87106705 C47.57278631 46.32095836 49.02600224 47.77705461 50.4777832 49.23486328 C51.30494339 50.06059845 52.13210358 50.88633362 52.98432922 51.73709106 C56.33844353 55.50261435 57.30407592 58.29816735 57.375 63.3125 C57.40335937 64.21613281 57.43171875 65.11976562 57.4609375 66.05078125 C56.45964095 72.45738209 52.33443551 77.03933505 47.86425781 81.47631836 C47.11723351 82.22399979 47.11723351 82.22399979 46.3551178 82.98678589 C44.72813749 84.61169746 43.09083836 86.22575673 41.453125 87.83984375 C40.31475325 88.97261273 39.17704762 90.10605148 38.03997803 91.24012756 C35.06114765 94.20756286 32.07341617 97.16587344 29.0836792 100.12231445 C26.0281761 103.14700114 22.98126214 106.18031347 19.93359375 109.21289062 C13.96405727 115.15035723 7.98508062 121.0782027 2 127 C2 123.74820008 2.6996484 121.88630228 3.875 118.875 C9.27220994 104.25277164 9.69630517 90.43590636 3.375 75.9375 C-5.39418426 59.78896445 -22.28991952 53.21328206 -38.125 45.9375 C-64.38354622 33.86796643 -64.38354622 33.86796643 -69 27 C-70.38405749 22.44172684 -70.47856665 19.0145613 -68.4375 14.6875 C-64.05100661 9.85110986 -59.82628589 7.15357039 -53.26171875 6.796875 C-39.50878597 6.55878806 -27.66653683 8.5077092 -14.9375 14.01171875 C-11.78429292 15.07257166 -9.30339928 15.18188359 -6 15 C-5.81824219 14.41992188 -5.63648438 13.83984375 -5.44921875 13.2421875 C-3.9581894 8.60852707 -2.31666424 4.30237645 0 0 Z " fill="#68B745" transform="translate(165,49)"/>
<path d="M0 0 C5.12088679 2.66106183 8.83416986 6.54796339 12.796875 10.67578125 C13.52390625 11.41248047 14.2509375 12.14917969 15 12.90820312 C20.296875 18.31957824 20.296875 18.31957824 20.296875 19.48828125 C19.66265625 19.41609375 19.0284375 19.34390625 18.375 19.26953125 C0.0543091 17.44758409 -17.9739918 17.20189396 -35.12109375 24.5625 C-35.97316406 24.86800781 -36.82523437 25.17351563 -37.703125 25.48828125 C-38.363125 25.15828125 -39.023125 24.82828125 -39.703125 24.48828125 C-39.13464844 24.00359375 -38.56617187 23.51890625 -37.98046875 23.01953125 C-34.14105641 19.68648548 -30.484461 16.37955971 -27.203125 12.48828125 C-19.82672398 3.78791082 -12.0463087 -4.91763868 0 0 Z " fill="#68B745" transform="translate(118.703125,3.51171875)"/>
<path d="M0 0 C0.66 0.33 1.32 0.66 2 1 C-1.31669547 4.39104374 -4.64327011 7.77196658 -7.97924805 11.14404297 C-9.1118789 12.29172808 -10.24179853 13.44209561 -11.36889648 14.59521484 C-12.99271658 16.25556552 -14.62615423 17.90591462 -16.26171875 19.5546875 C-16.76088303 20.06933563 -17.2600473 20.58398376 -17.77433777 21.11422729 C-21.77058966 25.11236521 -24.83023575 26.8027487 -30.4375 27.3125 C-38.76490575 26.58202581 -43.35701023 21.01286401 -48.875 15.3125 C-49.65875 14.51521484 -50.4425 13.71792969 -51.25 12.89648438 C-53.17366361 10.9376318 -55.08994591 8.97211016 -57 7 C-54.12607801 5.56303901 -52.13545541 6.44814486 -49 7 C-44.46024542 7.23897257 -39.92045895 7.23096143 -35.375 7.25 C-34.16714844 7.270625 -32.95929688 7.29125 -31.71484375 7.3125 C-20.88637889 7.35912418 -11.43373385 5.57089843 -1.7421875 0.671875 C-0.87980469 0.33929688 -0.87980469 0.33929688 0 0 Z " fill="#68B744" transform="translate(143,196)"/>
<path d="M0 0 C0 3 0 3 -1.37695312 4.7175293 C-2.00537109 5.33023682 -2.63378906 5.94294434 -3.28125 6.57421875 C-3.95800781 7.24130859 -4.63476562 7.90839844 -5.33203125 8.59570312 C-6.04746094 9.28599609 -6.76289062 9.97628906 -7.5 10.6875 C-8.57314453 11.7403418 -8.57314453 11.7403418 -9.66796875 12.81445312 C-11.43879577 14.54986361 -13.21623456 16.2779073 -15 18 C-14.34 18.66 -13.68 19.32 -13 20 C-14.45381897 20.69699552 -15.91322953 21.38233866 -17.375 22.0625 C-18.18710938 22.44535156 -18.99921875 22.82820313 -19.8359375 23.22265625 C-20.55007812 23.47917969 -21.26421875 23.73570313 -22 24 C-22.66 23.67 -23.32 23.34 -24 23 C-23.43152344 22.5153125 -22.86304687 22.030625 -22.27734375 21.53125 C-17.73187086 17.58526352 -13.65139606 13.56195425 -9.7734375 8.96484375 C-6.79500334 5.66494864 -3.4137185 2.83737641 0 0 Z " fill="#72BB51" transform="translate(103,5)"/>
<path d="M0 0 C0.66 0.33 1.32 0.66 2 1 C1.69381595 4.67420866 1.24228216 5.78135513 -1.5625 8.3125 C-2.366875 8.869375 -3.17125 9.42625 -4 10 C-2.66666667 6.66666667 -1.33333333 3.33333333 0 0 Z " fill="#7CC05E" transform="translate(170,166)"/>
</svg>
