<svg width="48" height="48" fill="none" xmlns="http://www.w3.org/2000/svg"><g clip-path="url(#clip0_2_3523)"><path d="M19.433 38.19a.735.735 0 100-1.47.735.735 0 000 1.47z" fill="#fff"/><path d="M45.062 20.895h-7.12v-1.2a8.433 8.433 0 002.036-.808l1.527.924c.182.11.386.167.59.167.29 0 .581-.116.8-.334l1.032-1.033c.37-.37.436-.938.167-1.39l-.923-1.526a8.61 8.61 0 00.77-1.855l1.731-.429c.51-.124.859-.582.859-1.098V10.85a1.13 1.13 0 00-.858-1.098l-1.731-.43a8.262 8.262 0 00-.771-1.854l.923-1.527a1.133 1.133 0 00-.167-1.39l-1.033-1.04a1.133 1.133 0 00-1.389-.166l-1.527.923a8.612 8.612 0 00-1.855-.77l-.429-1.732A1.121 1.121 0 0036.596.91h-1.469a1.13 1.13 0 00-1.098.858l-.43 1.731a8.261 8.261 0 00-1.854.771l-1.527-.923a1.134 1.134 0 00-1.39.167l-1.032 1.033c-.37.37-.444.938-.167 1.389l.923 1.527a8.258 8.258 0 00-.77 1.854l-1.731.43a1.12 1.12 0 00-.858 1.098v1.462c0 .036.014.065.014.094H2.937a2.011 2.011 0 00-2.006 2.007v24.72c0 1.106.901 2.008 2.007 2.008h10.604v1.942H11.09a2.011 2.011 0 00-2.008 2.007v1.461a.55.55 0 00.546.546h35.433a2.011 2.011 0 002.007-2.007V22.902a2.011 2.011 0 00-2.007-2.007zm-9.128-8.488h-3.658a3.608 3.608 0 01-.109-.829 3.7 3.7 0 013.695-3.694 3.7 3.7 0 013.694 3.694 3.661 3.661 0 01-1.614 3.04v-.203a2.011 2.011 0 00-2.008-2.008zM2.938 40.044a.922.922 0 01-.916-.917v-4.262h19.665v5.179H2.937zm18.749 1.09v1.943h-7.055v-1.942h7.055zM10.174 46v-.916c0-.502.415-.917.917-.917h10.603v.917c0 .334.088.64.233.916H10.174zm11.513-23.098v10.865H2.022V14.415c0-.51.414-.917.916-.917h32.996c.502 0 .917.415.917.917v6.48H23.694a2.011 2.011 0 00-2.007 2.007zm24.29 22.182a.922.922 0 01-.915.916H23.694a.922.922 0 01-.916-.916v-18.27h23.2v18.27zm0-19.36h-23.2v-2.815c0-.509.415-.916.917-.916h21.368c.509 0 .916.414.916.916v2.815z" fill="#fff"/><path d="M8.415 17.436a.549.549 0 00-.77 0l-2.473 2.473a.547.547 0 000 .77l2.473 2.473c.109.11.247.16.385.16a.54.54 0 00.385-.16.547.547 0 000-.77l-2.087-2.088 2.087-2.087a.536.536 0 000-.771zm7.485 0a.549.549 0 00-.771 0 .547.547 0 000 .77l2.087 2.088-2.087 2.087a.549.549 0 000 .771c.109.11.247.16.385.16a.54.54 0 00.386-.16l2.472-2.473a.545.545 0 000-.77L15.9 17.436zm-1.703-2.341a.554.554 0 00-.727.261l-4.393 9.418a.548.548 0 00.494.779.55.55 0 00.495-.313l4.393-9.418a.546.546 0 00-.262-.727zM5.56 29.032h7.01a.55.55 0 00.546-.546.55.55 0 00-.546-.545H5.56a.55.55 0 00-.546.545.55.55 0 00.545.546zm22.21 9.313h13.458a.55.55 0 00.545-.546.55.55 0 00-.545-.545H27.769a.55.55 0 00-.545.545.55.55 0 00.545.546zM5.56 32.144h3.352a.55.55 0 00.545-.545.55.55 0 00-.545-.546H5.559a.55.55 0 00-.545.546.55.55 0 00.545.545zm22.21 9.313h9.083a.55.55 0 00.546-.545.55.55 0 00-.546-.545H27.77a.55.55 0 00-.545.545.55.55 0 00.545.545zM25.353 23.12a.73.73 0 100 1.462.731.731 0 100-1.462zm2.632 0a.73.73 0 100 1.462.731.731 0 100-1.462zm2.633 0a.731.731 0 100 1.462.731.731 0 100-1.462z" fill="#fff"/><rect x="26.508" y="29.373" width="15.761" height="5.731" rx="2.866" fill="#7FEBA1"/></g><defs><clipPath id="clip0_2_3523"><path fill="#fff" d="M0 0h48v48H0z"/></clipPath></defs></svg>