<svg width="52" height="52" fill="none" xmlns="http://www.w3.org/2000/svg"><g clip-path="url(#clip0_2_247)"><path d="M45.256 33.077a4.875 4.875 0 10-5.996 0 8.296 8.296 0 00-3.047 2.096l-.463-4.387a.813.813 0 00-.813-.724h-.812v-2.437a8.125 8.125 0 00-5.119-7.54 4.876 4.876 0 10-6.012 0 8.125 8.125 0 00-5.119 7.54v2.438h-.813a.813.813 0 00-.812.73l-.439 4.42a7.961 7.961 0 00-3.063-2.128 4.875 4.875 0 10-6.004 0 8.125 8.125 0 00-5.119 7.54v12.257a.813.813 0 00.813.812h47.124a.813.813 0 00.813-.812V40.625a8.126 8.126 0 00-5.119-7.548zM39 29.25a3.25 3.25 0 116.5 0 3.25 3.25 0 01-6.5 0zm-16.25-13a3.25 3.25 0 116.5 0 3.25 3.25 0 01-6.5 0zM19.5 27.625a6.5 6.5 0 1113 0v2.438h-1.414l.602-3.941a.813.813 0 00-.813-.934h-9.75a.814.814 0 00-.813.934l.602 3.94H19.5v-2.437zm10.433-.813l-.732 4.875H22.8l-.732-4.875h7.866zm-8.808 4.875l.138.935a.813.813 0 00.813.69h7.8a.813.813 0 00.812-.69l.187-.934h3.331l.626 5.874.284 3.25-3.73 1.495a.813.813 0 00-.511.755V45.5a.812.812 0 00.813.813h.121l3.738-.577.26 3.014H16.193l.26-3.023 3.738.577h.122a.813.813 0 00.812-.804v-2.438a.812.812 0 00-.512-.755l-3.721-1.487.91-9.133h3.323zM6.5 29.25a3.25 3.25 0 116.5 0 3.25 3.25 0 01-6.5 0zM3.25 40.625a6.5 6.5 0 0112.318-2.9l-.244 2.437L13 39.26v-1.885h-1.625v2.438a.813.813 0 00.512.755l7.613 3.047v.934l-9.214-1.413-1.438-2.877-1.446.732 1.625 3.25a.812.812 0 00.601.438l5.216.813-.284 3.25H3.25v-8.117zm45.5 8.125H37.44l-.284-3.25 5.216-.813a.812.812 0 00.601-.438l1.625-3.25-1.446-.732-1.438 2.877-9.214 1.405v-.934l7.613-3.047a.813.813 0 00.512-.755v-2.438H39v1.885l-2.307.926-.22-2.519a6.5 6.5 0 015.777-3.542 6.5 6.5 0 016.5 6.5v8.125z" fill="#fff"/><path d="M2.438 19.5h4.468L9.1 22.425a.812.812 0 001.3 0l2.194-2.925h4.469a.812.812 0 00.812-.813V2.438a.812.812 0 00-.813-.812H2.438a.812.812 0 00-.812.813v16.25a.812.812 0 00.813.812z" fill="#7FEBA1"/><path d="M4.875 14.625h9.75v1.625h-9.75v-1.625zm0-3.25h9.75V13h-9.75v-1.625zm0-3.25h9.75V9.75h-9.75V8.125zM13 4.875h1.625V6.5H13V4.875zm-4.875 0h3.25V6.5h-3.25V4.875zm-3.25 0H6.5V6.5H4.875V4.875z" fill="#fff"/><path d="M49.563 1.625H34.937a.812.812 0 00-.812.813v16.25a.812.812 0 00.813.812h4.468l2.194 2.925a.813.813 0 001.3 0l2.194-2.925h4.468a.812.812 0 00.813-.813V2.438a.812.812 0 00-.813-.812z" fill="#7FEBA1"/><path d="M37.375 4.875h9.75V6.5h-9.75V4.875zm0 3.25h9.75V9.75h-9.75V8.125zm0 3.25h9.75V13h-9.75v-1.625zm0 3.25H39v1.625h-1.625v-1.625zm3.25 0h3.25v1.625h-3.25v-1.625zm4.875 0h1.625v1.625H45.5v-1.625z" fill="#fff"/></g><defs><clipPath id="clip0_2_247"><path fill="#fff" d="M0 0h52v52H0z"/></clipPath></defs></svg>