<svg width="48" height="60" xmlns="http://www.w3.org/2000/svg"><g fill="none"><path d="M47.04 55.116h-1.498V33.44a.964.964 0 00-.96-.968h-4.988c-.53 0-.96.433-.96.968v21.675h-2.353V42.13a.964.964 0 00-.96-.967h-4.987c-.53 0-.96.433-.96.967v12.985H27.02v-15.08a.964.964 0 00-.96-.968h-4.987c-.53 0-.96.434-.96.968v15.08H17.76V46.26a.964.964 0 00-.96-.968h-4.988c-.53 0-.96.433-.96.968v8.855H9.636V36.739c.242.017.486.026.732.026 5.717 0 10.368-4.688 10.368-10.452 0-5.763-4.651-10.452-10.368-10.452C4.65 15.861 0 20.551 0 26.313c0 3.696 1.912 6.949 4.791 8.808v23.911c0 .535.43.968.96.968H47.04c.53 0 .96-.433.96-.968v-2.948a.964.964 0 00-.96-.968zm-6.486-20.708h3.068v20.708h-3.068V34.408zm-9.26 8.691h3.067v12.017h-3.067V43.099zm-9.261-2.095H25.1v14.112h-3.067V41.004zm-9.26 6.225h3.067v7.887h-3.068v-7.887zM1.92 26.313c0-4.696 3.79-8.516 8.448-8.516s8.448 3.82 8.448 8.516-3.79 8.517-8.448 8.517-8.448-3.82-8.448-8.517zm44.16 31.752H6.711V36.093c.328.125.663.234 1.005.325v19.666c0 .534.43.967.96.967H46.08v1.014zM18.127 26.313c0-4.312-3.48-7.821-7.759-7.821-4.278 0-7.758 3.509-7.758 7.821 0 4.313 3.48 7.822 7.758 7.822 4.278 0 7.759-3.509 7.759-7.822zm-13.598 0c0-3.245 2.62-5.886 5.84-5.886 3.218 0 5.838 2.64 5.838 5.886s-2.62 5.886-5.839 5.886c-3.22 0-5.839-2.64-5.839-5.886zm20.38-1.235v1.31c0 .929.546 1.729 1.331 2.096v.59c0 .941.563 1.752 1.366 2.111v.574a2.304 2.304 0 002.292 2.31h1.728a2.304 2.304 0 002.292-2.31v-.574a2.313 2.313 0 001.366-2.111v-.59a2.312 2.312 0 001.331-2.095v-1.31c.2-3.37 1.03-4.8 1.83-6.18.724-1.247 1.472-2.535 1.472-4.93 0-5.09-4.107-9.23-9.155-9.23-5.048 0-9.155 4.14-9.155 9.23 0 2.395.748 3.683 1.471 4.93.802 1.38 1.63 2.809 1.83 6.179zm3.478-10.097h-.945a.95.95 0 01-.944-.952.95.95 0 01.944-.952.95.95 0 01.945.952v.952zm2.83 9.097h-.91v-7.161h.91v7.161zm3.478 1.936v.375c0 .203-.17.374-.371.374H27.2a.378.378 0 01-.372-.374v-.375h7.867zm-1.703 3.435h-4.46a.378.378 0 01-.372-.375v-.375h5.203v.375c0 .203-.17.375-.371.375zm-1.366 2.685h-1.728a.378.378 0 01-.372-.375v-.375h2.472v.375c0 .203-.17.375-.372.375zm-.864-25.46c3.99 0 7.235 3.272 7.235 7.294 0 1.87-.533 2.79-1.209 3.953-.763 1.315-1.697 2.925-2.02 6.157h-1.631v-7.161h.944c1.58 0 2.865-1.296 2.865-2.888 0-1.592-1.285-2.888-2.865-2.888-1.58 0-2.864 1.296-2.864 2.888v.952h-.91v-.952c0-1.592-1.285-2.888-2.865-2.888-1.58 0-2.864 1.296-2.864 2.888 0 1.592 1.285 2.888 2.864 2.888h.945v7.161h-1.632c-.322-3.232-1.257-4.842-2.02-6.157-.675-1.163-1.209-2.082-1.209-3.953 0-4.022 3.246-7.294 7.236-7.294zm2.375 8.307v-.952a.95.95 0 01.945-.952.95.95 0 01.944.952.95.95 0 01-.944.952h-.945zM29.802 2.914V.968c0-.535.43-.968.96-.968s.96.433.96.968v1.946c0 .534-.43.967-.96.967a.964.964 0 01-.96-.967zm-7.018.468a.972.972 0 01.351-1.322.956.956 0 011.312.354l.965 1.686a.972.972 0 01-.351 1.322.958.958 0 01-1.311-.354l-.966-1.686zm-5.231 4.306a.956.956 0 011.311-.354l1.672.973a.972.972 0 01.351 1.322.958.958 0 01-1.311.354l-1.672-.973a.972.972 0 01-.351-1.322zM36.112 4.1l.965-1.686a.956.956 0 011.311-.354c.46.267.616.86.351 1.322l-.965 1.685a.958.958 0 01-1.311.355.972.972 0 01-.351-1.322zm4.524 5.529a.972.972 0 01.352-1.322l1.672-.973a.956.956 0 011.31.354.972.972 0 01-.35 1.322l-1.672.973a.958.958 0 01-1.311-.354z" fill="#fff"/><path d="M10.368 31.618a.964.964 0 01-.96-.968v-.128c-1.075-.293-1.89-1.072-2.152-2.13a.96.96 0 111.863-.468c.149.602.8.802 1.315.79.452-.011.894-.166 1.074-.376.06-.069.095-.147.076-.304-.02-.172-.07-.576-1.365-.79-2.319-.384-2.727-1.729-2.764-2.496-.059-1.219.718-2.248 1.953-2.625v-.147c0-.534.43-.967.96-.967s.96.433.96.967v.138a2.947 2.947 0 011.927 1.743.97.97 0 01-.514 1.267.957.957 0 01-1.256-.518c-.295-.707-1.031-.746-1.42-.657-.169.038-.717.203-.692.705.005.122.023.492 1.157.68 1.803.298 2.799 1.128 2.96 2.467.082.68-.101 1.304-.53 1.803-.384.448-.964.775-1.632.935v.111c0 .535-.43.968-.96.968zm30.43-1.301l.03-.268-7.319 7.44a.955.955 0 01-.977.24l-8.777-2.868-8.86 6.954a.956.956 0 01-1.347-.169.973.973 0 01.168-1.358l9.26-7.269a.954.954 0 01.886-.157l8.7 2.842 6.999-7.116-.404.036a.962.962 0 01-1.04-.88.965.965 0 01.873-1.049l3.014-.266a.968.968 0 011.038 1.071l-.336 3.032a.963.963 0 01-1.06.855.966.966 0 01-.848-1.07z" fill="#3CC065"/></g></svg>