<svg xmlns="http://www.w3.org/2000/svg" width="34" height="33"><g fill="none"><path d="M33.444 9.126V8.125c0-.724-.055-1.447-.167-2.17a6.858 6.858 0 00-.669-2.06c-.334-.667-.78-1.224-1.282-1.78a6.934 6.934 0 00-1.784-1.28A6.886 6.886 0 0027.48.167 14.3 14.3 0 0025.306 0H8.026a7.58 7.58 0 00-1.617.167C5.85.278 5.349.39 4.848.612c-.167.056-.334.167-.502.223-.501.222-.947.556-1.338.89-.111.111-.278.223-.39.39a6.923 6.923 0 00-1.282 1.78 6.858 6.858 0 00-.669 2.06A14.23 14.23 0 00.5 8.124v16.75c0 .724.056 1.447.167 2.17.112.724.335 1.392.67 2.06.334.667.78 1.224 1.281 1.78.523.519 1.125.95 1.784 1.28a6.886 6.886 0 002.063.668A14.3 14.3 0 008.639 33H25.36a14.3 14.3 0 002.174-.167 6.886 6.886 0 002.063-.668c.669-.334 1.226-.779 1.784-1.28a6.923 6.923 0 001.282-1.78 6.858 6.858 0 00.669-2.06 14.23 14.23 0 00.167-2.17V10.351c-.056-.445-.056-.835-.056-1.225z" fill="#F05138"/><path d="M26.416 20.426c.055-.11.055-.274.111-.383C27.921 14.683 24.52 8.337 18.889 5c2.509 3.282 3.568 7.33 2.62 10.831-.111.328-.167.602-.334.93-.112-.055-.28-.164-.502-.274 0 0-5.632-3.446-11.765-9.463-.167-.164 3.29 4.814 7.137 8.807-1.84-.985-6.914-4.65-10.148-7.549.39.657.893 1.258 1.394 1.86 2.677 3.337 6.19 7.494 10.427 10.667-2.955 1.75-7.137 1.914-11.319 0-1.003-.492-2.007-1.04-2.899-1.696a17.278 17.278 0 007.806 6.564c3.958 1.641 7.861 1.532 10.76.055h.056c.112-.055.223-.11.335-.219 1.394-.71 4.182-1.422 5.687 1.422.334.602 1.115-3.118-1.728-6.509z" fill="#FFF"/></g></svg>