<svg width="48" height="48" fill="none" xmlns="http://www.w3.org/2000/svg"><g clip-path="url(#clip0_2_3507)"><path d="M44.627 0H3.374A3.361 3.361 0 00.017 3.357v32.238a3.361 3.361 0 003.357 3.357h14.881v7.641h-2.714a.703.703 0 100 1.407H32.46a.703.703 0 100-1.407h-2.714V44.18a.703.703 0 10-1.407 0v2.414h-8.677v-7.641h8.677v1.924a.703.703 0 101.407 0v-1.924h14.881a3.361 3.361 0 003.357-3.357V3.357A3.361 3.361 0 0044.627 0zM1.423 3.357c0-1.075.875-1.95 1.95-1.95h41.254c1.075 0 1.95.875 1.95 1.95V32.16H1.423V3.357z" fill="#fff"/><path d="M22.596 35.3h2.808a.703.703 0 100-1.407h-2.808a.703.703 0 100 1.407zm-3.151-16.336v-6.28a.703.703 0 10-1.407 0v6.28a.703.703 0 101.407 0zm-8.41-6.984a.703.703 0 00-.703.703v4.322c0 .931.428 1.658 1.31 2.22.855.547 1.98.588 2.89.13 1.299-.654 1.571-1.641 1.571-2.355v-4.317a.703.703 0 10-1.407 0V17c0 .325-.09.743-.796 1.098-.452.228-1.073.215-1.5-.058-.47-.3-.661-.6-.661-1.035v-4.322a.703.703 0 00-.704-.703z" fill="#fff"/><path d="M33.112 4.583a11.234 11.234 0 00-9.109 4.661A11.313 11.313 0 0020.5 6.082a11.239 11.239 0 00-5.612-1.5c-2.347 0-4.596.717-6.503 2.072a.703.703 0 00.814 1.147 9.768 9.768 0 015.69-1.811 9.764 9.764 0 018.3 4.557 11.173 11.173 0 00-1.318 5.277c0 1.906.477 3.702 1.318 5.276a9.783 9.783 0 01-8.3 4.558c-5.423 0-9.835-4.412-9.835-9.834a9.75 9.75 0 011.972-5.909.703.703 0 10-1.124-.846 11.145 11.145 0 00-2.255 6.755c0 6.198 5.043 11.24 11.241 11.24 3.65 0 7.003-1.727 9.116-4.66a11.234 11.234 0 009.108 4.66c6.198 0 11.241-5.042 11.241-11.24 0-6.199-5.042-11.241-11.24-11.241zm0 21.075c-5.422 0-9.834-4.412-9.834-9.834 0-5.423 4.412-9.835 9.834-9.835 5.423 0 9.834 4.412 9.834 9.835 0 5.422-4.411 9.834-9.834 9.834z" fill="#fff"/><circle cx="33.6" cy="15.68" r="11.84" fill="#7FEBA1"/><path d="M37.496 15.6l1.77-2.512a.703.703 0 00-1.15-.81l-1.48 2.1-1.478-2.1a.703.703 0 10-1.15.81l1.767 2.512-2.084 2.96a.703.703 0 101.15.81l1.794-2.548 1.791 2.547c.219.31.67.389.98.17a.703.703 0 00.17-.98l-2.08-2.958zm-5.914-3.62a.703.703 0 00-.703.703V17c0 .325-.09.743-.797 1.099a1.578 1.578 0 01-.717.162h-.003c-.293 0-.548-.073-.78-.22-.47-.3-.66-.6-.66-1.036v-4.322a.703.703 0 10-1.407 0v4.322c0 .931.428 1.657 1.31 2.22.84.538 1.999.579 2.89.13 1.299-.654 1.571-1.641 1.571-2.355v-4.317a.704.704 0 00-.704-.704z" fill="#333"/></g><defs><clipPath id="clip0_2_3507"><path fill="#fff" d="M0 0h48v48H0z"/></clipPath></defs></svg>