<svg xmlns="http://www.w3.org/2000/svg" id="webdesign" viewBox="0 0 48 48">
  <path d="M18.85 39H4c-.551 0-1-.448-1-1V14h40v1.28c0 .552.448 1 1 1s1-.448 1-1v-7.28c0-1.654-1.346-3-3-3H4c-1.654 0-3 1.346-3 3v30c0 1.654 1.346 3 3 3h14.85c.552 0 1-.447 1-1s-.448-1-1-1ZM4 7h38c.551 0 1 .449 1 1v4H3v-4c0-.551.449-1 1-1ZM44 28.54c-.552 0-1 .447-1 1v8.46c0 .552-.449 1-1 1h-8.18c-.552 0-1 .447-1 1s.448 1 1 1h8.18c1.654 0 3-1.346 3-3v-8.46c0-.553-.448-1-1-1Z" fill="#ffffff" class="color000000 svgShape"></path>
  <circle cx="5.5" cy="9.5" r="1" fill="#ffffff" class="color000000 svgShape"></circle>
  <circle cx="9" cy="9.5" r="1" fill="#ffffff" class="color000000 svgShape"></circle>
  <circle cx="12.5" cy="9.5" r="1" fill="#ffffff" class="color000000 svgShape"></circle>
  <path d="M30.5 10.5h9c.552 0 1-.448 1-1s-.448-1-1-1h-9c-.552 0-1 .448-1 1s.448 1 1 1ZM7 31h19.25c.552 0 1-.447 1-1s-.448-1-1-1H7c-.552 0-1 .447-1 1s.448 1 1 1ZM22.31 35c0-.553-.448-1-1-1H7c-.552 0-1 .447-1 1s.448 1 1 1h14.31c.552 0 1-.447 1-1ZM8 26h6c1.103 0 2-.897 2-2v-5c0-1.103-.897-2-2-2h-6c-1.103 0-2 .897-2 2v5c0 1.103.897 2 2 2ZM8 19h6v5s-6 0-6 0v-5ZM28 24v-5c0-1.103-.897-2-2-2h-6c-1.103 0-2 .897-2 2v5c0 1.103.897 2 2 2h6c1.103 0 2-.897 2-2ZM20 24v-5h6v5s-6 0-6 0ZM38.023 19.025c.333.439.961.526 1.401.191s.525-.961.191-1.401c-.388-.51-.992-.815-1.616-.815h-6c-1.103 0-2 .897-2 2v5c0 .873.562 1.638 1.397 1.903.101.032.203.047.304.047.423 0 .815-.271.951-.695.167-.527-.125-1.087-.652-1.255v-5l6.023.025ZM46.247 19.013h0c-.974-.975-2.532-1.009-3.549-.077l-14.021 12.854c-.689.632-1.08 1.494-1.1 2.428-.003.153.019.301.035.45-.042-.005-.081-.02-.123-.024-1.072-.081-2.126.308-2.901 1.081-1.049 1.049-1.287 1.847-1.518 2.619-.191.641-.389 1.303-1.202 2.356-.336.435-.4 1.008-.167 1.497.229.48.705.786 1.24.799.12.002.238.004.355.004 2.633 0 4.527-.683 6.104-2.19.899-.859 1.303-2.047 1.184-3.162.127.014.253.037.383.037.025 0 .051 0 .076 0 .934-.02 1.797-.411 2.428-1.1l12.854-14.022c.931-1.016.896-2.575-.077-3.549ZM28.018 39.364c-1.033.987-2.239 1.492-3.912 1.608.52-.854.714-1.506.879-2.057.195-.653.324-1.086 1.016-1.777.327-.326.756-.507 1.194-.507.043 0 .086.002.13.005.429.035.801.246 1.05.592.428.598.271 1.535-.356 2.136ZM44.849 21.21l-12.854 14.022c-.259.283-.613.443-.997.452-.411-.007-.745-.138-1.016-.408-.271-.271-.417-.632-.408-1.016.008-.384.168-.738.452-.997l14.021-12.854c.109-.1.246-.15.383-.15.145 0 .29.056.4.167h0c.215.215.223.56.017.784Z" fill="#ffffff" class="color000000 svgShape"></path>
</svg>
