<svg width="56" height="56" fill="none" xmlns="http://www.w3.org/2000/svg"><mask id="a" style="mask-type:luminance" maskUnits="userSpaceOnUse" x="0" y="0" width="56" height="56"><path d="M0 0h56v56H0V0z" fill="#fff"/></mask><g mask="url(#a)"><path d="M55.171 3.138V8.21H.829V3.14c0-.725.587-1.313 1.313-1.313h51.717c.725 0 1.312.588 1.312 1.312z" fill="#fff"/><path d="M49.374 26.535H30.202a.875.875 0 00-.875.875v23.758c0 .483.392.875.875.875h4.637a.438.438 0 00.437-.438v-2.1c0-.24.196-.437.438-.437h8.149c.242 0 .437.196.437.438v2.1c0 .241.196.437.438.437h4.636a.875.875 0 00.875-.875V27.41a.875.875 0 00-.875-.875z" fill="#7FEBA1"/><path d="M21.75 26.534H8.162a.435.435 0 01-.337-.157 9.163 9.163 0 01-2.074-5.821 9.186 9.186 0 019.064-9.204 9.205 9.205 0 019.346 9.204 9.164 9.164 0 01-2.074 5.82.436.436 0 01-.337.158z" stroke="#fff" stroke-width="1.5" stroke-miterlimit="10" stroke-linecap="round" stroke-linejoin="round"/><path d="M15.713 20.33a3.782 3.782 0 011.922 1.035 3.776 3.776 0 011.109 2.678v2.492m-7.576 0v-2.492a3.79 3.79 0 013.03-3.713m2.895-2.784a2.546 2.546 0 11-5.093 0 2.546 2.546 0 015.093 0z" stroke="#fff" stroke-width="1.5" stroke-miterlimit="10" stroke-linecap="round" stroke-linejoin="round"/><path d="M.83 10.925V3.14c0-.725.586-1.313 1.312-1.313h51.717c.725 0 1.312.588 1.312 1.313v39.14c0 .725-.587 1.312-1.313 1.312H52M.83 14.754v27.525a1.31 1.31 0 001.312 1.312H6.12M55.171 8.209H.829m49.269-3.191h.37m-3.476 0h.371m-3.475 0h.37M21.452 34.695H8.46a.438.438 0 01-.438-.437v-3.62c0-.24.196-.437.438-.437h12.992c.241 0 .437.196.437.438v3.619a.437.437 0 01-.437.437z" stroke="#fff" stroke-width="1.5" stroke-miterlimit="10" stroke-linecap="round" stroke-linejoin="round"/><path d="M34.249 34.017V30.74c0-.241.196-.437.438-.437H44.89c.242 0 .438.196.438.438v3.276a.437.437 0 01-.438.438H34.687a.437.437 0 01-.438-.438zM14.077 45.313l7.41-5.556a.22.22 0 01.302.038c2.396 3.029 2.863 7.052 1.184 10.334a9.099 9.099 0 01-1.493 2.11.218.218 0 01-.307.009l-7.114-6.6a.219.219 0 01.018-.335z" stroke="#fff" stroke-width="1.5" stroke-miterlimit="10" stroke-linecap="round" stroke-linejoin="round"/><path d="M20.14 51.29a8.164 8.164 0 01-13.904-8.048 8.162 8.162 0 0113.923-2.49m14.09-2.405h1.56m2.995 0h6.523m-11.078 3.5h1.56m2.995 0h6.523m-11.078 3.5h1.56m2.995 0h6.523M31.153 11.351v11.14c0 .12.098.218.22.218h15.62M36.217 14.29l-5.064 3.687m14.783-3.244l-3.127 2.45m-2.189-.231l-2.196-2.434m.509-1.128a1.508 1.508 0 11-3.015 0 1.508 1.508 0 013.015 0z" stroke="#fff" stroke-width="1.5" stroke-miterlimit="10" stroke-linecap="round" stroke-linejoin="round"/><path d="M43.113 18.09a1.508 1.508 0 11-3.015 0 1.508 1.508 0 013.015 0zm5.484-4.326a1.508 1.508 0 11-3.015 0 1.508 1.508 0 013.015 0z" stroke="#fff" stroke-width="1.5" stroke-miterlimit="10" stroke-linecap="round" stroke-linejoin="round"/></g></svg>