<svg width="49" height="48" fill="none" xmlns="http://www.w3.org/2000/svg"><g clip-path="url(#clip0_2_3616)"><path fill-rule="evenodd" clip-rule="evenodd" d="M2.86 47.063h42.374a1.88 1.88 0 001.875-1.876v-3.28H29.672l-.938 1.406H19.36l-.937-1.407H.984v3.282a1.88 1.88 0 001.875 1.874z" fill="#080808" stroke="#fff" stroke-width="1.5" stroke-miterlimit="22.926" stroke-linecap="round" stroke-linejoin="round"/><path d="M45.234 41.438v-30a1.88 1.88 0 00-1.875-1.875h-5.718m-27.188 0H4.734a1.88 1.88 0 00-1.875 1.875v30m.586-3.75H44.65" stroke="#fff" stroke-width="1.5" stroke-miterlimit="22.926" stroke-linecap="round" stroke-linejoin="round"/><path fill-rule="evenodd" clip-rule="evenodd" d="M37.172 16.125V.937h-26.25v12.845" fill="#fff"/><path d="M37.172 16.125V.937h-26.25v12.845M15.14 5.25h17.813m-8.906 4.313h8.906" stroke="#fff" stroke-width="1.5" stroke-miterlimit="22.926" stroke-linecap="round" stroke-linejoin="round"/><path fill-rule="evenodd" clip-rule="evenodd" d="M19.085 14.16H38V31H10V12h6.964l2.12 2.16z" fill="#7FEBA1"/><path d="M25.13 21l-2.435 4.219m-3.585 0L17 23.109 19.11 21m9.609 4.219l2.11-2.11L28.718 21" stroke="#121E37" stroke-width="1.5" stroke-miterlimit="22.926" stroke-linecap="round" stroke-linejoin="round"/></g><defs><clipPath id="clip0_2_3616"><path fill="#fff" transform="translate(.047)" d="M0 0h48v48H0z"/></clipPath></defs></svg>