<svg width="44" height="44" xmlns="http://www.w3.org/2000/svg"><g fill="#464342"><path d="M3.095 21.77c0 7.394 4.296 13.782 10.526 16.81L4.712 14.17a18.606 18.606 0 00-1.617 7.6zm31.285-.942c0-2.308-.83-3.906-1.54-5.15-.947-1.539-1.835-2.842-1.835-4.38 0-1.717 1.303-3.315 3.137-3.315.083 0 .161.01.242.015a18.61 18.61 0 00-12.612-4.903c-6.525 0-12.266 3.347-15.605 8.418.438.013.851.022 1.202.022 1.953 0 4.977-.237 4.977-.237 1.007-.06 1.126 1.42.12 1.538 0 0-1.012.12-2.137.179l6.8 20.23 4.088-12.258-2.91-7.973c-1.006-.059-1.959-.178-1.959-.178-1.006-.059-.888-1.598.118-1.538 0 0 3.085.237 4.92.237 1.953 0 4.977-.237 4.977-.237 1.008-.06 1.126 1.42.12 1.538 0 0-1.014.12-2.138.178l6.75 20.077 1.863-6.225c.807-2.583 1.422-4.439 1.422-6.038z"/><path d="M22.1 23.405l-5.605 16.283a18.666 18.666 0 0011.478-.298 1.64 1.64 0 01-.133-.257L22.1 23.405zM38.16 12.81c.08.595.126 1.234.126 1.92 0 1.896-.354 4.026-1.42 6.69L31.16 37.915c5.553-3.238 9.288-9.254 9.288-16.144a18.576 18.576 0 00-2.288-8.96z"/><path d="M21.772 0C9.767 0 0 9.766 0 21.77c0 12.007 9.767 21.773 21.772 21.773 12.004 0 21.772-9.766 21.772-21.772C43.544 9.766 33.776 0 21.772 0zm0 42.545C10.318 42.545.998 33.225.998 21.77S10.318.999 21.772.999c11.453 0 20.771 9.318 20.771 20.772 0 11.455-9.318 20.774-20.771 20.774z"/></g></svg>