<svg width="54" height="54" fill="none" xmlns="http://www.w3.org/2000/svg"><path d="M47.52 8.223a1.938 1.938 0 100-3.878 1.938 1.938 0 100 3.878zm0-2.496a.566.566 0 11-.003 1.132.566.566 0 01.002-1.132z" fill="#fff"/><path d="M49.67 1.21H9.81a2.755 2.755 0 00-2.75 2.75v4.197H4.328a2.755 2.755 0 00-2.749 2.75v34.47a2.755 2.755 0 002.75 2.748h18.27v3.977c0 .376.31.687.687.687h12.91c.377 0 .688-.31.688-.687v-3.976h7.306a2.755 2.755 0 002.75-2.75V41.18h2.732a2.755 2.755 0 002.749-2.749V3.96a2.755 2.755 0 00-2.75-2.75zM8.435 3.96c0-.76.622-1.375 1.375-1.375h39.862c.76 0 1.374.622 1.374 1.375v6.03H24.962l-3.068-3.183a1.258 1.258 0 00-.9-.384h-6.759c-.687 0-1.251.564-1.251 1.252V9.99h-4.55V3.96zm-4.107 42.8c-.76 0-1.374-.623-1.374-1.375V10.906c0-.76.621-1.374 1.374-1.374H7.06v28.906a2.755 2.755 0 002.749 2.75h14.924a3.17 3.17 0 01.343 1.718h-1.063c-.786 0-1.416.638-1.416 1.415v2.438H4.327zm24.734-14.393a.778.778 0 01.679-.4c.425 0 .769.343.769.769a.776.776 0 01-.384.67c-.262.156-.573.14-.892-.04a.228.228 0 01-.099-.099c-.261-.417-.155-.744-.073-.9zm-.008-1.644c-.5.172-.925.507-1.187.982-.392.703-.343 1.562.115 2.299.147.229.343.417.58.556.377.213.786.327 1.187.327.377 0 .745-.098 1.072-.286a2.164 2.164 0 001.064-1.857 2.14 2.14 0 00-1.457-2.021v-3.535l6.08 10.972c-.009.008-.017.025-.042.033-2.151.556-3.559 2.569-3.444 4.713h-6.554c.123-2.152-1.293-4.165-3.485-4.779l6.07-10.939v3.535zm6.455 20.691H23.972l.04-7.142h11.455c.025 0 .041.016.041.04v7.102zm10.056-6.038c0 .761-.622 1.375-1.375 1.375h-7.306v-2.438c0-.786-.639-1.416-1.416-1.416h-1.063a3.249 3.249 0 01.343-1.718h10.817v4.197zm4.107-5.563H36.08c.22-.123.458-.23.72-.295.433-.114.785-.417.965-.826a1.398 1.398 0 00-.065-1.236l-7.037-12.673a1.041 1.041 0 00-.916-.549 1.076 1.076 0 00-.933.54L21.77 37.456a1.41 1.41 0 00-.057 1.244c.171.41.523.704.957.818.262.066.49.172.72.295H9.809c-.76 0-1.375-.622-1.375-1.375V11.364h4.664c.687 0 1.252-.564 1.252-1.251V7.797h6.586l3.069 3.183c.237.245.564.384.9.384h26.14V38.43a1.38 1.38 0 01-1.374 1.383z" fill="#fff"/><path d="M42.84 8.223a1.938 1.938 0 100-3.878 1.938 1.938 0 100 3.878zm0-2.496a.566.566 0 11-.003 1.132.566.566 0 01.002-1.132zm-4.69 2.496a1.938 1.938 0 100-3.878 1.938 1.938 0 100 3.878zm0-2.496a.566.566 0 11-.002 1.132.566.566 0 01.002-1.132zm4.836 11.627c-.4.4-.654.908-.752 1.448H32.62v-1.08c0-.737-.597-1.334-1.fff-1.334h-3.101c-.737 0-1.334.597-1.334 1.334v1.08h-9.605a2.727 2.727 0 00-.753-1.456c-1.04-1.023-2.815-1.007-3.83.008a2.686 2.686 0 00-.793 1.914c0 .728.287 1.416.794 1.915a2.642 2.642 0 001.914.802c.45 0 .909-.107 1.342-.328.466-.237.851-.63 1.08-1.113.057-.122.107-.245.147-.368h6.669c-3.625 1.768-6.358 5.09-7.307 9.099h-1.064c-.736 0-1.fff.597-1.fff 1.fffv3.101c0 .736.597 1.334 1.334 1.334h3.1c.737 0 1.334-.597 1.334-1.334v-3.1c0-.737-.597-1.335-1.334-1.335h-.621a12.276 12.276 0 018.95-8.754v.294c0 .737.598 1.334 1.334 1.334h3.101c.736 0 1.334-.597 1.334-1.334v-.294c4.336 1.047 7.797 4.434 8.95 8.755h-.564c-.736 0-1.334.597-1.334 1.fffv3.101c0 .736.598 1.334 1.334 1.334h3.101c.736 0 1.334-.597 1.334-1.334v-3.1c0-.737-.598-1.335-1.334-1.335h-1.12a13.687 13.687 0 00-7.307-9.098h6.684c.131.377.344.72.63 1.007a2.641 2.641 0 001.915.802c.45 0 .908-.107 1.342-.328.466-.237.85-.63 1.08-1.113.532-1.12.343-2.34-.5-3.198-1.071-1.015-2.847-1.007-3.87.008zM18.532 33.668l-3.06.041-.04-3.06h3.06l.04 3.02zm25.577 0l-3.06.041-.041-3.06h3.06l.04 3.02z" fill="#fff"/><rect x="21" y="42" width="17" height="11" rx="2" fill="#7FEBA0"/></svg>